<svg width="136" height="120" viewBox="0 0 136 120" fill="none" xmlns="http://www.w3.org/2000/svg">
<g filter="url(#filter0_d_3383_6269)">
<rect x="4" width="128" height="112" rx="15" fill="#354764"/>
</g>
<path d="M59.2627 87.5576L56.4258 96H54.4365L58.1553 86.0469H59.4268L59.2627 87.5576ZM61.6348 96L58.7842 87.5576L58.6133 86.0469H59.8916L63.6309 96H61.6348ZM61.5049 92.3018V93.7852H56.166V92.3018H61.5049ZM70.3574 92.7256H72.2373C72.1872 93.391 72.0026 93.9811 71.6836 94.4961C71.3646 95.0065 70.9202 95.4076 70.3506 95.6992C69.7809 95.9909 69.0905 96.1367 68.2793 96.1367C67.6549 96.1367 67.0921 96.0273 66.5908 95.8086C66.0941 95.5853 65.668 95.2686 65.3125 94.8584C64.9616 94.4437 64.6927 93.9469 64.5059 93.3682C64.319 92.7848 64.2256 92.1309 64.2256 91.4062V90.6475C64.2256 89.9229 64.3213 89.2689 64.5127 88.6855C64.7041 88.1022 64.9775 87.6055 65.333 87.1953C65.693 86.7806 66.1237 86.4616 66.625 86.2383C67.1309 86.015 67.696 85.9033 68.3203 85.9033C69.1315 85.9033 69.8174 86.0537 70.3779 86.3545C70.9385 86.6507 71.3737 87.0586 71.6836 87.5781C71.9935 88.0977 72.1803 88.6947 72.2441 89.3691H70.3643C70.3278 88.9499 70.2367 88.5944 70.0908 88.3027C69.9495 88.0111 69.7354 87.79 69.4482 87.6396C69.1657 87.4847 68.7897 87.4072 68.3203 87.4072C67.9557 87.4072 67.6344 87.4756 67.3564 87.6123C67.083 87.749 66.8551 87.9541 66.6729 88.2275C66.4906 88.4964 66.3538 88.8337 66.2627 89.2393C66.1715 89.6403 66.126 90.1051 66.126 90.6338V91.4062C66.126 91.9121 66.167 92.3656 66.249 92.7666C66.3311 93.1676 66.4587 93.5072 66.6318 93.7852C66.805 94.0632 67.0283 94.2751 67.3018 94.4209C67.5752 94.5667 67.901 94.6396 68.2793 94.6396C68.7396 94.6396 69.1133 94.5667 69.4004 94.4209C69.6921 94.2751 69.9131 94.0609 70.0635 93.7783C70.2184 93.4958 70.3164 93.1449 70.3574 92.7256ZM80.29 94.5234V96H74.999V94.5234H80.29ZM75.5732 86.0469V96H73.6934V86.0469H75.5732ZM79.5996 90.1553V91.5977H74.999V90.1553H79.5996ZM80.2695 86.0469V87.5303H74.999V86.0469H80.2695Z" fill="white"/>
<g clip-path="url(#clip0_3383_6269)">
<path d="M75.7228 43.3117L74.801 49.3782C74.7631 49.6298 74.7922 49.8871 74.8855 50.1239C74.9787 50.3607 75.1328 50.5688 75.3321 50.7271L76.75 51.8506C77.0042 52.0478 77.3162 52.1559 77.6379 52.1585C77.9596 52.1611 78.2733 52.0579 78.5307 51.8649L79.9325 50.7907C80.1375 50.6336 80.2967 50.4245 80.3935 50.1851C80.4903 49.9456 80.5211 49.6846 80.4828 49.4292L79.5607 43.3114C79.102 43.446 78.6303 43.5315 78.1535 43.5664L79.0635 49.6564L77.6371 50.731L76.2135 49.5931L77.1292 43.5664C76.6527 43.5315 76.1813 43.4462 75.7228 43.3117ZM77.6417 42.1635C78.7013 42.1635 79.737 41.8493 80.618 41.2607C81.499 40.672 82.1856 39.8353 82.5911 38.8565C82.9966 37.8776 83.1027 36.8004 82.8959 35.7612C82.6892 34.7221 82.179 33.7675 81.4298 33.0183C80.6806 32.2691 79.726 31.7589 78.6869 31.5522C77.6477 31.3455 76.5705 31.4515 75.5917 31.857C74.6128 32.2625 73.7761 32.9491 73.1874 33.8301C72.5988 34.7111 72.2846 35.7468 72.2846 36.8064C72.2862 38.2267 72.8511 39.5884 73.8554 40.5927C74.8598 41.597 76.2214 42.1619 77.6417 42.1635ZM77.6417 32.8778C78.4187 32.8778 79.1783 33.1082 79.8243 33.5399C80.4704 33.9716 80.9739 34.5851 81.2713 35.303C81.5686 36.0208 81.6464 36.8107 81.4948 37.5728C81.3432 38.3349 80.9691 39.0349 80.4197 39.5843C79.8702 40.1337 79.1702 40.5079 78.4082 40.6594C77.6461 40.811 76.8562 40.7332 76.1383 40.4359C75.4205 40.1385 74.8069 39.635 74.3753 38.989C73.9436 38.3429 73.7132 37.5834 73.7132 36.8064C73.7143 35.7648 74.1286 34.7662 74.8651 34.0297C75.6016 33.2932 76.6002 32.8789 77.6417 32.8778ZM55.1417 54.3064C55.8481 54.3064 56.5386 54.0969 57.1259 53.7045C57.7132 53.312 58.171 52.7543 58.4413 52.1017C58.7116 51.4491 58.7824 50.731 58.6445 50.0382C58.5067 49.3454 58.1666 48.709 57.6671 48.2096C57.1676 47.7101 56.5313 47.3699 55.8385 47.2321C55.1457 47.0943 54.4276 47.1651 53.775 47.4354C53.1224 47.7057 52.5646 48.1634 52.1722 48.7508C51.7798 49.3381 51.5703 50.0286 51.5703 50.7349C51.5714 51.6818 51.948 52.5896 52.6175 53.2592C53.2871 53.9287 54.1949 54.3053 55.1417 54.3064ZM55.1417 48.5921C55.5656 48.5921 55.9799 48.7178 56.3322 48.9532C56.6846 49.1887 56.9593 49.5233 57.1215 49.9149C57.2837 50.3065 57.3261 50.7373 57.2434 51.153C57.1607 51.5687 56.9567 51.9505 56.657 52.2502C56.3573 52.5498 55.9755 52.7539 55.5598 52.8366C55.1441 52.9193 54.7133 52.8769 54.3217 52.7147C53.9301 52.5525 53.5955 52.2778 53.36 51.9254C53.1246 51.5731 52.9989 51.1588 52.9989 50.7349C52.9995 50.1668 53.2255 49.6222 53.6272 49.2204C54.029 48.8187 54.5736 48.5927 55.1417 48.5921Z" fill="white"/>
<path d="M55.1784 45.2632C55.0045 45.188 54.8677 45.0468 54.798 44.8707C54.7282 44.6945 54.7313 44.4979 54.8065 44.3241C57.086 39.0594 62.2201 35.9383 67.3942 36.4798C67.2711 36.3398 67.2076 36.1573 67.2173 35.9711C67.227 35.7849 67.3091 35.6099 67.446 35.4834C67.583 35.357 67.764 35.2891 67.9503 35.2942C68.1367 35.2994 68.3136 35.3772 68.4434 35.511L69.6869 36.8543C69.7582 36.9314 69.8116 37.0232 69.8433 37.1233C69.875 37.2233 69.8843 37.3292 69.8705 37.4332C69.8555 37.5368 69.8185 37.6361 69.762 37.7242C69.7054 37.8123 69.6306 37.8873 69.5427 37.9441L67.913 38.968C67.7665 39.0608 67.5911 39.097 67.4198 39.0698C67.2485 39.0426 67.093 38.9538 66.9824 38.8202C66.8718 38.6866 66.8138 38.5172 66.8191 38.3438C66.8245 38.1704 66.8928 38.005 67.0114 37.8784C62.5312 37.5195 58.112 40.289 56.1175 44.8913C56.0804 44.9775 56.0266 45.0554 55.9592 45.1208C55.8919 45.1861 55.8123 45.2375 55.7251 45.272C55.6379 45.3066 55.5447 45.3236 55.4509 45.3221C55.3571 45.3206 55.2645 45.3006 55.1784 45.2632Z" fill="white"/>
<path d="M38.7143 77.1629C39.1088 77.1629 39.4286 76.8431 39.4286 76.4487C39.4286 76.0542 39.1088 75.7344 38.7143 75.7344C38.3198 75.7344 38 76.0542 38 76.4487C38 76.8431 38.3198 77.1629 38.7143 77.1629Z" fill="white"/>
<path d="M41.9302 75.7344H40.8588C40.6694 75.7344 40.4877 75.8096 40.3537 75.9436C40.2198 76.0775 40.1445 76.2592 40.1445 76.4487C40.1445 76.6381 40.2198 76.8198 40.3537 76.9537C40.4877 77.0877 40.6694 77.1629 40.8588 77.1629H41.9302C42.1197 77.1629 42.3014 77.0877 42.4353 76.9537C42.5693 76.8198 42.6445 76.6381 42.6445 76.4487C42.6445 76.2592 42.5693 76.0775 42.4353 75.9436C42.3014 75.8096 42.1197 75.7344 41.9302 75.7344ZM95.1445 75.7344H94.0731C93.8837 75.7344 93.702 75.8096 93.568 75.9436C93.4341 76.0775 93.3588 76.2592 93.3588 76.4487C93.3588 76.6381 93.4341 76.8198 93.568 76.9537C93.702 77.0877 93.8837 77.1629 94.0731 77.1629H95.1445C95.334 77.1629 95.5157 77.0877 95.6496 76.9537C95.7836 76.8198 95.8588 76.6381 95.8588 76.4487C95.8588 76.2592 95.7836 76.0775 95.6496 75.9436C95.5157 75.8096 95.334 75.7344 95.1445 75.7344Z" fill="white"/>
<path d="M97.2846 77.1629C97.6791 77.1629 97.9989 76.8431 97.9989 76.4487C97.9989 76.0542 97.6791 75.7344 97.2846 75.7344C96.8901 75.7344 96.5703 76.0542 96.5703 76.4487C96.5703 76.8431 96.8901 77.1629 97.2846 77.1629Z" fill="white"/>
<path d="M91.8271 75.7341H84.6589C84.7411 75.5049 84.7834 75.2633 84.7839 75.0198V62.8769C85.352 62.8762 85.8967 62.6503 86.2984 62.2486C86.7001 61.8468 86.9261 61.3022 86.9268 60.7341V47.8769C86.9246 46.4897 86.4743 45.1403 85.6431 44.0297C84.8118 42.9191 83.644 42.1068 82.3136 41.7137C81.8173 42.1859 81.2526 42.5804 80.6386 42.8841C81.9387 42.9212 83.1733 43.4633 84.0805 44.3954C84.9877 45.3274 85.4962 46.5762 85.4982 47.8769V60.7341C85.498 60.9234 85.4227 61.105 85.2888 61.2389C85.1549 61.3728 84.9733 61.4481 84.7839 61.4483H82.6411V55.7341C82.6411 55.5446 82.5658 55.3629 82.4319 55.229C82.2979 55.095 82.1162 55.0198 81.9268 55.0198C81.7373 55.0198 81.5557 55.095 81.4217 55.229C81.2878 55.3629 81.2125 55.5446 81.2125 55.7341V61.4483H74.0696V55.7341C74.0696 55.5446 73.9944 55.3629 73.8604 55.229C73.7265 55.095 73.5448 55.0198 73.3554 55.0198C73.1659 55.0198 72.9842 55.095 72.8503 55.229C72.7163 55.3629 72.6411 55.5446 72.6411 55.7341V61.4483H70.4982C70.3088 61.4481 70.1273 61.3728 69.9933 61.2389C69.8594 61.105 69.7841 60.9234 69.7839 60.7341V47.8769C69.7859 46.5762 70.2944 45.3274 71.2016 44.3954C72.1088 43.4633 73.3434 42.9212 74.6436 42.8841C74.0295 42.5804 73.4648 42.1859 72.9686 41.7137C71.6382 42.1068 70.4704 42.9191 69.6391 44.0297C68.8078 45.1403 68.3575 46.4897 68.3554 47.8769V60.7341C68.356 61.3022 68.582 61.8468 68.9837 62.2486C69.3854 62.6503 69.9301 62.8762 70.4982 62.8769V75.0198C70.4987 75.2633 70.541 75.5049 70.6232 75.7341H60.065C60.1151 75.5599 60.1407 75.3796 60.1411 75.1983V67.4691C60.447 67.3903 60.7181 67.2123 60.912 66.963C61.1059 66.7137 61.2116 66.407 61.2125 66.0912V58.2341C61.2114 57.3994 60.9668 56.5832 60.5088 55.8854C60.0508 55.1876 59.3993 54.6385 58.6339 54.3055C58.1589 54.7697 57.5964 55.1349 56.9789 55.3798C57.7269 55.394 58.4396 55.7008 58.964 56.2344C59.4884 56.768 59.7828 57.4859 59.7839 58.2341L59.7846 66.0912H58.3554V63.2341C58.3554 63.0446 58.2801 62.8629 58.1461 62.729C58.0122 62.595 57.8305 62.5198 57.6411 62.5198C57.4516 62.5198 57.2699 62.595 57.136 62.729C57.002 62.8629 56.9268 63.0446 56.9268 63.2341V66.0912H53.3554V63.2341C53.3554 63.0446 53.2801 62.8629 53.1461 62.729C53.0122 62.595 52.8305 62.5198 52.6411 62.5198C52.4516 62.5198 52.2699 62.595 52.136 62.729C52.002 62.8629 51.9268 63.0446 51.9268 63.2341V66.0912H50.4982V58.2341C50.4994 57.4859 50.7937 56.768 51.3181 56.2344C51.8425 55.7008 52.5552 55.394 53.3032 55.3798C52.6858 55.1349 52.1232 54.7697 51.6482 54.3055C50.8829 54.6385 50.2313 55.1876 49.7733 55.8854C49.3153 56.5832 49.0708 57.3994 49.0696 58.2341V66.0912C49.0706 66.407 49.1763 66.7137 49.3702 66.963C49.5641 67.2123 49.8352 67.3903 50.1411 67.4691V75.1091C50.1411 75.3212 50.1741 75.5321 50.2389 75.7341H44.1696C44.068 75.7208 43.9647 75.7293 43.8667 75.7592C43.7687 75.789 43.6781 75.8394 43.6011 75.907C43.5241 75.9746 43.4624 76.0578 43.4201 76.1512C43.3778 76.2446 43.356 76.3459 43.356 76.4483C43.356 76.5508 43.3778 76.6521 43.4201 76.7455C43.4624 76.8388 43.5241 76.9221 43.6011 76.9897C43.6781 77.0573 43.7687 77.1077 43.8667 77.1375C43.9647 77.1673 44.068 77.1759 44.1696 77.1626H91.8268C91.9284 77.1759 92.0317 77.1673 92.1297 77.1375C92.2278 77.1077 92.3183 77.0573 92.3953 76.9897C92.4724 76.9221 92.5341 76.8388 92.5763 76.7455C92.6186 76.6521 92.6405 76.5508 92.6405 76.4483C92.6405 76.3459 92.6186 76.2446 92.5763 76.1512C92.5341 76.0578 92.4724 75.9746 92.3953 75.907C92.3183 75.8394 92.2278 75.789 92.1297 75.7592C92.0317 75.7293 91.9288 75.7208 91.8271 75.7341ZM76.2125 62.8769H79.0696V75.0198C79.0701 75.2633 79.1124 75.5049 79.1946 75.7341H76.0875C76.1697 75.5049 76.212 75.2633 76.2125 75.0198V62.8769ZM54.4268 67.5198H55.8554V75.1983C55.8558 75.3796 55.8814 75.5599 55.9314 75.7341H54.3289C54.3938 75.5321 54.4268 75.3212 54.4268 75.1091V67.5198ZM52.1946 75.7341C52.0289 75.7339 51.8701 75.668 51.7529 75.5508C51.6357 75.4336 51.5698 75.2748 51.5696 75.1091V67.5198H52.9982V75.1091C52.998 75.2748 52.9321 75.4336 52.8149 75.5508C52.6978 75.668 52.5389 75.7339 52.3732 75.7341H52.1946ZM57.8196 75.7341C57.6776 75.7339 57.5415 75.6774 57.441 75.5769C57.3406 75.4765 57.2841 75.3404 57.2839 75.1983V67.5198H58.7125V75.1983C58.7123 75.3404 58.6558 75.4765 58.5554 75.5769C58.455 75.6774 58.3188 75.7339 58.1768 75.7341H57.8196ZM72.6411 75.7341C72.4517 75.7339 72.2701 75.6586 72.1362 75.5246C72.0023 75.3907 71.927 75.2092 71.9268 75.0198V62.8769H74.7839V75.0198C74.7837 75.2092 74.7084 75.3907 74.5745 75.5246C74.4406 75.6586 74.259 75.7339 74.0696 75.7341H72.6411ZM81.2125 75.7341C81.0231 75.7339 80.8415 75.6586 80.7076 75.5246C80.5737 75.3907 80.4984 75.2092 80.4982 75.0198V62.8769H83.3554V75.0198C83.3552 75.2092 83.2799 75.3907 83.1459 75.5246C83.012 75.6586 82.8305 75.7339 82.6411 75.7341H81.2125ZM87.2543 35.4973C87.4662 35.4973 87.6733 35.4344 87.8495 35.3167C88.0257 35.199 88.1631 35.0316 88.2442 34.8359C88.3253 34.6401 88.3465 34.4246 88.3051 34.2168C88.2638 34.009 88.1617 33.8181 88.0119 33.6682C87.8621 33.5184 87.6712 33.4163 87.4633 33.375C87.2555 33.3337 87.04 33.3549 86.8443 33.436C86.6485 33.5171 86.4812 33.6544 86.3634 33.8306C86.2457 34.0068 86.1829 34.2139 86.1829 34.4258C86.1831 34.7099 86.2961 34.9823 86.497 35.1831C86.6979 35.384 86.9702 35.497 87.2543 35.4973ZM87.2543 33.8901C87.3602 33.8901 87.4638 33.9215 87.5519 33.9804C87.64 34.0393 87.7087 34.1229 87.7492 34.2208C87.7898 34.3187 87.8004 34.4264 87.7797 34.5303C87.759 34.6343 87.708 34.7297 87.6331 34.8046C87.5582 34.8796 87.4627 34.9306 87.3588 34.9513C87.2549 34.9719 87.1472 34.9613 87.0493 34.9208C86.9514 34.8802 86.8677 34.8116 86.8089 34.7235C86.75 34.6354 86.7186 34.5318 86.7186 34.4258C86.7187 34.2838 86.7751 34.1476 86.8756 34.0471C86.976 33.9467 87.1122 33.8902 87.2543 33.8901ZM57.9982 25.6973C57.8569 25.6973 57.7188 25.7392 57.6014 25.8176C57.4839 25.8961 57.3924 26.0077 57.3383 26.1382C57.2842 26.2687 57.2701 26.4123 57.2977 26.5509C57.3252 26.6895 57.3932 26.8167 57.4931 26.9166C57.593 27.0165 57.7203 27.0846 57.8589 27.1121C57.9974 27.1397 58.141 27.1255 58.2716 27.0715C58.4021 27.0174 58.5136 26.9259 58.5921 26.8084C58.6706 26.6909 58.7125 26.5528 58.7125 26.4116C58.7123 26.2222 58.637 26.0406 58.5031 25.9067C58.3692 25.7728 58.1876 25.6975 57.9982 25.6973ZM57.9982 26.7687C57.9276 26.7687 57.8585 26.7477 57.7998 26.7085C57.7411 26.6693 57.6953 26.6135 57.6683 26.5482C57.6412 26.483 57.6342 26.4112 57.6479 26.3419C57.6617 26.2726 57.6957 26.209 57.7457 26.159C57.7956 26.1091 57.8593 26.0751 57.9285 26.0613C57.9978 26.0475 58.0696 26.0546 58.1349 26.0816C58.2001 26.1086 58.2559 26.1544 58.2952 26.2131C58.3344 26.2719 58.3554 26.3409 58.3554 26.4116C58.3553 26.5062 58.3176 26.597 58.2506 26.664C58.1837 26.7309 58.0929 26.7686 57.9982 26.7687ZM69.4268 31.4483C69.2855 31.4483 69.1474 31.4902 69.03 31.5687C68.9125 31.6472 68.8209 31.7588 68.7669 31.8893C68.7128 32.0198 68.6987 32.1634 68.7262 32.302C68.7538 32.4405 68.8218 32.5678 68.9217 32.6677C69.0216 32.7676 69.1489 32.8356 69.2874 32.8632C69.426 32.8907 69.5696 32.8766 69.7001 32.8225C69.8307 32.7685 69.9422 32.6769 70.0207 32.5595C70.0992 32.442 70.1411 32.3039 70.1411 32.1626C70.1409 31.9732 70.0656 31.7917 69.9317 31.6578C69.7977 31.5238 69.6162 31.4485 69.4268 31.4483ZM69.4268 32.5198C69.3561 32.5198 69.2871 32.4988 69.2284 32.4596C69.1696 32.4203 69.1239 32.3646 69.0968 32.2993C69.0698 32.234 69.0627 32.1622 69.0765 32.0929C69.0903 32.0237 69.1243 31.96 69.1742 31.9101C69.2242 31.8601 69.2878 31.8261 69.3571 31.8123C69.4264 31.7986 69.4982 31.8056 69.5635 31.8327C69.6287 31.8597 69.6845 31.9055 69.7237 31.9642C69.763 32.0229 69.7839 32.092 69.7839 32.1626C69.7838 32.2573 69.7462 32.3481 69.6792 32.4151C69.6123 32.482 69.5215 32.5197 69.4268 32.5198ZM93.8911 39.9826C93.7498 39.9826 93.6117 40.0245 93.4942 40.103C93.3768 40.1815 93.2852 40.293 93.2312 40.4236C93.1771 40.5541 93.163 40.6977 93.1905 40.8363C93.2181 40.9748 93.2861 41.1021 93.386 41.202C93.4859 41.3019 93.6132 41.3699 93.7517 41.3975C93.8903 41.425 94.0339 41.4109 94.1644 41.3568C94.2949 41.3028 94.4065 41.2112 94.485 41.0937C94.5635 40.9763 94.6054 40.8382 94.6054 40.6969C94.6052 40.5075 94.5299 40.326 94.3959 40.192C94.262 40.0581 94.0805 39.9828 93.8911 39.9826ZM93.8911 41.0541C93.8204 41.0541 93.7514 41.0331 93.6927 40.9939C93.6339 40.9546 93.5882 40.8988 93.5611 40.8336C93.5341 40.7683 93.527 40.6965 93.5408 40.6272C93.5546 40.558 93.5886 40.4943 93.6385 40.4444C93.6885 40.3944 93.7521 40.3604 93.8214 40.3466C93.8907 40.3328 93.9625 40.3399 94.0278 40.367C94.093 40.394 94.1488 40.4398 94.188 40.4985C94.2273 40.5572 94.2482 40.6263 94.2482 40.6969C94.2481 40.7916 94.2105 40.8824 94.1435 40.9493C94.0766 41.0163 93.9858 41.054 93.8911 41.0541ZM44.1786 32.8769C44.1786 32.7356 44.1367 32.5975 44.0582 32.4801C43.9797 32.3626 43.8682 32.2711 43.7376 32.217C43.6071 32.1629 43.4635 32.1488 43.3249 32.1763C43.1864 32.2039 43.0591 32.2719 42.9592 32.3718C42.8593 32.4717 42.7913 32.599 42.7637 32.7376C42.7362 32.8761 42.7503 33.0197 42.8044 33.1503C42.8584 33.2808 42.95 33.3923 43.0674 33.4708C43.1849 33.5493 43.323 33.5912 43.4643 33.5912C43.6537 33.591 43.8352 33.5157 43.9692 33.3818C44.1031 33.2479 44.1784 33.0663 44.1786 32.8769ZM43.1071 32.8769C43.1071 32.8063 43.1281 32.7372 43.1673 32.6785C43.2066 32.6198 43.2624 32.574 43.3276 32.547C43.3929 32.5199 43.4647 32.5128 43.534 32.5266C43.6032 32.5404 43.6669 32.5744 43.7168 32.6244C43.7668 32.6743 43.8008 32.738 43.8146 32.8072C43.8283 32.8765 43.8213 32.9483 43.7942 33.0136C43.7672 33.0788 43.7214 33.1346 43.6627 33.1739C43.604 33.2131 43.5349 33.2341 43.4643 33.2341C43.3696 33.234 43.2788 33.1963 43.2119 33.1293C43.1449 33.0624 43.1072 32.9716 43.1071 32.8769Z" fill="white"/>
</g>
<defs>
<filter id="filter0_d_3383_6269" x="0" y="0" width="136" height="120" filterUnits="userSpaceOnUse" color-interpolation-filters="sRGB">
<feFlood flood-opacity="0" result="BackgroundImageFix"/>
<feColorMatrix in="SourceAlpha" type="matrix" values="0 0 0 0 0 0 0 0 0 0 0 0 0 0 0 0 0 0 127 0" result="hardAlpha"/>
<feOffset dy="4"/>
<feGaussianBlur stdDeviation="2"/>
<feComposite in2="hardAlpha" operator="out"/>
<feColorMatrix type="matrix" values="0 0 0 0 0 0 0 0 0 0 0 0 0 0 0 0 0 0 0.25 0"/>
<feBlend mode="normal" in2="BackgroundImageFix" result="effect1_dropShadow_3383_6269"/>
<feBlend mode="normal" in="SourceGraphic" in2="effect1_dropShadow_3383_6269" result="shape"/>
</filter>
<clipPath id="clip0_3383_6269">
<rect width="60" height="60" fill="white" transform="translate(38 23)"/>
</clipPath>
</defs>
</svg>
