<svg width="136" height="120" viewBox="0 0 136 120" fill="none" xmlns="http://www.w3.org/2000/svg">
<g filter="url(#filter0_d_1638_2128)">
<rect x="4" width="128" height="112" rx="15" fill="#01728B"/>
</g>
<path d="M59.2627 87.5576L56.4258 96H54.4365L58.1553 86.0469H59.4268L59.2627 87.5576ZM61.6348 96L58.7842 87.5576L58.6133 86.0469H59.8916L63.6309 96H61.6348ZM61.5049 92.3018V93.7852H56.166V92.3018H61.5049ZM70.3574 92.7256H72.2373C72.1872 93.391 72.0026 93.9811 71.6836 94.4961C71.3646 95.0065 70.9202 95.4076 70.3506 95.6992C69.7809 95.9909 69.0905 96.1367 68.2793 96.1367C67.6549 96.1367 67.0921 96.0273 66.5908 95.8086C66.0941 95.5853 65.668 95.2686 65.3125 94.8584C64.9616 94.4437 64.6927 93.9469 64.5059 93.3682C64.319 92.7848 64.2256 92.1309 64.2256 91.4062V90.6475C64.2256 89.9229 64.3213 89.2689 64.5127 88.6855C64.7041 88.1022 64.9775 87.6055 65.333 87.1953C65.693 86.7806 66.1237 86.4616 66.625 86.2383C67.1309 86.015 67.696 85.9033 68.3203 85.9033C69.1315 85.9033 69.8174 86.0537 70.3779 86.3545C70.9385 86.6507 71.3737 87.0586 71.6836 87.5781C71.9935 88.0977 72.1803 88.6947 72.2441 89.3691H70.3643C70.3278 88.9499 70.2367 88.5944 70.0908 88.3027C69.9495 88.0111 69.7354 87.79 69.4482 87.6396C69.1657 87.4847 68.7897 87.4072 68.3203 87.4072C67.9557 87.4072 67.6344 87.4756 67.3564 87.6123C67.083 87.749 66.8551 87.9541 66.6729 88.2275C66.4906 88.4964 66.3538 88.8337 66.2627 89.2393C66.1715 89.6403 66.126 90.1051 66.126 90.6338V91.4062C66.126 91.9121 66.167 92.3656 66.249 92.7666C66.3311 93.1676 66.4587 93.5072 66.6318 93.7852C66.805 94.0632 67.0283 94.2751 67.3018 94.4209C67.5752 94.5667 67.901 94.6396 68.2793 94.6396C68.7396 94.6396 69.1133 94.5667 69.4004 94.4209C69.6921 94.2751 69.9131 94.0609 70.0635 93.7783C70.2184 93.4958 70.3164 93.1449 70.3574 92.7256ZM80.29 94.5234V96H74.999V94.5234H80.29ZM75.5732 86.0469V96H73.6934V86.0469H75.5732ZM79.5996 90.1553V91.5977H74.999V90.1553H79.5996ZM80.2695 86.0469V87.5303H74.999V86.0469H80.2695Z" fill="white"/>
<g clip-path="url(#clip0_1638_2128)">
<path d="M75.7228 43.3117L74.801 49.3782C74.7631 49.6298 74.7922 49.8871 74.8855 50.1239C74.9787 50.3607 75.1328 50.5688 75.3321 50.7271L76.75 51.8506C77.0042 52.0478 77.3162 52.1559 77.6379 52.1585C77.9596 52.1611 78.2733 52.0579 78.5307 51.8649L79.9325 50.7907C80.1375 50.6336 80.2967 50.4245 80.3935 50.1851C80.4903 49.9456 80.5211 49.6846 80.4828 49.4292L79.5607 43.3114C79.102 43.446 78.6303 43.5315 78.1535 43.5664L79.0635 49.6564L77.6371 50.731L76.2135 49.5931L77.1292 43.5664C76.6527 43.5315 76.1813 43.4462 75.7228 43.3117ZM77.6417 42.1635C78.7013 42.1635 79.737 41.8493 80.618 41.2607C81.499 40.672 82.1856 39.8353 82.5911 38.8565C82.9966 37.8776 83.1027 36.8004 82.8959 35.7612C82.6892 34.7221 82.179 33.7675 81.4298 33.0183C80.6806 32.2691 79.726 31.7589 78.6869 31.5522C77.6477 31.3455 76.5705 31.4515 75.5917 31.857C74.6128 32.2625 73.7761 32.9491 73.1874 33.8301C72.5988 34.7111 72.2846 35.7468 72.2846 36.8064C72.2862 38.2267 72.8511 39.5884 73.8554 40.5927C74.8598 41.597 76.2214 42.1619 77.6417 42.1635ZM77.6417 32.8778C78.4187 32.8778 79.1783 33.1082 79.8243 33.5399C80.4704 33.9716 80.9739 34.5851 81.2713 35.303C81.5686 36.0208 81.6464 36.8107 81.4948 37.5728C81.3432 38.3349 80.9691 39.0349 80.4197 39.5843C79.8702 40.1337 79.1702 40.5079 78.4082 40.6594C77.6461 40.811 76.8562 40.7332 76.1383 40.4359C75.4205 40.1385 74.8069 39.635 74.3753 38.989C73.9436 38.3429 73.7132 37.5834 73.7132 36.8064C73.7143 35.7648 74.1286 34.7662 74.8651 34.0297C75.6016 33.2932 76.6002 32.8789 77.6417 32.8778ZM55.1417 54.3064C55.8481 54.3064 56.5386 54.0969 57.1259 53.7045C57.7132 53.312 58.171 52.7543 58.4413 52.1017C58.7116 51.4491 58.7824 50.731 58.6445 50.0382C58.5067 49.3454 58.1666 48.709 57.6671 48.2096C57.1676 47.7101 56.5313 47.3699 55.8385 47.2321C55.1457 47.0943 54.4276 47.1651 53.775 47.4354C53.1224 47.7057 52.5646 48.1634 52.1722 48.7508C51.7798 49.3381 51.5703 50.0286 51.5703 50.7349C51.5714 51.6818 51.948 52.5896 52.6175 53.2592C53.2871 53.9287 54.1949 54.3053 55.1417 54.3064ZM55.1417 48.5921C55.5656 48.5921 55.9799 48.7178 56.3322 48.9532C56.6846 49.1887 56.9593 49.5233 57.1215 49.9149C57.2837 50.3065 57.3261 50.7373 57.2434 51.153C57.1607 51.5687 56.9567 51.9505 56.657 52.2502C56.3573 52.5498 55.9755 52.7539 55.5598 52.8366C55.1441 52.9193 54.7133 52.8769 54.3217 52.7147C53.9301 52.5525 53.5955 52.2778 53.36 51.9254C53.1246 51.5731 52.9989 51.1588 52.9989 50.7349C52.9995 50.1668 53.2255 49.6222 53.6272 49.2204C54.029 48.8187 54.5736 48.5927 55.1417 48.5921Z" fill="white"/>
<path d="M55.1784 45.2627C55.0045 45.1875 54.8677 45.0463 54.798 44.8702C54.7282 44.6941 54.7313 44.4974 54.8065 44.3236C57.086 39.0589 62.2201 35.9378 67.3942 36.4794C67.2711 36.3393 67.2076 36.1568 67.2173 35.9706C67.227 35.7844 67.3091 35.6094 67.446 35.483C67.583 35.3565 67.764 35.2886 67.9503 35.2937C68.1367 35.2989 68.3136 35.3767 68.4434 35.5105L69.6869 36.8538C69.7582 36.9309 69.8116 37.0227 69.8433 37.1228C69.875 37.2228 69.8843 37.3287 69.8705 37.4327C69.8555 37.5364 69.8185 37.6356 69.762 37.7237C69.7054 37.8118 69.6306 37.8868 69.5427 37.9436L67.913 38.9675C67.7665 39.0603 67.5911 39.0965 67.4198 39.0693C67.2485 39.0421 67.093 38.9533 66.9824 38.8197C66.8718 38.6861 66.8138 38.5167 66.8191 38.3433C66.8245 38.17 66.8928 38.0045 67.0114 37.8779C62.5312 37.519 58.112 40.2885 56.1175 44.8908C56.0804 44.977 56.0266 45.055 55.9592 45.1203C55.8919 45.1856 55.8123 45.237 55.7251 45.2716C55.6379 45.3061 55.5447 45.3231 55.4509 45.3216C55.3571 45.3201 55.2645 45.3001 55.1784 45.2627Z" fill="white"/>
<path d="M38.7143 77.1634C39.1088 77.1634 39.4286 76.8436 39.4286 76.4491C39.4286 76.0547 39.1088 75.7349 38.7143 75.7349C38.3198 75.7349 38 76.0547 38 76.4491C38 76.8436 38.3198 77.1634 38.7143 77.1634Z" fill="white"/>
<path d="M41.9302 75.7349H40.8588C40.6694 75.7349 40.4877 75.8101 40.3537 75.9441C40.2198 76.078 40.1445 76.2597 40.1445 76.4491C40.1445 76.6386 40.2198 76.8203 40.3537 76.9542C40.4877 77.0882 40.6694 77.1634 40.8588 77.1634H41.9302C42.1197 77.1634 42.3014 77.0882 42.4353 76.9542C42.5693 76.8203 42.6445 76.6386 42.6445 76.4491C42.6445 76.2597 42.5693 76.078 42.4353 75.9441C42.3014 75.8101 42.1197 75.7349 41.9302 75.7349ZM95.1445 75.7349H94.0731C93.8837 75.7349 93.702 75.8101 93.568 75.9441C93.4341 76.078 93.3588 76.2597 93.3588 76.4491C93.3588 76.6386 93.4341 76.8203 93.568 76.9542C93.702 77.0882 93.8837 77.1634 94.0731 77.1634H95.1445C95.334 77.1634 95.5157 77.0882 95.6496 76.9542C95.7836 76.8203 95.8588 76.6386 95.8588 76.4491C95.8588 76.2597 95.7836 76.078 95.6496 75.9441C95.5157 75.8101 95.334 75.7349 95.1445 75.7349Z" fill="white"/>
<path d="M97.2846 77.1634C97.6791 77.1634 97.9989 76.8436 97.9989 76.4491C97.9989 76.0547 97.6791 75.7349 97.2846 75.7349C96.8901 75.7349 96.5703 76.0547 96.5703 76.4491C96.5703 76.8436 96.8901 77.1634 97.2846 77.1634Z" fill="white"/>
<path d="M91.8271 75.735H84.6589C84.7411 75.5058 84.7834 75.2642 84.7839 75.0207V62.8779C85.352 62.8772 85.8967 62.6512 86.2984 62.2495C86.7001 61.8478 86.9261 61.3031 86.9268 60.735V47.8779C86.9246 46.4906 86.4743 45.1412 85.6431 44.0306C84.8118 42.9201 83.644 42.1077 82.3136 41.7147C81.8173 42.1868 81.2526 42.5814 80.6386 42.885C81.9387 42.9222 83.1733 43.4643 84.0805 44.3963C84.9877 45.3284 85.4962 46.5772 85.4982 47.8779V60.735C85.498 60.9244 85.4227 61.106 85.2888 61.2399C85.1549 61.3738 84.9733 61.4491 84.7839 61.4493H82.6411V55.735C82.6411 55.5456 82.5658 55.3639 82.4319 55.23C82.2979 55.096 82.1162 55.0207 81.9268 55.0207C81.7373 55.0207 81.5557 55.096 81.4217 55.23C81.2878 55.3639 81.2125 55.5456 81.2125 55.735V61.4493H74.0696V55.735C74.0696 55.5456 73.9944 55.3639 73.8604 55.23C73.7265 55.096 73.5448 55.0207 73.3554 55.0207C73.1659 55.0207 72.9842 55.096 72.8503 55.23C72.7163 55.3639 72.6411 55.5456 72.6411 55.735V61.4493H70.4982C70.3088 61.4491 70.1273 61.3738 69.9933 61.2399C69.8594 61.106 69.7841 60.9244 69.7839 60.735V47.8779C69.7859 46.5772 70.2944 45.3284 71.2016 44.3963C72.1088 43.4643 73.3434 42.9222 74.6436 42.885C74.0295 42.5814 73.4648 42.1868 72.9686 41.7147C71.6382 42.1077 70.4704 42.9201 69.6391 44.0306C68.8078 45.1412 68.3575 46.4906 68.3554 47.8779V60.735C68.356 61.3031 68.582 61.8478 68.9837 62.2495C69.3854 62.6512 69.9301 62.8772 70.4982 62.8779V75.0207C70.4987 75.2642 70.541 75.5058 70.6232 75.735H60.065C60.1151 75.5609 60.1407 75.3806 60.1411 75.1993V67.47C60.447 67.3913 60.7181 67.2133 60.912 66.964C61.1059 66.7146 61.2116 66.408 61.2125 66.0922V58.235C61.2114 57.4004 60.9668 56.5841 60.5088 55.8864C60.0508 55.1886 59.3993 54.6395 58.6339 54.3065C58.1589 54.7707 57.5964 55.1359 56.9789 55.3807C57.7269 55.3949 58.4396 55.7018 58.964 56.2354C59.4884 56.769 59.7828 57.4869 59.7839 58.235L59.7846 66.0922H58.3554V63.235C58.3554 63.0456 58.2801 62.8639 58.1461 62.73C58.0122 62.596 57.8305 62.5207 57.6411 62.5207C57.4516 62.5207 57.2699 62.596 57.136 62.73C57.002 62.8639 56.9268 63.0456 56.9268 63.235V66.0922H53.3554V63.235C53.3554 63.0456 53.2801 62.8639 53.1461 62.73C53.0122 62.596 52.8305 62.5207 52.6411 62.5207C52.4516 62.5207 52.2699 62.596 52.136 62.73C52.002 62.8639 51.9268 63.0456 51.9268 63.235V66.0922H50.4982V58.235C50.4994 57.4869 50.7937 56.769 51.3181 56.2354C51.8425 55.7018 52.5552 55.3949 53.3032 55.3807C52.6858 55.1359 52.1232 54.7707 51.6482 54.3065C50.8829 54.6395 50.2313 55.1886 49.7733 55.8864C49.3153 56.5841 49.0708 57.4004 49.0696 58.235V66.0922C49.0706 66.408 49.1763 66.7146 49.3702 66.964C49.5641 67.2133 49.8352 67.3913 50.1411 67.47V75.11C50.1411 75.3222 50.1741 75.533 50.2389 75.735H44.1696C44.068 75.7218 43.9647 75.7303 43.8667 75.7601C43.7687 75.79 43.6781 75.8403 43.6011 75.908C43.5241 75.9756 43.4624 76.0588 43.4201 76.1522C43.3778 76.2455 43.356 76.3468 43.356 76.4493C43.356 76.5518 43.3778 76.6531 43.4201 76.7465C43.4624 76.8398 43.5241 76.9231 43.6011 76.9907C43.6781 77.0583 43.7687 77.1087 43.8667 77.1385C43.9647 77.1683 44.068 77.1769 44.1696 77.1636H91.8268C91.9284 77.1769 92.0317 77.1683 92.1297 77.1385C92.2278 77.1087 92.3183 77.0583 92.3953 76.9907C92.4724 76.9231 92.5341 76.8398 92.5763 76.7465C92.6186 76.6531 92.6405 76.5518 92.6405 76.4493C92.6405 76.3468 92.6186 76.2455 92.5763 76.1522C92.5341 76.0588 92.4724 75.9756 92.3953 75.908C92.3183 75.8403 92.2278 75.79 92.1297 75.7601C92.0317 75.7303 91.9288 75.7218 91.8271 75.735ZM76.2125 62.8779H79.0696V75.0207C79.0701 75.2642 79.1124 75.5058 79.1946 75.735H76.0875C76.1697 75.5058 76.212 75.2642 76.2125 75.0207V62.8779ZM54.4268 67.5207H55.8554V75.1993C55.8558 75.3806 55.8814 75.5609 55.9314 75.735H54.3289C54.3938 75.533 54.4268 75.3222 54.4268 75.11V67.5207ZM52.1946 75.735C52.0289 75.7348 51.8701 75.6689 51.7529 75.5518C51.6357 75.4346 51.5698 75.2757 51.5696 75.11V67.5207H52.9982V75.11C52.998 75.2757 52.9321 75.4346 52.8149 75.5518C52.6978 75.6689 52.5389 75.7348 52.3732 75.735H52.1946ZM57.8196 75.735C57.6776 75.7348 57.5415 75.6783 57.441 75.5779C57.3406 75.4775 57.2841 75.3413 57.2839 75.1993V67.5207H58.7125V75.1993C58.7123 75.3413 58.6558 75.4775 58.5554 75.5779C58.455 75.6783 58.3188 75.7348 58.1768 75.735H57.8196ZM72.6411 75.735C72.4517 75.7348 72.2701 75.6595 72.1362 75.5256C72.0023 75.3917 71.927 75.2101 71.9268 75.0207V62.8779H74.7839V75.0207C74.7837 75.2101 74.7084 75.3917 74.5745 75.5256C74.4406 75.6595 74.259 75.7348 74.0696 75.735H72.6411ZM81.2125 75.735C81.0231 75.7348 80.8415 75.6595 80.7076 75.5256C80.5737 75.3917 80.4984 75.2101 80.4982 75.0207V62.8779H83.3554V75.0207C83.3552 75.2101 83.2799 75.3917 83.1459 75.5256C83.012 75.6595 82.8305 75.7348 82.6411 75.735H81.2125ZM87.2543 35.4982C87.4662 35.4982 87.6733 35.4354 87.8495 35.3177C88.0257 35.1999 88.1631 35.0326 88.2442 34.8368C88.3253 34.6411 88.3465 34.4256 88.3051 34.2178C88.2638 34.01 88.1617 33.819 88.0119 33.6692C87.8621 33.5194 87.6712 33.4173 87.4633 33.376C87.2555 33.3346 87.04 33.3558 86.8443 33.4369C86.6485 33.518 86.4812 33.6554 86.3634 33.8316C86.2457 34.0078 86.1829 34.2149 86.1829 34.4268C86.1831 34.7109 86.2961 34.9832 86.497 35.1841C86.6979 35.385 86.9702 35.498 87.2543 35.4982ZM87.2543 33.8911C87.3602 33.8911 87.4638 33.9225 87.5519 33.9814C87.64 34.0402 87.7087 34.1239 87.7492 34.2218C87.7898 34.3197 87.8004 34.4274 87.7797 34.5313C87.759 34.6352 87.708 34.7307 87.6331 34.8056C87.5582 34.8805 87.4627 34.9316 87.3588 34.9522C87.2549 34.9729 87.1472 34.9623 87.0493 34.9217C86.9514 34.8812 86.8677 34.8125 86.8089 34.7244C86.75 34.6363 86.7186 34.5328 86.7186 34.4268C86.7187 34.2848 86.7751 34.1486 86.8756 34.0481C86.976 33.9477 87.1122 33.8912 87.2543 33.8911ZM57.9982 25.6982C57.8569 25.6982 57.7188 25.7401 57.6014 25.8186C57.4839 25.8971 57.3924 26.0087 57.3383 26.1392C57.2842 26.2697 57.2701 26.4133 57.2977 26.5519C57.3252 26.6904 57.3932 26.8177 57.4931 26.9176C57.593 27.0175 57.7203 27.0855 57.8589 27.1131C57.9974 27.1406 58.141 27.1265 58.2716 27.0724C58.4021 27.0184 58.5136 26.9268 58.5921 26.8094C58.6706 26.6919 58.7125 26.5538 58.7125 26.4125C58.7123 26.2231 58.637 26.0416 58.5031 25.9077C58.3692 25.7737 58.1876 25.6984 57.9982 25.6982ZM57.9982 26.7697C57.9276 26.7697 57.8585 26.7487 57.7998 26.7095C57.7411 26.6702 57.6953 26.6145 57.6683 26.5492C57.6412 26.4839 57.6342 26.4121 57.6479 26.3429C57.6617 26.2736 57.6957 26.2099 57.7457 26.16C57.7956 26.11 57.8593 26.076 57.9285 26.0622C57.9978 26.0485 58.0696 26.0555 58.1349 26.0826C58.2001 26.1096 58.2559 26.1554 58.2952 26.2141C58.3344 26.2728 58.3554 26.3419 58.3554 26.4125C58.3553 26.5072 58.3176 26.598 58.2506 26.665C58.1837 26.7319 58.0929 26.7696 57.9982 26.7697ZM69.4268 31.4493C69.2855 31.4493 69.1474 31.4912 69.03 31.5697C68.9125 31.6482 68.8209 31.7597 68.7669 31.8903C68.7128 32.0208 68.6987 32.1644 68.7262 32.3029C68.7538 32.4415 68.8218 32.5688 68.9217 32.6687C69.0216 32.7686 69.1489 32.8366 69.2874 32.8642C69.426 32.8917 69.5696 32.8776 69.7001 32.8235C69.8307 32.7695 69.9422 32.6779 70.0207 32.5604C70.0992 32.443 70.1411 32.3049 70.1411 32.1636C70.1409 31.9742 70.0656 31.7926 69.9317 31.6587C69.7977 31.5248 69.6162 31.4495 69.4268 31.4493ZM69.4268 32.5207C69.3561 32.5207 69.2871 32.4998 69.2284 32.4606C69.1696 32.4213 69.1239 32.3655 69.0968 32.3003C69.0698 32.235 69.0627 32.1632 69.0765 32.0939C69.0903 32.0246 69.1243 31.961 69.1742 31.9111C69.2242 31.8611 69.2878 31.8271 69.3571 31.8133C69.4264 31.7995 69.4982 31.8066 69.5635 31.8336C69.6287 31.8607 69.6845 31.9064 69.7237 31.9652C69.763 32.0239 69.7839 32.093 69.7839 32.1636C69.7838 32.2583 69.7462 32.3491 69.6792 32.416C69.6123 32.483 69.5215 32.5206 69.4268 32.5207ZM93.8911 39.9836C93.7498 39.9836 93.6117 40.0255 93.4942 40.104C93.3768 40.1825 93.2852 40.294 93.2312 40.4245C93.1771 40.5551 93.163 40.6987 93.1905 40.8372C93.2181 40.9758 93.2861 41.1031 93.386 41.203C93.4859 41.3029 93.6132 41.3709 93.7517 41.3984C93.8903 41.426 94.0339 41.4119 94.1644 41.3578C94.2949 41.3037 94.4065 41.2122 94.485 41.0947C94.5635 40.9773 94.6054 40.8392 94.6054 40.6979C94.6052 40.5085 94.5299 40.3269 94.3959 40.193C94.262 40.0591 94.0805 39.9838 93.8911 39.9836ZM93.8911 41.055C93.8204 41.055 93.7514 41.0341 93.6927 40.9948C93.6339 40.9556 93.5882 40.8998 93.5611 40.8346C93.5341 40.7693 93.527 40.6975 93.5408 40.6282C93.5546 40.5589 93.5886 40.4953 93.6385 40.4453C93.6885 40.3954 93.7521 40.3614 93.8214 40.3476C93.8907 40.3338 93.9625 40.3409 94.0278 40.3679C94.093 40.395 94.1488 40.4407 94.188 40.4995C94.2273 40.5582 94.2482 40.6272 94.2482 40.6979C94.2481 40.7926 94.2105 40.8834 94.1435 40.9503C94.0766 41.0173 93.9858 41.0549 93.8911 41.055ZM44.1786 32.8779C44.1786 32.7366 44.1367 32.5985 44.0582 32.481C43.9797 32.3636 43.8682 32.272 43.7376 32.218C43.6071 32.1639 43.4635 32.1498 43.3249 32.1773C43.1864 32.2049 43.0591 32.2729 42.9592 32.3728C42.8593 32.4727 42.7913 32.6 42.7637 32.7385C42.7362 32.8771 42.7503 33.0207 42.8044 33.1512C42.8584 33.2817 42.95 33.3933 43.0674 33.4718C43.1849 33.5503 43.323 33.5922 43.4643 33.5922C43.6537 33.592 43.8352 33.5167 43.9692 33.3828C44.1031 33.2488 44.1784 33.0673 44.1786 32.8779ZM43.1071 32.8779C43.1071 32.8072 43.1281 32.7382 43.1673 32.6795C43.2066 32.6207 43.2624 32.575 43.3276 32.5479C43.3929 32.5209 43.4647 32.5138 43.534 32.5276C43.6032 32.5414 43.6669 32.5754 43.7168 32.6253C43.7668 32.6753 43.8008 32.7389 43.8146 32.8082C43.8283 32.8775 43.8213 32.9493 43.7942 33.0146C43.7672 33.0798 43.7214 33.1356 43.6627 33.1748C43.604 33.2141 43.5349 33.235 43.4643 33.235C43.3696 33.2349 43.2788 33.1973 43.2119 33.1303C43.1449 33.0634 43.1072 32.9726 43.1071 32.8779Z" fill="white"/>
</g>
<defs>
<filter id="filter0_d_1638_2128" x="0" y="0" width="136" height="120" filterUnits="userSpaceOnUse" color-interpolation-filters="sRGB">
<feFlood flood-opacity="0" result="BackgroundImageFix"/>
<feColorMatrix in="SourceAlpha" type="matrix" values="0 0 0 0 0 0 0 0 0 0 0 0 0 0 0 0 0 0 127 0" result="hardAlpha"/>
<feOffset dy="4"/>
<feGaussianBlur stdDeviation="2"/>
<feComposite in2="hardAlpha" operator="out"/>
<feColorMatrix type="matrix" values="0 0 0 0 0 0 0 0 0 0 0 0 0 0 0 0 0 0 0.25 0"/>
<feBlend mode="normal" in2="BackgroundImageFix" result="effect1_dropShadow_1638_2128"/>
<feBlend mode="normal" in="SourceGraphic" in2="effect1_dropShadow_1638_2128" result="shape"/>
</filter>
<clipPath id="clip0_1638_2128">
<rect width="60" height="60" fill="white" transform="translate(38 23)"/>
</clipPath>
</defs>
</svg>
