<svg width="21" height="21" viewBox="0 0 21 21" fill="none" xmlns="http://www.w3.org/2000/svg">
<path d="M10.9375 0.875C5.83333 0.875 1.75 4.95833 1.75 10.0625C1.75 11.9 2.3625 13.7375 3.38333 15.2688L1.95417 17.7188C1.75 18.025 1.75 18.4333 1.95417 18.7396C2.15833 19.0458 2.3625 19.25 2.77083 19.25H10.9375C16.0417 19.25 20.125 15.1667 20.125 10.0625C20.125 4.95833 16.0417 0.875 10.9375 0.875ZM10.9375 17.2083H4.60833L5.52708 15.6771C5.73125 15.2688 5.73125 14.8604 5.425 14.5542C4.40417 13.3292 3.79167 11.6958 3.79167 10.0625C3.79167 6.08125 6.95625 2.91667 10.9375 2.91667C14.9188 2.91667 18.0833 6.08125 18.0833 10.0625C18.0833 14.0438 14.9188 17.2083 10.9375 17.2083Z" fill="black"/>
<path d="M10.5871 6.38672H10.4996C9.62456 6.38672 8.83706 6.82422 8.39956 7.52422C8.04956 7.96172 8.13706 8.48672 8.57456 8.74922C9.01206 9.01172 9.53706 8.92422 9.79956 8.48672C9.97456 8.22422 10.2371 8.13672 10.4996 8.13672H10.5871C11.0246 8.13672 11.3746 8.48672 11.3746 8.92422C11.3746 9.27422 11.1121 9.62422 10.8496 9.71172L10.2371 9.88672C9.88706 9.97422 9.62456 10.3242 9.62456 10.6742V11.3742C9.62456 11.8992 9.97456 12.2492 10.4996 12.2492C10.9371 12.2492 11.3746 11.8992 11.3746 11.4617C12.4246 11.1117 13.1246 10.1492 13.1246 9.01172C13.1246 7.61172 11.9871 6.38672 10.5871 6.38672Z" fill="black"/>
<path d="M10.5 14.875C10.9832 14.875 11.375 14.4832 11.375 14C11.375 13.5168 10.9832 13.125 10.5 13.125C10.0168 13.125 9.625 13.5168 9.625 14C9.625 14.4832 10.0168 14.875 10.5 14.875Z" fill="black"/>
</svg>
