<svg width="17" height="26" viewBox="0 0 17 26" fill="none" xmlns="http://www.w3.org/2000/svg">
<path d="M15.6701 11.6883H15.3746V7.50433C15.3746 6.00306 14.1533 4.7814 12.6517 4.7814H12.469C11.9902 4.7814 11.5894 4.42277 11.5366 3.94692L11.2052 0.965312C11.1441 0.415081 10.6802 0 10.1266 0H5.24795C4.69407 0 4.2305 0.415081 4.1694 0.965312L3.838 3.94692C3.7852 4.42277 3.3844 4.7814 2.90557 4.7814H2.72293C1.22167 4.7814 0 6.00273 0 7.50433V18.4957C0 19.9969 1.22133 21.2186 2.72293 21.2186H2.90557C3.3844 21.2186 3.7852 21.5772 3.838 22.0531L4.1694 25.0347C4.2305 25.5849 4.6944 26 5.24795 26H10.1266C10.6805 26 11.1441 25.5849 11.2052 25.0347L11.5366 22.0531C11.5894 21.5772 11.9902 21.2186 12.469 21.2186H12.6517C14.1529 21.2186 15.3746 19.9973 15.3746 18.4957V14.3117H15.6701C16.0932 14.3117 16.4372 13.9676 16.4372 13.5446V12.4554C16.4372 12.0324 16.0932 11.6883 15.6701 11.6883ZM4.33311 4.00171L4.66451 1.0201C4.69772 0.72224 4.94843 0.497765 5.24795 0.497765H10.1266C10.4262 0.497765 10.6772 0.72224 10.7101 1.0201L11.0415 4.00171C11.0747 4.30024 11.1972 4.56855 11.3809 4.7814H3.99374C4.17737 4.56855 4.2999 4.30024 4.33311 4.00171ZM11.0415 21.9983L10.7101 24.9799C10.6769 25.2778 10.4262 25.5022 10.1266 25.5022H5.24795C4.94843 25.5022 4.69739 25.2778 4.66451 24.9799L4.33311 21.9983C4.2999 21.6998 4.17737 21.4315 3.99374 21.2186H11.3809C11.1972 21.4315 11.0747 21.6998 11.0415 21.9983ZM14.8765 18.4957C14.8765 19.7223 13.8786 20.7205 12.6517 20.7205H12.469H2.90557H2.72293C1.49628 20.7205 0.498097 19.7226 0.498097 18.4957V7.50433C0.498097 6.27768 1.49595 5.2795 2.72293 5.2795H2.90557H12.469H12.6517C13.8783 5.2795 14.8765 6.27735 14.8765 7.50433V11.9374V14.0626V18.4957ZM15.9391 13.5446C15.9391 13.6927 15.8186 13.8136 15.6701 13.8136H15.3746V12.1864H15.6701C15.8182 12.1864 15.9391 12.307 15.9391 12.4554V13.5446Z" fill="black"/>
</svg>
