<svg width="99" height="99" viewBox="0 0 99 99" fill="none" xmlns="http://www.w3.org/2000/svg">
<g filter="url(#filter0_d_4537_11120)">
<rect x="5" y="5" width="88.9311" height="88.9322" rx="10" fill="#274E6D"/>
</g>
<g clip-path="url(#clip0_4537_11120)">
<path d="M60.7164 50.0175H59.0072C58.6834 50.0175 58.4255 49.7408 58.4255 49.3933V41.0653C56.3626 41.3099 53.52 40.2351 51.7689 38.0212C51.2951 38.7613 50.7314 39.3148 49.7119 39.5787V49.3933C49.7119 49.7408 49.454 50.0175 49.1302 50.0175H47.415C46.4495 50.0175 45.6699 49.1744 45.6699 48.1447V39.7074C45.6699 34.7389 49.436 30.6973 54.0657 30.6973C58.7014 30.6973 62.4615 34.7389 62.4615 39.7074V48.1447C62.4623 48.3909 62.4177 48.6348 62.3303 48.8624C62.2429 49.09 62.1144 49.2968 61.9521 49.4709C61.7899 49.645 61.5972 49.7829 61.3852 49.8767C61.1731 49.9705 60.9458 50.0184 60.7164 50.0175ZM59.589 48.769H60.7164C61.0402 48.769 61.2981 48.4858 61.2981 48.1447V39.7074C61.2981 35.4276 58.0537 31.9458 54.0657 31.9458C50.0717 31.9458 46.8273 35.4276 46.8273 39.7074V48.1447C46.8273 48.4923 47.0912 48.769 47.4091 48.769H48.5425V39.0638C48.5425 38.7549 48.7584 38.491 49.0462 38.446C50.1617 38.2786 50.5455 37.8667 51.2052 36.6053C51.3071 36.4123 51.493 36.2964 51.6909 36.29C51.9008 36.29 52.0867 36.3929 52.1947 36.5732C53.7119 39.0895 56.9503 40.3059 58.8273 39.7138C59.0012 39.6559 59.1931 39.6945 59.3371 39.8104C59.481 39.9262 59.571 40.1128 59.571 40.3124V48.769H59.589Z" fill="white"/>
<path d="M54.0698 50.3594C51.8629 50.3594 49.776 49.0594 48.6306 46.9613C48.5916 46.8904 48.5661 46.812 48.5556 46.7304C48.5451 46.6489 48.5497 46.566 48.5692 46.4864C48.5888 46.4068 48.6228 46.3321 48.6693 46.2667C48.7159 46.2013 48.774 46.1465 48.8405 46.1054C48.9065 46.0636 48.9796 46.0362 49.0556 46.0249C49.1316 46.0136 49.2089 46.0186 49.283 46.0395C49.3572 46.0605 49.4267 46.097 49.4877 46.147C49.5486 46.1969 49.5997 46.2593 49.6381 46.3306C50.5916 48.0747 52.2468 49.1109 54.0758 49.1109C55.8989 49.1109 57.5601 48.0683 58.5196 46.3177C58.6815 46.0217 59.0413 45.9187 59.3172 46.0989C59.5931 46.2727 59.689 46.6588 59.5211 46.9549C58.3457 49.0851 56.3127 50.3594 54.0698 50.3594ZM66.0698 60.5473H42.0758C41.752 60.5473 41.4941 60.2706 41.4941 59.923V57.8121C41.4941 54.1437 44.2767 51.1639 47.689 51.1639H51.0414C51.3652 51.1639 51.6231 51.4406 51.6231 51.7882C51.6231 52.1357 51.3652 52.4124 51.0414 52.4124H47.689C44.9124 52.4124 42.6576 54.8387 42.6576 57.8121V59.2987H65.4881V57.8121C65.4881 54.8323 63.2273 52.4124 60.4566 52.4124H57.1043C56.7805 52.4124 56.5226 52.1357 56.5226 51.7882C56.5226 51.4406 56.7805 51.1639 57.1043 51.1639H60.4566C63.8749 51.1639 66.6515 54.1501 66.6515 57.8121V59.923C66.6515 60.2706 66.3937 60.5473 66.0698 60.5473Z" fill="white"/>
<path d="M54.0741 55.1136C51.9151 55.1136 50.4639 53.7749 50.4639 51.7863V48.7679C50.4639 48.4203 50.7217 48.1436 51.0456 48.1436C51.3694 48.1436 51.6273 48.4203 51.6273 48.7679V51.7863C51.6273 53.717 53.5043 53.865 54.0741 53.865C54.6498 53.865 56.5268 53.717 56.5268 51.7863V48.7743C56.5268 48.4268 56.7847 48.15 57.1085 48.15C57.4324 48.15 57.6902 48.4268 57.6902 48.7743V51.7863C57.6843 53.7749 56.233 55.1136 54.0741 55.1136ZM48.5328 22.8638H44.197C43.8732 22.8638 43.6153 22.587 43.6153 22.2395C43.6153 21.892 43.8732 21.6152 44.197 21.6152H48.5328C48.6871 21.6152 48.8351 21.681 48.9442 21.7981C49.0533 21.9152 49.1145 22.0739 49.1145 22.2395C49.1145 22.4051 49.0533 22.5639 48.9442 22.6809C48.8351 22.798 48.6871 22.8638 48.5328 22.8638ZM46.26 45.6208H34.0381C33.0726 45.6208 32.293 44.7777 32.293 43.748V23.4881C32.293 22.4519 33.0786 21.6152 34.0381 21.6152H35.6153C35.9391 21.6152 36.197 21.892 36.197 22.2395C36.197 22.587 35.9391 22.8638 35.6153 22.8638H34.0381C33.8838 22.8638 33.7359 22.9296 33.6268 23.0466C33.5177 23.1637 33.4564 23.3225 33.4564 23.4881V43.7415C33.4564 44.0891 33.7203 44.3658 34.0381 44.3658H46.26C46.5838 44.3658 46.8417 44.6425 46.8417 44.9901C46.8417 45.3376 46.5838 45.6208 46.26 45.6208ZM59.8672 34.7057C59.5433 34.7057 59.2854 34.4289 59.2854 34.0814V23.4881C59.2854 23.3225 59.2242 23.1637 59.1151 23.0466C59.006 22.9296 58.858 22.8638 58.7037 22.8638H57.1265C56.8027 22.8638 56.5448 22.587 56.5448 22.2395C56.5448 21.892 56.8027 21.6152 57.1265 21.6152H58.7037C59.6693 21.6152 60.4489 22.4583 60.4489 23.4881V34.0814C60.4489 34.4225 60.185 34.7057 59.8672 34.7057ZM42.0741 22.8638H37.7382C37.4144 22.8638 37.1565 22.587 37.1565 22.2395C37.1565 21.892 37.4144 21.6152 37.7382 21.6152H42.0741C42.2283 21.6152 42.3763 21.681 42.4854 21.7981C42.5945 21.9152 42.6558 22.0739 42.6558 22.2395C42.6558 22.4051 42.5945 22.5639 42.4854 22.6809C42.3763 22.798 42.2283 22.8638 42.0741 22.8638ZM54.9976 22.8638H50.6618C50.3379 22.8638 50.0801 22.587 50.0801 22.2395C50.0801 21.892 50.3379 21.6152 50.6618 21.6152H54.9976C55.1519 21.6152 55.2998 21.681 55.4089 21.7981C55.518 21.9152 55.5793 22.0739 55.5793 22.2395C55.5793 22.4051 55.518 22.5639 55.4089 22.6809C55.2998 22.798 55.1519 22.8638 54.9976 22.8638Z" fill="white"/>
<path d="M40.4871 34.9771H35.9534C35.6295 34.9771 35.3717 34.7004 35.3717 34.3528V29.4874C35.3717 29.1398 35.6295 28.8631 35.9534 28.8631H40.4871C40.8109 28.8631 41.0688 29.1398 41.0688 29.4874V34.3528C41.0688 34.7004 40.8049 34.9771 40.4871 34.9771ZM36.5351 33.7286H39.9054V30.1116H36.5351V33.7286ZM48.0553 34.9771H44.0973C43.7734 34.9771 43.5156 34.7004 43.5156 34.3528V29.4874C43.5156 29.1398 43.7734 28.8631 44.0973 28.8631H48.625C48.9489 28.8631 49.2067 29.1398 49.2067 29.4874V33.69C49.2067 34.031 48.9489 34.3078 48.637 34.3142V34.3528C48.637 34.7004 48.3791 34.9771 48.0553 34.9771ZM44.679 33.7286H48.0493V30.1116H44.685V33.7286H44.679ZM56.7749 32.4607C56.4511 32.4607 56.1932 32.184 56.1932 31.8364V30.1116H52.8229V31.5533C52.8229 31.9008 52.5651 32.1775 52.2412 32.1775C51.9174 32.1775 51.6595 31.9008 51.6595 31.5533V29.4874C51.6595 29.1398 51.9174 28.8631 52.2412 28.8631H56.7689C57.0928 28.8631 57.3507 29.1398 57.3507 29.4874V31.83C57.3567 32.1775 57.0928 32.4607 56.7749 32.4607ZM40.4871 42.7709H35.9534C35.6295 42.7709 35.3717 42.4941 35.3717 42.1466V37.2811C35.3717 36.9336 35.6295 36.6569 35.9534 36.6569H40.4871C40.8109 36.6569 41.0688 36.9336 41.0688 37.2811V42.1466C41.0688 42.4877 40.8049 42.7709 40.4871 42.7709ZM36.5351 41.5223H39.9054V37.9054H36.5351V41.5223ZM46.2562 42.7709H44.0973C43.7734 42.7709 43.5156 42.4941 43.5156 42.1466V37.2811C43.5156 36.9336 43.7734 36.6569 44.0973 36.6569H46.586C46.9099 36.6569 47.1678 36.9336 47.1678 37.2811C47.1678 37.6287 46.9099 37.9054 46.586 37.9054H44.679V41.5223H46.2562C46.58 41.5223 46.8379 41.7991 46.8379 42.1466C46.8379 42.4941 46.58 42.7709 46.2562 42.7709ZM36.673 25.1239C35.7675 25.1239 35.0298 24.3323 35.0298 23.3605V21.1208C35.0298 20.149 35.7675 19.3574 36.673 19.3574C37.5786 19.3574 38.3162 20.149 38.3162 21.1208V23.3605C38.3162 24.3323 37.5786 25.1239 36.673 25.1239ZM36.673 20.606C36.4091 20.606 36.1932 20.8377 36.1932 21.1208V23.3605C36.1932 23.6437 36.4091 23.8754 36.673 23.8754C36.9369 23.8754 37.1528 23.6437 37.1528 23.3605V21.1208C37.1528 20.8377 36.9369 20.606 36.673 20.606ZM43.1318 25.1239C42.2262 25.1239 41.4886 24.3323 41.4886 23.3605V21.1208C41.4886 20.149 42.2262 19.3574 43.1318 19.3574C44.0373 19.3574 44.7749 20.149 44.7749 21.1208V23.3605C44.7749 24.3323 44.0373 25.1239 43.1318 25.1239ZM43.1318 20.606C42.8679 20.606 42.652 20.8377 42.652 21.1208V23.3605C42.652 23.6437 42.8679 23.8754 43.1318 23.8754C43.3956 23.8754 43.6115 23.6437 43.6115 23.3605V21.1208C43.6115 20.8377 43.3956 20.606 43.1318 20.606ZM49.5965 25.1239C48.691 25.1239 47.9534 24.3323 47.9534 23.3605V21.1208C47.9534 20.149 48.685 19.3574 49.5965 19.3574C50.5021 19.3574 51.2397 20.149 51.2397 21.1208V23.3605C51.2381 23.8277 51.0645 24.2752 50.7567 24.6055C50.4489 24.9359 50.0318 25.1222 49.5965 25.1239ZM49.5965 20.606C49.3327 20.606 49.1168 20.8377 49.1168 21.1208V23.3605C49.1168 23.6437 49.3327 23.8754 49.5965 23.8754C49.8604 23.8754 50.0763 23.6437 50.0763 23.3605V21.1208C50.0749 20.9847 50.0239 20.8547 49.9342 20.7584C49.8446 20.6622 49.7233 20.6075 49.5965 20.606ZM56.0553 25.1239C55.1498 25.1239 54.4121 24.3323 54.4121 23.3605V21.1208C54.4121 20.149 55.1498 19.3574 56.0553 19.3574C56.9608 19.3574 57.6985 20.149 57.6985 21.1208V23.3605C57.6985 24.3323 56.9608 25.1239 56.0553 25.1239ZM56.0553 20.606C55.7914 20.606 55.5755 20.8377 55.5755 21.1208V23.3605C55.5755 23.6437 55.7914 23.8754 56.0553 23.8754C56.3192 23.8754 56.5351 23.6437 56.5351 23.3605V21.1208C56.5351 20.8377 56.3192 20.606 56.0553 20.606ZM59.8634 27.2606H32.8649C32.5411 27.2606 32.2832 26.9838 32.2832 26.6363C32.2832 26.2888 32.5411 26.012 32.8649 26.012H59.8634C60.0177 26.012 60.1656 26.0778 60.2747 26.1949C60.3838 26.312 60.4451 26.4707 60.4451 26.6363C60.4451 26.8019 60.3838 26.9607 60.2747 27.0777C60.1656 27.1948 60.0177 27.2606 59.8634 27.2606Z" fill="white"/>
</g>
<path d="M25.2954 80.1602L22.5654 73.1602H23.7254L26.5254 80.1602H25.2954ZM19.7054 80.1602L22.4954 73.1602H23.6654L20.9354 80.1602H19.7054ZM21.0154 78.4402V77.4102H25.2054V78.4402H21.0154ZM27.2775 82.1602V75.1602H28.3275L28.3975 76.0802V82.1602H27.2775ZM29.9775 80.2802C29.5575 80.2802 29.1942 80.1735 28.8875 79.9602C28.5875 79.7402 28.3575 79.4335 28.1975 79.0402C28.0375 78.6468 27.9575 78.1868 27.9575 77.6602C27.9575 77.1268 28.0375 76.6668 28.1975 76.2802C28.3575 75.8868 28.5875 75.5835 28.8875 75.3702C29.1942 75.1502 29.5575 75.0402 29.9775 75.0402C30.4309 75.0402 30.8242 75.1502 31.1575 75.3702C31.4975 75.5835 31.7609 75.8868 31.9475 76.2802C32.1409 76.6668 32.2375 77.1268 32.2375 77.6602C32.2375 78.1868 32.1409 78.6468 31.9475 79.0402C31.7609 79.4335 31.4975 79.7402 31.1575 79.9602C30.8242 80.1735 30.4309 80.2802 29.9775 80.2802ZM29.6975 79.2602C29.9642 79.2602 30.2009 79.1935 30.4075 79.0602C30.6142 78.9202 30.7775 78.7302 30.8975 78.4902C31.0242 78.2502 31.0875 77.9735 31.0875 77.6602C31.0875 77.3468 31.0275 77.0702 30.9075 76.8302C30.7942 76.5902 30.6342 76.4035 30.4275 76.2702C30.2209 76.1368 29.9809 76.0702 29.7075 76.0702C29.4542 76.0702 29.2275 76.1368 29.0275 76.2702C28.8275 76.4035 28.6709 76.5902 28.5575 76.8302C28.4509 77.0702 28.3975 77.3468 28.3975 77.6602C28.3975 77.9735 28.4509 78.2502 28.5575 78.4902C28.6709 78.7302 28.8242 78.9202 29.0175 79.0602C29.2175 79.1935 29.4442 79.2602 29.6975 79.2602ZM33.2443 82.1602V75.1602H34.2943L34.3643 76.0802V82.1602H33.2443ZM35.9443 80.2802C35.5243 80.2802 35.161 80.1735 34.8543 79.9602C34.5543 79.7402 34.3243 79.4335 34.1643 79.0402C34.0043 78.6468 33.9243 78.1868 33.9243 77.6602C33.9243 77.1268 34.0043 76.6668 34.1643 76.2802C34.3243 75.8868 34.5543 75.5835 34.8543 75.3702C35.161 75.1502 35.5243 75.0402 35.9443 75.0402C36.3977 75.0402 36.791 75.1502 37.1243 75.3702C37.4643 75.5835 37.7277 75.8868 37.9143 76.2802C38.1077 76.6668 38.2043 77.1268 38.2043 77.6602C38.2043 78.1868 38.1077 78.6468 37.9143 79.0402C37.7277 79.4335 37.4643 79.7402 37.1243 79.9602C36.791 80.1735 36.3977 80.2802 35.9443 80.2802ZM35.6643 79.2602C35.931 79.2602 36.1677 79.1935 36.3743 79.0602C36.581 78.9202 36.7443 78.7302 36.8643 78.4902C36.991 78.2502 37.0543 77.9735 37.0543 77.6602C37.0543 77.3468 36.9943 77.0702 36.8743 76.8302C36.761 76.5902 36.601 76.4035 36.3943 76.2702C36.1877 76.1368 35.9477 76.0702 35.6743 76.0702C35.421 76.0702 35.1943 76.1368 34.9943 76.2702C34.7943 76.4035 34.6377 76.5902 34.5243 76.8302C34.4177 77.0702 34.3643 77.3468 34.3643 77.6602C34.3643 77.9735 34.4177 78.2502 34.5243 78.4902C34.6377 78.7302 34.791 78.9202 34.9843 79.0602C35.1843 79.1935 35.411 79.2602 35.6643 79.2602ZM41.4611 80.2802C40.9611 80.2802 40.5145 80.1702 40.1211 79.9502C39.7345 79.7235 39.4311 79.4135 39.2111 79.0202C38.9911 78.6268 38.8811 78.1735 38.8811 77.6602C38.8811 77.1468 38.9878 76.6935 39.2011 76.3002C39.4211 75.9068 39.7245 75.6002 40.1111 75.3802C40.4978 75.1535 40.9411 75.0402 41.4411 75.0402C41.9411 75.0402 42.3845 75.1535 42.7711 75.3802C43.1578 75.6002 43.4578 75.9068 43.6711 76.3002C43.8911 76.6935 44.0011 77.1468 44.0011 77.6602C44.0011 78.1735 43.8945 78.6268 43.6811 79.0202C43.4678 79.4135 43.1678 79.7235 42.7811 79.9502C42.3945 80.1702 41.9545 80.2802 41.4611 80.2802ZM41.4611 79.2502C41.7345 79.2502 41.9778 79.1835 42.1911 79.0502C42.4045 78.9102 42.5711 78.7235 42.6911 78.4902C42.8111 78.2502 42.8711 77.9735 42.8711 77.6602C42.8711 77.3468 42.8078 77.0735 42.6811 76.8402C42.5611 76.6002 42.3945 76.4135 42.1811 76.2802C41.9678 76.1402 41.7211 76.0702 41.4411 76.0702C41.1611 76.0702 40.9145 76.1368 40.7011 76.2702C40.4878 76.4035 40.3211 76.5902 40.2011 76.8302C40.0811 77.0702 40.0211 77.3468 40.0211 77.6602C40.0211 77.9735 40.0811 78.2502 40.2011 78.4902C40.3278 78.7235 40.4978 78.9102 40.7111 79.0502C40.9311 79.1835 41.1811 79.2502 41.4611 79.2502ZM45.0417 80.1602V75.1602H46.1517V80.1602H45.0417ZM45.6017 74.2102C45.4217 74.2102 45.265 74.1468 45.1317 74.0202C45.005 73.8868 44.9417 73.7302 44.9417 73.5502C44.9417 73.3702 45.005 73.2168 45.1317 73.0902C45.265 72.9635 45.4217 72.9002 45.6017 72.9002C45.7817 72.9002 45.935 72.9635 46.0617 73.0902C46.195 73.2168 46.2617 73.3702 46.2617 73.5502C46.2617 73.7302 46.195 73.8868 46.0617 74.0202C45.935 74.1468 45.7817 74.2102 45.6017 74.2102ZM47.4717 80.1602V75.1602H48.5217L48.5917 76.0802V80.1602H47.4717ZM50.8617 80.1602V77.6002H51.9817V80.1602H50.8617ZM50.8617 77.6002C50.8617 77.2002 50.815 76.8935 50.7217 76.6802C50.635 76.4602 50.5083 76.3068 50.3417 76.2202C50.1817 76.1335 49.9917 76.0902 49.7717 76.0902C49.3983 76.0835 49.1083 76.2068 48.9017 76.4602C48.695 76.7135 48.5917 77.0768 48.5917 77.5502H48.1717C48.1717 77.0235 48.2483 76.5735 48.4017 76.2002C48.555 75.8202 48.775 75.5335 49.0617 75.3402C49.3483 75.1402 49.6883 75.0402 50.0817 75.0402C50.4817 75.0402 50.8217 75.1202 51.1017 75.2802C51.3883 75.4402 51.605 75.6902 51.7517 76.0302C51.905 76.3635 51.9817 76.8002 51.9817 77.3402V77.6002H50.8617ZM55.1062 80.2802C54.5795 80.2802 54.1762 80.1502 53.8962 79.8902C53.6229 79.6235 53.4862 79.2435 53.4862 78.7502V73.6002H54.5962V78.5402C54.5962 78.7735 54.6495 78.9502 54.7562 79.0702C54.8695 79.1902 55.0329 79.2502 55.2462 79.2502C55.3129 79.2502 55.3862 79.2368 55.4662 79.2102C55.5462 79.1835 55.6362 79.1335 55.7362 79.0602L56.1462 79.9102C55.9729 80.0302 55.7995 80.1202 55.6262 80.1802C55.4529 80.2468 55.2795 80.2802 55.1062 80.2802ZM52.6562 76.1202V75.1602H55.9462V76.1202H52.6562ZM57.042 80.1602V75.1602H58.092L58.142 75.8302C58.2953 75.5702 58.492 75.3735 58.732 75.2402C58.972 75.1068 59.2453 75.0402 59.552 75.0402C59.952 75.0402 60.292 75.1302 60.572 75.3102C60.852 75.4902 61.0553 75.7635 61.182 76.1302C61.3287 75.7768 61.5353 75.5068 61.802 75.3202C62.0687 75.1335 62.382 75.0402 62.742 75.0402C63.322 75.0402 63.7687 75.2268 64.082 75.6002C64.3953 75.9668 64.5487 76.5335 64.542 77.3002V80.1602H63.432V77.6002C63.432 77.2002 63.3887 76.8935 63.302 76.6802C63.2153 76.4602 63.0987 76.3068 62.952 76.2202C62.8053 76.1335 62.6353 76.0902 62.442 76.0902C62.0953 76.0835 61.8253 76.2068 61.632 76.4602C61.4453 76.7135 61.352 77.0768 61.352 77.5502V80.1602H60.232V77.6002C60.232 77.2002 60.1887 76.8935 60.102 76.6802C60.022 76.4602 59.9087 76.3068 59.762 76.2202C59.6153 76.1335 59.4453 76.0902 59.252 76.0902C58.9053 76.0835 58.6353 76.2068 58.442 76.4602C58.2553 76.7135 58.162 77.0768 58.162 77.5502V80.1602H57.042ZM67.9146 80.2802C67.4279 80.2802 66.9946 80.1702 66.6146 79.9502C66.2412 79.7235 65.9446 79.4135 65.7246 79.0202C65.5112 78.6268 65.4046 78.1735 65.4046 77.6602C65.4046 77.1468 65.5146 76.6935 65.7346 76.3002C65.9546 75.9068 66.2546 75.6002 66.6346 75.3802C67.0212 75.1535 67.4612 75.0402 67.9546 75.0402C68.4012 75.0402 68.8046 75.1568 69.1646 75.3902C69.5246 75.6168 69.8079 75.9468 70.0146 76.3802C70.2279 76.8135 70.3346 77.3302 70.3346 77.9302H66.4046L66.5546 77.7902C66.5546 78.0968 66.6212 78.3635 66.7546 78.5902C66.8879 78.8102 67.0646 78.9802 67.2846 79.1002C67.5046 79.2202 67.7479 79.2802 68.0146 79.2802C68.3212 79.2802 68.5746 79.2135 68.7746 79.0802C68.9746 78.9402 69.1312 78.7602 69.2446 78.5402L70.2346 78.9602C70.0946 79.2268 69.9146 79.4602 69.6946 79.6602C69.4812 79.8602 69.2246 80.0135 68.9246 80.1202C68.6312 80.2268 68.2946 80.2802 67.9146 80.2802ZM66.6246 77.2102L66.4646 77.0702H69.2846L69.1346 77.2102C69.1346 76.9368 69.0746 76.7135 68.9546 76.5402C68.8346 76.3602 68.6812 76.2268 68.4946 76.1402C68.3146 76.0468 68.1246 76.0002 67.9246 76.0002C67.7246 76.0002 67.5246 76.0468 67.3246 76.1402C67.1246 76.2268 66.9579 76.3602 66.8246 76.5402C66.6912 76.7135 66.6246 76.9368 66.6246 77.2102ZM71.1924 80.1602V75.1602H72.2424L72.3124 76.0802V80.1602H71.1924ZM74.5824 80.1602V77.6002H75.7024V80.1602H74.5824ZM74.5824 77.6002C74.5824 77.2002 74.5357 76.8935 74.4424 76.6802C74.3557 76.4602 74.2291 76.3068 74.0624 76.2202C73.9024 76.1335 73.7124 76.0902 73.4924 76.0902C73.1191 76.0835 72.8291 76.2068 72.6224 76.4602C72.4157 76.7135 72.3124 77.0768 72.3124 77.5502H71.8924C71.8924 77.0235 71.9691 76.5735 72.1224 76.2002C72.2757 75.8202 72.4957 75.5335 72.7824 75.3402C73.0691 75.1402 73.4091 75.0402 73.8024 75.0402C74.2024 75.0402 74.5424 75.1202 74.8224 75.2802C75.1091 75.4402 75.3257 75.6902 75.4724 76.0302C75.6257 76.3635 75.7024 76.8002 75.7024 77.3402V77.6002H74.5824ZM78.8269 80.2802C78.3002 80.2802 77.8969 80.1502 77.6169 79.8902C77.3436 79.6235 77.2069 79.2435 77.2069 78.7502V73.6002H78.3169V78.5402C78.3169 78.7735 78.3702 78.9502 78.4769 79.0702C78.5902 79.1902 78.7536 79.2502 78.9669 79.2502C79.0336 79.2502 79.1069 79.2368 79.1869 79.2102C79.2669 79.1835 79.3569 79.1335 79.4569 79.0602L79.8669 79.9102C79.6936 80.0302 79.5202 80.1202 79.3469 80.1802C79.1736 80.2468 79.0002 80.2802 78.8269 80.2802ZM76.3769 76.1202V75.1602H79.6669V76.1202H76.3769Z" fill="white"/>
<defs>
<filter id="filter0_d_4537_11120" x="0" y="0" width="98.9316" height="98.9316" filterUnits="userSpaceOnUse" color-interpolation-filters="sRGB">
<feFlood flood-opacity="0" result="BackgroundImageFix"/>
<feColorMatrix in="SourceAlpha" type="matrix" values="0 0 0 0 0 0 0 0 0 0 0 0 0 0 0 0 0 0 127 0" result="hardAlpha"/>
<feMorphology radius="1" operator="dilate" in="SourceAlpha" result="effect1_dropShadow_4537_11120"/>
<feOffset/>
<feGaussianBlur stdDeviation="2"/>
<feComposite in2="hardAlpha" operator="out"/>
<feColorMatrix type="matrix" values="0 0 0 0 0 0 0 0 0 0 0 0 0 0 0 0 0 0 0.2 0"/>
<feBlend mode="normal" in2="BackgroundImageFix" result="effect1_dropShadow_4537_11120"/>
<feBlend mode="normal" in="SourceGraphic" in2="effect1_dropShadow_4537_11120" result="shape"/>
</filter>
<clipPath id="clip0_4537_11120">
<rect width="38.3808" height="41.1891" fill="white" transform="translate(30.2773 19.3574)"/>
</clipPath>
</defs>
</svg>
