<svg width="103" height="103" viewBox="0 0 103 103" fill="none" xmlns="http://www.w3.org/2000/svg">
<g filter="url(#filter0_d_1640_5676)">
<rect x="4" width="95" height="95.0012" rx="10" fill="#01728B"/>
</g>
<g clip-path="url(#clip0_1640_5676)">
<path d="M63.5186 42.752H61.6928C61.3469 42.752 61.0714 42.4564 61.0714 42.0852V33.1889C58.8677 33.4502 55.8311 32.302 53.9605 29.937C53.4544 30.7277 52.8522 31.3189 51.7631 31.6008V42.0852C51.7631 42.4564 51.4877 42.752 51.1417 42.752H49.3095C48.2781 42.752 47.4453 41.8514 47.4453 40.7514V31.7383C47.4453 26.4308 51.4684 22.1133 56.4141 22.1133C61.3661 22.1133 65.3828 26.4308 65.3828 31.7383V40.7514C65.3837 41.0144 65.336 41.2749 65.2426 41.5181C65.1492 41.7612 65.012 41.9821 64.8387 42.1681C64.6654 42.354 64.4596 42.5014 64.233 42.6016C64.0064 42.7018 63.7636 42.7529 63.5186 42.752ZM62.3142 41.4183H63.5186C63.8645 41.4183 64.14 41.1158 64.14 40.7514V31.7383C64.14 27.1664 60.6742 23.447 56.4141 23.447C52.1475 23.447 48.6817 27.1664 48.6817 31.7383V40.7514C48.6817 41.1227 48.9636 41.4183 49.3031 41.4183H50.5139V31.0508C50.5139 30.7208 50.7445 30.4389 51.052 30.3908C52.2436 30.212 52.6536 29.772 53.3583 28.4245C53.4672 28.2183 53.6658 28.0945 53.8772 28.0877C54.1014 28.0877 54.3 28.1977 54.4153 28.3902C56.0361 31.0783 59.4955 32.3777 61.5006 31.7452C61.6864 31.6833 61.8914 31.7245 62.0452 31.8483C62.1989 31.972 62.295 32.1714 62.295 32.3845V41.4183H62.3142Z" fill="white"/>
<path d="M56.4144 43.1172C54.0569 43.1172 51.8275 41.7284 50.6039 39.4872C50.5623 39.4115 50.5351 39.3276 50.5238 39.2406C50.5126 39.1535 50.5175 39.0649 50.5384 38.9798C50.5592 38.8948 50.5956 38.8151 50.6453 38.7452C50.695 38.6754 50.7572 38.6168 50.8281 38.5728C50.8987 38.5282 50.9768 38.499 51.0579 38.4869C51.1391 38.4748 51.2217 38.4801 51.3009 38.5025C51.3801 38.5249 51.4544 38.5639 51.5195 38.6173C51.5846 38.6706 51.6392 38.7373 51.6802 38.8134C52.6987 40.6766 54.4669 41.7834 56.4208 41.7834C58.3683 41.7834 60.1428 40.6697 61.1678 38.7997C61.3408 38.4834 61.7252 38.3734 62.0198 38.5659C62.3145 38.7516 62.417 39.1641 62.2377 39.4803C60.982 41.7559 58.8103 43.1172 56.4144 43.1172ZM69.2333 54.0003H43.6019C43.2559 54.0003 42.9805 53.7047 42.9805 53.3334V51.0784C42.9805 47.1597 45.953 43.9766 49.5981 43.9766H53.1792C53.5252 43.9766 53.8006 44.2722 53.8006 44.6434C53.8006 45.0147 53.5252 45.3103 53.1792 45.3103H49.5981C46.632 45.3103 44.2233 47.9022 44.2233 51.0784V52.6666H68.6119V51.0784C68.6119 47.8953 66.1967 45.3103 63.237 45.3103H59.6559C59.31 45.3103 59.0345 45.0147 59.0345 44.6434C59.0345 44.2722 59.31 43.9766 59.6559 43.9766H63.237C66.8886 43.9766 69.8547 47.1666 69.8547 51.0784V53.3334C69.8547 53.7047 69.5792 54.0003 69.2333 54.0003Z" fill="white"/>
<path d="M56.4198 48.1975C54.1136 48.1975 52.5633 46.7675 52.5633 44.6431V41.4187C52.5633 41.0475 52.8388 40.7518 53.1847 40.7518C53.5306 40.7518 53.8061 41.0475 53.8061 41.4187V44.6431C53.8061 46.7056 55.8113 46.8637 56.4198 46.8637C57.0348 46.8637 59.04 46.7056 59.04 44.6431V41.4256C59.04 41.0543 59.3155 40.7587 59.6614 40.7587C60.0073 40.7587 60.2828 41.0543 60.2828 41.4256V44.6431C60.2764 46.7675 58.7261 48.1975 56.4198 48.1975ZM50.5005 13.7468H45.8687C45.5228 13.7468 45.2473 13.4512 45.2473 13.08C45.2473 12.7087 45.5228 12.4131 45.8687 12.4131H50.5005C50.6653 12.4131 50.8233 12.4833 50.9399 12.6084C51.0564 12.7335 51.1219 12.9031 51.1219 13.08C51.1219 13.2568 51.0564 13.4264 50.9399 13.5515C50.8233 13.6766 50.6653 13.7468 50.5005 13.7468ZM48.0725 38.0568H35.0166C33.9852 38.0568 33.1523 37.1562 33.1523 36.0562V14.4137C33.1523 13.3068 33.9916 12.4131 35.0166 12.4131H36.7014C37.0473 12.4131 37.3228 12.7087 37.3228 13.08C37.3228 13.4512 37.0473 13.7468 36.7014 13.7468H35.0166C34.8518 13.7468 34.6937 13.8171 34.5772 13.9422C34.4606 14.0672 34.3952 14.2368 34.3952 14.4137V36.0493C34.3952 36.4206 34.677 36.7162 35.0166 36.7162H48.0725C48.4184 36.7162 48.6939 37.0118 48.6939 37.3831C48.6939 37.7543 48.4184 38.0568 48.0725 38.0568ZM62.6083 26.3968C62.2623 26.3968 61.9869 26.1012 61.9869 25.73V14.4137C61.9869 14.2368 61.9214 14.0672 61.8049 13.9422C61.6883 13.8171 61.5303 13.7468 61.3655 13.7468H59.6806C59.3347 13.7468 59.0592 13.4512 59.0592 13.08C59.0592 12.7087 59.3347 12.4131 59.6806 12.4131H61.3655C62.3969 12.4131 63.2297 13.3137 63.2297 14.4137V25.73C63.2297 26.0943 62.9478 26.3968 62.6083 26.3968ZM43.6009 13.7468H38.9692C38.6233 13.7468 38.3478 13.4512 38.3478 13.08C38.3478 12.7087 38.6233 12.4131 38.9692 12.4131H43.6009C43.7657 12.4131 43.9238 12.4833 44.0403 12.6084C44.1569 12.7335 44.2223 12.9031 44.2223 13.08C44.2223 13.2568 44.1569 13.4264 44.0403 13.5515C43.9238 13.6766 43.7657 13.7468 43.6009 13.7468ZM57.4064 13.7468H52.7747C52.4288 13.7468 52.1533 13.4512 52.1533 13.08C52.1533 12.7087 52.4288 12.4131 52.7747 12.4131H57.4064C57.5712 12.4131 57.7293 12.4833 57.8458 12.6084C57.9623 12.7335 58.0278 12.9031 58.0278 13.08C58.0278 13.2568 57.9623 13.4264 57.8458 13.5515C57.7293 13.6766 57.5712 13.7468 57.4064 13.7468Z" fill="white"/>
<path d="M41.9083 26.6856H37.0652C36.7192 26.6856 36.4438 26.39 36.4438 26.0188V20.8213C36.4438 20.45 36.7192 20.1544 37.0652 20.1544H41.9083C42.2542 20.1544 42.5297 20.45 42.5297 20.8213V26.0188C42.5297 26.39 42.2478 26.6856 41.9083 26.6856ZM37.6866 25.3519H41.2869V21.4881H37.6866V25.3519ZM49.993 26.6856H45.7648C45.4189 26.6856 45.1434 26.39 45.1434 26.0188V20.8213C45.1434 20.45 45.4189 20.1544 45.7648 20.1544H50.6016C50.9475 20.1544 51.223 20.45 51.223 20.8213V25.3106C51.223 25.675 50.9475 25.9706 50.6144 25.9775V26.0188C50.6144 26.39 50.3389 26.6856 49.993 26.6856ZM46.3863 25.3519H49.9866V21.4881H46.3927V25.3519H46.3863ZM59.3077 23.9975C58.9617 23.9975 58.6863 23.7019 58.6863 23.3306V21.4881H55.0859V23.0281C55.0859 23.3994 54.8105 23.695 54.4645 23.695C54.1186 23.695 53.8431 23.3994 53.8431 23.0281V20.8213C53.8431 20.45 54.1186 20.1544 54.4645 20.1544H59.3013C59.6472 20.1544 59.9227 20.45 59.9227 20.8213V23.3238C59.9291 23.695 59.6472 23.9975 59.3077 23.9975ZM41.9083 35.0113H37.0652C36.7192 35.0113 36.4438 34.7156 36.4438 34.3444V29.1469C36.4438 28.7756 36.7192 28.48 37.0652 28.48H41.9083C42.2542 28.48 42.5297 28.7756 42.5297 29.1469V34.3444C42.5297 34.7088 42.2478 35.0113 41.9083 35.0113ZM37.6866 33.6775H41.2869V29.8138H37.6866V33.6775ZM48.0711 35.0113H45.7648C45.4189 35.0113 45.1434 34.7156 45.1434 34.3444V29.1469C45.1434 28.7756 45.4189 28.48 45.7648 28.48H48.4234C48.7694 28.48 49.0448 28.7756 49.0448 29.1469C49.0448 29.5181 48.7694 29.8138 48.4234 29.8138H46.3863V33.6775H48.0711C48.417 33.6775 48.6925 33.9731 48.6925 34.3444C48.6925 34.7156 48.417 35.0113 48.0711 35.0113ZM37.8339 16.16C36.8666 16.16 36.0786 15.3144 36.0786 14.2763V11.8838C36.0786 10.8456 36.8666 10 37.8339 10C38.8013 10 39.5892 10.8456 39.5892 11.8838V14.2763C39.5892 15.3144 38.8013 16.16 37.8339 16.16ZM37.8339 11.3338C37.552 11.3338 37.3214 11.5813 37.3214 11.8838V14.2763C37.3214 14.5788 37.552 14.8263 37.8339 14.8263C38.1158 14.8263 38.3464 14.5788 38.3464 14.2763V11.8838C38.3464 11.5813 38.1158 11.3338 37.8339 11.3338ZM44.7334 16.16C43.7661 16.16 42.9781 15.3144 42.9781 14.2763V11.8838C42.9781 10.8456 43.7661 10 44.7334 10C45.7008 10 46.4888 10.8456 46.4888 11.8838V14.2763C46.4888 15.3144 45.7008 16.16 44.7334 16.16ZM44.7334 11.3338C44.4516 11.3338 44.2209 11.5813 44.2209 11.8838V14.2763C44.2209 14.5788 44.4516 14.8263 44.7334 14.8263C45.0153 14.8263 45.2459 14.5788 45.2459 14.2763V11.8838C45.2459 11.5813 45.0153 11.3338 44.7334 11.3338ZM51.6394 16.16C50.672 16.16 49.8841 15.3144 49.8841 14.2763V11.8838C49.8841 10.8456 50.6656 10 51.6394 10C52.6067 10 53.3947 10.8456 53.3947 11.8838V14.2763C53.393 14.7753 53.2075 15.2534 52.8787 15.6063C52.5499 15.9591 52.1044 16.1582 51.6394 16.16ZM51.6394 11.3338C51.3575 11.3338 51.1269 11.5813 51.1269 11.8838V14.2763C51.1269 14.5788 51.3575 14.8263 51.6394 14.8263C51.9213 14.8263 52.1519 14.5788 52.1519 14.2763V11.8838C52.1504 11.7384 52.0959 11.5994 52.0001 11.4966C51.9043 11.3938 51.7748 11.3354 51.6394 11.3338ZM58.5389 16.16C57.5716 16.16 56.7836 15.3144 56.7836 14.2763V11.8838C56.7836 10.8456 57.5716 10 58.5389 10C59.5063 10 60.2942 10.8456 60.2942 11.8838V14.2763C60.2942 15.3144 59.5063 16.16 58.5389 16.16ZM58.5389 11.3338C58.257 11.3338 58.0264 11.5813 58.0264 11.8838V14.2763C58.0264 14.5788 58.257 14.8263 58.5389 14.8263C58.8208 14.8263 59.0514 14.5788 59.0514 14.2763V11.8838C59.0514 11.5813 58.8208 11.3338 58.5389 11.3338ZM62.6069 18.4425H33.7659C33.42 18.4425 33.1445 18.1469 33.1445 17.7756C33.1445 17.4044 33.42 17.1088 33.7659 17.1088H62.6069C62.7717 17.1088 62.9297 17.179 63.0463 17.3041C63.1628 17.4291 63.2283 17.5988 63.2283 17.7756C63.2283 17.9525 63.1628 18.1221 63.0463 18.2472C62.9297 18.3722 62.7717 18.4425 62.6069 18.4425Z" fill="white"/>
</g>
<path d="M20.3906 70.7637L17.959 78H16.2539L19.4414 69.4688H20.5312L20.3906 70.7637ZM22.4238 78L19.9805 70.7637L19.834 69.4688H20.9297L24.1348 78H22.4238ZM22.3125 74.8301V76.1016H17.7363V74.8301H22.3125ZM26.291 72.8789V80.4375H24.7383V71.6602H26.1738L26.291 72.8789ZM30.3633 74.7656V74.8887C30.3633 75.3496 30.3086 75.7773 30.1992 76.1719C30.0938 76.5625 29.9375 76.9043 29.7305 77.1973C29.5234 77.4863 29.2656 77.7129 28.957 77.877C28.6523 78.0371 28.3008 78.1172 27.9023 78.1172C27.5117 78.1172 27.1719 78.043 26.8828 77.8945C26.5938 77.7422 26.3496 77.5273 26.1504 77.25C25.9512 76.9727 25.791 76.6504 25.6699 76.2832C25.5527 75.9121 25.4648 75.5078 25.4062 75.0703V74.6777C25.4648 74.2129 25.5527 73.791 25.6699 73.4121C25.791 73.0293 25.9512 72.6992 26.1504 72.4219C26.3496 72.1406 26.5918 71.9238 26.877 71.7715C27.166 71.6191 27.5039 71.543 27.8906 71.543C28.293 71.543 28.6465 71.6191 28.9512 71.7715C29.2598 71.9238 29.5195 72.1426 29.7305 72.4277C29.9414 72.7129 30.0996 73.0527 30.2051 73.4473C30.3105 73.8418 30.3633 74.2812 30.3633 74.7656ZM28.8105 74.8887V74.7656C28.8105 74.4844 28.7852 74.2246 28.7344 73.9863C28.6836 73.7441 28.6055 73.5332 28.5 73.3535C28.3945 73.1699 28.2578 73.0273 28.0898 72.9258C27.9219 72.8242 27.7188 72.7734 27.4805 72.7734C27.2422 72.7734 27.0371 72.8125 26.8652 72.8906C26.6934 72.9688 26.5527 73.0801 26.4434 73.2246C26.334 73.3691 26.248 73.541 26.1855 73.7402C26.127 73.9355 26.0879 74.1523 26.0684 74.3906V75.3633C26.1035 75.6523 26.1719 75.9121 26.2734 76.1426C26.375 76.373 26.5234 76.5566 26.7188 76.6934C26.918 76.8301 27.1758 76.8984 27.4922 76.8984C27.7305 76.8984 27.9336 76.8457 28.1016 76.7402C28.2695 76.6348 28.4062 76.4902 28.5117 76.3066C28.6172 76.1191 28.6934 75.9043 28.7402 75.6621C28.7871 75.4199 28.8105 75.1621 28.8105 74.8887ZM33.041 72.8789V80.4375H31.4883V71.6602H32.9238L33.041 72.8789ZM37.1133 74.7656V74.8887C37.1133 75.3496 37.0586 75.7773 36.9492 76.1719C36.8438 76.5625 36.6875 76.9043 36.4805 77.1973C36.2734 77.4863 36.0156 77.7129 35.707 77.877C35.4023 78.0371 35.0508 78.1172 34.6523 78.1172C34.2617 78.1172 33.9219 78.043 33.6328 77.8945C33.3438 77.7422 33.0996 77.5273 32.9004 77.25C32.7012 76.9727 32.541 76.6504 32.4199 76.2832C32.3027 75.9121 32.2148 75.5078 32.1562 75.0703V74.6777C32.2148 74.2129 32.3027 73.791 32.4199 73.4121C32.541 73.0293 32.7012 72.6992 32.9004 72.4219C33.0996 72.1406 33.3418 71.9238 33.627 71.7715C33.916 71.6191 34.2539 71.543 34.6406 71.543C35.043 71.543 35.3965 71.6191 35.7012 71.7715C36.0098 71.9238 36.2695 72.1426 36.4805 72.4277C36.6914 72.7129 36.8496 73.0527 36.9551 73.4473C37.0605 73.8418 37.1133 74.2812 37.1133 74.7656ZM35.5605 74.8887V74.7656C35.5605 74.4844 35.5352 74.2246 35.4844 73.9863C35.4336 73.7441 35.3555 73.5332 35.25 73.3535C35.1445 73.1699 35.0078 73.0273 34.8398 72.9258C34.6719 72.8242 34.4688 72.7734 34.2305 72.7734C33.9922 72.7734 33.7871 72.8125 33.6152 72.8906C33.4434 72.9688 33.3027 73.0801 33.1934 73.2246C33.084 73.3691 32.998 73.541 32.9355 73.7402C32.877 73.9355 32.8379 74.1523 32.8184 74.3906V75.3633C32.8535 75.6523 32.9219 75.9121 33.0234 76.1426C33.125 76.373 33.2734 76.5566 33.4688 76.6934C33.668 76.8301 33.9258 76.8984 34.2422 76.8984C34.4805 76.8984 34.6836 76.8457 34.8516 76.7402C35.0195 76.6348 35.1562 76.4902 35.2617 76.3066C35.3672 76.1191 35.4434 75.9043 35.4902 75.6621C35.5371 75.4199 35.5605 75.1621 35.5605 74.8887ZM37.9688 74.8945V74.7715C37.9688 74.3066 38.0352 73.8789 38.168 73.4883C38.3008 73.0938 38.4941 72.752 38.748 72.4629C39.002 72.1738 39.3125 71.9492 39.6797 71.7891C40.0469 71.625 40.4648 71.543 40.9336 71.543C41.4102 71.543 41.832 71.625 42.1992 71.7891C42.5703 71.9492 42.8828 72.1738 43.1367 72.4629C43.3906 72.752 43.584 73.0938 43.7168 73.4883C43.8496 73.8789 43.916 74.3066 43.916 74.7715V74.8945C43.916 75.3555 43.8496 75.7832 43.7168 76.1777C43.584 76.5684 43.3906 76.9102 43.1367 77.2031C42.8828 77.4922 42.5723 77.7168 42.2051 77.877C41.8379 78.0371 41.418 78.1172 40.9453 78.1172C40.4766 78.1172 40.0566 78.0371 39.6855 77.877C39.3145 77.7168 39.002 77.4922 38.748 77.2031C38.4941 76.9102 38.3008 76.5684 38.168 76.1777C38.0352 75.7832 37.9688 75.3555 37.9688 74.8945ZM39.5156 74.7715V74.8945C39.5156 75.1719 39.543 75.4316 39.5977 75.6738C39.6523 75.916 39.7363 76.1289 39.8496 76.3125C39.9629 76.4961 40.1094 76.6406 40.2891 76.7461C40.4727 76.8477 40.6914 76.8984 40.9453 76.8984C41.1953 76.8984 41.4102 76.8477 41.5898 76.7461C41.7695 76.6406 41.916 76.4961 42.0293 76.3125C42.1465 76.1289 42.2324 75.916 42.2871 75.6738C42.3418 75.4316 42.3691 75.1719 42.3691 74.8945V74.7715C42.3691 74.498 42.3418 74.2422 42.2871 74.0039C42.2324 73.7617 42.1465 73.5488 42.0293 73.3652C41.916 73.1777 41.7676 73.0312 41.584 72.9258C41.4043 72.8164 41.1875 72.7617 40.9336 72.7617C40.6836 72.7617 40.4688 72.8164 40.2891 72.9258C40.1094 73.0312 39.9629 73.1777 39.8496 73.3652C39.7363 73.5488 39.6523 73.7617 39.5977 74.0039C39.543 74.2422 39.5156 74.498 39.5156 74.7715ZM46.6816 71.6602V78H45.1289V71.6602H46.6816ZM45.0234 70.002C45.0234 69.7715 45.1016 69.5801 45.2578 69.4277C45.418 69.2754 45.6328 69.1992 45.9023 69.1992C46.1719 69.1992 46.3848 69.2754 46.541 69.4277C46.7012 69.5801 46.7812 69.7715 46.7812 70.002C46.7812 70.2285 46.7012 70.418 46.541 70.5703C46.3848 70.7227 46.1719 70.7988 45.9023 70.7988C45.6328 70.7988 45.418 70.7227 45.2578 70.5703C45.1016 70.418 45.0234 70.2285 45.0234 70.002ZM49.6758 73.0137V78H48.1289V71.6602H49.582L49.6758 73.0137ZM49.4297 74.6016H48.9727C48.9766 74.1406 49.0391 73.7227 49.1602 73.3477C49.2812 72.9727 49.4512 72.6504 49.6699 72.3809C49.8926 72.1113 50.1562 71.9043 50.4609 71.7598C50.7656 71.6152 51.1055 71.543 51.4805 71.543C51.7852 71.543 52.0605 71.5859 52.3066 71.6719C52.5527 71.7578 52.7637 71.8945 52.9395 72.082C53.1191 72.2695 53.2559 72.5156 53.3496 72.8203C53.4473 73.1211 53.4961 73.4922 53.4961 73.9336V78H51.9375V73.9219C51.9375 73.6328 51.8945 73.4043 51.8086 73.2363C51.7266 73.0684 51.6055 72.9492 51.4453 72.8789C51.2891 72.8086 51.0957 72.7734 50.8652 72.7734C50.627 72.7734 50.418 72.8223 50.2383 72.9199C50.0625 73.0137 49.9141 73.1445 49.793 73.3125C49.6758 73.4805 49.5859 73.6738 49.5234 73.8926C49.4609 74.1113 49.4297 74.3477 49.4297 74.6016ZM57.8613 71.6602V72.7734H54.2285V71.6602H57.8613ZM55.2012 70.1016H56.7539V76.1719C56.7539 76.3594 56.7793 76.5039 56.8301 76.6055C56.8809 76.707 56.957 76.7754 57.0586 76.8105C57.1602 76.8457 57.2812 76.8633 57.4219 76.8633C57.5234 76.8633 57.6172 76.8574 57.7031 76.8457C57.7891 76.834 57.8613 76.8223 57.9199 76.8105L57.9258 77.9707C57.7969 78.0137 57.6504 78.0488 57.4863 78.0762C57.3262 78.1035 57.1445 78.1172 56.9414 78.1172C56.5938 78.1172 56.2891 78.0586 56.0273 77.9414C55.7656 77.8203 55.5625 77.627 55.418 77.3613C55.2734 77.0918 55.2012 76.7363 55.2012 76.2949V70.1016ZM60.4336 72.9609V78H58.8867V71.6602H60.3457L60.4336 72.9609ZM60.2051 74.6016H59.7305C59.7305 74.1602 59.7832 73.7539 59.8887 73.3828C59.998 73.0117 60.1582 72.6895 60.3691 72.416C60.5801 72.1387 60.8398 71.9238 61.1484 71.7715C61.4609 71.6191 61.8223 71.543 62.2324 71.543C62.5176 71.543 62.7793 71.5859 63.0176 71.6719C63.2559 71.7539 63.4609 71.8848 63.6328 72.0645C63.8086 72.2402 63.9434 72.4707 64.0371 72.7559C64.1309 73.0371 64.1777 73.375 64.1777 73.7695V78H62.6309V73.9277C62.6309 73.6309 62.5879 73.3984 62.502 73.2305C62.4199 73.0625 62.3008 72.9453 62.1445 72.8789C61.9883 72.8086 61.8008 72.7734 61.582 72.7734C61.3398 72.7734 61.1309 72.8223 60.9551 72.9199C60.7832 73.0137 60.6406 73.1445 60.5273 73.3125C60.418 73.4805 60.3359 73.6738 60.2812 73.8926C60.2305 74.1113 60.2051 74.3477 60.2051 74.6016ZM64.0605 74.3145L63.4219 74.4316C63.4258 74.0332 63.4805 73.6602 63.5859 73.3125C63.6914 72.9609 63.8457 72.6543 64.0488 72.3926C64.2559 72.127 64.5117 71.9199 64.8164 71.7715C65.125 71.6191 65.4805 71.543 65.8828 71.543C66.1953 71.543 66.4766 71.5879 66.7266 71.6777C66.9805 71.7637 67.1973 71.9023 67.377 72.0938C67.5566 72.2812 67.6934 72.5254 67.7871 72.8262C67.8848 73.127 67.9336 73.4941 67.9336 73.9277V78H66.375V73.9219C66.375 73.6133 66.332 73.377 66.2461 73.2129C66.1641 73.0488 66.0449 72.9355 65.8887 72.873C65.7324 72.8066 65.5488 72.7734 65.3379 72.7734C65.123 72.7734 64.9355 72.8145 64.7754 72.8965C64.6191 72.9746 64.4863 73.084 64.377 73.2246C64.2715 73.3652 64.1914 73.5293 64.1367 73.7168C64.0859 73.9004 64.0605 74.0996 64.0605 74.3145ZM72.1699 78.1172C71.6895 78.1172 71.2578 78.0391 70.875 77.8828C70.4922 77.7266 70.166 77.5098 69.8965 77.2324C69.6309 76.9512 69.4258 76.625 69.2812 76.2539C69.1406 75.8789 69.0703 75.4766 69.0703 75.0469V74.8125C69.0703 74.3242 69.1406 73.8809 69.2812 73.4824C69.4219 73.0801 69.6211 72.7344 69.8789 72.4453C70.1367 72.1562 70.4453 71.9336 70.8047 71.7773C71.1641 71.6211 71.5605 71.543 71.9941 71.543C72.4434 71.543 72.8398 71.6191 73.1836 71.7715C73.5273 71.9199 73.8145 72.1309 74.0449 72.4043C74.2754 72.6777 74.4492 73.0059 74.5664 73.3887C74.6836 73.7676 74.7422 74.1875 74.7422 74.6484V75.2988H69.7734V74.2324H73.2188V74.1152C73.2109 73.8691 73.1641 73.6445 73.0781 73.4414C72.9922 73.2344 72.8594 73.0703 72.6797 72.9492C72.5 72.8242 72.2676 72.7617 71.9824 72.7617C71.752 72.7617 71.5508 72.8125 71.3789 72.9141C71.2109 73.0117 71.0703 73.1523 70.957 73.3359C70.8477 73.5156 70.7656 73.7305 70.7109 73.9805C70.6562 74.2305 70.6289 74.5078 70.6289 74.8125V75.0469C70.6289 75.3125 70.6641 75.5586 70.7344 75.7852C70.8086 76.0117 70.916 76.209 71.0566 76.377C71.2012 76.541 71.373 76.6699 71.5723 76.7637C71.7754 76.8535 72.0059 76.8984 72.2637 76.8984C72.5879 76.8984 72.8809 76.8359 73.1426 76.7109C73.4082 76.582 73.6387 76.3926 73.834 76.1426L74.6133 76.9512C74.4805 77.1465 74.3008 77.334 74.0742 77.5137C73.8516 77.6934 73.582 77.8398 73.2656 77.9531C72.9492 78.0625 72.584 78.1172 72.1699 78.1172ZM77.2969 73.0137V78H75.75V71.6602H77.2031L77.2969 73.0137ZM77.0508 74.6016H76.5938C76.5977 74.1406 76.6602 73.7227 76.7812 73.3477C76.9023 72.9727 77.0723 72.6504 77.291 72.3809C77.5137 72.1113 77.7773 71.9043 78.082 71.7598C78.3867 71.6152 78.7266 71.543 79.1016 71.543C79.4062 71.543 79.6816 71.5859 79.9277 71.6719C80.1738 71.7578 80.3848 71.8945 80.5605 72.082C80.7402 72.2695 80.877 72.5156 80.9707 72.8203C81.0684 73.1211 81.1172 73.4922 81.1172 73.9336V78H79.5586V73.9219C79.5586 73.6328 79.5156 73.4043 79.4297 73.2363C79.3477 73.0684 79.2266 72.9492 79.0664 72.8789C78.9102 72.8086 78.7168 72.7734 78.4863 72.7734C78.248 72.7734 78.0391 72.8223 77.8594 72.9199C77.6836 73.0137 77.5352 73.1445 77.4141 73.3125C77.2969 73.4805 77.207 73.6738 77.1445 73.8926C77.082 74.1113 77.0508 74.3477 77.0508 74.6016ZM85.4824 71.6602V72.7734H81.8496V71.6602H85.4824ZM82.8223 70.1016H84.375V76.1719C84.375 76.3594 84.4004 76.5039 84.4512 76.6055C84.502 76.707 84.5781 76.7754 84.6797 76.8105C84.7812 76.8457 84.9023 76.8633 85.043 76.8633C85.1445 76.8633 85.2383 76.8574 85.3242 76.8457C85.4102 76.834 85.4824 76.8223 85.541 76.8105L85.5469 77.9707C85.418 78.0137 85.2715 78.0488 85.1074 78.0762C84.9473 78.1035 84.7656 78.1172 84.5625 78.1172C84.2148 78.1172 83.9102 78.0586 83.6484 77.9414C83.3867 77.8203 83.1836 77.627 83.0391 77.3613C82.8945 77.0918 82.8223 76.7363 82.8223 76.2949V70.1016Z" fill="white"/>
<defs>
<filter id="filter0_d_1640_5676" x="0" y="0" width="103" height="103.001" filterUnits="userSpaceOnUse" color-interpolation-filters="sRGB">
<feFlood flood-opacity="0" result="BackgroundImageFix"/>
<feColorMatrix in="SourceAlpha" type="matrix" values="0 0 0 0 0 0 0 0 0 0 0 0 0 0 0 0 0 0 127 0" result="hardAlpha"/>
<feOffset dy="4"/>
<feGaussianBlur stdDeviation="2"/>
<feComposite in2="hardAlpha" operator="out"/>
<feColorMatrix type="matrix" values="0 0 0 0 0 0 0 0 0 0 0 0 0 0 0 0 0 0 0.25 0"/>
<feBlend mode="normal" in2="BackgroundImageFix" result="effect1_dropShadow_1640_5676"/>
<feBlend mode="normal" in="SourceGraphic" in2="effect1_dropShadow_1640_5676" result="shape"/>
</filter>
<clipPath id="clip0_1640_5676">
<rect width="41" height="44" fill="white" transform="translate(31 10)"/>
</clipPath>
</defs>
</svg>
