<svg width="90" height="89" viewBox="0 0 90 89" fill="none" xmlns="http://www.w3.org/2000/svg">
<g filter="url(#filter0_d_3455_9908)">
<rect x="4.86328" width="80.5234" height="80.5244" rx="10" fill="#87ABC9"/>
</g>
<g clip-path="url(#clip0_3455_9908)">
<path d="M55.3114 40.7613H53.7639C53.4707 40.7613 53.2372 40.5107 53.2372 40.196V32.6554C51.3692 32.8769 48.7954 31.9037 47.2098 29.8991C46.7809 30.5692 46.2704 31.0704 45.3473 31.3093V40.196C45.3473 40.5107 45.1138 40.7613 44.8206 40.7613H43.2676C42.3934 40.7613 41.6875 39.9979 41.6875 39.0655V31.4259C41.6875 26.9272 45.0976 23.2676 49.2895 23.2676C53.487 23.2676 56.8916 26.9272 56.8916 31.4259V39.0655C56.8923 39.2884 56.8519 39.5093 56.7728 39.7154C56.6936 39.9214 56.5772 40.1087 56.4304 40.2663C56.2835 40.4239 56.109 40.5488 55.917 40.6338C55.7249 40.7187 55.5191 40.762 55.3114 40.7613ZM54.2906 39.6308H55.3114C55.6047 39.6308 55.8382 39.3744 55.8382 39.0655V31.4259C55.8382 27.5507 52.9005 24.3981 49.2895 24.3981C45.6731 24.3981 42.7355 27.5507 42.7355 31.4259V39.0655C42.7355 39.3802 42.9744 39.6308 43.2622 39.6308H44.2885V30.8431C44.2885 30.5634 44.484 30.3245 44.7446 30.2837C45.7546 30.1322 46.1021 29.7592 46.6994 28.6171C46.7917 28.4423 46.9601 28.3374 47.1392 28.3315C47.3293 28.3315 47.4976 28.4248 47.5954 28.5879C48.9692 30.8664 51.9014 31.9678 53.601 31.4317C53.7585 31.3792 53.9322 31.4142 54.0625 31.5191C54.1929 31.624 54.2743 31.793 54.2743 31.9736V39.6308H54.2906Z" fill="white"/>
<path d="M49.293 41.0712C47.2948 41.0712 45.4051 39.8941 44.368 37.9944C44.3327 37.9302 44.3097 37.8592 44.3001 37.7853C44.2906 37.7115 44.2948 37.6364 44.3125 37.5644C44.3301 37.4923 44.3609 37.4247 44.4031 37.3655C44.4452 37.3063 44.4979 37.2566 44.558 37.2194C44.6178 37.1815 44.6841 37.1568 44.7528 37.1465C44.8216 37.1363 44.8916 37.1408 44.9587 37.1598C45.0259 37.1787 45.0889 37.2118 45.1441 37.257C45.1992 37.3023 45.2455 37.3588 45.2802 37.4233C46.1436 39.0025 47.6423 39.9407 49.2984 39.9407C50.9492 39.9407 52.4533 38.9967 53.3221 37.4117C53.4687 37.1436 53.7945 37.0504 54.0443 37.2135C54.2941 37.3709 54.381 37.7205 54.2289 37.9886C53.1646 39.9174 51.3238 41.0712 49.293 41.0712ZM60.1585 50.2959H38.433C38.1397 50.2959 37.9062 50.0454 37.9062 49.7307V47.8193C37.9062 44.4977 40.4258 41.7997 43.5155 41.7997H46.5509C46.8441 41.7997 47.0776 42.0502 47.0776 42.3649C47.0776 42.6796 46.8441 42.9302 46.5509 42.9302H43.5155C41.0014 42.9302 38.9597 45.1271 38.9597 47.8193V49.1654H59.6318V47.8193C59.6318 45.1213 57.5847 42.9302 55.076 42.9302H52.0406C51.7474 42.9302 51.5139 42.6796 51.5139 42.3649C51.5139 42.0502 51.7474 41.7997 52.0406 41.7997H55.076C58.1711 41.7997 60.6852 44.5036 60.6852 47.8193V49.7307C60.6852 50.0454 60.4517 50.2959 60.1585 50.2959Z" fill="white"/>
<path d="M49.2961 45.3763C47.3413 45.3763 46.0272 44.1642 46.0272 42.3635V39.6305C46.0272 39.3158 46.2607 39.0653 46.5539 39.0653C46.8471 39.0653 47.0806 39.3158 47.0806 39.6305V42.3635C47.0806 44.1117 48.7802 44.2458 49.2961 44.2458C49.8174 44.2458 51.517 44.1117 51.517 42.3635V39.6363C51.517 39.3217 51.7505 39.0711 52.0437 39.0711C52.3369 39.0711 52.5704 39.3217 52.5704 39.6363V42.3635C52.565 44.1642 51.2509 45.3763 49.2961 45.3763ZM44.2787 16.1754H40.3528C40.0596 16.1754 39.8261 15.9249 39.8261 15.6102C39.8261 15.2955 40.0596 15.0449 40.3528 15.0449H44.2787C44.4184 15.0449 44.5524 15.1045 44.6512 15.2105C44.75 15.3165 44.8054 15.4603 44.8054 15.6102C44.8054 15.7601 44.75 15.9039 44.6512 16.0099C44.5524 16.1159 44.4184 16.1754 44.2787 16.1754ZM42.2208 36.7809H31.1544C30.2801 36.7809 29.5742 36.0175 29.5742 35.0852V16.7407C29.5742 15.8025 30.2856 15.0449 31.1544 15.0449H32.5825C32.8757 15.0449 33.1092 15.2955 33.1092 15.6102C33.1092 15.9249 32.8757 16.1754 32.5825 16.1754H31.1544C31.0147 16.1754 30.8807 16.235 30.7819 16.341C30.6831 16.447 30.6276 16.5908 30.6276 16.7407V35.0793C30.6276 35.394 30.8666 35.6446 31.1544 35.6446H42.2208C42.514 35.6446 42.7475 35.8952 42.7475 36.2099C42.7475 36.5245 42.514 36.7809 42.2208 36.7809ZM54.5415 26.8977C54.2483 26.8977 54.0148 26.6472 54.0148 26.3325V16.7407C54.0148 16.5908 53.9593 16.447 53.8605 16.341C53.7617 16.235 53.6278 16.1754 53.4881 16.1754H52.06C51.7667 16.1754 51.5333 15.9249 51.5333 15.6102C51.5333 15.2955 51.7667 15.0449 52.06 15.0449H53.4881C54.3623 15.0449 55.0682 15.8083 55.0682 16.7407V26.3325C55.0682 26.6413 54.8293 26.8977 54.5415 26.8977ZM38.4306 16.1754H34.5047C34.2115 16.1754 33.978 15.9249 33.978 15.6102C33.978 15.2955 34.2115 15.0449 34.5047 15.0449H38.4306C38.5703 15.0449 38.7043 15.1045 38.803 15.2105C38.9018 15.3165 38.9573 15.4603 38.9573 15.6102C38.9573 15.7601 38.9018 15.9039 38.803 16.0099C38.7043 16.1159 38.5703 16.1754 38.4306 16.1754ZM50.1323 16.1754H46.2064C45.9132 16.1754 45.6797 15.9249 45.6797 15.6102C45.6797 15.2955 45.9132 15.0449 46.2064 15.0449H50.1323C50.272 15.0449 50.406 15.1045 50.5048 15.2105C50.6035 15.3165 50.659 15.4603 50.659 15.6102C50.659 15.7601 50.6035 15.9039 50.5048 16.0099C50.406 16.1159 50.272 16.1754 50.1323 16.1754Z" fill="white"/>
<path d="M36.9947 27.143H32.8896C32.5964 27.143 32.3629 26.8924 32.3629 26.5777V22.1722C32.3629 21.8576 32.5964 21.607 32.8896 21.607H36.9947C37.2879 21.607 37.5214 21.8576 37.5214 22.1722V26.5777C37.5214 26.8924 37.2825 27.143 36.9947 27.143ZM33.4163 26.0125H36.468V22.7375H33.4163V26.0125ZM43.8474 27.143H40.2636C39.9703 27.143 39.7369 26.8924 39.7369 26.5777V22.1722C39.7369 21.8576 39.9703 21.607 40.2636 21.607H44.3632C44.6565 21.607 44.8899 21.8576 44.8899 22.1722V25.9775C44.8899 26.2864 44.6565 26.5369 44.3741 26.5428V26.5777C44.3741 26.8924 44.1406 27.143 43.8474 27.143ZM40.7903 26.0125H43.842V22.7375H40.7957V26.0125H40.7903ZM51.7426 24.8645C51.4494 24.8645 51.2159 24.6139 51.2159 24.2992V22.7375H48.1643V24.0428C48.1643 24.3575 47.9308 24.6081 47.6375 24.6081C47.3443 24.6081 47.1108 24.3575 47.1108 24.0428V22.1722C47.1108 21.8576 47.3443 21.607 47.6375 21.607H51.7372C52.0304 21.607 52.2639 21.8576 52.2639 22.1722V24.2934C52.2694 24.6081 52.0304 24.8645 51.7426 24.8645ZM36.9947 34.1999H32.8896C32.5964 34.1999 32.3629 33.9493 32.3629 33.6346V29.2292C32.3629 28.9145 32.5964 28.6639 32.8896 28.6639H36.9947C37.2879 28.6639 37.5214 28.9145 37.5214 29.2292V33.6346C37.5214 33.9435 37.2825 34.1999 36.9947 34.1999ZM33.4163 33.0694H36.468V29.7944H33.4163V33.0694ZM42.2184 34.1999H40.2636C39.9703 34.1999 39.7369 33.9493 39.7369 33.6346V29.2292C39.7369 28.9145 39.9703 28.6639 40.2636 28.6639H42.517C42.8102 28.6639 43.0437 28.9145 43.0437 29.2292C43.0437 29.5438 42.8102 29.7944 42.517 29.7944H40.7903V33.0694H42.2184C42.5116 33.0694 42.7451 33.32 42.7451 33.6346C42.7451 33.9493 42.5116 34.1999 42.2184 34.1999ZM33.5412 18.2213C32.7213 18.2213 32.0534 17.5045 32.0534 16.6246V14.5967C32.0534 13.7168 32.7213 13 33.5412 13C34.3611 13 35.029 13.7168 35.029 14.5967V16.6246C35.029 17.5045 34.3611 18.2213 33.5412 18.2213ZM33.5412 14.1305C33.3023 14.1305 33.1068 14.3403 33.1068 14.5967V16.6246C33.1068 16.881 33.3023 17.0908 33.5412 17.0908C33.7801 17.0908 33.9756 16.881 33.9756 16.6246V14.5967C33.9756 14.3403 33.7801 14.1305 33.5412 14.1305ZM39.3893 18.2213C38.5694 18.2213 37.9015 17.5045 37.9015 16.6246V14.5967C37.9015 13.7168 38.5694 13 39.3893 13C40.2093 13 40.8772 13.7168 40.8772 14.5967V16.6246C40.8772 17.5045 40.2093 18.2213 39.3893 18.2213ZM39.3893 14.1305C39.1504 14.1305 38.9549 14.3403 38.9549 14.5967V16.6246C38.9549 16.881 39.1504 17.0908 39.3893 17.0908C39.6283 17.0908 39.8237 16.881 39.8237 16.6246V14.5967C39.8237 14.3403 39.6283 14.1305 39.3893 14.1305ZM45.2429 18.2213C44.423 18.2213 43.7551 17.5045 43.7551 16.6246V14.5967C43.7551 13.7168 44.4175 13 45.2429 13C46.0628 13 46.7307 13.7168 46.7307 14.5967V16.6246C46.7293 17.0476 46.5721 17.4528 46.2934 17.7519C46.0147 18.0511 45.6371 18.2198 45.2429 18.2213ZM45.2429 14.1305C45.004 14.1305 44.8085 14.3403 44.8085 14.5967V16.6246C44.8085 16.881 45.004 17.0908 45.2429 17.0908C45.4818 17.0908 45.6773 16.881 45.6773 16.6246V14.5967C45.676 14.4735 45.6299 14.3557 45.5487 14.2686C45.4675 14.1814 45.3577 14.1319 45.2429 14.1305ZM51.091 18.2213C50.2711 18.2213 49.6032 17.5045 49.6032 16.6246V14.5967C49.6032 13.7168 50.2711 13 51.091 13C51.911 13 52.5789 13.7168 52.5789 14.5967V16.6246C52.5789 17.5045 51.911 18.2213 51.091 18.2213ZM51.091 14.1305C50.8521 14.1305 50.6566 14.3403 50.6566 14.5967V16.6246C50.6566 16.881 50.8521 17.0908 51.091 17.0908C51.33 17.0908 51.5254 16.881 51.5254 16.6246V14.5967C51.5254 14.3403 51.33 14.1305 51.091 14.1305ZM54.5391 20.156H30.0931C29.7999 20.156 29.5664 19.9054 29.5664 19.5907C29.5664 19.2761 29.7999 19.0255 30.0931 19.0255H54.5391C54.6788 19.0255 54.8128 19.085 54.9116 19.191C55.0103 19.297 55.0658 19.4408 55.0658 19.5907C55.0658 19.7406 55.0103 19.8844 54.9116 19.9904C54.8128 20.0964 54.6788 20.156 54.5391 20.156Z" fill="white"/>
</g>
<path d="M19.9922 61.9697L17.9658 68H16.5449L19.2012 60.8906H20.1094L19.9922 61.9697ZM21.6865 68L19.6504 61.9697L19.5283 60.8906H20.4414L23.1123 68H21.6865ZM21.5938 65.3584V66.418H17.7803V65.3584H21.5938ZM24.9092 63.7324V70.0312H23.6152V62.7168H24.8115L24.9092 63.7324ZM28.3027 65.3047V65.4072C28.3027 65.7913 28.2572 66.1478 28.166 66.4766C28.0781 66.8021 27.9479 67.0869 27.7754 67.3311C27.6029 67.5719 27.388 67.7607 27.1309 67.8975C26.877 68.0309 26.584 68.0977 26.252 68.0977C25.9264 68.0977 25.6432 68.0358 25.4023 67.9121C25.1615 67.7852 24.958 67.6061 24.792 67.375C24.626 67.1439 24.4925 66.8753 24.3916 66.5693C24.2939 66.2601 24.2207 65.9232 24.1719 65.5586V65.2314C24.2207 64.8441 24.2939 64.4925 24.3916 64.1768C24.4925 63.8577 24.626 63.5827 24.792 63.3516C24.958 63.1172 25.1598 62.9365 25.3975 62.8096C25.6383 62.6826 25.9199 62.6191 26.2422 62.6191C26.5775 62.6191 26.8721 62.6826 27.126 62.8096C27.3831 62.9365 27.5996 63.1188 27.7754 63.3564C27.9512 63.5941 28.083 63.8773 28.1709 64.2061C28.2588 64.5348 28.3027 64.901 28.3027 65.3047ZM27.0088 65.4072V65.3047C27.0088 65.0703 26.9876 64.8538 26.9453 64.6553C26.903 64.4535 26.8379 64.2777 26.75 64.1279C26.6621 63.9749 26.5482 63.8561 26.4082 63.7715C26.2682 63.6868 26.099 63.6445 25.9004 63.6445C25.7018 63.6445 25.5309 63.6771 25.3877 63.7422C25.2445 63.8073 25.1273 63.9001 25.0361 64.0205C24.945 64.141 24.8734 64.2842 24.8213 64.4502C24.7725 64.613 24.7399 64.7936 24.7236 64.9922V65.8027C24.7529 66.0436 24.8099 66.2601 24.8945 66.4521C24.9792 66.6442 25.1029 66.7972 25.2656 66.9111C25.4316 67.0251 25.6465 67.082 25.9102 67.082C26.1087 67.082 26.278 67.0381 26.418 66.9502C26.5579 66.8623 26.6719 66.7419 26.7598 66.5889C26.8477 66.4326 26.9111 66.2536 26.9502 66.0518C26.9893 65.8499 27.0088 65.6351 27.0088 65.4072ZM30.5342 63.7324V70.0312H29.2402V62.7168H30.4365L30.5342 63.7324ZM33.9277 65.3047V65.4072C33.9277 65.7913 33.8822 66.1478 33.791 66.4766C33.7031 66.8021 33.5729 67.0869 33.4004 67.3311C33.2279 67.5719 33.013 67.7607 32.7559 67.8975C32.502 68.0309 32.209 68.0977 31.877 68.0977C31.5514 68.0977 31.2682 68.0358 31.0273 67.9121C30.7865 67.7852 30.583 67.6061 30.417 67.375C30.251 67.1439 30.1175 66.8753 30.0166 66.5693C29.9189 66.2601 29.8457 65.9232 29.7969 65.5586V65.2314C29.8457 64.8441 29.9189 64.4925 30.0166 64.1768C30.1175 63.8577 30.251 63.5827 30.417 63.3516C30.583 63.1172 30.7848 62.9365 31.0225 62.8096C31.2633 62.6826 31.5449 62.6191 31.8672 62.6191C32.2025 62.6191 32.4971 62.6826 32.751 62.8096C33.0081 62.9365 33.2246 63.1188 33.4004 63.3564C33.5762 63.5941 33.708 63.8773 33.7959 64.2061C33.8838 64.5348 33.9277 64.901 33.9277 65.3047ZM32.6338 65.4072V65.3047C32.6338 65.0703 32.6126 64.8538 32.5703 64.6553C32.528 64.4535 32.4629 64.2777 32.375 64.1279C32.2871 63.9749 32.1732 63.8561 32.0332 63.7715C31.8932 63.6868 31.724 63.6445 31.5254 63.6445C31.3268 63.6445 31.1559 63.6771 31.0127 63.7422C30.8695 63.8073 30.7523 63.9001 30.6611 64.0205C30.57 64.141 30.4984 64.2842 30.4463 64.4502C30.3975 64.613 30.3649 64.7936 30.3486 64.9922V65.8027C30.3779 66.0436 30.4349 66.2601 30.5195 66.4521C30.6042 66.6442 30.7279 66.7972 30.8906 66.9111C31.0566 67.0251 31.2715 67.082 31.5352 67.082C31.7337 67.082 31.903 67.0381 32.043 66.9502C32.1829 66.8623 32.2969 66.7419 32.3848 66.5889C32.4727 66.4326 32.5361 66.2536 32.5752 66.0518C32.6143 65.8499 32.6338 65.6351 32.6338 65.4072ZM34.6406 65.4121V65.3096C34.6406 64.9222 34.696 64.5658 34.8066 64.2402C34.9173 63.9115 35.0785 63.6266 35.29 63.3857C35.5016 63.1449 35.7604 62.9577 36.0664 62.8242C36.3724 62.6875 36.7207 62.6191 37.1113 62.6191C37.5085 62.6191 37.86 62.6875 38.166 62.8242C38.4753 62.9577 38.7357 63.1449 38.9473 63.3857C39.1589 63.6266 39.32 63.9115 39.4307 64.2402C39.5413 64.5658 39.5967 64.9222 39.5967 65.3096V65.4121C39.5967 65.7962 39.5413 66.1527 39.4307 66.4814C39.32 66.807 39.1589 67.0918 38.9473 67.3359C38.7357 67.5768 38.4769 67.764 38.1709 67.8975C37.8649 68.0309 37.515 68.0977 37.1211 68.0977C36.7305 68.0977 36.3805 68.0309 36.0713 67.8975C35.762 67.764 35.5016 67.5768 35.29 67.3359C35.0785 67.0918 34.9173 66.807 34.8066 66.4814C34.696 66.1527 34.6406 65.7962 34.6406 65.4121ZM35.9297 65.3096V65.4121C35.9297 65.6432 35.9525 65.8597 35.998 66.0615C36.0436 66.2633 36.1136 66.4408 36.208 66.5938C36.3024 66.7467 36.4245 66.8672 36.5742 66.9551C36.7272 67.0397 36.9095 67.082 37.1211 67.082C37.3294 67.082 37.5085 67.0397 37.6582 66.9551C37.8079 66.8672 37.93 66.7467 38.0244 66.5938C38.1221 66.4408 38.1937 66.2633 38.2393 66.0615C38.2848 65.8597 38.3076 65.6432 38.3076 65.4121V65.3096C38.3076 65.0817 38.2848 64.8685 38.2393 64.6699C38.1937 64.4681 38.1221 64.2907 38.0244 64.1377C37.93 63.9814 37.8063 63.8594 37.6533 63.7715C37.5036 63.6803 37.3229 63.6348 37.1113 63.6348C36.903 63.6348 36.724 63.6803 36.5742 63.7715C36.4245 63.8594 36.3024 63.9814 36.208 64.1377C36.1136 64.2907 36.0436 64.4681 35.998 64.6699C35.9525 64.8685 35.9297 65.0817 35.9297 65.3096ZM41.9014 62.7168V68H40.6074V62.7168H41.9014ZM40.5195 61.335C40.5195 61.1429 40.5846 60.9834 40.7148 60.8564C40.8483 60.7295 41.0273 60.666 41.252 60.666C41.4766 60.666 41.654 60.7295 41.7842 60.8564C41.9176 60.9834 41.9844 61.1429 41.9844 61.335C41.9844 61.5238 41.9176 61.6816 41.7842 61.8086C41.654 61.9355 41.4766 61.999 41.252 61.999C41.0273 61.999 40.8483 61.9355 40.7148 61.8086C40.5846 61.6816 40.5195 61.5238 40.5195 61.335ZM44.3965 63.8447V68H43.1074V62.7168H44.3184L44.3965 63.8447ZM44.1914 65.168H43.8105C43.8138 64.7839 43.8659 64.4355 43.9668 64.123C44.0677 63.8105 44.2093 63.542 44.3916 63.3174C44.5771 63.0928 44.7969 62.9202 45.0508 62.7998C45.3047 62.6794 45.5879 62.6191 45.9004 62.6191C46.1543 62.6191 46.3838 62.6549 46.5889 62.7266C46.7939 62.7982 46.9697 62.9121 47.1162 63.0684C47.266 63.2246 47.3799 63.4297 47.458 63.6836C47.5394 63.9342 47.5801 64.2435 47.5801 64.6113V68H46.2812V64.6016C46.2812 64.3607 46.2454 64.1702 46.1738 64.0303C46.1055 63.8903 46.0046 63.791 45.8711 63.7324C45.7409 63.6738 45.5798 63.6445 45.3877 63.6445C45.1891 63.6445 45.015 63.6852 44.8652 63.7666C44.7188 63.8447 44.5951 63.9538 44.4941 64.0938C44.3965 64.2337 44.3216 64.3949 44.2695 64.5771C44.2174 64.7594 44.1914 64.9564 44.1914 65.168ZM51.2178 62.7168V63.6445H48.1904V62.7168H51.2178ZM49.001 61.418H50.2949V66.4766C50.2949 66.6328 50.3161 66.7533 50.3584 66.8379C50.4007 66.9225 50.4642 66.9795 50.5488 67.0088C50.6335 67.0381 50.7344 67.0527 50.8516 67.0527C50.9362 67.0527 51.0143 67.0479 51.0859 67.0381C51.1576 67.0283 51.2178 67.0186 51.2666 67.0088L51.2715 67.9756C51.1641 68.0114 51.042 68.0407 50.9053 68.0635C50.7718 68.0863 50.6204 68.0977 50.4512 68.0977C50.1615 68.0977 49.9076 68.0488 49.6895 67.9512C49.4714 67.8503 49.3021 67.6891 49.1816 67.4678C49.0612 67.2432 49.001 66.9469 49.001 66.5791V61.418ZM53.3613 63.8008V68H52.0723V62.7168H53.2881L53.3613 63.8008ZM53.1709 65.168H52.7754C52.7754 64.8001 52.8193 64.4616 52.9072 64.1523C52.9984 63.8431 53.1318 63.5745 53.3076 63.3467C53.4834 63.1156 53.6999 62.9365 53.957 62.8096C54.2174 62.6826 54.5186 62.6191 54.8604 62.6191C55.098 62.6191 55.3161 62.6549 55.5146 62.7266C55.7132 62.7949 55.8841 62.904 56.0273 63.0537C56.1738 63.2002 56.2861 63.3923 56.3643 63.6299C56.4424 63.8643 56.4814 64.1458 56.4814 64.4746V68H55.1924V64.6064C55.1924 64.359 55.1566 64.1654 55.085 64.0254C55.0166 63.8854 54.9173 63.7878 54.7871 63.7324C54.6569 63.6738 54.5007 63.6445 54.3184 63.6445C54.1165 63.6445 53.9424 63.6852 53.7959 63.7666C53.6527 63.8447 53.5339 63.9538 53.4395 64.0938C53.3483 64.2337 53.2799 64.3949 53.2344 64.5771C53.1921 64.7594 53.1709 64.9564 53.1709 65.168ZM56.3838 64.9287L55.8516 65.0264C55.8548 64.6943 55.9004 64.3835 55.9883 64.0938C56.0762 63.8008 56.2048 63.5452 56.374 63.3271C56.5465 63.1058 56.7598 62.9333 57.0137 62.8096C57.2708 62.6826 57.5671 62.6191 57.9023 62.6191C58.1628 62.6191 58.3971 62.6566 58.6055 62.7314C58.8171 62.8031 58.9977 62.9186 59.1475 63.0781C59.2972 63.2344 59.4111 63.4378 59.4893 63.6885C59.5706 63.9391 59.6113 64.2451 59.6113 64.6064V68H58.3125V64.6016C58.3125 64.3444 58.2767 64.1475 58.2051 64.0107C58.1367 63.874 58.0374 63.7796 57.9072 63.7275C57.777 63.6722 57.624 63.6445 57.4482 63.6445C57.2692 63.6445 57.113 63.6787 56.9795 63.7471C56.8493 63.8122 56.7386 63.9033 56.6475 64.0205C56.5596 64.1377 56.4928 64.2744 56.4473 64.4307C56.4049 64.5837 56.3838 64.7497 56.3838 64.9287ZM63.1416 68.0977C62.7412 68.0977 62.3815 68.0326 62.0625 67.9023C61.7435 67.7721 61.4717 67.5915 61.2471 67.3604C61.0257 67.126 60.8548 66.8542 60.7344 66.5449C60.6172 66.2324 60.5586 65.8971 60.5586 65.5391V65.3438C60.5586 64.9368 60.6172 64.5674 60.7344 64.2354C60.8516 63.9001 61.0176 63.612 61.2324 63.3711C61.4473 63.1302 61.7044 62.9447 62.0039 62.8145C62.3034 62.6842 62.6338 62.6191 62.9951 62.6191C63.3695 62.6191 63.6999 62.6826 63.9863 62.8096C64.2728 62.9333 64.512 63.109 64.7041 63.3369C64.8962 63.5648 65.041 63.8382 65.1387 64.1572C65.2363 64.473 65.2852 64.8229 65.2852 65.207V65.749H61.1445V64.8604H64.0156V64.7627C64.0091 64.5576 63.9701 64.3704 63.8984 64.2012C63.8268 64.0286 63.7161 63.8919 63.5664 63.791C63.4167 63.6868 63.223 63.6348 62.9854 63.6348C62.7933 63.6348 62.6257 63.6771 62.4824 63.7617C62.3424 63.8431 62.2253 63.9603 62.1309 64.1133C62.0397 64.263 61.9714 64.4421 61.9258 64.6504C61.8802 64.8587 61.8574 65.0898 61.8574 65.3438V65.5391C61.8574 65.7604 61.8867 65.9655 61.9453 66.1543C62.0072 66.3431 62.0967 66.5075 62.2139 66.6475C62.3343 66.7842 62.4775 66.8916 62.6436 66.9697C62.8128 67.0446 63.0049 67.082 63.2197 67.082C63.4899 67.082 63.734 67.0299 63.9521 66.9258C64.1735 66.8184 64.3656 66.6605 64.5283 66.4521L65.1777 67.126C65.0671 67.2887 64.9173 67.445 64.7285 67.5947C64.543 67.7445 64.3184 67.8665 64.0547 67.9609C63.791 68.0521 63.4867 68.0977 63.1416 68.0977ZM67.4141 63.8447V68H66.125V62.7168H67.3359L67.4141 63.8447ZM67.209 65.168H66.8281C66.8314 64.7839 66.8835 64.4355 66.9844 64.123C67.0853 63.8105 67.2269 63.542 67.4092 63.3174C67.5947 63.0928 67.8145 62.9202 68.0684 62.7998C68.3223 62.6794 68.6055 62.6191 68.918 62.6191C69.1719 62.6191 69.4014 62.6549 69.6064 62.7266C69.8115 62.7982 69.9873 62.9121 70.1338 63.0684C70.2835 63.2246 70.3975 63.4297 70.4756 63.6836C70.557 63.9342 70.5977 64.2435 70.5977 64.6113V68H69.2988V64.6016C69.2988 64.3607 69.263 64.1702 69.1914 64.0303C69.123 63.8903 69.0221 63.791 68.8887 63.7324C68.7585 63.6738 68.5973 63.6445 68.4053 63.6445C68.2067 63.6445 68.0326 63.6852 67.8828 63.7666C67.7363 63.8447 67.6126 63.9538 67.5117 64.0938C67.4141 64.2337 67.3392 64.3949 67.2871 64.5771C67.235 64.7594 67.209 64.9564 67.209 65.168ZM74.2354 62.7168V63.6445H71.208V62.7168H74.2354ZM72.0186 61.418H73.3125V66.4766C73.3125 66.6328 73.3337 66.7533 73.376 66.8379C73.4183 66.9225 73.4818 66.9795 73.5664 67.0088C73.651 67.0381 73.752 67.0527 73.8691 67.0527C73.9538 67.0527 74.0319 67.0479 74.1035 67.0381C74.1751 67.0283 74.2354 67.0186 74.2842 67.0088L74.2891 67.9756C74.1816 68.0114 74.0596 68.0407 73.9229 68.0635C73.7894 68.0863 73.638 68.0977 73.4688 68.0977C73.179 68.0977 72.9251 68.0488 72.707 67.9512C72.4889 67.8503 72.3197 67.6891 72.1992 67.4678C72.0788 67.2432 72.0186 66.9469 72.0186 66.5791V61.418Z" fill="white"/>
<defs>
<filter id="filter0_d_3455_9908" x="0.863281" y="0" width="88.5234" height="88.5234" filterUnits="userSpaceOnUse" color-interpolation-filters="sRGB">
<feFlood flood-opacity="0" result="BackgroundImageFix"/>
<feColorMatrix in="SourceAlpha" type="matrix" values="0 0 0 0 0 0 0 0 0 0 0 0 0 0 0 0 0 0 127 0" result="hardAlpha"/>
<feOffset dy="4"/>
<feGaussianBlur stdDeviation="2"/>
<feComposite in2="hardAlpha" operator="out"/>
<feColorMatrix type="matrix" values="0 0 0 0 0 0 0 0 0 0 0 0 0 0 0 0 0 0 0.25 0"/>
<feBlend mode="normal" in2="BackgroundImageFix" result="effect1_dropShadow_3455_9908"/>
<feBlend mode="normal" in="SourceGraphic" in2="effect1_dropShadow_3455_9908" result="shape"/>
</filter>
<clipPath id="clip0_3455_9908">
<rect width="34.7522" height="37.295" fill="white" transform="translate(27.75 13)"/>
</clipPath>
</defs>
</svg>
