<svg width="13" height="19" viewBox="0 0 13 19" fill="none" xmlns="http://www.w3.org/2000/svg">
<path d="M0.960938 9.22561C0.960938 9.4063 0.993581 9.57309 1.05887 9.72599C1.13141 9.87888 1.24022 10.0248 1.3853 10.1638L9.8617 18.1072C10.1083 18.3435 10.4058 18.4617 10.754 18.4617C10.9933 18.4617 11.2073 18.4061 11.3959 18.2949C11.5918 18.1906 11.7478 18.0447 11.8638 17.857C11.9799 17.6763 12.0379 17.4748 12.0379 17.2524C12.0379 16.9188 11.9037 16.6235 11.6353 16.3663L3.99677 9.22561L11.6353 2.08488C11.9037 1.82775 12.0379 1.53586 12.0379 1.20923C12.0379 0.979896 11.9799 0.774882 11.8638 0.594192C11.7478 0.413502 11.5918 0.271035 11.3959 0.166791C11.2073 0.0555969 10.9933 0 10.754 0C10.4058 0 10.1083 0.114669 9.8617 0.344006L1.3853 8.28742C1.24022 8.42641 1.13141 8.57235 1.05887 8.72524C0.993581 8.87813 0.960938 9.04492 0.960938 9.22561Z" fill="white"/>
</svg>
