<svg width="25" height="25" viewBox="0 0 25 25" fill="none" xmlns="http://www.w3.org/2000/svg">
<path d="M21.5149 16.5981C20.7065 15.7662 19.1934 14.5149 19.1934 10.4163C19.1949 8.94551 18.6608 7.52019 17.6831 6.3856C16.7053 5.251 15.3451 4.47808 13.8363 4.19982V3.36506C13.8363 3.1967 13.8017 3.02998 13.7344 2.87444C13.6671 2.71889 13.5684 2.57756 13.4441 2.45851C13.3197 2.33946 13.1721 2.24503 13.0096 2.1806C12.8471 2.11617 12.6729 2.08301 12.497 2.08301C12.3212 2.08301 12.147 2.11617 11.9845 2.1806C11.822 2.24503 11.6744 2.33946 11.55 2.45851C11.4257 2.57756 11.327 2.71889 11.2597 2.87444C11.1924 3.02998 11.1578 3.1967 11.1578 3.36506V4.19982C9.64903 4.47808 8.28878 5.251 7.31103 6.3856C6.33329 7.52019 5.7992 8.94551 5.80065 10.4163C5.80065 14.5149 4.28756 15.7662 3.47923 16.5981C3.24866 16.8335 3.12181 17.1449 3.12506 17.4676C3.12522 17.6363 3.1601 17.8032 3.22772 17.959C3.29535 18.1147 3.39437 18.2562 3.51915 18.3752C3.64392 18.4943 3.79199 18.5887 3.95489 18.6529C4.11779 18.7172 4.29232 18.75 4.46851 18.7497H20.5315C20.7077 18.75 20.8823 18.7172 21.0452 18.6529C21.2081 18.5887 21.3561 18.4943 21.4809 18.3752C21.6057 18.2562 21.7047 18.1147 21.7723 17.959C21.8399 17.8032 21.8748 17.6363 21.875 17.4676C21.8766 17.1442 21.7476 16.8326 21.5149 16.5981Z" stroke="white" stroke-width="1.5"/>
<path d="M15.625 20.833C15.625 21.6618 15.2958 22.4567 14.7097 23.0427C14.1237 23.6288 13.3288 23.958 12.5 23.958C11.6712 23.958 10.8763 23.6288 10.2903 23.0427C9.70424 22.4567 9.375 21.6618 9.375 20.833L12.5 20.833H15.625Z" fill="white"/>
</svg>
