<svg width="60" height="60" viewBox="0 0 60 60" fill="none" xmlns="http://www.w3.org/2000/svg">
<rect width="60" height="60" rx="16" fill="#F23A00"/>
<g clip-path="url(#clip0_1640_14730)">
<path d="M18.761 32.765C19.9057 32.7693 22.1252 32.2268 23.1331 31.8946C24.4452 31.4616 24.5529 31.4257 24.7292 30.2303C24.8466 29.4328 24.847 28.8249 25.4965 28.4037C26.1461 27.9825 27.9533 27.4629 29.9875 27.4597C32.0217 27.4564 33.9 27.9724 34.5482 28.3915C35.1963 28.8105 35.188 29.4199 35.3098 30.2152C35.4814 31.3363 35.625 31.4081 36.9034 31.8749C37.8984 32.2372 40.1293 32.7424 41.2733 32.7331C42.4996 32.7255 42.3919 32.6178 42.6242 32.0551C42.8116 31.5954 42.9566 31.1194 43.0572 30.6332C43.25 29.677 43.2518 29.041 42.9983 28.3416C42.7448 27.6421 41.7279 26.4248 38.4844 25.4844C35.2408 24.544 33.3632 24.2822 30.0234 24.2869C26.6836 24.2915 24.5012 24.6808 21.5671 25.5063C17.9394 26.5293 17.3013 27.6751 17.046 28.3757C16.7907 29.0762 16.7882 29.7107 16.9803 30.6677C17.0799 31.1539 17.2242 31.6299 17.4112 32.0896C17.6417 32.6512 17.534 32.7589 18.761 32.765Z" stroke="white" stroke-width="1.5" stroke-miterlimit="10"/>
</g>
<defs>
<clipPath id="clip0_1640_14730">
<rect width="26" height="26" fill="white" transform="translate(48.3848 30) rotate(135)"/>
</clipPath>
</defs>
</svg>
