<svg width="60" height="60" viewBox="0 0 60 60" fill="none" xmlns="http://www.w3.org/2000/svg">
<rect width="60" height="60" rx="16" fill="#F5F5F5"/>
<path d="M36.0323 32.6805L40.2324 35.637C40.3561 35.692 40.4916 35.7152 40.6266 35.7045C40.7615 35.6938 40.8917 35.6496 41.0052 35.5758C41.1187 35.5021 41.212 35.4011 41.2766 35.2821C41.3412 35.1632 41.375 35.0299 41.375 34.8945V25.1059C41.375 24.9706 41.3412 24.8373 41.2766 24.7184C41.212 24.5994 41.1187 24.4984 41.0052 24.4247C40.8917 24.3509 40.7615 24.3067 40.6266 24.296C40.4916 24.2853 40.3561 24.3085 40.2324 24.3635L36.0323 27.32C35.9258 27.395 35.8389 27.4945 35.7789 27.6101C35.7189 27.7257 35.6875 27.854 35.6875 27.9842V32.0163C35.6875 32.1465 35.7189 32.2748 35.7789 32.3904C35.8389 32.506 35.9258 32.6055 36.0323 32.6805V32.6805Z" stroke="#18273B" stroke-width="1.5" stroke-linecap="round" stroke-linejoin="round"/>
<path d="M30.6094 36.5H21.2656C20.5659 36.498 19.8954 36.2191 19.4006 35.7244C18.9059 35.2296 18.627 34.5591 18.625 33.8594V26.1406C18.627 25.4409 18.9059 24.7704 19.4006 24.2756C19.8954 23.7809 20.5659 23.502 21.2656 23.5H30.6338C31.327 23.5021 31.9912 23.7785 32.4814 24.2686C32.9715 24.7588 33.2479 25.423 33.25 26.1163V33.8594C33.248 34.5591 32.9691 35.2296 32.4744 35.7244C31.9796 36.2191 31.3091 36.498 30.6094 36.5Z" stroke="#18273B" stroke-width="1.5" stroke-miterlimit="10"/>
</svg>
