<svg width="48" height="38" viewBox="0 0 48 38" fill="none" xmlns="http://www.w3.org/2000/svg">
<path d="M5.11719 32.7393H6.05469C6.00586 33.1885 5.87728 33.5905 5.66895 33.9453C5.46061 34.3001 5.16602 34.5817 4.78516 34.79C4.4043 34.9951 3.92904 35.0977 3.35938 35.0977C2.94271 35.0977 2.56348 35.0195 2.22168 34.8633C1.88314 34.707 1.5918 34.4857 1.34766 34.1992C1.10352 33.9095 0.914714 33.5628 0.78125 33.1592C0.651042 32.7523 0.585938 32.2998 0.585938 31.8018V31.0938C0.585938 30.5957 0.651042 30.1449 0.78125 29.7412C0.914714 29.3343 1.10514 28.986 1.35254 28.6963C1.60319 28.4066 1.9043 28.1836 2.25586 28.0273C2.60742 27.8711 3.00293 27.793 3.44238 27.793C3.97949 27.793 4.43359 27.8939 4.80469 28.0957C5.17578 28.2975 5.46387 28.5775 5.66895 28.9355C5.87728 29.2904 6.00586 29.7021 6.05469 30.1709H5.11719C5.07161 29.8389 4.98698 29.554 4.86328 29.3164C4.73958 29.0755 4.5638 28.89 4.33594 28.7598C4.10807 28.6296 3.81022 28.5645 3.44238 28.5645C3.12663 28.5645 2.84831 28.6247 2.60742 28.7451C2.36979 28.8656 2.1696 29.0365 2.00684 29.2578C1.84733 29.4792 1.72689 29.7445 1.64551 30.0537C1.56413 30.363 1.52344 30.7064 1.52344 31.084V31.8018C1.52344 32.1501 1.55924 32.4772 1.63086 32.7832C1.70573 33.0892 1.81803 33.3577 1.96777 33.5889C2.11751 33.82 2.30794 34.0023 2.53906 34.1357C2.77018 34.266 3.04362 34.3311 3.35938 34.3311C3.75977 34.3311 4.07878 34.2676 4.31641 34.1406C4.55404 34.0137 4.73307 33.8314 4.85352 33.5938C4.97721 33.3561 5.0651 33.0713 5.11719 32.7393ZM10.3174 34.0967V31.377C10.3174 31.1686 10.2751 30.988 10.1904 30.835C10.109 30.6787 9.98535 30.5583 9.81934 30.4736C9.65332 30.389 9.44824 30.3467 9.2041 30.3467C8.97624 30.3467 8.77604 30.3857 8.60352 30.4639C8.43424 30.542 8.30078 30.6445 8.20312 30.7715C8.10872 30.8984 8.06152 31.0352 8.06152 31.1816H7.1582C7.1582 30.9928 7.20703 30.8057 7.30469 30.6201C7.40234 30.4346 7.54232 30.2669 7.72461 30.1172C7.91016 29.9642 8.13151 29.8438 8.38867 29.7559C8.64909 29.6647 8.9388 29.6191 9.25781 29.6191C9.64193 29.6191 9.98047 29.6842 10.2734 29.8145C10.5697 29.9447 10.8008 30.1416 10.9668 30.4053C11.1361 30.6657 11.2207 30.9928 11.2207 31.3867V33.8477C11.2207 34.0234 11.2354 34.2106 11.2646 34.4092C11.2972 34.6077 11.3444 34.7786 11.4062 34.9219V35H10.4639C10.4183 34.8958 10.3825 34.7575 10.3564 34.585C10.3304 34.4092 10.3174 34.2464 10.3174 34.0967ZM10.4736 31.7969L10.4834 32.4316H9.57031C9.31315 32.4316 9.08366 32.4528 8.88184 32.4951C8.68001 32.5342 8.51074 32.5944 8.37402 32.6758C8.2373 32.7572 8.13314 32.8597 8.06152 32.9834C7.98991 33.1038 7.9541 33.2454 7.9541 33.4082C7.9541 33.5742 7.99154 33.7256 8.06641 33.8623C8.14128 33.999 8.25358 34.1081 8.40332 34.1895C8.55632 34.2676 8.74349 34.3066 8.96484 34.3066C9.24154 34.3066 9.48568 34.248 9.69727 34.1309C9.90885 34.0137 10.0765 33.8704 10.2002 33.7012C10.3271 33.5319 10.3955 33.3675 10.4053 33.208L10.791 33.6426C10.7682 33.7793 10.7064 33.9307 10.6055 34.0967C10.5046 34.2627 10.3695 34.4222 10.2002 34.5752C10.0342 34.7249 9.83561 34.8503 9.60449 34.9512C9.37663 35.0488 9.11947 35.0977 8.83301 35.0977C8.47493 35.0977 8.16081 35.0277 7.89062 34.8877C7.6237 34.7477 7.41536 34.5605 7.26562 34.3262C7.11914 34.0885 7.0459 33.8232 7.0459 33.5303C7.0459 33.2471 7.10124 32.998 7.21191 32.7832C7.32259 32.5651 7.4821 32.3844 7.69043 32.2412C7.89876 32.0947 8.14941 31.984 8.44238 31.9092C8.73535 31.8343 9.0625 31.7969 9.42383 31.7969H10.4736ZM13.5449 30.5469V35H12.6416V29.7168H13.5205L13.5449 30.5469ZM15.1953 29.6875L15.1904 30.5273C15.1156 30.5111 15.0439 30.5013 14.9756 30.498C14.9105 30.4915 14.8356 30.4883 14.751 30.4883C14.5426 30.4883 14.3587 30.5208 14.1992 30.5859C14.0397 30.651 13.9046 30.7422 13.7939 30.8594C13.6833 30.9766 13.5954 31.1165 13.5303 31.2793C13.4684 31.4388 13.4277 31.6146 13.4082 31.8066L13.1543 31.9531C13.1543 31.6341 13.1852 31.3346 13.2471 31.0547C13.3122 30.7747 13.4115 30.5273 13.5449 30.3125C13.6784 30.0944 13.8477 29.9251 14.0527 29.8047C14.2611 29.681 14.5085 29.6191 14.7949 29.6191C14.86 29.6191 14.9349 29.6273 15.0195 29.6436C15.1042 29.6566 15.1628 29.6712 15.1953 29.6875ZM18.125 35.0977C17.7572 35.0977 17.4235 35.0358 17.124 34.9121C16.8278 34.7852 16.5723 34.6077 16.3574 34.3799C16.1458 34.152 15.9831 33.8818 15.8691 33.5693C15.7552 33.2568 15.6982 32.915 15.6982 32.5439V32.3389C15.6982 31.9092 15.7617 31.5267 15.8887 31.1914C16.0156 30.8529 16.1882 30.5664 16.4062 30.332C16.6243 30.0977 16.8717 29.9202 17.1484 29.7998C17.4251 29.6794 17.7116 29.6191 18.0078 29.6191C18.3854 29.6191 18.7109 29.6842 18.9844 29.8145C19.2611 29.9447 19.4873 30.127 19.6631 30.3613C19.8389 30.5924 19.9691 30.8659 20.0537 31.1816C20.1383 31.4941 20.1807 31.8359 20.1807 32.207V32.6123H16.2354V31.875H19.2773V31.8066C19.2643 31.5723 19.2155 31.3444 19.1309 31.123C19.0495 30.9017 18.9193 30.7194 18.7402 30.5762C18.5612 30.4329 18.3171 30.3613 18.0078 30.3613C17.8027 30.3613 17.6139 30.4053 17.4414 30.4932C17.2689 30.5778 17.1208 30.7048 16.9971 30.874C16.8734 31.0433 16.7773 31.25 16.709 31.4941C16.6406 31.7383 16.6064 32.0199 16.6064 32.3389V32.5439C16.6064 32.7946 16.6406 33.0306 16.709 33.252C16.7806 33.4701 16.8831 33.6621 17.0166 33.8281C17.1533 33.9941 17.3177 34.1243 17.5098 34.2188C17.7051 34.3132 17.9264 34.3604 18.1738 34.3604C18.4928 34.3604 18.763 34.2952 18.9844 34.165C19.2057 34.0348 19.3994 33.8607 19.5654 33.6426L20.1123 34.0771C19.9984 34.2497 19.8535 34.4141 19.6777 34.5703C19.502 34.7266 19.2855 34.8535 19.0283 34.9512C18.7744 35.0488 18.4733 35.0977 18.125 35.0977ZM26.2842 27.8906V35H25.3564V27.8906H26.2842ZM28.5693 27.8906V28.6621H23.0762V27.8906H28.5693ZM31.1914 35.0977C30.8236 35.0977 30.4899 35.0358 30.1904 34.9121C29.8942 34.7852 29.6387 34.6077 29.4238 34.3799C29.2122 34.152 29.0495 33.8818 28.9355 33.5693C28.8216 33.2568 28.7646 32.915 28.7646 32.5439V32.3389C28.7646 31.9092 28.8281 31.5267 28.9551 31.1914C29.082 30.8529 29.2546 30.5664 29.4727 30.332C29.6908 30.0977 29.9382 29.9202 30.2148 29.7998C30.4915 29.6794 30.778 29.6191 31.0742 29.6191C31.4518 29.6191 31.7773 29.6842 32.0508 29.8145C32.3275 29.9447 32.5537 30.127 32.7295 30.3613C32.9053 30.5924 33.0355 30.8659 33.1201 31.1816C33.2048 31.4941 33.2471 31.8359 33.2471 32.207V32.6123H29.3018V31.875H32.3438V31.8066C32.3307 31.5723 32.2819 31.3444 32.1973 31.123C32.1159 30.9017 31.9857 30.7194 31.8066 30.5762C31.6276 30.4329 31.3835 30.3613 31.0742 30.3613C30.8691 30.3613 30.6803 30.4053 30.5078 30.4932C30.3353 30.5778 30.1872 30.7048 30.0635 30.874C29.9398 31.0433 29.8438 31.25 29.7754 31.4941C29.707 31.7383 29.6729 32.0199 29.6729 32.3389V32.5439C29.6729 32.7946 29.707 33.0306 29.7754 33.252C29.847 33.4701 29.9495 33.6621 30.083 33.8281C30.2197 33.9941 30.3841 34.1243 30.5762 34.2188C30.7715 34.3132 30.9928 34.3604 31.2402 34.3604C31.5592 34.3604 31.8294 34.2952 32.0508 34.165C32.2721 34.0348 32.4658 33.8607 32.6318 33.6426L33.1787 34.0771C33.0648 34.2497 32.9199 34.4141 32.7441 34.5703C32.5684 34.7266 32.3519 34.8535 32.0947 34.9512C31.8408 35.0488 31.5397 35.0977 31.1914 35.0977ZM37.417 34.0967V31.377C37.417 31.1686 37.3747 30.988 37.29 30.835C37.2087 30.6787 37.085 30.5583 36.9189 30.4736C36.7529 30.389 36.5479 30.3467 36.3037 30.3467C36.0758 30.3467 35.8757 30.3857 35.7031 30.4639C35.5339 30.542 35.4004 30.6445 35.3027 30.7715C35.2083 30.8984 35.1611 31.0352 35.1611 31.1816H34.2578C34.2578 30.9928 34.3066 30.8057 34.4043 30.6201C34.502 30.4346 34.6419 30.2669 34.8242 30.1172C35.0098 29.9642 35.2311 29.8438 35.4883 29.7559C35.7487 29.6647 36.0384 29.6191 36.3574 29.6191C36.7415 29.6191 37.0801 29.6842 37.373 29.8145C37.6693 29.9447 37.9004 30.1416 38.0664 30.4053C38.2357 30.6657 38.3203 30.9928 38.3203 31.3867V33.8477C38.3203 34.0234 38.335 34.2106 38.3643 34.4092C38.3968 34.6077 38.444 34.7786 38.5059 34.9219V35H37.5635C37.5179 34.8958 37.4821 34.7575 37.4561 34.585C37.43 34.4092 37.417 34.2464 37.417 34.0967ZM37.5732 31.7969L37.583 32.4316H36.6699C36.4128 32.4316 36.1833 32.4528 35.9814 32.4951C35.7796 32.5342 35.6104 32.5944 35.4736 32.6758C35.3369 32.7572 35.2327 32.8597 35.1611 32.9834C35.0895 33.1038 35.0537 33.2454 35.0537 33.4082C35.0537 33.5742 35.0911 33.7256 35.166 33.8623C35.2409 33.999 35.3532 34.1081 35.5029 34.1895C35.6559 34.2676 35.8431 34.3066 36.0645 34.3066C36.3411 34.3066 36.5853 34.248 36.7969 34.1309C37.0085 34.0137 37.1761 33.8704 37.2998 33.7012C37.4268 33.5319 37.4951 33.3675 37.5049 33.208L37.8906 33.6426C37.8678 33.7793 37.806 33.9307 37.7051 34.0967C37.6042 34.2627 37.4691 34.4222 37.2998 34.5752C37.1338 34.7249 36.9352 34.8503 36.7041 34.9512C36.4762 35.0488 36.2191 35.0977 35.9326 35.0977C35.5745 35.0977 35.2604 35.0277 34.9902 34.8877C34.7233 34.7477 34.515 34.5605 34.3652 34.3262C34.2188 34.0885 34.1455 33.8232 34.1455 33.5303C34.1455 33.2471 34.2008 32.998 34.3115 32.7832C34.4222 32.5651 34.5817 32.3844 34.79 32.2412C34.9984 32.0947 35.249 31.984 35.542 31.9092C35.835 31.8343 36.1621 31.7969 36.5234 31.7969H37.5732ZM40.6396 30.7666V35H39.7314V29.7168H40.5908L40.6396 30.7666ZM40.4541 32.1582L40.0342 32.1436C40.0374 31.7822 40.0846 31.4486 40.1758 31.1426C40.2669 30.8333 40.402 30.5648 40.5811 30.3369C40.7601 30.109 40.9831 29.9333 41.25 29.8096C41.5169 29.6826 41.8262 29.6191 42.1777 29.6191C42.4251 29.6191 42.653 29.6549 42.8613 29.7266C43.0697 29.7949 43.2503 29.904 43.4033 30.0537C43.5563 30.2035 43.6751 30.3955 43.7598 30.6299C43.8444 30.8643 43.8867 31.1475 43.8867 31.4795V35H42.9834V31.5234C42.9834 31.2467 42.9362 31.0254 42.8418 30.8594C42.7507 30.6934 42.6204 30.5729 42.4512 30.498C42.2819 30.4199 42.0833 30.3809 41.8555 30.3809C41.5885 30.3809 41.3656 30.4281 41.1865 30.5225C41.0075 30.6169 40.8643 30.7471 40.7568 30.9131C40.6494 31.0791 40.5713 31.2695 40.5225 31.4844C40.4769 31.696 40.4541 31.9206 40.4541 32.1582ZM43.877 31.6602L43.2715 31.8457C43.2747 31.556 43.3219 31.2777 43.4131 31.0107C43.5075 30.7438 43.6426 30.5062 43.8184 30.2979C43.9974 30.0895 44.2171 29.9251 44.4775 29.8047C44.738 29.681 45.0358 29.6191 45.3711 29.6191C45.6543 29.6191 45.9049 29.6566 46.123 29.7314C46.3444 29.8063 46.5299 29.9219 46.6797 30.0781C46.8327 30.2311 46.9482 30.4281 47.0264 30.6689C47.1045 30.9098 47.1436 31.1963 47.1436 31.5283V35H46.2354V31.5186C46.2354 31.2223 46.1882 30.9928 46.0938 30.8301C46.0026 30.6641 45.8724 30.5485 45.7031 30.4834C45.5371 30.415 45.3385 30.3809 45.1074 30.3809C44.9089 30.3809 44.7331 30.415 44.5801 30.4834C44.4271 30.5518 44.2985 30.6462 44.1943 30.7666C44.0902 30.8838 44.0104 31.0189 43.9551 31.1719C43.903 31.3249 43.877 31.4876 43.877 31.6602Z" fill="#354764"/>
<g clip-path="url(#clip0_3730_3922)">
<path d="M26.5766 15.1056C26.6543 15.0197 26.6931 14.9034 26.682 14.787C26.6459 14.4129 26.7014 13.9806 26.7568 13.565C26.7928 13.2907 26.8233 13.0302 26.8316 12.7836C26.8705 12.7836 26.9093 12.7864 26.9453 12.7864C27.3416 12.7864 27.7269 12.7448 28.0651 12.6783C28.8384 12.5259 29.4399 12.2156 29.8584 11.7611C30.2076 11.3815 30.4488 10.6999 30.3739 10.0764C30.5541 10.0265 30.7315 9.95725 30.9034 9.86581C31.6462 9.46125 32.1063 8.62997 32.2005 7.55485C32.2283 7.48004 32.2338 7.39414 32.2116 7.31378C32.2144 7.25282 32.2199 7.19463 32.2199 7.1309C32.2199 5.59581 30.4931 0.885233 25.2019 0.106603C23.7994 -0.101216 22.2389 -0.00423414 20.5619 0.389237C19.237 0.702352 18.1671 1.1263 17.2968 1.68603C16.2075 2.38985 15.3954 3.34859 15.0157 4.39046C14.575 5.59581 14.7219 6.94802 15.4037 7.91784C16.1022 8.91261 17.1887 9.4086 18.2974 9.26174C18.6439 10.0265 19.4837 10.5835 20.3208 10.7414C20.5897 10.7913 20.8585 10.8135 21.1274 10.8135C21.2105 10.8135 21.2965 10.8052 21.3796 10.8024C21.6402 11.4785 22.067 11.8941 22.5188 12.3292C23.1258 12.9166 23.755 13.5207 24.2068 14.9505C24.2622 15.1223 24.423 15.2414 24.6032 15.2414H26.2662C26.3854 15.2414 26.4963 15.1915 26.5766 15.1056ZM29.2458 11.1986C28.8772 11.6004 28.3118 11.7805 27.9015 11.8636C26.7291 12.0964 25.5456 11.8858 25.0189 11.3483C24.7556 11.0795 24.6503 10.7359 24.7002 10.3064C25.9197 10.1595 27.1559 10.1152 28.3838 10.1762L28.5252 10.1845C28.855 10.2011 29.2043 10.2177 29.5535 10.2011C29.5868 10.553 29.4426 10.9853 29.2458 11.1986ZM20.4788 9.924C19.7276 9.78268 18.9349 9.18416 18.9682 8.46372C18.9848 8.07856 19.2038 7.71003 19.5835 7.42462C19.6417 7.38029 20.7116 6.6072 22.9761 6.6072C23.7273 6.6072 24.6059 6.6931 25.6259 6.91754C25.8504 6.96742 26.0722 6.8261 26.1221 6.60165C26.172 6.37721 26.0306 6.15554 25.8061 6.10566C21.4212 5.13861 19.3147 6.59057 19.0874 6.7596C18.5053 7.19463 18.1671 7.78761 18.1394 8.42492C18.1394 8.43047 18.1394 8.43601 18.1394 8.44155C17.3523 8.52745 16.6011 8.16723 16.0911 7.43847C15.5645 6.68755 15.4536 5.62906 15.8028 4.67586C16.1216 3.80302 16.8145 2.99114 17.7542 2.3843C18.3917 1.97421 19.1567 1.64447 20.0741 1.37846C20.2155 1.48652 20.2654 1.75253 20.2182 1.96035C20.1545 2.23745 19.9771 2.50068 19.7914 2.77778L19.6888 2.93295C19.4449 3.30425 19.1678 3.80302 19.2093 4.35998C19.226 4.57888 19.4089 4.74513 19.6223 4.74513C19.6334 4.74513 19.6445 4.74513 19.6528 4.74513C19.8829 4.72851 20.0547 4.529 20.0353 4.29902C20.0131 3.99421 20.1961 3.66724 20.379 3.39015L20.476 3.24329C20.6867 2.93018 20.9278 2.57273 21.0248 2.146C21.0969 1.83012 21.0664 1.4699 20.925 1.16233C22.4329 0.824273 23.8326 0.743916 25.0827 0.929568C25.9253 1.05426 26.6653 1.28702 27.3167 1.59459C27.1199 2.46743 26.4907 3.10475 25.6342 3.271C25.4097 3.31534 25.2628 3.53424 25.3044 3.75868C25.3432 3.95819 25.5178 4.09397 25.7119 4.09397C25.7368 4.09397 25.7645 4.0912 25.7922 4.08565C26.9065 3.86952 27.7491 3.08535 28.0734 2.00192C29.9776 3.19064 30.9283 5.02777 31.2554 6.25806C31.1528 6.20541 31.0503 6.15554 30.9422 6.11951C30.3961 5.9394 29.7725 5.99759 29.2708 6.27469C29.0712 6.38552 28.9964 6.63768 29.1073 6.83995C29.2181 7.04223 29.4704 7.11428 29.6727 7.00344C29.9748 6.83718 30.3545 6.80116 30.6816 6.90923C30.9726 7.00621 31.2221 7.21957 31.3773 7.48558C31.3274 8.0176 31.1445 8.78792 30.5098 9.13428C29.972 9.428 29.2597 9.38921 28.5723 9.35318L28.4282 9.34487C26.6931 9.2562 24.9441 9.37258 23.2367 9.6857C23.1147 9.70786 22.9928 9.7328 22.868 9.75497C22.031 9.91568 21.241 10.0681 20.4788 9.924ZM25.9336 13.4597C25.8948 13.759 25.8532 14.0859 25.8449 14.4101H24.9081C24.3953 12.9803 23.6829 12.2904 23.1009 11.7306C22.7489 11.3898 22.455 11.1016 22.2527 10.7109C22.5133 10.6694 22.771 10.6223 23.0233 10.5752C23.1452 10.553 23.2644 10.5281 23.3864 10.5059C23.5471 10.4754 23.7051 10.4505 23.8659 10.4255C23.8465 11.1515 24.1403 11.6364 24.4285 11.9301C24.8388 12.3486 25.4042 12.5841 26.0057 12.7005C26.0001 12.9194 25.9669 13.1826 25.9336 13.4597ZM35 10.3923V16.4855C35 17.3141 34.6785 18.0899 34.0936 18.6746L31.3856 21.3818C31.2166 21.5508 31.1223 21.778 31.1223 22.0191V22.5844C31.1223 22.8143 30.9366 23 30.7066 23C30.4765 23 30.2908 22.8143 30.2908 22.5844V22.0219C30.2908 21.5591 30.471 21.1241 30.798 20.7971L33.506 18.0899C33.9329 17.6632 34.1712 17.0924 34.1712 16.4883V10.3923C34.1712 10.0099 33.8608 9.69955 33.4783 9.69955C33.0958 9.69955 32.7854 10.0099 32.7854 10.3923V15.38C32.7854 15.4187 32.7798 15.4548 32.7687 15.4908C32.741 15.887 32.583 16.2777 32.2837 16.5798L29.8944 18.9988C29.7337 19.1623 29.4704 19.165 29.3068 19.0016C29.1433 18.8408 29.1433 18.5776 29.3041 18.4141L31.6933 15.9951C32.037 15.646 32.037 15.0807 31.6905 14.7343L31.5852 14.629C31.4161 14.46 31.1916 14.3658 30.9532 14.3658H30.9505C30.7093 14.3658 30.4848 14.46 30.3157 14.6318L26.2302 18.7688C25.8089 19.1955 25.576 19.7608 25.576 20.3593V22.5844C25.576 22.8143 25.3903 23 25.1603 23C24.9302 23 24.7445 22.8143 24.7445 22.5844V20.3593C24.7445 19.5391 25.0605 18.766 25.637 18.1841L29.717 14.0471C30.0413 13.7174 30.4765 13.5345 30.9394 13.5345C30.9422 13.5345 30.9422 13.5345 30.9449 13.5345C31.3108 13.5345 31.6573 13.6481 31.9483 13.8587V10.3923C31.9483 9.55269 32.6329 8.86827 33.4728 8.86827C34.3126 8.86827 35 9.55269 35 10.3923ZM21.3574 18.1841C21.934 18.766 22.2499 19.5391 22.2499 20.3593V22.5844C22.2499 22.8143 22.0642 23 21.8342 23C21.6041 23 21.4184 22.8143 21.4184 22.5844V20.3593C21.4184 19.7608 21.1856 19.1955 20.7643 18.7688L16.6843 14.6318C16.5152 14.46 16.2907 14.3658 16.0495 14.3658H16.0468C15.8084 14.3658 15.5839 14.46 15.4148 14.629L15.3095 14.7343C14.963 15.0807 14.9602 15.646 15.3067 15.9951L17.696 18.4141C17.8567 18.5776 17.8567 18.8408 17.6932 19.0016C17.5296 19.1623 17.2663 19.1623 17.1056 18.9988L14.7163 16.5798C14.417 16.275 14.259 15.887 14.2313 15.4908C14.2229 15.4548 14.2146 15.4187 14.2146 15.38V10.3923C14.2146 10.0099 13.9042 9.69955 13.5217 9.69955C13.1392 9.69955 12.8288 10.0099 12.8288 10.3923V16.4855C12.8288 17.0896 13.0644 17.6604 13.494 18.0871L16.202 20.7943C16.529 21.1213 16.7092 21.5563 16.7092 22.0191V22.5844C16.7092 22.8143 16.5235 23 16.2934 23C16.0634 23 15.8777 22.8143 15.8777 22.5844V22.0219C15.8777 21.7808 15.7834 21.5536 15.6144 21.3845L12.9064 18.6774C12.3215 18.0927 12 17.3141 12 16.4883V10.3923C12 9.55269 12.6846 8.86827 13.5245 8.86827C14.3643 8.86827 15.0489 9.55269 15.0489 10.3923V13.8559C15.34 13.6481 15.6864 13.5317 16.0523 13.5317C16.0551 13.5317 16.0551 13.5317 16.0578 13.5317C16.5207 13.5345 16.9559 13.7146 17.2802 14.0444L21.3574 18.1841Z" fill="#354764"/>
</g>
<defs>
<clipPath id="clip0_3730_3922">
<rect width="23" height="23" fill="white" transform="translate(12)"/>
</clipPath>
</defs>
</svg>
