<svg width="22" height="22" viewBox="0 0 22 22" fill="none" xmlns="http://www.w3.org/2000/svg">
<g clip-path="url(#clip0_1638_3032)">
<path fill-rule="evenodd" clip-rule="evenodd" d="M6.35113 18.7416H20.3423C20.7921 18.7416 21.1571 18.3766 21.1571 17.9268C21.1571 17.477 20.7921 17.112 20.3423 17.112H6.35113C6.01542 16.1627 5.10934 15.4823 4.04601 15.4823C2.69667 15.4823 1.60156 16.5775 1.60156 17.9268C1.60156 19.2761 2.69667 20.3712 4.04601 20.3712C5.10934 20.3712 6.01542 19.6909 6.35113 18.7416ZM10.1213 10.5935H2.51009C2.06031 10.5935 1.69527 10.9585 1.69527 11.4083C1.69527 11.8581 2.06031 12.2231 2.51009 12.2231H10.1213C10.457 13.1723 11.363 13.8527 12.4264 13.8527C13.4897 13.8527 14.3958 13.1723 14.7315 12.2231H20.3708C20.8206 12.2231 21.1856 11.8581 21.1856 11.4083C21.1856 10.9585 20.8206 10.5935 20.3708 10.5935H14.7315C14.3958 9.6442 13.4897 8.96383 12.4264 8.96383C11.363 8.96383 10.457 9.6442 10.1213 10.5935ZM6.37964 5.70457H20.3708C20.8206 5.70457 21.1856 5.33953 21.1856 4.88976C21.1856 4.43998 20.8206 4.07494 20.3708 4.07494H6.37964C6.04393 3.12568 5.13786 2.44531 4.07453 2.44531C2.7252 2.44531 1.63008 3.54042 1.63008 4.88976C1.63008 6.23909 2.7252 7.3342 4.07453 7.3342C5.13786 7.3342 6.04393 6.65383 6.37964 5.70457Z" fill="black"/>
</g>
<defs>
<clipPath id="clip0_1638_3032">
<rect width="22" height="22" fill="white"/>
</clipPath>
</defs>
</svg>
