<svg width="99" height="99" viewBox="0 0 99 99" fill="none" xmlns="http://www.w3.org/2000/svg">
<g filter="url(#filter0_d_4537_11159)">
<mask id="path-1-inside-1_4537_11159" fill="white">
<path d="M5 15C5 9.47716 9.47715 5 15 5H83.9311C89.4539 5 93.9311 9.47715 93.9311 15V83.9322C93.9311 89.455 89.4539 93.9322 83.9311 93.9322H15C9.47714 93.9322 5 89.455 5 83.9322V15Z"/>
</mask>
<path d="M5 15C5 9.47716 9.47715 5 15 5H83.9311C89.4539 5 93.9311 9.47715 93.9311 15V83.9322C93.9311 89.455 89.4539 93.9322 83.9311 93.9322H15C9.47714 93.9322 5 89.455 5 83.9322V15Z" fill="#274E6D"/>
<path d="M5 5H93.9311H5ZM93.9311 83.9322C93.9311 90.5596 88.5585 95.9322 81.9311 95.9322H17C10.3726 95.9322 5 90.5596 5 83.9322C5 88.3505 9.47715 91.9322 15 91.9322H83.9311C89.4539 91.9322 93.9311 88.3505 93.9311 83.9322ZM5 93.9322V5V93.9322ZM93.9311 5V93.9322V5Z" fill="#EA7000" mask="url(#path-1-inside-1_4537_11159)"/>
</g>
<path d="M55.162 33.2565C53.8182 35.3561 51.5842 37.5733 48.8631 37.1617C46.1756 36.7586 44.2692 34.2391 43.127 31.9799C42.959 31.6524 42.5643 31.6188 42.262 31.7531C42.0268 31.8623 41.7497 31.644 41.5817 31.4844C41.2374 31.1653 41.0442 30.7117 40.9098 30.275C40.7503 29.7459 40.5571 28.3266 41.3045 28.0998C41.6657 27.9906 41.7917 27.6715 41.7413 27.3272C41.7413 27.3272 41.7413 27.3272 41.7413 27.3188C41.6909 26.9744 41.2626 26.7981 40.9686 26.8821C40.6075 26.9828 40.4815 27.3188 40.5319 27.6547C40.5319 27.6547 40.5319 27.6547 40.5319 27.6631C40.6747 27.4028 40.8258 27.1424 40.9686 26.8904C39.3897 27.3776 39.3393 29.4352 39.734 30.7453C40.1372 32.0639 41.3969 33.5504 42.9003 32.8449C42.6147 32.7694 42.3292 32.6938 42.0352 32.6182C43.3538 35.2301 45.5961 37.9428 48.6532 38.3963C51.9202 38.8834 54.6077 36.4563 56.2454 33.8863C56.6905 33.2061 55.5987 32.5762 55.162 33.2565ZM46.6795 44.1996C48.4852 44.8883 50.484 44.8463 52.3149 44.2752C53.0876 44.0401 52.76 42.8223 51.979 43.0574C50.3413 43.5613 48.628 43.5949 47.0155 42.9819C46.2596 42.6963 45.9321 43.9141 46.6795 44.1996Z" fill="white"/>
<path d="M63.0471 54.8988C63.0471 52.858 63.0471 50.8088 63.0471 48.768C63.0471 47.9281 63.0471 47.0883 63.0471 46.2484C63.0471 44.4512 62.1232 42.8135 60.6199 41.8477C59.6961 41.2514 58.5959 41.117 57.5461 40.907C56.6391 40.7223 55.7404 40.5459 54.8334 40.3611C54.9594 40.4535 55.0854 40.5543 55.2113 40.6467C54.9426 40.252 54.699 39.8152 54.3799 39.4541C53.918 38.9334 52.9186 38.8662 52.6834 39.6305C52.4818 40.294 52.2887 40.9658 52.0871 41.6293C51.3396 44.1404 50.5922 46.6516 49.8447 49.1627C49.5256 50.2293 49.2064 51.2959 48.8873 52.3709C49.2904 52.3709 49.6936 52.3709 50.1051 52.3709C48.9293 48.3984 47.7535 44.4344 46.5777 40.4619C46.4854 40.1596 46.4014 39.8572 46.309 39.5465C46.1662 39.051 45.6203 39.0174 45.192 39.0846C44.8812 39.135 44.6545 39.4121 44.4781 39.6473C44.243 39.9748 44.0162 40.3107 43.7811 40.6383C43.907 40.5459 44.033 40.4451 44.159 40.3527C43.1512 40.5543 42.1518 40.7559 41.1439 40.9574C40.7744 41.033 40.3965 41.1086 40.027 41.1842C39.0863 41.369 38.2297 41.8477 37.5326 42.4943C36.4324 43.5106 35.9453 44.9635 35.9453 46.4332C35.9453 47.4494 35.9453 48.4572 35.9453 49.4734C35.9453 51.2791 35.9453 53.0848 35.9453 54.8904C35.9453 55.7051 37.2051 55.7051 37.2051 54.8904C37.2051 52.8496 37.2051 50.8004 37.2051 48.7596C37.2051 47.9197 37.2051 47.0799 37.2051 46.24C37.2051 44.594 38.2297 43.099 39.7918 42.5447C40.2369 42.3852 40.7324 42.318 41.2027 42.2256C41.8998 42.0828 42.6053 41.9484 43.3023 41.8057C43.6971 41.7301 44.1002 41.6461 44.4949 41.5705C44.8057 41.5117 45.0324 41.0498 45.2004 40.8147C45.3012 40.6719 45.402 40.5207 45.5027 40.3779C45.5279 40.3359 45.5615 40.294 45.5867 40.2604C45.6707 40.1428 45.4859 40.3191 45.5279 40.3275C45.3852 40.1848 45.234 40.0336 45.0912 39.8908C46.267 43.8633 47.4428 47.8274 48.6186 51.7998C48.7109 52.1022 48.7949 52.4045 48.8873 52.7152C49.0637 53.3199 49.9203 53.3115 50.1051 52.7152C51.2893 48.7428 52.4734 44.7787 53.6492 40.8063C53.7416 40.5039 53.834 40.2016 53.918 39.8908C53.7752 40.0336 53.624 40.1848 53.4812 40.3275C53.4645 40.3359 53.3301 40.1344 53.4729 40.3359C53.5484 40.4535 53.6324 40.5711 53.708 40.6803C53.8424 40.8818 53.9852 41.0834 54.1195 41.2766C54.3715 41.6461 54.9342 41.6545 55.3373 41.7301C56.4207 41.9484 57.5125 42.1668 58.5959 42.3852C60.2924 42.7211 61.6109 44.1068 61.7705 45.8453C61.8377 46.5844 61.7873 47.3486 61.7873 48.0877C61.7873 50.3553 61.7873 52.6145 61.7873 54.882C61.7873 55.7135 63.0471 55.7135 63.0471 54.8988Z" fill="white"/>
<path d="M45.1846 47.4597C45.1594 48.3079 44.5127 48.9546 43.6645 48.9798C42.8163 49.005 42.1696 48.2743 42.1444 47.4597C42.1192 46.6114 42.8498 45.9648 43.6645 45.9396C44.5211 45.9228 45.1678 46.6534 45.1846 47.4597C45.2098 48.2743 46.4696 48.2743 46.4444 47.4597C46.4024 45.9228 45.2098 44.7218 43.6645 44.6798C42.1276 44.6378 40.9266 45.9816 40.8846 47.4597C40.8426 48.9966 42.1864 50.1976 43.6645 50.2396C45.2014 50.2816 46.4024 48.9378 46.4444 47.4597C46.4696 46.645 45.2098 46.6534 45.1846 47.4597ZM55.0108 51.3901C54.4061 51.3649 54.3809 50.8358 54.3809 50.3739C54.3809 49.744 54.3809 49.1142 54.3809 48.4843C54.3809 48.0812 54.3809 47.678 54.3809 47.2749C54.3809 46.4183 54.9268 45.6372 55.7247 45.3349C56.5813 45.0157 57.4715 45.3097 58.0594 45.9732C58.4541 46.4183 58.5213 46.9894 58.5213 47.5521C58.5213 48.6187 58.5213 49.6853 58.5213 50.7435C58.5213 51.1046 58.2442 51.3649 57.8914 51.3817C57.0852 51.4153 57.0768 52.6751 57.8914 52.6415C58.9161 52.5911 59.7811 51.8101 59.7811 50.7519C59.7811 50.3235 59.7811 49.8952 59.7811 49.4669C59.7811 48.2407 59.9491 46.8886 59.4116 45.7548C58.5129 43.8567 55.9178 43.4116 54.3473 44.705C53.5747 45.3433 53.1463 46.2755 53.1295 47.2749C53.1211 47.678 53.1295 48.0812 53.1295 48.4843C53.1295 49.2066 53.1295 49.9204 53.1295 50.6427C53.1295 51.7513 53.9022 52.5995 55.0192 52.6499C55.8254 52.6835 55.8254 51.4237 55.0108 51.3901ZM46.4444 23.2218C46.7215 23.2974 46.9987 23.4066 47.2674 23.5073C47.3346 23.5325 47.3934 23.5577 47.4606 23.5829C47.6034 23.6417 47.3598 23.5409 47.553 23.6249C47.7209 23.7005 47.8889 23.7761 48.0569 23.8601C48.4348 24.0448 48.8127 24.2464 49.1739 24.4648C51.1055 25.6069 52.7348 27.2278 53.8098 29.2687C55.1704 31.8554 55.3635 34.8872 54.9268 37.7343C54.826 38.3642 55.4727 38.7757 55.9766 38.3474C57.102 37.3983 58.0006 36.063 58.6641 34.7612C60.2094 31.7378 60.4026 28.286 59.4116 25.061C58.261 21.3321 55.8422 17.7796 52.0713 16.3939C49.451 15.428 46.2932 15.6884 43.9081 17.1581C42.7407 17.872 41.6573 19.0058 41.4305 20.4083C41.5229 20.2823 41.6237 20.1564 41.7161 20.0304C41.1198 20.4335 40.7586 21.1222 40.4983 21.7689C39.7676 23.6165 40.07 25.8085 40.5235 27.6814C40.5991 28.0089 40.977 28.2189 41.2961 28.1181C43.8157 27.3538 45.9237 25.187 47.1498 22.9446C47.5446 22.2308 46.4528 21.5925 46.0581 22.3064C45.2518 23.7761 44.1516 25.0442 42.7575 25.9765C42.3291 26.262 41.884 26.514 41.4137 26.7239C41.3801 26.7407 41.3549 26.7491 41.3213 26.7659C41.1702 26.8331 41.4473 26.7155 41.3129 26.7743C41.2457 26.7995 41.187 26.8247 41.1198 26.8499C41.0694 26.8667 41.0106 26.8919 40.9602 26.9087C41.2206 27.0515 41.4809 27.2026 41.7329 27.3454C41.3381 25.6909 41.0862 23.8685 41.6657 22.2224C41.7329 22.046 41.7748 21.9368 41.9092 21.7017C41.9512 21.6177 42.0016 21.5421 42.052 21.4665C42.0772 21.4329 42.1024 21.3993 42.1192 21.3657C42.1864 21.2733 42.0268 21.4833 42.136 21.3489C42.2032 21.265 42.2788 21.1894 42.3543 21.1138C42.5055 20.971 42.262 21.1726 42.3459 21.1138C42.6399 20.9122 42.6399 20.6099 42.7407 20.2991C42.7575 20.2487 42.7743 20.19 42.7995 20.1396C42.8666 19.9632 42.7491 20.2487 42.8247 20.0808C42.8834 19.9548 42.9422 19.8372 43.0178 19.7196C43.2614 19.3081 43.5805 18.9806 44.0004 18.6278C44.8571 17.9224 46.0664 17.4605 47.2254 17.2337C50.2237 16.6542 53.2555 17.83 55.2963 20.0724C56.7241 21.6513 57.7235 23.7257 58.3114 25.7581C58.7901 27.4294 58.9329 29.2015 58.6473 30.9232C58.345 32.6868 57.6227 34.3245 56.5897 35.7775C56.3041 36.1722 55.9766 36.5837 55.5651 37.012C55.4139 37.1716 55.2627 37.3228 55.0948 37.4655C55.4475 37.6671 55.8002 37.8771 56.1446 38.0786C56.6653 34.7025 56.3881 31.2255 54.6664 28.2189C53.4991 26.178 51.7354 24.5235 49.7198 23.331C48.8043 22.7935 47.8049 22.298 46.7719 22.0208C45.9993 21.7941 45.6633 23.0034 46.4444 23.2218Z" fill="white"/>
<path d="M57.0826 44.57C57.0826 43.4866 57.0826 42.4116 57.0826 41.3282C57.0826 41.0342 56.8894 40.8075 56.6207 40.7235C56.713 40.7739 56.8054 40.8327 56.8978 40.8831C56.3267 40.312 55.4281 41.2022 56.0076 41.7733C56.0916 41.8573 56.1755 41.8993 56.2847 41.9329C56.1335 41.7313 55.974 41.5297 55.8228 41.3282C55.8228 42.4116 55.8228 43.4866 55.8228 44.57C55.8228 45.3846 57.0826 45.3846 57.0826 44.57Z" fill="white"/>
<path d="M46.2324 39.6983C46.2324 38.5561 46.2324 37.4139 46.2324 36.2633C46.2324 35.4487 44.9727 35.4487 44.9727 36.2633C44.9727 37.4055 44.9727 38.5477 44.9727 39.6983C44.9727 40.5129 46.2324 40.5129 46.2324 39.6983Z" fill="white"/>
<path d="M54.0254 39.7061C54.0254 38.5639 54.0254 37.4133 54.0254 36.2711C54.0254 35.4565 52.7656 35.4565 52.7656 36.2711C52.7656 37.4133 52.7656 38.5639 52.7656 39.7061C52.7656 40.5124 54.0254 40.5124 54.0254 39.7061Z" fill="white"/>
<path d="M44.3027 45.3166C44.3027 43.9141 44.3027 42.5116 44.3027 41.109C44.3027 40.2944 43.043 40.2944 43.043 41.109C43.043 42.5116 43.043 43.9141 43.043 45.3166C43.043 46.1229 44.3027 46.1229 44.3027 45.3166Z" fill="white"/>
<path d="M44.3936 39.8077C44.15 40.0512 44.15 40.4543 44.3936 40.6979C44.6372 40.9415 45.0403 40.9415 45.2838 40.6979C45.5274 40.4543 45.5274 40.0512 45.2838 39.8077C45.0403 39.5641 44.6372 39.5641 44.3936 39.8077Z" fill="white"/>
<path d="M62.4178 54.2695C58.9745 54.2695 55.5311 54.2695 52.0793 54.2695C47.3342 54.2695 42.5891 54.2695 37.844 54.2695C37.4241 54.2695 36.9958 54.2695 36.5758 54.2695C35.7612 54.2695 35.7612 55.5293 36.5758 55.5293C40.0192 55.5293 43.4625 55.5293 46.9143 55.5293C51.6594 55.5293 56.4045 55.5293 61.1497 55.5293C61.5696 55.5293 61.9979 55.5293 62.4178 55.5293C63.2325 55.5293 63.2325 54.2695 62.4178 54.2695Z" fill="white"/>
<path d="M32.6544 69V64.975H31.1844V64.1H35.0764V64.975H33.6134V69H32.6544ZM38.6501 69L36.7741 64.1H37.7331L39.6651 69H38.6501ZM34.7791 69L36.7111 64.1H37.6701L35.7941 69H34.7791ZM35.6891 67.922V67.075H38.7621V67.922H35.6891ZM40.2522 69V64.1H42.0722C42.4175 64.1 42.7232 64.1677 42.9892 64.303C43.2552 64.4383 43.4629 64.625 43.6122 64.863C43.7615 65.0963 43.8362 65.3693 43.8362 65.682C43.8362 65.99 43.7569 66.2653 43.5982 66.508C43.4442 66.746 43.2319 66.9327 42.9612 67.068C42.6905 67.1987 42.3825 67.264 42.0372 67.264H41.2112V69H40.2522ZM42.9472 69L41.8132 67.033L42.5482 66.508L44.0322 69H42.9472ZM41.2112 66.389H42.0792C42.2239 66.389 42.3522 66.3587 42.4642 66.298C42.5809 66.2373 42.6719 66.1533 42.7372 66.046C42.8072 65.9387 42.8422 65.8173 42.8422 65.682C42.8422 65.472 42.7652 65.3017 42.6112 65.171C42.4619 65.0403 42.2682 64.975 42.0302 64.975H41.2112V66.389ZM48.1999 69L46.3239 64.1H47.2829L49.2149 69H48.1999ZM44.3289 69L46.2609 64.1H47.2199L45.3439 69H44.3289ZM45.2389 67.922V67.075H48.3119V67.922H45.2389ZM51.47 69V64.1H52.513L53.941 66.214L55.369 64.1H56.405V69H55.453V65.598L53.941 67.824L52.429 65.605V69H51.47ZM57.3949 69V65.5H58.3189V69H57.3949ZM57.8569 64.933C57.7169 64.933 57.5933 64.8817 57.4859 64.779C57.3786 64.6717 57.3249 64.5457 57.3249 64.401C57.3249 64.2563 57.3786 64.1327 57.4859 64.03C57.5933 63.9227 57.7169 63.869 57.8569 63.869C58.0016 63.869 58.1253 63.9227 58.2279 64.03C58.3353 64.1327 58.3889 64.2563 58.3889 64.401C58.3889 64.5457 58.3353 64.6717 58.2279 64.779C58.1253 64.8817 58.0016 64.933 57.8569 64.933ZM59.171 69V65.5H60.039L60.095 66.144V69H59.171ZM61.488 69V67.208H62.412V69H61.488ZM61.488 67.208C61.488 66.97 61.46 66.7857 61.404 66.655C61.3526 66.5243 61.278 66.431 61.18 66.375C61.082 66.3143 60.9676 66.284 60.837 66.284C60.599 66.2793 60.4146 66.3517 60.284 66.501C60.158 66.6503 60.095 66.872 60.095 67.166H59.787C59.787 66.7927 59.8406 66.4777 59.948 66.221C60.06 65.9597 60.214 65.7613 60.41 65.626C60.6106 65.486 60.844 65.416 61.11 65.416C61.3853 65.416 61.621 65.472 61.817 65.584C62.013 65.696 62.1623 65.871 62.265 66.109C62.3676 66.3423 62.4166 66.6457 62.412 67.019V67.208H61.488ZM65.6415 69L65.5925 68.349V64.1H66.5165V69H65.6415ZM64.5425 69.084C64.2205 69.084 63.9405 69.0093 63.7025 68.86C63.4692 68.7107 63.2872 68.4983 63.1565 68.223C63.0258 67.9477 62.9605 67.6233 62.9605 67.25C62.9605 66.872 63.0258 66.5477 63.1565 66.277C63.2872 66.0017 63.4692 65.7893 63.7025 65.64C63.9405 65.4907 64.2205 65.416 64.5425 65.416C64.8365 65.416 65.0838 65.4907 65.2845 65.64C65.4898 65.7893 65.6462 66.0017 65.7535 66.277C65.8608 66.5477 65.9145 66.872 65.9145 67.25C65.9145 67.6233 65.8608 67.9477 65.7535 68.223C65.6462 68.4983 65.4898 68.7107 65.2845 68.86C65.0838 69.0093 64.8365 69.084 64.5425 69.084ZM64.7805 68.237C64.9392 68.237 65.0792 68.195 65.2005 68.111C65.3265 68.027 65.4245 67.9103 65.4945 67.761C65.5645 67.6117 65.5995 67.4413 65.5995 67.25C65.5995 67.0587 65.5645 66.8883 65.4945 66.739C65.4245 66.5897 65.3265 66.4753 65.2005 66.396C65.0792 66.312 64.9368 66.27 64.7735 66.27C64.6055 66.27 64.4585 66.312 64.3325 66.396C64.2065 66.4753 64.1062 66.5897 64.0315 66.739C63.9568 66.8883 63.9195 67.0587 63.9195 67.25C63.9195 67.4413 63.9568 67.6117 64.0315 67.761C64.1062 67.9103 64.2065 68.027 64.3325 68.111C64.4632 68.195 64.6125 68.237 64.7805 68.237Z" fill="white"/>
<path d="M29.9716 80.12C29.3049 80.12 28.7116 79.9667 28.1916 79.66C27.6716 79.3467 27.2649 78.92 26.9716 78.38C26.6782 77.8333 26.5316 77.2067 26.5316 76.5C26.5316 75.7933 26.6782 75.17 26.9716 74.63C27.2649 74.0833 27.6682 73.6567 28.1816 73.35C28.6949 73.0367 29.2849 72.88 29.9516 72.88C30.3849 72.88 30.7982 72.96 31.1916 73.12C31.5849 73.2733 31.9349 73.49 32.2416 73.77C32.5549 74.0433 32.7949 74.3633 32.9616 74.73L32.0816 75.13C31.9549 74.8567 31.7816 74.62 31.5616 74.42C31.3416 74.22 31.0916 74.0633 30.8116 73.95C30.5382 73.8367 30.2516 73.78 29.9516 73.78C29.4849 73.78 29.0682 73.8967 28.7016 74.13C28.3349 74.3633 28.0482 74.6833 27.8416 75.09C27.6349 75.4967 27.5316 75.9667 27.5316 76.5C27.5316 77.0333 27.6349 77.5067 27.8416 77.92C28.0549 78.3333 28.3449 78.6567 28.7116 78.89C29.0849 79.1167 29.5082 79.23 29.9816 79.23C30.2882 79.23 30.5782 79.17 30.8516 79.05C31.1249 78.9233 31.3682 78.7533 31.5816 78.54C31.8016 78.32 31.9782 78.07 32.1116 77.79L32.9916 78.18C32.8249 78.56 32.5882 78.8967 32.2816 79.19C31.9749 79.4833 31.6216 79.7133 31.2216 79.88C30.8282 80.04 30.4116 80.12 29.9716 80.12ZM36.2384 80.12C35.7384 80.12 35.2984 80.01 34.9184 79.79C34.5384 79.5633 34.2384 79.2533 34.0184 78.86C33.805 78.4667 33.6984 78.0133 33.6984 77.5C33.6984 76.9867 33.805 76.5333 34.0184 76.14C34.2317 75.7467 34.5284 75.44 34.9084 75.22C35.2884 74.9933 35.725 74.88 36.2184 74.88C36.7117 74.88 37.1484 74.9933 37.5284 75.22C37.9084 75.44 38.205 75.7467 38.4184 76.14C38.6317 76.5333 38.7384 76.9867 38.7384 77.5C38.7384 78.0133 38.6317 78.4667 38.4184 78.86C38.205 79.2533 37.9084 79.5633 37.5284 79.79C37.155 80.01 36.725 80.12 36.2384 80.12ZM36.2384 79.25C36.5384 79.25 36.805 79.1767 37.0384 79.03C37.2717 78.8767 37.4517 78.67 37.5784 78.41C37.7117 78.15 37.7784 77.8467 37.7784 77.5C37.7784 77.1533 37.7117 76.85 37.5784 76.59C37.4517 76.33 37.2684 76.1267 37.0284 75.98C36.7884 75.8267 36.5184 75.75 36.2184 75.75C35.9117 75.75 35.6417 75.8267 35.4084 75.98C35.175 76.1267 34.9917 76.33 34.8584 76.59C34.725 76.85 34.6584 77.1533 34.6584 77.5C34.6584 77.8467 34.725 78.15 34.8584 78.41C34.9917 78.67 35.1784 78.8767 35.4184 79.03C35.6584 79.1767 35.9317 79.25 36.2384 79.25ZM39.7791 80V75H40.6691L40.7291 75.92V80H39.7791ZM43.2391 80V77.44H44.1891V80H43.2391ZM43.2391 77.44C43.2391 76.9867 43.1858 76.6433 43.0791 76.41C42.9791 76.17 42.8358 76.0033 42.6491 75.91C42.4691 75.8167 42.2591 75.7667 42.0191 75.76C41.6125 75.76 41.2958 75.9033 41.0691 76.19C40.8425 76.4767 40.7291 76.88 40.7291 77.4H40.3191C40.3191 76.8733 40.3958 76.4233 40.5491 76.05C40.7091 75.67 40.9325 75.38 41.2191 75.18C41.5125 74.98 41.8591 74.88 42.2591 74.88C42.6525 74.88 42.9925 74.96 43.2791 75.12C43.5725 75.28 43.7958 75.53 43.9491 75.87C44.1091 76.2033 44.1891 76.6433 44.1891 77.19V77.44H43.2391ZM47.6646 80.12C47.1646 80.12 46.7213 80.01 46.3346 79.79C45.9479 79.5633 45.6446 79.2533 45.4246 78.86C45.2113 78.4667 45.1046 78.0133 45.1046 77.5C45.1046 76.9867 45.2113 76.5333 45.4246 76.14C45.6446 75.7467 45.9446 75.44 46.3246 75.22C46.7113 74.9933 47.1513 74.88 47.6446 74.88C48.1313 74.88 48.5679 74.9933 48.9546 75.22C49.3479 75.4467 49.6413 75.77 49.8346 76.19L48.9746 76.55C48.8479 76.3033 48.6646 76.11 48.4246 75.97C48.1913 75.83 47.9213 75.76 47.6146 75.76C47.3146 75.76 47.0479 75.8333 46.8146 75.98C46.5813 76.1267 46.3979 76.3333 46.2646 76.6C46.1313 76.86 46.0646 77.16 46.0646 77.5C46.0646 77.84 46.1313 78.14 46.2646 78.4C46.3979 78.66 46.5846 78.8667 46.8246 79.02C47.0646 79.1667 47.3346 79.24 47.6346 79.24C47.9413 79.24 48.2146 79.1633 48.4546 79.01C48.6946 78.85 48.8746 78.6367 48.9946 78.37L49.8646 78.72C49.6713 79.16 49.3779 79.5033 48.9846 79.75C48.5979 79.9967 48.1579 80.12 47.6646 80.12ZM50.8645 80V75H51.8145V80H50.8645ZM51.3445 73.94C51.1912 73.94 51.0579 73.8833 50.9445 73.77C50.8312 73.65 50.7745 73.5133 50.7745 73.36C50.7745 73.2 50.8312 73.0667 50.9445 72.96C51.0579 72.8467 51.1912 72.79 51.3445 72.79C51.5045 72.79 51.6379 72.8467 51.7445 72.96C51.8579 73.0667 51.9145 73.2 51.9145 73.36C51.9145 73.5133 51.8579 73.65 51.7445 73.77C51.6379 73.8833 51.5045 73.94 51.3445 73.94ZM55.4169 80.12C54.9302 80.12 54.5002 80.01 54.1269 79.79C53.7535 79.5633 53.4602 79.2533 53.2469 78.86C53.0335 78.4667 52.9269 78.0133 52.9269 77.5C52.9269 76.9867 53.0335 76.5333 53.2469 76.14C53.4602 75.7467 53.7535 75.44 54.1269 75.22C54.5069 74.9933 54.9402 74.88 55.4269 74.88C55.8869 74.88 56.2902 74.9967 56.6369 75.23C56.9835 75.4567 57.2535 75.7833 57.4469 76.21C57.6469 76.63 57.7469 77.1267 57.7469 77.7H53.7069L53.8869 77.55C53.8869 77.9033 53.9569 78.21 54.0969 78.47C54.2369 78.73 54.4269 78.93 54.6669 79.07C54.9069 79.2033 55.1802 79.27 55.4869 79.27C55.8202 79.27 56.0969 79.1933 56.3169 79.04C56.5435 78.88 56.7202 78.68 56.8469 78.44L57.6669 78.82C57.5335 79.08 57.3602 79.31 57.1469 79.51C56.9335 79.7033 56.6802 79.8533 56.3869 79.96C56.1002 80.0667 55.7769 80.12 55.4169 80.12ZM53.9469 77.1L53.7569 76.95H56.9169L56.7369 77.1C56.7369 76.8067 56.6769 76.5567 56.5569 76.35C56.4369 76.1367 56.2769 75.9767 56.0769 75.87C55.8769 75.7567 55.6535 75.7 55.4069 75.7C55.1669 75.7 54.9335 75.7567 54.7069 75.87C54.4869 75.9767 54.3035 76.1333 54.1569 76.34C54.0169 76.5467 53.9469 76.8 53.9469 77.1ZM59.2654 77.31C59.2654 76.77 59.3687 76.33 59.5754 75.99C59.7821 75.65 60.0487 75.3967 60.3754 75.23C60.7021 75.0633 61.0454 74.98 61.4054 74.98V75.88C61.1054 75.88 60.8187 75.9267 60.5454 76.02C60.2787 76.1067 60.0587 76.2533 59.8854 76.46C59.7187 76.66 59.6354 76.9333 59.6354 77.28L59.2654 77.31ZM58.6854 80V75H59.6354V80H58.6854ZM64.2417 82.13C63.9084 82.13 63.6051 82.0967 63.3317 82.03C63.0584 81.97 62.8284 81.9 62.6417 81.82C62.4551 81.74 62.3151 81.67 62.2217 81.61L62.5817 80.84C62.6684 80.8933 62.7917 80.9533 62.9517 81.02C63.1117 81.0933 63.2984 81.1533 63.5117 81.2C63.7251 81.2533 63.9617 81.28 64.2217 81.28C64.5284 81.28 64.8017 81.2167 65.0417 81.09C65.2817 80.97 65.4684 80.78 65.6017 80.52C65.7417 80.26 65.8117 79.9267 65.8117 79.52V75H66.7617V79.5C66.7617 80.0733 66.6517 80.5533 66.4317 80.94C66.2184 81.3333 65.9217 81.63 65.5417 81.83C65.1684 82.03 64.7351 82.13 64.2417 82.13ZM64.1517 79.93C63.6984 79.93 63.3017 79.8267 62.9617 79.62C62.6284 79.4067 62.3651 79.1133 62.1717 78.74C61.9851 78.36 61.8917 77.9233 61.8917 77.43C61.8917 76.9167 61.9851 76.47 62.1717 76.09C62.3651 75.71 62.6284 75.4133 62.9617 75.2C63.3017 74.9867 63.6984 74.88 64.1517 74.88C64.5651 74.88 64.9251 74.9867 65.2317 75.2C65.5451 75.4133 65.7851 75.7133 65.9517 76.1C66.1251 76.48 66.2117 76.9267 66.2117 77.44C66.2117 77.9333 66.1251 78.37 65.9517 78.75C65.7851 79.1233 65.5451 79.4133 65.2317 79.62C64.9251 79.8267 64.5651 79.93 64.1517 79.93ZM64.3917 79.13C64.6717 79.13 64.9151 79.0567 65.1217 78.91C65.3284 78.7567 65.4917 78.5533 65.6117 78.3C65.7317 78.04 65.7917 77.7433 65.7917 77.41C65.7917 77.0767 65.7317 76.7833 65.6117 76.53C65.4917 76.2767 65.3251 76.08 65.1117 75.94C64.9051 75.7933 64.6617 75.72 64.3817 75.72C64.0884 75.72 63.8284 75.7933 63.6017 75.94C63.3817 76.08 63.2084 76.2767 63.0817 76.53C62.9551 76.7833 62.8917 77.0767 62.8917 77.41C62.8917 77.7433 62.9551 78.04 63.0817 78.3C63.2151 78.5533 63.3917 78.7567 63.6117 78.91C63.8384 79.0567 64.0984 79.13 64.3917 79.13ZM70.2899 80.12C69.8033 80.12 69.3733 80.01 68.9999 79.79C68.6266 79.5633 68.3333 79.2533 68.1199 78.86C67.9066 78.4667 67.7999 78.0133 67.7999 77.5C67.7999 76.9867 67.9066 76.5333 68.1199 76.14C68.3333 75.7467 68.6266 75.44 68.9999 75.22C69.3799 74.9933 69.8133 74.88 70.2999 74.88C70.7599 74.88 71.1633 74.9967 71.5099 75.23C71.8566 75.4567 72.1266 75.7833 72.3199 76.21C72.5199 76.63 72.6199 77.1267 72.6199 77.7H68.5799L68.7599 77.55C68.7599 77.9033 68.8299 78.21 68.9699 78.47C69.1099 78.73 69.2999 78.93 69.5399 79.07C69.7799 79.2033 70.0533 79.27 70.3599 79.27C70.6933 79.27 70.9699 79.1933 71.1899 79.04C71.4166 78.88 71.5933 78.68 71.7199 78.44L72.5399 78.82C72.4066 79.08 72.2333 79.31 72.0199 79.51C71.8066 79.7033 71.5533 79.8533 71.2599 79.96C70.9733 80.0667 70.6499 80.12 70.2899 80.12ZM68.8199 77.1L68.6299 76.95H71.7899L71.6099 77.1C71.6099 76.8067 71.5499 76.5567 71.4299 76.35C71.3099 76.1367 71.1499 75.9767 70.9499 75.87C70.7499 75.7567 70.5266 75.7 70.2799 75.7C70.0399 75.7 69.8066 75.7567 69.5799 75.87C69.3599 75.9767 69.1766 76.1333 69.0299 76.34C68.8899 76.5467 68.8199 76.8 68.8199 77.1Z" fill="white"/>
<defs>
<filter id="filter0_d_4537_11159" x="0" y="0" width="98.9316" height="98.9316" filterUnits="userSpaceOnUse" color-interpolation-filters="sRGB">
<feFlood flood-opacity="0" result="BackgroundImageFix"/>
<feColorMatrix in="SourceAlpha" type="matrix" values="0 0 0 0 0 0 0 0 0 0 0 0 0 0 0 0 0 0 127 0" result="hardAlpha"/>
<feMorphology radius="1" operator="dilate" in="SourceAlpha" result="effect1_dropShadow_4537_11159"/>
<feOffset/>
<feGaussianBlur stdDeviation="2"/>
<feComposite in2="hardAlpha" operator="out"/>
<feColorMatrix type="matrix" values="0 0 0 0 0 0 0 0 0 0 0 0 0 0 0 0 0 0 0.2 0"/>
<feBlend mode="normal" in2="BackgroundImageFix" result="effect1_dropShadow_4537_11159"/>
<feBlend mode="normal" in="SourceGraphic" in2="effect1_dropShadow_4537_11159" result="shape"/>
</filter>
</defs>
</svg>
