<svg width="68" height="68" viewBox="0 0 68 68" fill="none" xmlns="http://www.w3.org/2000/svg">
<circle cx="34" cy="34" r="33.25" fill="white" stroke="#354764" stroke-width="1.5"/>
<path d="M40.162 31.2565C38.8182 33.3561 36.5842 35.5733 33.8631 35.1617C31.1756 34.7586 29.2692 32.2391 28.127 29.9799C27.959 29.6524 27.5643 29.6188 27.262 29.7531C27.0268 29.8623 26.7497 29.644 26.5817 29.4844C26.2374 29.1653 26.0442 28.7117 25.9098 28.275C25.7503 27.7459 25.5571 26.3266 26.3045 26.0998C26.6657 25.9906 26.7917 25.6715 26.7413 25.3272C26.7413 25.3272 26.7413 25.3272 26.7413 25.3188C26.6909 24.9744 26.2626 24.7981 25.9686 24.8821C25.6075 24.9828 25.4815 25.3188 25.5319 25.6547C25.5319 25.6547 25.5319 25.6547 25.5319 25.6631C25.6747 25.4028 25.8258 25.1424 25.9686 24.8904C24.3897 25.3776 24.3393 27.4352 24.734 28.7453C25.1372 30.0639 26.3969 31.5504 27.9003 30.8449C27.6147 30.7694 27.3292 30.6938 27.0352 30.6182C28.3538 33.2301 30.5961 35.9428 33.6532 36.3963C36.9202 36.8834 39.6077 34.4563 41.2454 31.8863C41.6905 31.2061 40.5987 30.5762 40.162 31.2565ZM31.6795 42.1996C33.4852 42.8883 35.484 42.8463 37.3149 42.2752C38.0876 42.0401 37.76 40.8223 36.979 41.0574C35.3413 41.5613 33.628 41.5949 32.0155 40.9819C31.2596 40.6963 30.9321 41.9141 31.6795 42.1996Z" fill="#354764"/>
<path d="M48.0471 52.8988C48.0471 50.858 48.0471 48.8088 48.0471 46.768C48.0471 45.9281 48.0471 45.0883 48.0471 44.2484C48.0471 42.4512 47.1232 40.8135 45.6199 39.8477C44.6961 39.2514 43.5959 39.117 42.5461 38.907C41.6391 38.7223 40.7404 38.5459 39.8334 38.3611C39.9594 38.4535 40.0854 38.5543 40.2113 38.6467C39.9426 38.252 39.699 37.8152 39.3799 37.4541C38.918 36.9334 37.9186 36.8662 37.6834 37.6305C37.4818 38.294 37.2887 38.9658 37.0871 39.6293C36.3396 42.1404 35.5922 44.6516 34.8447 47.1627C34.5256 48.2293 34.2064 49.2959 33.8873 50.3709C34.2904 50.3709 34.6936 50.3709 35.1051 50.3709C33.9293 46.3984 32.7535 42.4344 31.5777 38.4619C31.4854 38.1596 31.4014 37.8572 31.309 37.5465C31.1662 37.051 30.6203 37.0174 30.192 37.0846C29.8812 37.135 29.6545 37.4121 29.4781 37.6473C29.243 37.9748 29.0162 38.3107 28.7811 38.6383C28.907 38.5459 29.033 38.4451 29.159 38.3527C28.1512 38.5543 27.1518 38.7559 26.1439 38.9574C25.7744 39.033 25.3965 39.1086 25.027 39.1842C24.0863 39.369 23.2297 39.8477 22.5326 40.4943C21.4324 41.5106 20.9453 42.9635 20.9453 44.4332C20.9453 45.4494 20.9453 46.4572 20.9453 47.4734C20.9453 49.2791 20.9453 51.0848 20.9453 52.8904C20.9453 53.7051 22.2051 53.7051 22.2051 52.8904C22.2051 50.8496 22.2051 48.8004 22.2051 46.7596C22.2051 45.9197 22.2051 45.0799 22.2051 44.24C22.2051 42.594 23.2297 41.099 24.7918 40.5447C25.2369 40.3852 25.7324 40.318 26.2027 40.2256C26.8998 40.0828 27.6053 39.9484 28.3023 39.8057C28.6971 39.7301 29.1002 39.6461 29.4949 39.5705C29.8057 39.5117 30.0324 39.0498 30.2004 38.8147C30.3012 38.6719 30.402 38.5207 30.5027 38.3779C30.5279 38.3359 30.5615 38.294 30.5867 38.2604C30.6707 38.1428 30.4859 38.3191 30.5279 38.3275C30.3852 38.1848 30.234 38.0336 30.0912 37.8908C31.267 41.8633 32.4428 45.8274 33.6186 49.7998C33.7109 50.1022 33.7949 50.4045 33.8873 50.7152C34.0637 51.3199 34.9203 51.3115 35.1051 50.7152C36.2893 46.7428 37.4734 42.7787 38.6492 38.8063C38.7416 38.5039 38.834 38.2016 38.918 37.8908C38.7752 38.0336 38.624 38.1848 38.4812 38.3275C38.4645 38.3359 38.3301 38.1344 38.4729 38.3359C38.5484 38.4535 38.6324 38.5711 38.708 38.6803C38.8424 38.8818 38.9852 39.0834 39.1195 39.2766C39.3715 39.6461 39.9342 39.6545 40.3373 39.7301C41.4207 39.9484 42.5125 40.1668 43.5959 40.3852C45.2924 40.7211 46.6109 42.1068 46.7705 43.8453C46.8377 44.5844 46.7873 45.3486 46.7873 46.0877C46.7873 48.3553 46.7873 50.6145 46.7873 52.882C46.7873 53.7135 48.0471 53.7135 48.0471 52.8988Z" fill="#354764"/>
<path d="M30.1846 45.4597C30.1594 46.3079 29.5127 46.9546 28.6645 46.9798C27.8163 47.005 27.1696 46.2743 27.1444 45.4597C27.1192 44.6114 27.8498 43.9648 28.6645 43.9396C29.5211 43.9228 30.1678 44.6534 30.1846 45.4597C30.2098 46.2743 31.4696 46.2743 31.4444 45.4597C31.4024 43.9228 30.2098 42.7218 28.6645 42.6798C27.1276 42.6378 25.9266 43.9816 25.8846 45.4597C25.8426 46.9966 27.1864 48.1976 28.6645 48.2396C30.2014 48.2816 31.4024 46.9378 31.4444 45.4597C31.4696 44.645 30.2098 44.6534 30.1846 45.4597ZM40.0108 49.3901C39.4061 49.3649 39.3809 48.8358 39.3809 48.3739C39.3809 47.744 39.3809 47.1142 39.3809 46.4843C39.3809 46.0812 39.3809 45.678 39.3809 45.2749C39.3809 44.4183 39.9268 43.6372 40.7247 43.3349C41.5813 43.0157 42.4715 43.3097 43.0594 43.9732C43.4541 44.4183 43.5213 44.9894 43.5213 45.5521C43.5213 46.6187 43.5213 47.6853 43.5213 48.7435C43.5213 49.1046 43.2442 49.3649 42.8914 49.3817C42.0852 49.4153 42.0768 50.6751 42.8914 50.6415C43.9161 50.5911 44.7811 49.8101 44.7811 48.7519C44.7811 48.3235 44.7811 47.8952 44.7811 47.4669C44.7811 46.2407 44.9491 44.8886 44.4116 43.7548C43.5129 41.8567 40.9178 41.4116 39.3473 42.705C38.5747 43.3433 38.1463 44.2755 38.1295 45.2749C38.1211 45.678 38.1295 46.0812 38.1295 46.4843C38.1295 47.2066 38.1295 47.9204 38.1295 48.6427C38.1295 49.7513 38.9022 50.5995 40.0192 50.6499C40.8254 50.6835 40.8254 49.4237 40.0108 49.3901ZM31.4444 21.2218C31.7215 21.2974 31.9987 21.4066 32.2674 21.5073C32.3346 21.5325 32.3934 21.5577 32.4606 21.5829C32.6034 21.6417 32.3598 21.5409 32.553 21.6249C32.7209 21.7005 32.8889 21.7761 33.0569 21.8601C33.4348 22.0448 33.8127 22.2464 34.1739 22.4648C36.1055 23.6069 37.7348 25.2278 38.8098 27.2687C40.1704 29.8554 40.3635 32.8872 39.9268 35.7343C39.826 36.3642 40.4727 36.7757 40.9766 36.3474C42.102 35.3983 43.0006 34.063 43.6641 32.7612C45.2094 29.7378 45.4026 26.286 44.4116 23.061C43.261 19.3321 40.8422 15.7796 37.0713 14.3939C34.451 13.428 31.2932 13.6884 28.9081 15.1581C27.7407 15.872 26.6573 17.0058 26.4305 18.4083C26.5229 18.2823 26.6237 18.1564 26.7161 18.0304C26.1198 18.4335 25.7586 19.1222 25.4983 19.7689C24.7676 21.6165 25.07 23.8085 25.5235 25.6814C25.5991 26.0089 25.977 26.2189 26.2961 26.1181C28.8157 25.3538 30.9237 23.187 32.1498 20.9446C32.5446 20.2308 31.4528 19.5925 31.0581 20.3064C30.2518 21.7761 29.1516 23.0442 27.7575 23.9765C27.3291 24.262 26.884 24.514 26.4137 24.7239C26.3801 24.7407 26.3549 24.7491 26.3213 24.7659C26.1702 24.8331 26.4473 24.7155 26.3129 24.7743C26.2457 24.7995 26.187 24.8247 26.1198 24.8499C26.0694 24.8667 26.0106 24.8919 25.9602 24.9087C26.2206 25.0515 26.4809 25.2026 26.7329 25.3454C26.3381 23.6909 26.0862 21.8685 26.6657 20.2224C26.7329 20.046 26.7748 19.9368 26.9092 19.7017C26.9512 19.6177 27.0016 19.5421 27.052 19.4665C27.0772 19.4329 27.1024 19.3993 27.1192 19.3657C27.1864 19.2733 27.0268 19.4833 27.136 19.3489C27.2032 19.265 27.2788 19.1894 27.3543 19.1138C27.5055 18.971 27.262 19.1726 27.3459 19.1138C27.6399 18.9122 27.6399 18.6099 27.7407 18.2991C27.7575 18.2487 27.7743 18.19 27.7995 18.1396C27.8666 17.9632 27.7491 18.2487 27.8247 18.0808C27.8834 17.9548 27.9422 17.8372 28.0178 17.7196C28.2614 17.3081 28.5805 16.9806 29.0004 16.6278C29.8571 15.9224 31.0664 15.4605 32.2254 15.2337C35.2237 14.6542 38.2555 15.83 40.2963 18.0724C41.7241 19.6513 42.7235 21.7257 43.3114 23.7581C43.7901 25.4294 43.9329 27.2015 43.6473 28.9232C43.345 30.6868 42.6227 32.3245 41.5897 33.7775C41.3041 34.1722 40.9766 34.5837 40.5651 35.012C40.4139 35.1716 40.2627 35.3228 40.0948 35.4655C40.4475 35.6671 40.8002 35.8771 41.1446 36.0786C41.6653 32.7025 41.3881 29.2255 39.6664 26.2189C38.4991 24.178 36.7354 22.5235 34.7198 21.331C33.8043 20.7935 32.8049 20.298 31.7719 20.0208C30.9993 19.7941 30.6633 21.0034 31.4444 21.2218Z" fill="#354764"/>
<path d="M42.0826 42.57C42.0826 41.4866 42.0826 40.4116 42.0826 39.3282C42.0826 39.0342 41.8894 38.8075 41.6207 38.7235C41.713 38.7739 41.8054 38.8327 41.8978 38.8831C41.3267 38.312 40.4281 39.2022 41.0076 39.7733C41.0916 39.8573 41.1755 39.8993 41.2847 39.9329C41.1335 39.7313 40.974 39.5297 40.8228 39.3282C40.8228 40.4116 40.8228 41.4866 40.8228 42.57C40.8228 43.3846 42.0826 43.3846 42.0826 42.57Z" fill="#354764"/>
<path d="M31.2324 37.6983C31.2324 36.5561 31.2324 35.4139 31.2324 34.2633C31.2324 33.4487 29.9727 33.4487 29.9727 34.2633C29.9727 35.4055 29.9727 36.5477 29.9727 37.6983C29.9727 38.5129 31.2324 38.5129 31.2324 37.6983Z" fill="#354764"/>
<path d="M39.0254 37.7061C39.0254 36.5639 39.0254 35.4133 39.0254 34.2711C39.0254 33.4565 37.7656 33.4565 37.7656 34.2711C37.7656 35.4133 37.7656 36.5639 37.7656 37.7061C37.7656 38.5124 39.0254 38.5124 39.0254 37.7061Z" fill="#354764"/>
<path d="M29.3027 43.3166C29.3027 41.9141 29.3027 40.5116 29.3027 39.109C29.3027 38.2944 28.043 38.2944 28.043 39.109C28.043 40.5116 28.043 41.9141 28.043 43.3166C28.043 44.1229 29.3027 44.1229 29.3027 43.3166Z" fill="#354764"/>
<path d="M29.3936 37.8077C29.15 38.0512 29.15 38.4543 29.3936 38.6979C29.6372 38.9415 30.0403 38.9415 30.2838 38.6979C30.5274 38.4543 30.5274 38.0512 30.2838 37.8077C30.0403 37.5641 29.6372 37.5641 29.3936 37.8077Z" fill="#354764"/>
<path d="M47.4178 52.2695C43.9745 52.2695 40.5311 52.2695 37.0793 52.2695C32.3342 52.2695 27.5891 52.2695 22.844 52.2695C22.4241 52.2695 21.9958 52.2695 21.5758 52.2695C20.7612 52.2695 20.7612 53.5293 21.5758 53.5293C25.0192 53.5293 28.4625 53.5293 31.9143 53.5293C36.6594 53.5293 41.4045 53.5293 46.1497 53.5293C46.5696 53.5293 46.9979 53.5293 47.4178 53.5293C48.2325 53.5293 48.2325 52.2695 47.4178 52.2695Z" fill="#354764"/>
</svg>
