<svg width="99" height="99" viewBox="0 0 99 99" fill="none" xmlns="http://www.w3.org/2000/svg">
<g filter="url(#filter0_d_4537_11137)">
<rect x="5" y="5" width="88.9311" height="88.9322" rx="10" fill="#274E6D"/>
</g>
<path d="M37.4622 25.7454H32.5195V60.3443H60.5281V55.4016H65.4708V20.8027H37.4622V25.7454ZM58.8806 58.6967H34.1671V27.393H53.1141V33.1595H58.8806V58.6967ZM54.7617 28.5578L57.7157 31.5119H54.7617V28.5578ZM39.1098 22.4503H63.8233V53.754H60.5281V31.9946L54.2789 25.7454H39.1098V22.4503Z" fill="white"/>
<path d="M46.5299 31.5117H36.6445V41.3971H46.5299V31.5117ZM44.8824 39.7495H38.2921V33.1593H44.8824V39.7495ZM49.0013 35.6306H56.4153V37.2782H49.0013V35.6306ZM49.0013 39.7495H56.4153V41.3971H49.0013V39.7495ZM36.6445 43.8685H49.0013V45.516H36.6445V43.8685ZM51.4726 43.8685H56.4153V45.516H51.4726V43.8685ZM36.6445 47.9874H41.5872V49.6349H36.6445V47.9874ZM44.0586 47.9874H56.4153V49.6349H44.0586V47.9874ZM36.6445 52.1063H48.1775V53.7538H36.6445V52.1063ZM50.6488 52.1063H56.4153V53.7538H50.6488V52.1063Z" fill="white"/>
<path d="M20.4542 77.6727C19.7808 77.6727 19.1808 77.5194 18.6542 77.2127C18.1342 76.8994 17.7242 76.4727 17.4242 75.9327C17.1308 75.3861 16.9842 74.7594 16.9842 74.0527C16.9842 73.3461 17.1308 72.7227 17.4242 72.1827C17.7242 71.6361 18.1342 71.2094 18.6542 70.9027C19.1742 70.5894 19.7708 70.4327 20.4442 70.4327C20.8975 70.4327 21.3242 70.5161 21.7242 70.6827C22.1242 70.8427 22.4775 71.0661 22.7842 71.3527C23.0975 71.6394 23.3375 71.9727 23.5042 72.3527L22.4442 72.7827C22.3242 72.5294 22.1608 72.3061 21.9542 72.1127C21.7542 71.9127 21.5242 71.7594 21.2642 71.6527C21.0042 71.5461 20.7308 71.4927 20.4442 71.4927C20.0042 71.4927 19.6108 71.6027 19.2642 71.8227C18.9242 72.0427 18.6542 72.3461 18.4542 72.7327C18.2608 73.1127 18.1642 73.5527 18.1642 74.0527C18.1642 74.5527 18.2608 74.9961 18.4542 75.3827C18.6542 75.7694 18.9275 76.0727 19.2742 76.2927C19.6275 76.5127 20.0275 76.6227 20.4742 76.6227C20.7675 76.6227 21.0408 76.5661 21.2942 76.4527C21.5542 76.3327 21.7842 76.1694 21.9842 75.9627C22.1908 75.7561 22.3542 75.5161 22.4742 75.2427L23.5342 75.6727C23.3675 76.0661 23.1308 76.4161 22.8242 76.7227C22.5175 77.0227 22.1608 77.2561 21.7542 77.4227C21.3475 77.5894 20.9142 77.6727 20.4542 77.6727ZM26.7407 77.6727C26.2407 77.6727 25.7941 77.5627 25.4007 77.3427C25.0141 77.1161 24.7107 76.8061 24.4907 76.4127C24.2707 76.0194 24.1607 75.5661 24.1607 75.0527C24.1607 74.5394 24.2674 74.0861 24.4807 73.6927C24.7007 73.2994 25.0041 72.9927 25.3907 72.7727C25.7774 72.5461 26.2207 72.4327 26.7207 72.4327C27.2207 72.4327 27.6641 72.5461 28.0507 72.7727C28.4374 72.9927 28.7374 73.2994 28.9507 73.6927C29.1707 74.0861 29.2807 74.5394 29.2807 75.0527C29.2807 75.5661 29.1741 76.0194 28.9607 76.4127C28.7474 76.8061 28.4474 77.1161 28.0607 77.3427C27.6741 77.5627 27.2341 77.6727 26.7407 77.6727ZM26.7407 76.6427C27.0141 76.6427 27.2574 76.5761 27.4707 76.4427C27.6841 76.3027 27.8507 76.1161 27.9707 75.8827C28.0907 75.6427 28.1507 75.3661 28.1507 75.0527C28.1507 74.7394 28.0874 74.4661 27.9607 74.2327C27.8407 73.9927 27.6741 73.8061 27.4607 73.6727C27.2474 73.5327 27.0007 73.4627 26.7207 73.4627C26.4407 73.4627 26.1941 73.5294 25.9807 73.6627C25.7674 73.7961 25.6007 73.9827 25.4807 74.2227C25.3607 74.4627 25.3007 74.7394 25.3007 75.0527C25.3007 75.3661 25.3607 75.6427 25.4807 75.8827C25.6074 76.1161 25.7774 76.3027 25.9907 76.4427C26.2107 76.5761 26.4607 76.6427 26.7407 76.6427ZM30.2513 77.5527V72.5527H31.3013L31.3713 73.4727V77.5527H30.2513ZM33.6413 77.5527V74.9927H34.7613V77.5527H33.6413ZM33.6413 74.9927C33.6413 74.5927 33.5946 74.2861 33.5013 74.0727C33.4146 73.8527 33.2879 73.6994 33.1213 73.6127C32.9613 73.5261 32.7713 73.4827 32.5513 73.4827C32.1779 73.4761 31.8879 73.5994 31.6813 73.8527C31.4746 74.1061 31.3713 74.4694 31.3713 74.9427H30.9513C30.9513 74.4161 31.0279 73.9661 31.1813 73.5927C31.3346 73.2127 31.5546 72.9261 31.8413 72.7327C32.1279 72.5327 32.4679 72.4327 32.8613 72.4327C33.2613 72.4327 33.6013 72.5127 33.8813 72.6727C34.1679 72.8327 34.3846 73.0827 34.5313 73.4227C34.6846 73.7561 34.7613 74.1927 34.7613 74.7327V74.9927H33.6413ZM37.7158 77.6727C37.3825 77.6727 37.0758 77.6227 36.7958 77.5227C36.5158 77.4227 36.2758 77.2827 36.0758 77.1027C35.8758 76.9161 35.7225 76.6994 35.6158 76.4527L36.5858 76.0227C36.6858 76.2094 36.8325 76.3661 37.0258 76.4927C37.2258 76.6194 37.4458 76.6827 37.6858 76.6827C37.9458 76.6827 38.1525 76.6394 38.3058 76.5527C38.4658 76.4594 38.5458 76.3327 38.5458 76.1727C38.5458 76.0194 38.4858 75.9027 38.3658 75.8227C38.2458 75.7361 38.0758 75.6661 37.8558 75.6127L37.3858 75.4827C36.9125 75.3627 36.5425 75.1727 36.2758 74.9127C36.0091 74.6461 35.8758 74.3427 35.8758 74.0027C35.8758 73.5027 36.0358 73.1161 36.3558 72.8427C36.6825 72.5694 37.1491 72.4327 37.7558 72.4327C38.0625 72.4327 38.3425 72.4794 38.5958 72.5727C38.8558 72.6594 39.0791 72.7861 39.2658 72.9527C39.4525 73.1127 39.5825 73.3027 39.6558 73.5227L38.7258 73.9427C38.6591 73.7761 38.5325 73.6494 38.3458 73.5627C38.1591 73.4694 37.9525 73.4227 37.7258 73.4227C37.4991 73.4227 37.3225 73.4727 37.1958 73.5727C37.0691 73.6661 37.0058 73.7994 37.0058 73.9727C37.0058 74.0727 37.0625 74.1661 37.1758 74.2527C37.2891 74.3327 37.4525 74.3994 37.6658 74.4527L38.2558 74.5927C38.5825 74.6727 38.8491 74.7994 39.0558 74.9727C39.2625 75.1394 39.4158 75.3294 39.5158 75.5427C39.6158 75.7494 39.6658 75.9594 39.6658 76.1727C39.6658 76.4727 39.5791 76.7361 39.4058 76.9627C39.2391 77.1894 39.0091 77.3661 38.7158 77.4927C38.4225 77.6127 38.0891 77.6727 37.7158 77.6727ZM42.784 77.6727C42.2973 77.6727 41.864 77.5627 41.484 77.3427C41.1107 77.1161 40.814 76.8061 40.594 76.4127C40.3807 76.0194 40.274 75.5661 40.274 75.0527C40.274 74.5394 40.384 74.0861 40.604 73.6927C40.824 73.2994 41.124 72.9927 41.504 72.7727C41.8907 72.5461 42.3307 72.4327 42.824 72.4327C43.2707 72.4327 43.674 72.5494 44.034 72.7827C44.394 73.0094 44.6773 73.3394 44.884 73.7727C45.0973 74.2061 45.204 74.7227 45.204 75.3227H41.274L41.424 75.1827C41.424 75.4894 41.4907 75.7561 41.624 75.9827C41.7573 76.2027 41.934 76.3727 42.154 76.4927C42.374 76.6127 42.6173 76.6727 42.884 76.6727C43.1907 76.6727 43.444 76.6061 43.644 76.4727C43.844 76.3327 44.0007 76.1527 44.114 75.9327L45.104 76.3527C44.964 76.6194 44.784 76.8527 44.564 77.0527C44.3507 77.2527 44.094 77.4061 43.794 77.5127C43.5007 77.6194 43.164 77.6727 42.784 77.6727ZM41.494 74.6027L41.334 74.4627H44.154L44.004 74.6027C44.004 74.3294 43.944 74.1061 43.824 73.9327C43.704 73.7527 43.5507 73.6194 43.364 73.5327C43.184 73.4394 42.994 73.3927 42.794 73.3927C42.594 73.3927 42.394 73.4394 42.194 73.5327C41.994 73.6194 41.8273 73.7527 41.694 73.9327C41.5607 74.1061 41.494 74.3294 41.494 74.6027ZM46.0618 77.5527V72.5527H47.1118L47.1818 73.4727V77.5527H46.0618ZM49.4518 77.5527V74.9927H50.5718V77.5527H49.4518ZM49.4518 74.9927C49.4518 74.5927 49.4051 74.2861 49.3118 74.0727C49.2251 73.8527 49.0985 73.6994 48.9318 73.6127C48.7718 73.5261 48.5818 73.4827 48.3618 73.4827C47.9885 73.4761 47.6985 73.5994 47.4918 73.8527C47.2851 74.1061 47.1818 74.4694 47.1818 74.9427H46.7618C46.7618 74.4161 46.8385 73.9661 46.9918 73.5927C47.1451 73.2127 47.3651 72.9261 47.6518 72.7327C47.9385 72.5327 48.2785 72.4327 48.6718 72.4327C49.0718 72.4327 49.4118 72.5127 49.6918 72.6727C49.9785 72.8327 50.1951 73.0827 50.3418 73.4227C50.4951 73.7561 50.5718 74.1927 50.5718 74.7327V74.9927H49.4518ZM53.6963 77.6727C53.1697 77.6727 52.7663 77.5427 52.4863 77.2827C52.213 77.0161 52.0763 76.6361 52.0763 76.1427V70.9927H53.1863V75.9327C53.1863 76.1661 53.2397 76.3427 53.3463 76.4627C53.4597 76.5827 53.623 76.6427 53.8363 76.6427C53.903 76.6427 53.9763 76.6294 54.0563 76.6027C54.1363 76.5761 54.2263 76.5261 54.3263 76.4527L54.7363 77.3027C54.563 77.4227 54.3897 77.5127 54.2163 77.5727C54.043 77.6394 53.8697 77.6727 53.6963 77.6727ZM51.2463 73.5127V72.5527H54.5363V73.5127H51.2463ZM58.2542 77.5527V70.5527H62.6042V71.6127H59.4142V73.5727H62.1442V74.6327H59.4142V77.5527H58.2542ZM65.7739 77.6727C65.2739 77.6727 64.8273 77.5627 64.4339 77.3427C64.0473 77.1161 63.7439 76.8061 63.5239 76.4127C63.3039 76.0194 63.1939 75.5661 63.1939 75.0527C63.1939 74.5394 63.3006 74.0861 63.5139 73.6927C63.7339 73.2994 64.0373 72.9927 64.4239 72.7727C64.8106 72.5461 65.2539 72.4327 65.7539 72.4327C66.2539 72.4327 66.6973 72.5461 67.0839 72.7727C67.4706 72.9927 67.7706 73.2994 67.9839 73.6927C68.2039 74.0861 68.3139 74.5394 68.3139 75.0527C68.3139 75.5661 68.2073 76.0194 67.9939 76.4127C67.7806 76.8061 67.4806 77.1161 67.0939 77.3427C66.7073 77.5627 66.2673 77.6727 65.7739 77.6727ZM65.7739 76.6427C66.0473 76.6427 66.2906 76.5761 66.5039 76.4427C66.7173 76.3027 66.8839 76.1161 67.0039 75.8827C67.1239 75.6427 67.1839 75.3661 67.1839 75.0527C67.1839 74.7394 67.1206 74.4661 66.9939 74.2327C66.8739 73.9927 66.7073 73.8061 66.4939 73.6727C66.2806 73.5327 66.0339 73.4627 65.7539 73.4627C65.4739 73.4627 65.2273 73.5294 65.0139 73.6627C64.8006 73.7961 64.6339 73.9827 64.5139 74.2227C64.3939 74.4627 64.3339 74.7394 64.3339 75.0527C64.3339 75.3661 64.3939 75.6427 64.5139 75.8827C64.6406 76.1161 64.8106 76.3027 65.0239 76.4427C65.2439 76.5761 65.4939 76.6427 65.7739 76.6427ZM70.0245 74.8927C70.0245 74.3527 70.1278 73.9094 70.3345 73.5627C70.5411 73.2161 70.8078 72.9594 71.1345 72.7927C71.4678 72.6194 71.8145 72.5327 72.1745 72.5327V73.6027C71.8678 73.6027 71.5778 73.6461 71.3045 73.7327C71.0378 73.8127 70.8211 73.9461 70.6545 74.1327C70.4878 74.3194 70.4045 74.5661 70.4045 74.8727L70.0245 74.8927ZM69.2845 77.5527V72.5527H70.4045V77.5527H69.2845ZM72.9173 77.5527V72.5527H73.9673L74.0173 73.2227C74.1706 72.9627 74.3673 72.7661 74.6073 72.6327C74.8473 72.4994 75.1206 72.4327 75.4273 72.4327C75.8273 72.4327 76.1673 72.5227 76.4473 72.7027C76.7273 72.8827 76.9306 73.1561 77.0573 73.5227C77.204 73.1694 77.4106 72.8994 77.6773 72.7127C77.944 72.5261 78.2573 72.4327 78.6173 72.4327C79.1973 72.4327 79.644 72.6194 79.9573 72.9927C80.2706 73.3594 80.424 73.9261 80.4173 74.6927V77.5527H79.3073V74.9927C79.3073 74.5927 79.264 74.2861 79.1773 74.0727C79.0906 73.8527 78.974 73.6994 78.8273 73.6127C78.6806 73.5261 78.5106 73.4827 78.3173 73.4827C77.9706 73.4761 77.7006 73.5994 77.5073 73.8527C77.3206 74.1061 77.2273 74.4694 77.2273 74.9427V77.5527H76.1073V74.9927C76.1073 74.5927 76.064 74.2861 75.9773 74.0727C75.8973 73.8527 75.7839 73.6994 75.6373 73.6127C75.4906 73.5261 75.3206 73.4827 75.1273 73.4827C74.7806 73.4761 74.5106 73.5994 74.3173 73.8527C74.1306 74.1061 74.0373 74.4694 74.0373 74.9427V77.5527H72.9173Z" fill="white"/>
<defs>
<filter id="filter0_d_4537_11137" x="0" y="0" width="98.9316" height="98.9316" filterUnits="userSpaceOnUse" color-interpolation-filters="sRGB">
<feFlood flood-opacity="0" result="BackgroundImageFix"/>
<feColorMatrix in="SourceAlpha" type="matrix" values="0 0 0 0 0 0 0 0 0 0 0 0 0 0 0 0 0 0 127 0" result="hardAlpha"/>
<feMorphology radius="1" operator="dilate" in="SourceAlpha" result="effect1_dropShadow_4537_11137"/>
<feOffset/>
<feGaussianBlur stdDeviation="2"/>
<feComposite in2="hardAlpha" operator="out"/>
<feColorMatrix type="matrix" values="0 0 0 0 0 0 0 0 0 0 0 0 0 0 0 0 0 0 0.2 0"/>
<feBlend mode="normal" in2="BackgroundImageFix" result="effect1_dropShadow_4537_11137"/>
<feBlend mode="normal" in="SourceGraphic" in2="effect1_dropShadow_4537_11137" result="shape"/>
</filter>
</defs>
</svg>
