<svg width="89" height="89" viewBox="0 0 89 89" fill="none" xmlns="http://www.w3.org/2000/svg">
<g filter="url(#filter0_d_3455_9925)">
<rect x="4" y="0.474609" width="80.5234" height="80.5244" rx="10" fill="#87ABC9"/>
</g>
<g clip-path="url(#clip0_3455_9925)">
<path d="M33.3934 19.2586H28.918V50.5864H54.2786V46.111H58.754V14.7832H33.3934V19.2586ZM52.7868 49.0946H30.4098V20.7504H47.5655V25.9717H52.7868V49.0946ZM49.0573 21.8051L51.7321 24.4799H49.0573V21.8051ZM34.8852 16.275H57.2622V44.6192H54.2786V24.917L48.6202 19.2586H34.8852V16.275Z" fill="white"/>
<path d="M41.6032 24.4805H32.6523V33.4313H41.6032V24.4805ZM40.1113 31.9395H34.1441V25.9723H40.1113V31.9395ZM43.8409 28.21H50.554V29.7018H43.8409V28.21ZM43.8409 31.9395H50.554V33.4313H43.8409V31.9395ZM32.6523 35.669H43.8409V37.1608H32.6523V35.669ZM46.0786 35.669H50.554V37.1608H46.0786V35.669ZM32.6523 39.3985H37.1277V40.8903H32.6523V39.3985ZM39.3654 39.3985H50.554V40.8903H39.3654V39.3985ZM32.6523 43.128H43.095V44.6198H32.6523V43.128ZM45.3327 43.128H50.554V44.6198H45.3327V43.128Z" fill="white"/>
</g>
<path d="M16.915 63.7744H18.2578C18.222 64.2497 18.0902 64.6712 17.8623 65.0391C17.6344 65.4036 17.3171 65.6901 16.9102 65.8984C16.5033 66.1068 16.0101 66.2109 15.4307 66.2109C14.9847 66.2109 14.5827 66.1328 14.2246 65.9766C13.8698 65.8171 13.5654 65.5908 13.3115 65.2979C13.0609 65.0016 12.8688 64.6468 12.7354 64.2334C12.6019 63.8167 12.5352 63.3496 12.5352 62.832V62.29C12.5352 61.7725 12.6035 61.3053 12.7402 60.8887C12.877 60.472 13.0723 60.1172 13.3262 59.8242C13.5833 59.528 13.891 59.3001 14.249 59.1406C14.6104 58.9811 15.014 58.9014 15.46 58.9014C16.0394 58.9014 16.5293 59.0088 16.9297 59.2236C17.3301 59.4352 17.641 59.7266 17.8623 60.0977C18.0837 60.4688 18.2171 60.8952 18.2627 61.377H16.9199C16.8939 61.0775 16.8288 60.8236 16.7246 60.6152C16.6237 60.4069 16.4707 60.249 16.2656 60.1416C16.0638 60.0309 15.7952 59.9756 15.46 59.9756C15.1995 59.9756 14.9701 60.0244 14.7715 60.1221C14.5762 60.2197 14.4134 60.3662 14.2832 60.5615C14.153 60.7536 14.0553 60.9945 13.9902 61.2842C13.9251 61.5706 13.8926 61.9027 13.8926 62.2803V62.832C13.8926 63.1934 13.9219 63.5173 13.9805 63.8037C14.0391 64.0902 14.1302 64.3327 14.2539 64.5312C14.3776 64.7298 14.5371 64.8812 14.7324 64.9854C14.9277 65.0895 15.1605 65.1416 15.4307 65.1416C15.7594 65.1416 16.0264 65.0895 16.2314 64.9854C16.4398 64.8812 16.5977 64.7282 16.7051 64.5264C16.8158 64.3245 16.8857 64.0739 16.915 63.7744ZM18.9707 63.5254V63.4229C18.9707 63.0355 19.026 62.679 19.1367 62.3535C19.2474 62.0247 19.4085 61.7399 19.6201 61.499C19.8317 61.2581 20.0905 61.071 20.3965 60.9375C20.7025 60.8008 21.0508 60.7324 21.4414 60.7324C21.8385 60.7324 22.1901 60.8008 22.4961 60.9375C22.8053 61.071 23.0658 61.2581 23.2773 61.499C23.4889 61.7399 23.6501 62.0247 23.7607 62.3535C23.8714 62.679 23.9268 63.0355 23.9268 63.4229V63.5254C23.9268 63.9095 23.8714 64.266 23.7607 64.5947C23.6501 64.9202 23.4889 65.2051 23.2773 65.4492C23.0658 65.6901 22.807 65.8773 22.501 66.0107C22.195 66.1442 21.8451 66.2109 21.4512 66.2109C21.0605 66.2109 20.7106 66.1442 20.4014 66.0107C20.0921 65.8773 19.8317 65.6901 19.6201 65.4492C19.4085 65.2051 19.2474 64.9202 19.1367 64.5947C19.026 64.266 18.9707 63.9095 18.9707 63.5254ZM20.2598 63.4229V63.5254C20.2598 63.7565 20.2826 63.973 20.3281 64.1748C20.3737 64.3766 20.4437 64.554 20.5381 64.707C20.6325 64.86 20.7546 64.9805 20.9043 65.0684C21.0573 65.153 21.2396 65.1953 21.4512 65.1953C21.6595 65.1953 21.8385 65.153 21.9883 65.0684C22.138 64.9805 22.2601 64.86 22.3545 64.707C22.4521 64.554 22.5238 64.3766 22.5693 64.1748C22.6149 63.973 22.6377 63.7565 22.6377 63.5254V63.4229C22.6377 63.195 22.6149 62.9818 22.5693 62.7832C22.5238 62.5814 22.4521 62.404 22.3545 62.251C22.2601 62.0947 22.1364 61.9727 21.9834 61.8848C21.8337 61.7936 21.653 61.748 21.4414 61.748C21.2331 61.748 21.054 61.7936 20.9043 61.8848C20.7546 61.9727 20.6325 62.0947 20.5381 62.251C20.4437 62.404 20.3737 62.5814 20.3281 62.7832C20.2826 62.9818 20.2598 63.195 20.2598 63.4229ZM26.1289 61.958V66.1133H24.8398V60.8301H26.0508L26.1289 61.958ZM25.9238 63.2812H25.543C25.5462 62.8971 25.5983 62.5488 25.6992 62.2363C25.8001 61.9238 25.9417 61.6553 26.124 61.4307C26.3096 61.2061 26.5293 61.0335 26.7832 60.9131C27.0371 60.7926 27.3203 60.7324 27.6328 60.7324C27.8867 60.7324 28.1162 60.7682 28.3213 60.8398C28.5264 60.9115 28.7021 61.0254 28.8486 61.1816C28.9984 61.3379 29.1123 61.543 29.1904 61.7969C29.2718 62.0475 29.3125 62.3568 29.3125 62.7246V66.1133H28.0137V62.7148C28.0137 62.474 27.9779 62.2835 27.9062 62.1436C27.8379 62.0036 27.737 61.9043 27.6035 61.8457C27.4733 61.7871 27.3122 61.7578 27.1201 61.7578C26.9215 61.7578 26.7474 61.7985 26.5977 61.8799C26.4512 61.958 26.3275 62.0671 26.2266 62.207C26.1289 62.347 26.054 62.5081 26.002 62.6904C25.9499 62.8727 25.9238 63.0697 25.9238 63.2812ZM33.3555 64.668C33.3555 64.5573 33.3262 64.458 33.2676 64.3701C33.209 64.2822 33.0983 64.2025 32.9355 64.1309C32.776 64.056 32.5417 63.986 32.2324 63.9209C31.959 63.8623 31.7067 63.7891 31.4756 63.7012C31.2445 63.6133 31.0459 63.5075 30.8799 63.3838C30.7139 63.2568 30.5837 63.1087 30.4893 62.9395C30.3981 62.7669 30.3525 62.5684 30.3525 62.3438C30.3525 62.1257 30.3997 61.9206 30.4941 61.7285C30.5885 61.5332 30.7253 61.3623 30.9043 61.2158C31.0833 61.0661 31.3014 60.9489 31.5586 60.8643C31.8158 60.7764 32.1055 60.7324 32.4277 60.7324C32.877 60.7324 33.2627 60.8057 33.585 60.9521C33.9105 61.0986 34.1595 61.3005 34.332 61.5576C34.5046 61.8115 34.5908 62.098 34.5908 62.417H33.3018C33.3018 62.277 33.2692 62.1501 33.2041 62.0361C33.1423 61.9222 33.0462 61.8311 32.916 61.7627C32.7858 61.6911 32.6214 61.6553 32.4229 61.6553C32.2438 61.6553 32.0924 61.6846 31.9688 61.7432C31.8483 61.8018 31.7572 61.8783 31.6953 61.9727C31.6335 62.0671 31.6025 62.1712 31.6025 62.2852C31.6025 62.3698 31.6188 62.4463 31.6514 62.5146C31.6872 62.5798 31.7441 62.64 31.8223 62.6953C31.9004 62.7507 32.0062 62.8011 32.1396 62.8467C32.2764 62.8923 32.444 62.9362 32.6426 62.9785C33.0365 63.0566 33.3799 63.1608 33.6729 63.291C33.9691 63.418 34.2002 63.5872 34.3662 63.7988C34.5322 64.0104 34.6152 64.2806 34.6152 64.6094C34.6152 64.8438 34.5648 65.0586 34.4639 65.2539C34.363 65.446 34.2165 65.6136 34.0244 65.7568C33.8324 65.9001 33.6029 66.0124 33.3359 66.0938C33.069 66.1719 32.7679 66.2109 32.4326 66.2109C31.9476 66.2109 31.5374 66.1247 31.2021 65.9521C30.8669 65.7764 30.613 65.555 30.4404 65.2881C30.2679 65.0179 30.1816 64.738 30.1816 64.4482H31.417C31.4268 64.6533 31.4821 64.8177 31.583 64.9414C31.6839 65.0651 31.8109 65.1546 31.9639 65.21C32.1201 65.262 32.2845 65.2881 32.457 65.2881C32.6523 65.2881 32.8167 65.262 32.9502 65.21C33.0837 65.1546 33.1846 65.0814 33.2529 64.9902C33.3213 64.8958 33.3555 64.7884 33.3555 64.668ZM37.9697 66.2109C37.5693 66.2109 37.2096 66.1458 36.8906 66.0156C36.5716 65.8854 36.2998 65.7048 36.0752 65.4736C35.8538 65.2393 35.6829 64.9674 35.5625 64.6582C35.4453 64.3457 35.3867 64.0104 35.3867 63.6523V63.457C35.3867 63.0501 35.4453 62.6807 35.5625 62.3486C35.6797 62.0133 35.8457 61.7253 36.0605 61.4844C36.2754 61.2435 36.5326 61.0579 36.832 60.9277C37.1315 60.7975 37.4619 60.7324 37.8232 60.7324C38.1976 60.7324 38.528 60.7959 38.8145 60.9229C39.1009 61.0465 39.3402 61.2223 39.5322 61.4502C39.7243 61.6781 39.8691 61.9515 39.9668 62.2705C40.0645 62.5863 40.1133 62.9362 40.1133 63.3203V63.8623H35.9727V62.9736H38.8438V62.876C38.8372 62.6709 38.7982 62.4837 38.7266 62.3145C38.6549 62.1419 38.5443 62.0052 38.3945 61.9043C38.2448 61.8001 38.0511 61.748 37.8135 61.748C37.6214 61.748 37.4538 61.7904 37.3105 61.875C37.1706 61.9564 37.0534 62.0736 36.959 62.2266C36.8678 62.3763 36.7995 62.5553 36.7539 62.7637C36.7083 62.972 36.6855 63.2031 36.6855 63.457V63.6523C36.6855 63.8737 36.7148 64.0788 36.7734 64.2676C36.8353 64.4564 36.9248 64.6208 37.042 64.7607C37.1624 64.8975 37.3057 65.0049 37.4717 65.083C37.641 65.1579 37.833 65.1953 38.0479 65.1953C38.318 65.1953 38.5622 65.1432 38.7803 65.0391C39.0016 64.9316 39.1937 64.7738 39.3564 64.5654L40.0059 65.2393C39.8952 65.402 39.7454 65.5583 39.5566 65.708C39.3711 65.8577 39.1465 65.9798 38.8828 66.0742C38.6191 66.1654 38.3148 66.2109 37.9697 66.2109ZM42.2422 61.958V66.1133H40.9531V60.8301H42.1641L42.2422 61.958ZM42.0371 63.2812H41.6562C41.6595 62.8971 41.7116 62.5488 41.8125 62.2363C41.9134 61.9238 42.055 61.6553 42.2373 61.4307C42.4229 61.2061 42.6426 61.0335 42.8965 60.9131C43.1504 60.7926 43.4336 60.7324 43.7461 60.7324C44 60.7324 44.2295 60.7682 44.4346 60.8398C44.6396 60.9115 44.8154 61.0254 44.9619 61.1816C45.1117 61.3379 45.2256 61.543 45.3037 61.7969C45.3851 62.0475 45.4258 62.3568 45.4258 62.7246V66.1133H44.127V62.7148C44.127 62.474 44.0911 62.2835 44.0195 62.1436C43.9512 62.0036 43.8503 61.9043 43.7168 61.8457C43.5866 61.7871 43.4255 61.7578 43.2334 61.7578C43.0348 61.7578 42.8607 61.7985 42.7109 61.8799C42.5645 61.958 42.4408 62.0671 42.3398 62.207C42.2422 62.347 42.1673 62.5081 42.1152 62.6904C42.0632 62.8727 42.0371 63.0697 42.0371 63.2812ZM49.0635 60.8301V61.7578H46.0361V60.8301H49.0635ZM46.8467 59.5312H48.1406V64.5898C48.1406 64.7461 48.1618 64.8665 48.2041 64.9512C48.2464 65.0358 48.3099 65.0928 48.3945 65.1221C48.4792 65.1514 48.5801 65.166 48.6973 65.166C48.7819 65.166 48.86 65.1611 48.9316 65.1514C49.0033 65.1416 49.0635 65.1318 49.1123 65.1221L49.1172 66.0889C49.0098 66.1247 48.8877 66.154 48.751 66.1768C48.6175 66.1995 48.4661 66.2109 48.2969 66.2109C48.0072 66.2109 47.7533 66.1621 47.5352 66.0645C47.3171 65.9635 47.1478 65.8024 47.0273 65.5811C46.9069 65.3564 46.8467 65.0602 46.8467 64.6924V59.5312ZM53.8535 59.0039V66.1133H52.5107V59.0039H53.8535ZM56.7197 62.0752V63.1348H53.502V62.0752H56.7197ZM57.0957 59.0039V60.0635H53.502V59.0039H57.0957ZM57.5742 63.5254V63.4229C57.5742 63.0355 57.6296 62.679 57.7402 62.3535C57.8509 62.0247 58.012 61.7399 58.2236 61.499C58.4352 61.2581 58.694 61.071 59 60.9375C59.306 60.8008 59.6543 60.7324 60.0449 60.7324C60.4421 60.7324 60.7936 60.8008 61.0996 60.9375C61.4089 61.071 61.6693 61.2581 61.8809 61.499C62.0924 61.7399 62.2536 62.0247 62.3643 62.3535C62.4749 62.679 62.5303 63.0355 62.5303 63.4229V63.5254C62.5303 63.9095 62.4749 64.266 62.3643 64.5947C62.2536 64.9202 62.0924 65.2051 61.8809 65.4492C61.6693 65.6901 61.4105 65.8773 61.1045 66.0107C60.7985 66.1442 60.4486 66.2109 60.0547 66.2109C59.6641 66.2109 59.3141 66.1442 59.0049 66.0107C58.6956 65.8773 58.4352 65.6901 58.2236 65.4492C58.012 65.2051 57.8509 64.9202 57.7402 64.5947C57.6296 64.266 57.5742 63.9095 57.5742 63.5254ZM58.8633 63.4229V63.5254C58.8633 63.7565 58.8861 63.973 58.9316 64.1748C58.9772 64.3766 59.0472 64.554 59.1416 64.707C59.236 64.86 59.3581 64.9805 59.5078 65.0684C59.6608 65.153 59.8431 65.1953 60.0547 65.1953C60.263 65.1953 60.4421 65.153 60.5918 65.0684C60.7415 64.9805 60.8636 64.86 60.958 64.707C61.0557 64.554 61.1273 64.3766 61.1729 64.1748C61.2184 63.973 61.2412 63.7565 61.2412 63.5254V63.4229C61.2412 63.195 61.2184 62.9818 61.1729 62.7832C61.1273 62.5814 61.0557 62.404 60.958 62.251C60.8636 62.0947 60.7399 61.9727 60.5869 61.8848C60.4372 61.7936 60.2565 61.748 60.0449 61.748C59.8366 61.748 59.6576 61.7936 59.5078 61.8848C59.3581 61.9727 59.236 62.0947 59.1416 62.251C59.0472 62.404 58.9772 62.5814 58.9316 62.7832C58.8861 62.9818 58.8633 63.195 58.8633 63.4229ZM64.7568 61.9092V66.1133H63.4678V60.8301H64.6885L64.7568 61.9092ZM66.3633 60.7959L66.3438 61.9971C66.2721 61.984 66.1908 61.9743 66.0996 61.9678C66.0117 61.9613 65.9287 61.958 65.8506 61.958C65.652 61.958 65.4779 61.9857 65.3281 62.041C65.1784 62.0931 65.0531 62.1696 64.9521 62.2705C64.8545 62.3714 64.7796 62.4951 64.7275 62.6416C64.6755 62.7848 64.6462 62.9476 64.6396 63.1299L64.3613 63.0957C64.3613 62.7604 64.3955 62.4495 64.4639 62.1631C64.5322 61.8766 64.6315 61.626 64.7617 61.4111C64.8919 61.1963 65.0547 61.0303 65.25 60.9131C65.4486 60.7926 65.6764 60.7324 65.9336 60.7324C66.0052 60.7324 66.0817 60.7389 66.1631 60.752C66.2477 60.7617 66.3145 60.7764 66.3633 60.7959ZM68.3555 61.9141V66.1133H67.0664V60.8301H68.2822L68.3555 61.9141ZM68.165 63.2812H67.7695C67.7695 62.9134 67.8135 62.5749 67.9014 62.2656C67.9925 61.9564 68.126 61.6878 68.3018 61.46C68.4775 61.2288 68.694 61.0498 68.9512 60.9229C69.2116 60.7959 69.5127 60.7324 69.8545 60.7324C70.0921 60.7324 70.3102 60.7682 70.5088 60.8398C70.7074 60.9082 70.8783 61.0173 71.0215 61.167C71.168 61.3135 71.2803 61.5055 71.3584 61.7432C71.4365 61.9775 71.4756 62.2591 71.4756 62.5879V66.1133H70.1865V62.7197C70.1865 62.4723 70.1507 62.2786 70.0791 62.1387C70.0107 61.9987 69.9115 61.901 69.7812 61.8457C69.651 61.7871 69.4948 61.7578 69.3125 61.7578C69.1107 61.7578 68.9365 61.7985 68.79 61.8799C68.6468 61.958 68.528 62.0671 68.4336 62.207C68.3424 62.347 68.2741 62.5081 68.2285 62.6904C68.1862 62.8727 68.165 63.0697 68.165 63.2812ZM71.3779 63.042L70.8457 63.1396C70.849 62.8076 70.8945 62.4967 70.9824 62.207C71.0703 61.9141 71.1989 61.6585 71.3682 61.4404C71.5407 61.2191 71.7539 61.0465 72.0078 60.9229C72.265 60.7959 72.5612 60.7324 72.8965 60.7324C73.1569 60.7324 73.3913 60.7699 73.5996 60.8447C73.8112 60.9163 73.9919 61.0319 74.1416 61.1914C74.2913 61.3477 74.4053 61.5511 74.4834 61.8018C74.5648 62.0524 74.6055 62.3584 74.6055 62.7197V66.1133H73.3066V62.7148C73.3066 62.4577 73.2708 62.2607 73.1992 62.124C73.1309 61.9873 73.0316 61.8929 72.9014 61.8408C72.7712 61.7855 72.6182 61.7578 72.4424 61.7578C72.2633 61.7578 72.1071 61.792 71.9736 61.8604C71.8434 61.9255 71.7327 62.0166 71.6416 62.1338C71.5537 62.251 71.487 62.3877 71.4414 62.5439C71.3991 62.6969 71.3779 62.863 71.3779 63.042Z" fill="white"/>
<defs>
<filter id="filter0_d_3455_9925" x="0" y="0.474609" width="88.5234" height="88.5234" filterUnits="userSpaceOnUse" color-interpolation-filters="sRGB">
<feFlood flood-opacity="0" result="BackgroundImageFix"/>
<feColorMatrix in="SourceAlpha" type="matrix" values="0 0 0 0 0 0 0 0 0 0 0 0 0 0 0 0 0 0 127 0" result="hardAlpha"/>
<feOffset dy="4"/>
<feGaussianBlur stdDeviation="2"/>
<feComposite in2="hardAlpha" operator="out"/>
<feColorMatrix type="matrix" values="0 0 0 0 0 0 0 0 0 0 0 0 0 0 0 0 0 0 0.25 0"/>
<feBlend mode="normal" in2="BackgroundImageFix" result="effect1_dropShadow_3455_9925"/>
<feBlend mode="normal" in="SourceGraphic" in2="effect1_dropShadow_3455_9925" result="shape"/>
</filter>
<clipPath id="clip0_3455_9925">
<rect width="37.295" height="37.295" fill="white" transform="translate(25.1914 14.0371)"/>
</clipPath>
</defs>
</svg>
