<svg width="103" height="103" viewBox="0 0 103 103" fill="none" xmlns="http://www.w3.org/2000/svg">
<g filter="url(#filter0_d_1734_6560)">
<rect x="4" width="95" height="95.0012" rx="10" fill="#01728B"/>
</g>
<path d="M38.6784 22.16H33.3984V59.12H63.3184V53.84H68.5984V16.88H38.6784V22.16ZM61.5584 57.36H35.1584V23.92H55.3984V30.08H61.5584V57.36ZM57.1584 25.1643L60.3141 28.32H57.1584V25.1643ZM40.4384 18.64H66.8384V52.08H63.3184V28.8357L56.6428 22.16H40.4384V18.64Z" fill="white"/>
<path d="M48.3608 28.3199H37.8008V38.8799H48.3608V28.3199ZM46.6008 37.1199H39.5608V30.0799H46.6008V37.1199ZM51.0008 32.7199H58.9208V34.4799H51.0008V32.7199ZM51.0008 37.1199H58.9208V38.8799H51.0008V37.1199ZM37.8008 41.5199H51.0008V43.2799H37.8008V41.5199ZM53.6408 41.5199H58.9208V43.2799H53.6408V41.5199ZM37.8008 45.9199H43.0808V47.6799H37.8008V45.9199ZM45.7208 45.9199H58.9208V47.6799H45.7208V45.9199ZM37.8008 50.3199H50.1208V52.0799H37.8008V50.3199ZM52.7608 50.3199H58.9208V52.0799H52.7608V50.3199Z" fill="white"/>
<path d="M18.9434 76.1934H20.5547C20.5117 76.7637 20.3535 77.2695 20.0801 77.7109C19.8066 78.1484 19.4258 78.4922 18.9375 78.7422C18.4492 78.9922 17.8574 79.1172 17.1621 79.1172C16.627 79.1172 16.1445 79.0234 15.7148 78.8359C15.2891 78.6445 14.9238 78.373 14.6191 78.0215C14.3184 77.666 14.0879 77.2402 13.9277 76.7441C13.7676 76.2441 13.6875 75.6836 13.6875 75.0625V74.4121C13.6875 73.791 13.7695 73.2305 13.9336 72.7305C14.0977 72.2305 14.332 71.8047 14.6367 71.4531C14.9453 71.0977 15.3145 70.8242 15.7441 70.6328C16.1777 70.4414 16.6621 70.3457 17.1973 70.3457C17.8926 70.3457 18.4805 70.4746 18.9609 70.7324C19.4414 70.9863 19.8145 71.3359 20.0801 71.7812C20.3457 72.2266 20.5059 72.7383 20.5605 73.3164H18.9492C18.918 72.957 18.8398 72.6523 18.7148 72.4023C18.5938 72.1523 18.4102 71.9629 18.1641 71.834C17.9219 71.7012 17.5996 71.6348 17.1973 71.6348C16.8848 71.6348 16.6094 71.6934 16.3711 71.8105C16.1367 71.9277 15.9414 72.1035 15.7852 72.3379C15.6289 72.5684 15.5117 72.8574 15.4336 73.2051C15.3555 73.5488 15.3164 73.9473 15.3164 74.4004V75.0625C15.3164 75.4961 15.3516 75.8848 15.4219 76.2285C15.4922 76.5723 15.6016 76.8633 15.75 77.1016C15.8984 77.3398 16.0898 77.5215 16.3242 77.6465C16.5586 77.7715 16.8379 77.834 17.1621 77.834C17.5566 77.834 17.877 77.7715 18.123 77.6465C18.373 77.5215 18.5625 77.3379 18.6914 77.0957C18.8242 76.8535 18.9082 76.5527 18.9434 76.1934ZM21.4102 75.8945V75.7715C21.4102 75.3066 21.4766 74.8789 21.6094 74.4883C21.7422 74.0938 21.9355 73.752 22.1895 73.4629C22.4434 73.1738 22.7539 72.9492 23.1211 72.7891C23.4883 72.625 23.9062 72.543 24.375 72.543C24.8516 72.543 25.2734 72.625 25.6406 72.7891C26.0117 72.9492 26.3242 73.1738 26.5781 73.4629C26.832 73.752 27.0254 74.0938 27.1582 74.4883C27.291 74.8789 27.3574 75.3066 27.3574 75.7715V75.8945C27.3574 76.3555 27.291 76.7832 27.1582 77.1777C27.0254 77.5684 26.832 77.9102 26.5781 78.2031C26.3242 78.4922 26.0137 78.7168 25.6465 78.877C25.2793 79.0371 24.8594 79.1172 24.3867 79.1172C23.918 79.1172 23.498 79.0371 23.127 78.877C22.7559 78.7168 22.4434 78.4922 22.1895 78.2031C21.9355 77.9102 21.7422 77.5684 21.6094 77.1777C21.4766 76.7832 21.4102 76.3555 21.4102 75.8945ZM22.957 75.7715V75.8945C22.957 76.1719 22.9844 76.4316 23.0391 76.6738C23.0938 76.916 23.1777 77.1289 23.291 77.3125C23.4043 77.4961 23.5508 77.6406 23.7305 77.7461C23.9141 77.8477 24.1328 77.8984 24.3867 77.8984C24.6367 77.8984 24.8516 77.8477 25.0312 77.7461C25.2109 77.6406 25.3574 77.4961 25.4707 77.3125C25.5879 77.1289 25.6738 76.916 25.7285 76.6738C25.7832 76.4316 25.8105 76.1719 25.8105 75.8945V75.7715C25.8105 75.498 25.7832 75.2422 25.7285 75.0039C25.6738 74.7617 25.5879 74.5488 25.4707 74.3652C25.3574 74.1777 25.209 74.0312 25.0254 73.9258C24.8457 73.8164 24.6289 73.7617 24.375 73.7617C24.125 73.7617 23.9102 73.8164 23.7305 73.9258C23.5508 74.0312 23.4043 74.1777 23.291 74.3652C23.1777 74.5488 23.0938 74.7617 23.0391 75.0039C22.9844 75.2422 22.957 75.498 22.957 75.7715ZM30 74.0137V79H28.4531V72.6602H29.9062L30 74.0137ZM29.7539 75.6016H29.2969C29.3008 75.1406 29.3633 74.7227 29.4844 74.3477C29.6055 73.9727 29.7754 73.6504 29.9941 73.3809C30.2168 73.1113 30.4805 72.9043 30.7852 72.7598C31.0898 72.6152 31.4297 72.543 31.8047 72.543C32.1094 72.543 32.3848 72.5859 32.6309 72.6719C32.877 72.7578 33.0879 72.8945 33.2637 73.082C33.4434 73.2695 33.5801 73.5156 33.6738 73.8203C33.7715 74.1211 33.8203 74.4922 33.8203 74.9336V79H32.2617V74.9219C32.2617 74.6328 32.2188 74.4043 32.1328 74.2363C32.0508 74.0684 31.9297 73.9492 31.7695 73.8789C31.6133 73.8086 31.4199 73.7734 31.1895 73.7734C30.9512 73.7734 30.7422 73.8223 30.5625 73.9199C30.3867 74.0137 30.2383 74.1445 30.1172 74.3125C30 74.4805 29.9102 74.6738 29.8477 74.8926C29.7852 75.1113 29.7539 75.3477 29.7539 75.6016ZM38.6719 77.2656C38.6719 77.1328 38.6367 77.0137 38.5664 76.9082C38.4961 76.8027 38.3633 76.707 38.168 76.6211C37.9766 76.5312 37.6953 76.4473 37.3242 76.3691C36.9961 76.2988 36.6934 76.2109 36.416 76.1055C36.1387 76 35.9004 75.873 35.7012 75.7246C35.502 75.5723 35.3457 75.3945 35.2324 75.1914C35.123 74.9844 35.0684 74.7461 35.0684 74.4766C35.0684 74.2148 35.125 73.9688 35.2383 73.7383C35.3516 73.5039 35.5156 73.2988 35.7305 73.123C35.9453 72.9434 36.207 72.8027 36.5156 72.7012C36.8242 72.5957 37.1719 72.543 37.5586 72.543C38.0977 72.543 38.5605 72.6309 38.9473 72.8066C39.3379 72.9824 39.6367 73.2246 39.8438 73.5332C40.0508 73.8379 40.1543 74.1816 40.1543 74.5645H38.6074C38.6074 74.3965 38.5684 74.2441 38.4902 74.1074C38.416 73.9707 38.3008 73.8613 38.1445 73.7793C37.9883 73.6934 37.791 73.6504 37.5527 73.6504C37.3379 73.6504 37.1562 73.6855 37.0078 73.7559C36.8633 73.8262 36.7539 73.918 36.6797 74.0312C36.6055 74.1445 36.5684 74.2695 36.5684 74.4062C36.5684 74.5078 36.5879 74.5996 36.627 74.6816C36.6699 74.7598 36.7383 74.832 36.832 74.8984C36.9258 74.9648 37.0527 75.0254 37.2129 75.0801C37.377 75.1348 37.5781 75.1875 37.8164 75.2383C38.2891 75.332 38.7012 75.457 39.0527 75.6133C39.4082 75.7656 39.6855 75.9688 39.8848 76.2227C40.084 76.4766 40.1836 76.8008 40.1836 77.1953C40.1836 77.4766 40.123 77.7344 40.002 77.9688C39.8809 78.1992 39.7051 78.4004 39.4746 78.5723C39.2441 78.7441 38.9688 78.8789 38.6484 78.9766C38.3281 79.0703 37.9668 79.1172 37.5645 79.1172C36.9824 79.1172 36.4902 79.0137 36.0879 78.8066C35.6855 78.5957 35.3809 78.3301 35.1738 78.0098C34.9668 77.6855 34.8633 77.3496 34.8633 77.002H36.3457C36.3574 77.248 36.4238 77.4453 36.5449 77.5938C36.666 77.7422 36.8184 77.8496 37.002 77.916C37.1895 77.9785 37.3867 78.0098 37.5938 78.0098C37.8281 78.0098 38.0254 77.9785 38.1855 77.916C38.3457 77.8496 38.4668 77.7617 38.5488 77.6523C38.6309 77.5391 38.6719 77.4102 38.6719 77.2656ZM44.209 79.1172C43.7285 79.1172 43.2969 79.0391 42.9141 78.8828C42.5312 78.7266 42.2051 78.5098 41.9355 78.2324C41.6699 77.9512 41.4648 77.625 41.3203 77.2539C41.1797 76.8789 41.1094 76.4766 41.1094 76.0469V75.8125C41.1094 75.3242 41.1797 74.8809 41.3203 74.4824C41.4609 74.0801 41.6602 73.7344 41.918 73.4453C42.1758 73.1562 42.4844 72.9336 42.8438 72.7773C43.2031 72.6211 43.5996 72.543 44.0332 72.543C44.4824 72.543 44.8789 72.6191 45.2227 72.7715C45.5664 72.9199 45.8535 73.1309 46.084 73.4043C46.3145 73.6777 46.4883 74.0059 46.6055 74.3887C46.7227 74.7676 46.7812 75.1875 46.7812 75.6484V76.2988H41.8125V75.2324H45.2578V75.1152C45.25 74.8691 45.2031 74.6445 45.1172 74.4414C45.0312 74.2344 44.8984 74.0703 44.7188 73.9492C44.5391 73.8242 44.3066 73.7617 44.0215 73.7617C43.791 73.7617 43.5898 73.8125 43.418 73.9141C43.25 74.0117 43.1094 74.1523 42.9961 74.3359C42.8867 74.5156 42.8047 74.7305 42.75 74.9805C42.6953 75.2305 42.668 75.5078 42.668 75.8125V76.0469C42.668 76.3125 42.7031 76.5586 42.7734 76.7852C42.8477 77.0117 42.9551 77.209 43.0957 77.377C43.2402 77.541 43.4121 77.6699 43.6113 77.7637C43.8145 77.8535 44.0449 77.8984 44.3027 77.8984C44.627 77.8984 44.9199 77.8359 45.1816 77.7109C45.4473 77.582 45.6777 77.3926 45.873 77.1426L46.6523 77.9512C46.5195 78.1465 46.3398 78.334 46.1133 78.5137C45.8906 78.6934 45.6211 78.8398 45.3047 78.9531C44.9883 79.0625 44.623 79.1172 44.209 79.1172ZM49.3359 74.0137V79H47.7891V72.6602H49.2422L49.3359 74.0137ZM49.0898 75.6016H48.6328C48.6367 75.1406 48.6992 74.7227 48.8203 74.3477C48.9414 73.9727 49.1113 73.6504 49.3301 73.3809C49.5527 73.1113 49.8164 72.9043 50.1211 72.7598C50.4258 72.6152 50.7656 72.543 51.1406 72.543C51.4453 72.543 51.7207 72.5859 51.9668 72.6719C52.2129 72.7578 52.4238 72.8945 52.5996 73.082C52.7793 73.2695 52.916 73.5156 53.0098 73.8203C53.1074 74.1211 53.1562 74.4922 53.1562 74.9336V79H51.5977V74.9219C51.5977 74.6328 51.5547 74.4043 51.4688 74.2363C51.3867 74.0684 51.2656 73.9492 51.1055 73.8789C50.9492 73.8086 50.7559 73.7734 50.5254 73.7734C50.2871 73.7734 50.0781 73.8223 49.8984 73.9199C49.7227 74.0137 49.5742 74.1445 49.4531 74.3125C49.3359 74.4805 49.2461 74.6738 49.1836 74.8926C49.1211 75.1113 49.0898 75.3477 49.0898 75.6016ZM57.5215 72.6602V73.7734H53.8887V72.6602H57.5215ZM54.8613 71.1016H56.4141V77.1719C56.4141 77.3594 56.4395 77.5039 56.4902 77.6055C56.541 77.707 56.6172 77.7754 56.7188 77.8105C56.8203 77.8457 56.9414 77.8633 57.082 77.8633C57.1836 77.8633 57.2773 77.8574 57.3633 77.8457C57.4492 77.834 57.5215 77.8223 57.5801 77.8105L57.5859 78.9707C57.457 79.0137 57.3105 79.0488 57.1465 79.0762C56.9863 79.1035 56.8047 79.1172 56.6016 79.1172C56.2539 79.1172 55.9492 79.0586 55.6875 78.9414C55.4258 78.8203 55.2227 78.627 55.0781 78.3613C54.9336 78.0918 54.8613 77.7363 54.8613 77.2949V71.1016ZM63.2695 70.4688V79H61.6582V70.4688H63.2695ZM66.709 74.1543V75.4258H62.8477V74.1543H66.709ZM67.1602 70.4688V71.7402H62.8477V70.4688H67.1602ZM67.7344 75.8945V75.7715C67.7344 75.3066 67.8008 74.8789 67.9336 74.4883C68.0664 74.0938 68.2598 73.752 68.5137 73.4629C68.7676 73.1738 69.0781 72.9492 69.4453 72.7891C69.8125 72.625 70.2305 72.543 70.6992 72.543C71.1758 72.543 71.5977 72.625 71.9648 72.7891C72.3359 72.9492 72.6484 73.1738 72.9023 73.4629C73.1562 73.752 73.3496 74.0938 73.4824 74.4883C73.6152 74.8789 73.6816 75.3066 73.6816 75.7715V75.8945C73.6816 76.3555 73.6152 76.7832 73.4824 77.1777C73.3496 77.5684 73.1562 77.9102 72.9023 78.2031C72.6484 78.4922 72.3379 78.7168 71.9707 78.877C71.6035 79.0371 71.1836 79.1172 70.7109 79.1172C70.2422 79.1172 69.8223 79.0371 69.4512 78.877C69.0801 78.7168 68.7676 78.4922 68.5137 78.2031C68.2598 77.9102 68.0664 77.5684 67.9336 77.1777C67.8008 76.7832 67.7344 76.3555 67.7344 75.8945ZM69.2812 75.7715V75.8945C69.2812 76.1719 69.3086 76.4316 69.3633 76.6738C69.418 76.916 69.502 77.1289 69.6152 77.3125C69.7285 77.4961 69.875 77.6406 70.0547 77.7461C70.2383 77.8477 70.457 77.8984 70.7109 77.8984C70.9609 77.8984 71.1758 77.8477 71.3555 77.7461C71.5352 77.6406 71.6816 77.4961 71.7949 77.3125C71.9121 77.1289 71.998 76.916 72.0527 76.6738C72.1074 76.4316 72.1348 76.1719 72.1348 75.8945V75.7715C72.1348 75.498 72.1074 75.2422 72.0527 75.0039C71.998 74.7617 71.9121 74.5488 71.7949 74.3652C71.6816 74.1777 71.5332 74.0312 71.3496 73.9258C71.1699 73.8164 70.9531 73.7617 70.6992 73.7617C70.4492 73.7617 70.2344 73.8164 70.0547 73.9258C69.875 74.0312 69.7285 74.1777 69.6152 74.3652C69.502 74.5488 69.418 74.7617 69.3633 75.0039C69.3086 75.2422 69.2812 75.498 69.2812 75.7715ZM76.3535 73.9551V79H74.8066V72.6602H76.2715L76.3535 73.9551ZM78.2812 72.6191L78.2578 74.0605C78.1719 74.0449 78.0742 74.0332 77.9648 74.0254C77.8594 74.0176 77.7598 74.0137 77.666 74.0137C77.4277 74.0137 77.2188 74.0469 77.0391 74.1133C76.8594 74.1758 76.709 74.2676 76.5879 74.3887C76.4707 74.5098 76.3809 74.6582 76.3184 74.834C76.2559 75.0059 76.2207 75.2012 76.2129 75.4199L75.8789 75.3789C75.8789 74.9766 75.9199 74.6035 76.002 74.2598C76.084 73.916 76.2031 73.6152 76.3594 73.3574C76.5156 73.0996 76.7109 72.9004 76.9453 72.7598C77.1836 72.6152 77.457 72.543 77.7656 72.543C77.8516 72.543 77.9434 72.5508 78.041 72.5664C78.1426 72.5781 78.2227 72.5957 78.2812 72.6191ZM80.6719 73.9609V79H79.125V72.6602H80.584L80.6719 73.9609ZM80.4434 75.6016H79.9688C79.9688 75.1602 80.0215 74.7539 80.127 74.3828C80.2363 74.0117 80.3965 73.6895 80.6074 73.416C80.8184 73.1387 81.0781 72.9238 81.3867 72.7715C81.6992 72.6191 82.0605 72.543 82.4707 72.543C82.7559 72.543 83.0176 72.5859 83.2559 72.6719C83.4941 72.7539 83.6992 72.8848 83.8711 73.0645C84.0469 73.2402 84.1816 73.4707 84.2754 73.7559C84.3691 74.0371 84.416 74.375 84.416 74.7695V79H82.8691V74.9277C82.8691 74.6309 82.8262 74.3984 82.7402 74.2305C82.6582 74.0625 82.5391 73.9453 82.3828 73.8789C82.2266 73.8086 82.0391 73.7734 81.8203 73.7734C81.5781 73.7734 81.3691 73.8223 81.1934 73.9199C81.0215 74.0137 80.8789 74.1445 80.7656 74.3125C80.6562 74.4805 80.5742 74.6738 80.5195 74.8926C80.4688 75.1113 80.4434 75.3477 80.4434 75.6016ZM84.2988 75.3145L83.6602 75.4316C83.6641 75.0332 83.7188 74.6602 83.8242 74.3125C83.9297 73.9609 84.084 73.6543 84.2871 73.3926C84.4941 73.127 84.75 72.9199 85.0547 72.7715C85.3633 72.6191 85.7188 72.543 86.1211 72.543C86.4336 72.543 86.7148 72.5879 86.9648 72.6777C87.2188 72.7637 87.4355 72.9023 87.6152 73.0938C87.7949 73.2812 87.9316 73.5254 88.0254 73.8262C88.123 74.127 88.1719 74.4941 88.1719 74.9277V79H86.6133V74.9219C86.6133 74.6133 86.5703 74.377 86.4844 74.2129C86.4023 74.0488 86.2832 73.9355 86.127 73.873C85.9707 73.8066 85.7871 73.7734 85.5762 73.7734C85.3613 73.7734 85.1738 73.8145 85.0137 73.8965C84.8574 73.9746 84.7246 74.084 84.6152 74.2246C84.5098 74.3652 84.4297 74.5293 84.375 74.7168C84.3242 74.9004 84.2988 75.0996 84.2988 75.3145Z" fill="white"/>
<defs>
<filter id="filter0_d_1734_6560" x="0" y="0" width="103" height="103.001" filterUnits="userSpaceOnUse" color-interpolation-filters="sRGB">
<feFlood flood-opacity="0" result="BackgroundImageFix"/>
<feColorMatrix in="SourceAlpha" type="matrix" values="0 0 0 0 0 0 0 0 0 0 0 0 0 0 0 0 0 0 127 0" result="hardAlpha"/>
<feOffset dy="4"/>
<feGaussianBlur stdDeviation="2"/>
<feComposite in2="hardAlpha" operator="out"/>
<feColorMatrix type="matrix" values="0 0 0 0 0 0 0 0 0 0 0 0 0 0 0 0 0 0 0.25 0"/>
<feBlend mode="normal" in2="BackgroundImageFix" result="effect1_dropShadow_1734_6560"/>
<feBlend mode="normal" in="SourceGraphic" in2="effect1_dropShadow_1734_6560" result="shape"/>
</filter>
</defs>
</svg>
