<svg width="99" height="99" viewBox="0 0 99 99" fill="none" xmlns="http://www.w3.org/2000/svg">
<g filter="url(#filter0_d_4517_13097)">
<mask id="path-1-inside-1_4517_13097" fill="white">
<path d="M5 15C5 9.47716 9.47715 5 15 5H83.9311C89.4539 5 93.9311 9.47715 93.9311 15V83.9322C93.9311 89.455 89.4539 93.9322 83.9311 93.9322H15C9.47714 93.9322 5 89.455 5 83.9322V15Z"/>
</mask>
<path d="M5 15C5 9.47716 9.47715 5 15 5H83.9311C89.4539 5 93.9311 9.47715 93.9311 15V83.9322C93.9311 89.455 89.4539 93.9322 83.9311 93.9322H15C9.47714 93.9322 5 89.455 5 83.9322V15Z" fill="#274E6D"/>
<path d="M5 5H93.9311H5ZM93.9311 83.9322C93.9311 90.5596 88.5585 95.9322 81.9311 95.9322H17C10.3726 95.9322 5 90.5596 5 83.9322C5 88.3505 9.47715 91.9322 15 91.9322H83.9311C89.4539 91.9322 93.9311 88.3505 93.9311 83.9322ZM5 93.9322V5V93.9322ZM93.9311 5V93.9322V5Z" fill="#EA7000" mask="url(#path-1-inside-1_4517_13097)"/>
</g>
<path d="M61.2774 37.9804H60.7986V31.2015C60.7986 28.7691 58.8198 26.7898 56.3869 26.7898H56.091C55.3152 26.7898 54.6658 26.2087 54.5803 25.4378L54.0433 20.607C53.9443 19.7155 53.1927 19.043 52.2959 19.043H44.3914C43.494 19.043 42.7429 19.7155 42.6439 20.607L42.107 25.4378C42.0215 26.2087 41.3721 26.7898 40.5963 26.7898H40.3004C37.868 26.7898 35.8887 28.7686 35.8887 31.2015V49.0097C35.8887 51.442 37.8675 53.4214 40.3004 53.4214H40.5963C41.3721 53.4214 42.0215 54.0024 42.107 54.7734L42.6439 59.6042C42.7429 60.4957 43.4945 61.1682 44.3914 61.1682H52.2959C53.1933 61.1682 53.9443 60.4957 54.0433 59.6042L54.5803 54.7734C54.6658 54.0024 55.3152 53.4214 56.091 53.4214H56.3869C58.8193 53.4214 60.7986 51.4426 60.7986 49.0097V42.2307H61.2774C61.9629 42.2307 62.5203 41.6734 62.5203 40.9879V39.2232C62.5203 38.5378 61.9629 37.9804 61.2774 37.9804ZM42.9092 25.5265L43.4461 20.6957C43.4999 20.2131 43.9061 19.8494 44.3914 19.8494H52.2959C52.7812 19.8494 53.1879 20.2131 53.2412 20.6957L53.7781 25.5265C53.8319 26.0102 54.0304 26.4449 54.3279 26.7898H42.3593C42.6569 26.4449 42.8554 26.0102 42.9092 25.5265ZM53.7781 54.6846L53.2412 59.5154C53.1874 59.998 52.7812 60.3617 52.2959 60.3617H44.3914C43.9061 60.3617 43.4994 59.998 43.4461 59.5154L42.9092 54.6846C42.8554 54.201 42.6569 53.7662 42.3593 53.4214H54.3279C54.0304 53.7662 53.8319 54.201 53.7781 54.6846ZM59.9916 49.0097C59.9916 50.9971 58.3749 52.6144 56.3869 52.6144H56.091H40.5963H40.3004C38.313 52.6144 36.6957 50.9976 36.6957 49.0097V31.2015C36.6957 29.2141 38.3124 27.5968 40.3004 27.5968H40.5963H56.091H56.3869C58.3743 27.5968 59.9916 29.2135 59.9916 31.2015V38.384V41.8272V49.0097ZM61.7132 40.9879C61.7132 41.2279 61.5179 41.4237 61.2774 41.4237H60.7986V38.7875H61.2774C61.5174 38.7875 61.7132 38.9828 61.7132 39.2232V40.9879Z" fill="white"/>
<path d="M52.2369 33.2773C51.0985 33.2773 50.0289 33.7234 49.2246 34.5325L48.3428 35.4197L47.461 34.5325C46.6566 33.7234 45.5871 33.2779 44.4492 33.2779C43.3118 33.2779 42.2423 33.7234 41.4374 34.5331C39.9853 35.9943 39.8045 38.2577 40.8945 39.9186H45.5101L46.69 37.5594C46.7653 37.4082 46.9273 37.32 47.0951 37.3388C47.263 37.3571 47.4018 37.4781 47.4427 37.6422L48.4692 41.7489L49.2725 40.1418C49.3408 40.0052 49.4807 39.9186 49.6335 39.9186H55.7905C56.2472 39.2251 56.4931 38.4121 56.4931 37.5599C56.4931 36.4166 56.0509 35.3412 55.2471 34.5331C54.4438 33.7234 53.3748 33.2773 52.2369 33.2773Z" fill="white"/>
<path d="M48.7023 43.0835C48.6335 43.2212 48.493 43.3068 48.3413 43.3068C48.3268 43.3068 48.3117 43.3062 48.2972 43.3046C48.1294 43.2863 47.9905 43.1653 47.9497 43.0012L46.9231 38.8945L46.1199 40.5016C46.0516 40.6382 45.9117 40.7248 45.7589 40.7248H41.5742L48.0556 47.2466C48.1315 47.323 48.2343 47.3655 48.3419 47.3655C48.4495 47.3655 48.5522 47.3225 48.6281 47.2466L55.1084 40.7243H49.8817L48.7023 43.0835Z" fill="white"/>
<path d="M34.5256 77.5527V70.5527H36.7256C37.4122 70.5527 38.0189 70.7027 38.5456 71.0027C39.0789 71.2961 39.4956 71.7061 39.7956 72.2327C40.1022 72.7594 40.2556 73.3661 40.2556 74.0527C40.2556 74.7327 40.1022 75.3361 39.7956 75.8627C39.4956 76.3894 39.0789 76.8027 38.5456 77.1027C38.0189 77.4027 37.4122 77.5527 36.7256 77.5527H34.5256ZM35.6856 76.4727H36.7256C37.0522 76.4727 37.3589 76.4127 37.6456 76.2927C37.9322 76.1661 38.1822 75.9927 38.3956 75.7727C38.6089 75.5527 38.7756 75.2961 38.8956 75.0027C39.0156 74.7094 39.0756 74.3927 39.0756 74.0527C39.0756 73.7127 39.0156 73.3961 38.8956 73.1027C38.7756 72.8094 38.6089 72.5527 38.3956 72.3327C38.1822 72.1127 37.9322 71.9427 37.6456 71.8227C37.3589 71.6961 37.0522 71.6327 36.7256 71.6327H35.6856V76.4727ZM43.4987 77.6727C43.012 77.6727 42.5787 77.5627 42.1987 77.3427C41.8253 77.1161 41.5287 76.8061 41.3087 76.4127C41.0953 76.0194 40.9887 75.5661 40.9887 75.0527C40.9887 74.5394 41.0987 74.0861 41.3187 73.6927C41.5387 73.2994 41.8387 72.9927 42.2187 72.7727C42.6053 72.5461 43.0453 72.4327 43.5387 72.4327C43.9853 72.4327 44.3887 72.5494 44.7487 72.7827C45.1087 73.0094 45.392 73.3394 45.5987 73.7727C45.812 74.2061 45.9187 74.7227 45.9187 75.3227H41.9887L42.1387 75.1827C42.1387 75.4894 42.2053 75.7561 42.3387 75.9827C42.472 76.2027 42.6487 76.3727 42.8687 76.4927C43.0887 76.6127 43.332 76.6727 43.5987 76.6727C43.9053 76.6727 44.1587 76.6061 44.3587 76.4727C44.5587 76.3327 44.7153 76.1527 44.8287 75.9327L45.8187 76.3527C45.6787 76.6194 45.4987 76.8527 45.2787 77.0527C45.0653 77.2527 44.8087 77.4061 44.5087 77.5127C44.2153 77.6194 43.8787 77.6727 43.4987 77.6727ZM42.2087 74.6027L42.0487 74.4627H44.8687L44.7187 74.6027C44.7187 74.3294 44.6587 74.1061 44.5387 73.9327C44.4187 73.7527 44.2653 73.6194 44.0787 73.5327C43.8987 73.4394 43.7087 73.3927 43.5087 73.3927C43.3087 73.3927 43.1087 73.4394 42.9087 73.5327C42.7087 73.6194 42.542 73.7527 42.4087 73.9327C42.2753 74.1061 42.2087 74.3294 42.2087 74.6027ZM48.2009 77.5527L50.1509 72.5527H51.3109L49.2509 77.5527H48.2009ZM48.1209 77.5527L46.0509 72.5527H47.2009L49.1609 77.5527H48.1209ZM52.0809 77.5527V72.5527H53.1909V77.5527H52.0809ZM52.6409 71.6027C52.4609 71.6027 52.3042 71.5394 52.1709 71.4127C52.0442 71.2794 51.9809 71.1227 51.9809 70.9427C51.9809 70.7627 52.0442 70.6094 52.1709 70.4827C52.3042 70.3561 52.4609 70.2927 52.6409 70.2927C52.8209 70.2927 52.9742 70.3561 53.1009 70.4827C53.2342 70.6094 53.3009 70.7627 53.3009 70.9427C53.3009 71.1227 53.2342 71.2794 53.1009 71.4127C52.9742 71.5394 52.8209 71.6027 52.6409 71.6027ZM56.8509 77.6727C56.3375 77.6727 55.8842 77.5627 55.4909 77.3427C55.0975 77.1161 54.7875 76.8061 54.5609 76.4127C54.3409 76.0194 54.2309 75.5661 54.2309 75.0527C54.2309 74.5394 54.3409 74.0861 54.5609 73.6927C54.7875 73.2994 55.0942 72.9927 55.4809 72.7727C55.8742 72.5461 56.3242 72.4327 56.8309 72.4327C57.3242 72.4327 57.7709 72.5527 58.1709 72.7927C58.5709 73.0261 58.8675 73.3627 59.0609 73.8027L58.0209 74.2027C57.9142 73.9827 57.7509 73.8061 57.5309 73.6727C57.3109 73.5394 57.0609 73.4727 56.7809 73.4727C56.5075 73.4727 56.2642 73.5427 56.0509 73.6827C55.8375 73.8161 55.6709 74.0027 55.5509 74.2427C55.4309 74.4761 55.3709 74.7461 55.3709 75.0527C55.3709 75.3594 55.4309 75.6327 55.5509 75.8727C55.6775 76.1061 55.8475 76.2927 56.0609 76.4327C56.2809 76.5661 56.5275 76.6327 56.8009 76.6327C57.0809 76.6327 57.3309 76.5627 57.5509 76.4227C57.7709 76.2761 57.9342 76.0794 58.0409 75.8327L59.0809 76.2327C58.8875 76.6861 58.5909 77.0394 58.1909 77.2927C57.7975 77.5461 57.3509 77.6727 56.8509 77.6727ZM62.1803 77.6727C61.6937 77.6727 61.2603 77.5627 60.8803 77.3427C60.507 77.1161 60.2103 76.8061 59.9903 76.4127C59.777 76.0194 59.6703 75.5661 59.6703 75.0527C59.6703 74.5394 59.7803 74.0861 60.0003 73.6927C60.2203 73.2994 60.5203 72.9927 60.9003 72.7727C61.287 72.5461 61.727 72.4327 62.2203 72.4327C62.667 72.4327 63.0703 72.5494 63.4303 72.7827C63.7903 73.0094 64.0737 73.3394 64.2803 73.7727C64.4937 74.2061 64.6003 74.7227 64.6003 75.3227H60.6703L60.8203 75.1827C60.8203 75.4894 60.887 75.7561 61.0203 75.9827C61.1537 76.2027 61.3303 76.3727 61.5503 76.4927C61.7703 76.6127 62.0137 76.6727 62.2803 76.6727C62.587 76.6727 62.8403 76.6061 63.0403 76.4727C63.2403 76.3327 63.397 76.1527 63.5103 75.9327L64.5003 76.3527C64.3603 76.6194 64.1803 76.8527 63.9603 77.0527C63.747 77.2527 63.4903 77.4061 63.1903 77.5127C62.897 77.6194 62.5603 77.6727 62.1803 77.6727ZM60.8903 74.6027L60.7303 74.4627H63.5503L63.4003 74.6027C63.4003 74.3294 63.3403 74.1061 63.2203 73.9327C63.1003 73.7527 62.947 73.6194 62.7603 73.5327C62.5803 73.4394 62.3903 73.3927 62.1903 73.3927C61.9903 73.3927 61.7903 73.4394 61.5903 73.5327C61.3903 73.6194 61.2237 73.7527 61.0903 73.9327C60.957 74.1061 60.8903 74.3294 60.8903 74.6027Z" fill="white"/>
<defs>
<filter id="filter0_d_4517_13097" x="0" y="0" width="98.9316" height="98.9316" filterUnits="userSpaceOnUse" color-interpolation-filters="sRGB">
<feFlood flood-opacity="0" result="BackgroundImageFix"/>
<feColorMatrix in="SourceAlpha" type="matrix" values="0 0 0 0 0 0 0 0 0 0 0 0 0 0 0 0 0 0 127 0" result="hardAlpha"/>
<feMorphology radius="1" operator="dilate" in="SourceAlpha" result="effect1_dropShadow_4517_13097"/>
<feOffset/>
<feGaussianBlur stdDeviation="2"/>
<feComposite in2="hardAlpha" operator="out"/>
<feColorMatrix type="matrix" values="0 0 0 0 0 0 0 0 0 0 0 0 0 0 0 0 0 0 0.2 0"/>
<feBlend mode="normal" in2="BackgroundImageFix" result="effect1_dropShadow_4517_13097"/>
<feBlend mode="normal" in="SourceGraphic" in2="effect1_dropShadow_4517_13097" result="shape"/>
</filter>
</defs>
</svg>
