<svg width="90" height="89" viewBox="0 0 90 89" fill="none" xmlns="http://www.w3.org/2000/svg">
<g filter="url(#filter0_d_3455_9942)">
<rect x="4.86328" y="0.474609" width="80.5234" height="80.5244" rx="10" fill="#87ABC9"/>
</g>
<path d="M55.8205 30.3365H55.3869V24.1985C55.3869 21.9961 53.5952 20.2039 51.3923 20.2039H51.1244C50.4219 20.2039 49.834 19.6778 49.7565 18.9797L49.2703 14.6056C49.1807 13.7984 48.5001 13.1895 47.6881 13.1895H40.5309C39.7183 13.1895 39.0383 13.7984 38.9486 14.6056L38.4625 18.9797C38.385 19.6778 37.797 20.2039 37.0946 20.2039H36.8266C34.6242 20.2039 32.832 21.9956 32.832 24.1985V40.3231C32.832 42.5254 34.6238 44.3177 36.8266 44.3177H37.0946C37.797 44.3177 38.385 44.8438 38.4625 45.5419L38.9486 49.916C39.0383 50.7232 39.7188 51.3321 40.5309 51.3321H47.6881C48.5006 51.3321 49.1807 50.7232 49.2703 49.916L49.7565 45.5419C49.834 44.8438 50.4219 44.3177 51.1244 44.3177H51.3923C53.5947 44.3177 55.3869 42.5259 55.3869 40.3231V34.185H55.8205C56.4411 34.185 56.9458 33.6803 56.9458 33.0597V31.4619C56.9458 30.8412 56.4411 30.3365 55.8205 30.3365ZM39.1888 19.0601L39.675 14.686C39.7237 14.249 40.0915 13.9197 40.5309 13.9197H47.6881C48.1275 13.9197 48.4958 14.249 48.544 14.686L49.0302 19.0601C49.0789 19.498 49.2586 19.8916 49.528 20.2039H38.6909C38.9603 19.8916 39.1401 19.498 39.1888 19.0601ZM49.0302 45.4615L48.544 49.8356C48.4953 50.2725 48.1275 50.6019 47.6881 50.6019H40.5309C40.0915 50.6019 39.7232 50.2725 39.675 49.8356L39.1888 45.4615C39.1401 45.0235 38.9603 44.6299 38.6909 44.3177H49.528C49.2586 44.6299 49.0789 45.0235 49.0302 45.4615ZM54.6562 40.3231C54.6562 42.1226 53.1923 43.5869 51.3923 43.5869H51.1244H37.0946H36.8266C35.0271 43.5869 33.5628 42.1231 33.5628 40.3231V24.1985C33.5628 22.399 35.0266 20.9346 36.8266 20.9346H37.0946H51.1244H51.3923C53.1919 20.9346 54.6562 22.3985 54.6562 24.1985V30.7019V33.8196V40.3231ZM56.2151 33.0597C56.2151 33.277 56.0383 33.4543 55.8205 33.4543H55.3869V31.0673H55.8205C56.0378 31.0673 56.2151 31.2441 56.2151 31.4619V33.0597Z" fill="white"/>
<path d="M47.6354 26.0781C46.6046 26.0781 45.6361 26.482 44.9079 27.2146L44.1094 28.0179L43.311 27.2146C42.5827 26.482 41.6142 26.0786 40.5839 26.0786C39.5541 26.0786 38.5857 26.482 37.8569 27.2151C36.5421 28.5382 36.3784 30.5876 37.3654 32.0915H41.5446L42.6129 29.9553C42.6811 29.8184 42.8277 29.7385 42.9797 29.7556C43.1317 29.7722 43.2574 29.8818 43.2944 30.0303L44.2239 33.7487L44.9512 32.2936C45.0131 32.1699 45.1397 32.0915 45.2781 32.0915H50.853C51.2666 31.4635 51.4892 30.7275 51.4892 29.9558C51.4892 28.9206 51.0888 27.9468 50.361 27.2151C49.6337 26.482 48.6657 26.0781 47.6354 26.0781Z" fill="white"/>
<path d="M44.4347 34.957C44.3723 35.0817 44.2452 35.1592 44.1078 35.1592C44.0947 35.1592 44.081 35.1587 44.0679 35.1572C43.9159 35.1406 43.7902 35.031 43.7532 34.8825L42.8237 31.1641L42.0964 32.6192C42.0345 32.7429 41.9078 32.8213 41.7695 32.8213H37.9805L43.8491 38.7265C43.9178 38.7957 44.0109 38.8342 44.1083 38.8342C44.2057 38.8342 44.2988 38.7952 44.3675 38.7265L50.2351 32.8209H45.5025L44.4347 34.957Z" fill="white"/>
<path d="M32.7334 66.1133H31.2002L31.21 65.0586H32.7334C33.1468 65.0586 33.4935 64.9674 33.7734 64.7852C34.0534 64.5996 34.265 64.3343 34.4082 63.9893C34.5514 63.641 34.623 63.2243 34.623 62.7393V62.373C34.623 61.9987 34.5824 61.6683 34.501 61.3818C34.4196 61.0954 34.2992 60.8545 34.1396 60.6592C33.9834 60.4639 33.7897 60.3158 33.5586 60.2148C33.3275 60.1139 33.0622 60.0635 32.7627 60.0635H31.1709V59.0039H32.7627C33.238 59.0039 33.6709 59.0837 34.0615 59.2432C34.4554 59.4027 34.7956 59.6322 35.082 59.9316C35.3717 60.2279 35.5931 60.5827 35.7461 60.9961C35.9023 61.4095 35.9805 61.8717 35.9805 62.3828V62.7393C35.9805 63.2471 35.9023 63.7093 35.7461 64.126C35.5931 64.5394 35.3717 64.8942 35.082 65.1904C34.7956 65.4867 34.4538 65.7145 34.0566 65.874C33.6595 66.0335 33.2184 66.1133 32.7334 66.1133ZM31.9521 59.0039V66.1133H30.6094V59.0039H31.9521ZM39.3984 66.2109C38.998 66.2109 38.6383 66.1458 38.3193 66.0156C38.0003 65.8854 37.7285 65.7048 37.5039 65.4736C37.2826 65.2393 37.1117 64.9674 36.9912 64.6582C36.874 64.3457 36.8154 64.0104 36.8154 63.6523V63.457C36.8154 63.0501 36.874 62.6807 36.9912 62.3486C37.1084 62.0133 37.2744 61.7253 37.4893 61.4844C37.7041 61.2435 37.9613 61.0579 38.2607 60.9277C38.5602 60.7975 38.8906 60.7324 39.252 60.7324C39.6263 60.7324 39.9567 60.7959 40.2432 60.9229C40.5296 61.0465 40.7689 61.2223 40.9609 61.4502C41.153 61.6781 41.2979 61.9515 41.3955 62.2705C41.4932 62.5863 41.542 62.9362 41.542 63.3203V63.8623H37.4014V62.9736H40.2725V62.876C40.266 62.6709 40.2269 62.4837 40.1553 62.3145C40.0837 62.1419 39.973 62.0052 39.8232 61.9043C39.6735 61.8001 39.4798 61.748 39.2422 61.748C39.0501 61.748 38.8825 61.7904 38.7393 61.875C38.5993 61.9564 38.4821 62.0736 38.3877 62.2266C38.2965 62.3763 38.2282 62.5553 38.1826 62.7637C38.137 62.972 38.1143 63.2031 38.1143 63.457V63.6523C38.1143 63.8737 38.1436 64.0788 38.2021 64.2676C38.264 64.4564 38.3535 64.6208 38.4707 64.7607C38.5911 64.8975 38.7344 65.0049 38.9004 65.083C39.0697 65.1579 39.2617 65.1953 39.4766 65.1953C39.7467 65.1953 39.9909 65.1432 40.209 65.0391C40.4303 64.9316 40.6224 64.7738 40.7852 64.5654L41.4346 65.2393C41.3239 65.402 41.1742 65.5583 40.9854 65.708C40.7998 65.8577 40.5752 65.9798 40.3115 66.0742C40.0479 66.1654 39.7435 66.2109 39.3984 66.2109ZM44.0908 65.1367L45.3213 60.8301H46.6689L44.8574 66.1133H44.0371L44.0908 65.1367ZM43.1924 60.8301L44.4375 65.1465L44.4814 66.1133H43.6562L41.8398 60.8301H43.1924ZM48.7148 60.8301V66.1133H47.4209V60.8301H48.7148ZM47.333 59.4482C47.333 59.2562 47.3981 59.0967 47.5283 58.9697C47.6618 58.8428 47.8408 58.7793 48.0654 58.7793C48.29 58.7793 48.4674 58.8428 48.5977 58.9697C48.7311 59.0967 48.7979 59.2562 48.7979 59.4482C48.7979 59.637 48.7311 59.7949 48.5977 59.9219C48.4674 60.0488 48.29 60.1123 48.0654 60.1123C47.8408 60.1123 47.6618 60.0488 47.5283 59.9219C47.3981 59.7949 47.333 59.637 47.333 59.4482ZM52.1133 65.1953C52.2956 65.1953 52.4583 65.1595 52.6016 65.0879C52.7448 65.0163 52.8587 64.9154 52.9434 64.7852C53.0312 64.6549 53.0785 64.5036 53.085 64.3311H54.3008C54.2943 64.6891 54.1934 65.0098 53.998 65.293C53.8027 65.5762 53.5423 65.8008 53.2168 65.9668C52.8945 66.1296 52.5332 66.2109 52.1328 66.2109C51.7259 66.2109 51.3711 66.1426 51.0684 66.0059C50.7656 65.8691 50.5133 65.6787 50.3115 65.4346C50.113 65.1904 49.9632 64.9072 49.8623 64.585C49.7646 64.2627 49.7158 63.9176 49.7158 63.5498V63.3936C49.7158 63.0257 49.7646 62.6807 49.8623 62.3584C49.9632 62.0361 50.113 61.7529 50.3115 61.5088C50.5133 61.2646 50.7656 61.0742 51.0684 60.9375C51.3711 60.8008 51.7243 60.7324 52.1279 60.7324C52.5544 60.7324 52.9287 60.8154 53.251 60.9814C53.5765 61.1475 53.8304 61.3818 54.0127 61.6846C54.1982 61.9873 54.2943 62.3438 54.3008 62.7539H53.085C53.0785 62.5651 53.0361 62.3958 52.958 62.2461C52.8799 62.0964 52.7692 61.9759 52.626 61.8848C52.4827 61.7936 52.3086 61.748 52.1035 61.748C51.8854 61.748 51.7031 61.7936 51.5566 61.8848C51.4134 61.9759 51.3011 62.1012 51.2197 62.2607C51.1416 62.417 51.0863 62.5928 51.0537 62.7881C51.0244 62.9801 51.0098 63.182 51.0098 63.3936V63.5498C51.0098 63.7646 51.0244 63.9697 51.0537 64.165C51.0863 64.3604 51.1416 64.5361 51.2197 64.6924C51.3011 64.8454 51.4134 64.9674 51.5566 65.0586C51.7031 65.1497 51.8887 65.1953 52.1133 65.1953ZM57.5332 66.2109C57.1328 66.2109 56.7731 66.1458 56.4541 66.0156C56.1351 65.8854 55.8633 65.7048 55.6387 65.4736C55.4173 65.2393 55.2464 64.9674 55.126 64.6582C55.0088 64.3457 54.9502 64.0104 54.9502 63.6523V63.457C54.9502 63.0501 55.0088 62.6807 55.126 62.3486C55.2432 62.0133 55.4092 61.7253 55.624 61.4844C55.8389 61.2435 56.096 61.0579 56.3955 60.9277C56.695 60.7975 57.0254 60.7324 57.3867 60.7324C57.7611 60.7324 58.0915 60.7959 58.3779 60.9229C58.6644 61.0465 58.9036 61.2223 59.0957 61.4502C59.2878 61.6781 59.4326 61.9515 59.5303 62.2705C59.6279 62.5863 59.6768 62.9362 59.6768 63.3203V63.8623H55.5361V62.9736H58.4072V62.876C58.4007 62.6709 58.3617 62.4837 58.29 62.3145C58.2184 62.1419 58.1077 62.0052 57.958 61.9043C57.8083 61.8001 57.6146 61.748 57.377 61.748C57.1849 61.748 57.0173 61.7904 56.874 61.875C56.734 61.9564 56.6169 62.0736 56.5225 62.2266C56.4313 62.3763 56.363 62.5553 56.3174 62.7637C56.2718 62.972 56.249 63.2031 56.249 63.457V63.6523C56.249 63.8737 56.2783 64.0788 56.3369 64.2676C56.3988 64.4564 56.4883 64.6208 56.6055 64.7607C56.7259 64.8975 56.8691 65.0049 57.0352 65.083C57.2044 65.1579 57.3965 65.1953 57.6113 65.1953C57.8815 65.1953 58.1257 65.1432 58.3438 65.0391C58.5651 64.9316 58.7572 64.7738 58.9199 64.5654L59.5693 65.2393C59.4587 65.402 59.3089 65.5583 59.1201 65.708C58.9346 65.8577 58.71 65.9798 58.4463 66.0742C58.1826 66.1654 57.8783 66.2109 57.5332 66.2109Z" fill="white"/>
<defs>
<filter id="filter0_d_3455_9942" x="0.863281" y="0.474609" width="88.5234" height="88.5234" filterUnits="userSpaceOnUse" color-interpolation-filters="sRGB">
<feFlood flood-opacity="0" result="BackgroundImageFix"/>
<feColorMatrix in="SourceAlpha" type="matrix" values="0 0 0 0 0 0 0 0 0 0 0 0 0 0 0 0 0 0 127 0" result="hardAlpha"/>
<feOffset dy="4"/>
<feGaussianBlur stdDeviation="2"/>
<feComposite in2="hardAlpha" operator="out"/>
<feColorMatrix type="matrix" values="0 0 0 0 0 0 0 0 0 0 0 0 0 0 0 0 0 0 0.25 0"/>
<feBlend mode="normal" in2="BackgroundImageFix" result="effect1_dropShadow_3455_9942"/>
<feBlend mode="normal" in="SourceGraphic" in2="effect1_dropShadow_3455_9942" result="shape"/>
</filter>
</defs>
</svg>
