<svg width="103" height="103" viewBox="0 0 103 103" fill="none" xmlns="http://www.w3.org/2000/svg">
<g filter="url(#filter0_d_1741_7199)">
<rect x="4" width="95" height="95.0012" rx="10" fill="#01728B"/>
</g>
<path d="M64.1214 35.2298H63.6099V27.9883C63.6099 25.3899 61.496 23.2755 58.8971 23.2755H58.581C57.7523 23.2755 57.0586 22.6548 56.9672 21.8312L56.3936 16.6707C56.2878 15.7184 55.485 15 54.5269 15H46.083C45.1243 15 44.322 15.7184 44.2163 16.6707L43.6427 21.8312C43.5513 22.6548 42.8576 23.2755 42.0289 23.2755H41.7128C39.1144 23.2755 37 25.3893 37 27.9883V47.0117C37 49.6101 39.1138 51.7245 41.7128 51.7245H42.0289C42.8576 51.7245 43.5513 52.3452 43.6427 53.1688L44.2163 58.3293C44.322 59.2816 45.1249 60 46.083 60H54.5269C55.4855 60 56.2878 59.2816 56.3936 58.3293L56.9672 53.1688C57.0586 52.3452 57.7523 51.7245 58.581 51.7245H58.8971C61.4955 51.7245 63.6099 49.6107 63.6099 47.0117V39.7702H64.1214C64.8536 39.7702 65.449 39.1748 65.449 38.4426V36.5574C65.449 35.8252 64.8536 35.2298 64.1214 35.2298ZM44.4996 21.926L45.0732 16.7656C45.1307 16.25 45.5646 15.8615 46.083 15.8615H54.5269C55.0453 15.8615 55.4798 16.25 55.5367 16.7656L56.1103 21.926C56.1677 22.4427 56.3798 22.9071 56.6976 23.2755H43.9122C44.2301 22.9071 44.4421 22.4427 44.4996 21.926ZM56.1103 53.074L55.5367 58.2344C55.4792 58.75 55.0453 59.1385 54.5269 59.1385H46.083C45.5646 59.1385 45.1301 58.75 45.0732 58.2344L44.4996 53.074C44.4421 52.5573 44.2301 52.0929 43.9122 51.7245H56.6976C56.3798 52.0929 56.1677 52.5573 56.1103 53.074ZM62.7478 47.0117C62.7478 49.1348 61.0207 50.8624 58.8971 50.8624H58.581H42.0289H41.7128C39.5897 50.8624 37.8621 49.1354 37.8621 47.0117V27.9883C37.8621 25.8652 39.5891 24.1376 41.7128 24.1376H42.0289H58.581H58.8971C61.0202 24.1376 62.7478 25.8646 62.7478 27.9883V35.6609V39.3391V47.0117ZM64.5869 38.4426C64.5869 38.6989 64.3783 38.9081 64.1214 38.9081H63.6099V36.0919H64.1214C64.3777 36.0919 64.5869 36.3005 64.5869 36.5574V38.4426Z" fill="white"/>
<path d="M54.467 30.205C53.2509 30.205 52.1083 30.6814 51.2491 31.5458L50.3071 32.4935L49.3651 31.5458C48.5059 30.6814 47.3634 30.2055 46.1478 30.2055C44.9328 30.2055 43.7903 30.6814 42.9305 31.5464C41.3793 33.1073 41.1862 35.5252 42.3506 37.2994H47.2812L48.5415 34.7792C48.622 34.6177 48.795 34.5235 48.9743 34.5436C49.1536 34.5631 49.3019 34.6924 49.3456 34.8677L50.4422 39.2546L51.3002 37.5379C51.3732 37.3919 51.5227 37.2994 51.6859 37.2994H58.2631C58.751 36.5586 59.0137 35.6902 59.0137 34.7798C59.0137 33.5585 58.5412 32.4096 57.6826 31.5464C56.8245 30.6814 55.6825 30.205 54.467 30.205Z" fill="white"/>
<path d="M50.6888 40.6811C50.6152 40.8283 50.4652 40.9196 50.3031 40.9196C50.2876 40.9196 50.2715 40.9191 50.256 40.9173C50.0767 40.8978 49.9284 40.7685 49.8847 40.5932L48.7882 36.2063L47.9301 37.923C47.8571 38.069 47.7077 38.1615 47.5444 38.1615H43.0742L49.998 45.1284C50.079 45.21 50.1888 45.2554 50.3037 45.2554C50.4187 45.2554 50.5284 45.2094 50.6095 45.1284L57.5321 38.1609H51.9486L50.6888 40.6811Z" fill="white"/>
<path d="M36.8457 79H35.0059L35.0176 77.7344H36.8457C37.3418 77.7344 37.7578 77.625 38.0938 77.4062C38.4297 77.1836 38.6836 76.8652 38.8555 76.4512C39.0273 76.0332 39.1133 75.5332 39.1133 74.9512V74.5117C39.1133 74.0625 39.0645 73.666 38.9668 73.3223C38.8691 72.9785 38.7246 72.6895 38.5332 72.4551C38.3457 72.2207 38.1133 72.043 37.8359 71.9219C37.5586 71.8008 37.2402 71.7402 36.8809 71.7402H34.9707V70.4688H36.8809C37.4512 70.4688 37.9707 70.5645 38.4395 70.7559C38.9121 70.9473 39.3203 71.2227 39.6641 71.582C40.0117 71.9375 40.2773 72.3633 40.4609 72.8594C40.6484 73.3555 40.7422 73.9102 40.7422 74.5234V74.9512C40.7422 75.5605 40.6484 76.1152 40.4609 76.6152C40.2773 77.1113 40.0117 77.5371 39.6641 77.8926C39.3203 78.248 38.9102 78.5215 38.4336 78.7129C37.957 78.9043 37.4277 79 36.8457 79ZM35.9082 70.4688V79H34.2969V70.4688H35.9082ZM44.8438 79.1172C44.3633 79.1172 43.9316 79.0391 43.5488 78.8828C43.166 78.7266 42.8398 78.5098 42.5703 78.2324C42.3047 77.9512 42.0996 77.625 41.9551 77.2539C41.8145 76.8789 41.7441 76.4766 41.7441 76.0469V75.8125C41.7441 75.3242 41.8145 74.8809 41.9551 74.4824C42.0957 74.0801 42.2949 73.7344 42.5527 73.4453C42.8105 73.1562 43.1191 72.9336 43.4785 72.7773C43.8379 72.6211 44.2344 72.543 44.668 72.543C45.1172 72.543 45.5137 72.6191 45.8574 72.7715C46.2012 72.9199 46.4883 73.1309 46.7188 73.4043C46.9492 73.6777 47.123 74.0059 47.2402 74.3887C47.3574 74.7676 47.416 75.1875 47.416 75.6484V76.2988H42.4473V75.2324H45.8926V75.1152C45.8848 74.8691 45.8379 74.6445 45.752 74.4414C45.666 74.2344 45.5332 74.0703 45.3535 73.9492C45.1738 73.8242 44.9414 73.7617 44.6562 73.7617C44.4258 73.7617 44.2246 73.8125 44.0527 73.9141C43.8848 74.0117 43.7441 74.1523 43.6309 74.3359C43.5215 74.5156 43.4395 74.7305 43.3848 74.9805C43.3301 75.2305 43.3027 75.5078 43.3027 75.8125V76.0469C43.3027 76.3125 43.3379 76.5586 43.4082 76.7852C43.4824 77.0117 43.5898 77.209 43.7305 77.377C43.875 77.541 44.0469 77.6699 44.2461 77.7637C44.4492 77.8535 44.6797 77.8984 44.9375 77.8984C45.2617 77.8984 45.5547 77.8359 45.8164 77.7109C46.082 77.582 46.3125 77.3926 46.5078 77.1426L47.2871 77.9512C47.1543 78.1465 46.9746 78.334 46.748 78.5137C46.5254 78.6934 46.2559 78.8398 45.9395 78.9531C45.623 79.0625 45.2578 79.1172 44.8438 79.1172ZM50.4746 77.8281L51.9512 72.6602H53.5684L51.3945 79H50.4102L50.4746 77.8281ZM49.3965 72.6602L50.8906 77.8398L50.9434 79H49.9531L47.7734 72.6602H49.3965ZM56.0234 72.6602V79H54.4707V72.6602H56.0234ZM54.3652 71.002C54.3652 70.7715 54.4434 70.5801 54.5996 70.4277C54.7598 70.2754 54.9746 70.1992 55.2441 70.1992C55.5137 70.1992 55.7266 70.2754 55.8828 70.4277C56.043 70.5801 56.123 70.7715 56.123 71.002C56.123 71.2285 56.043 71.418 55.8828 71.5703C55.7266 71.7227 55.5137 71.7988 55.2441 71.7988C54.9746 71.7988 54.7598 71.7227 54.5996 71.5703C54.4434 71.418 54.3652 71.2285 54.3652 71.002ZM60.1016 77.8984C60.3203 77.8984 60.5156 77.8555 60.6875 77.7695C60.8594 77.6836 60.9961 77.5625 61.0977 77.4062C61.2031 77.25 61.2598 77.0684 61.2676 76.8613H62.7266C62.7188 77.291 62.5977 77.6758 62.3633 78.0156C62.1289 78.3555 61.8164 78.625 61.4258 78.8242C61.0391 79.0195 60.6055 79.1172 60.125 79.1172C59.6367 79.1172 59.2109 79.0352 58.8477 78.8711C58.4844 78.707 58.1816 78.4785 57.9395 78.1855C57.7012 77.8926 57.5215 77.5527 57.4004 77.166C57.2832 76.7793 57.2246 76.3652 57.2246 75.9238V75.7363C57.2246 75.2949 57.2832 74.8809 57.4004 74.4941C57.5215 74.1074 57.7012 73.7676 57.9395 73.4746C58.1816 73.1816 58.4844 72.9531 58.8477 72.7891C59.2109 72.625 59.6348 72.543 60.1191 72.543C60.6309 72.543 61.0801 72.6426 61.4668 72.8418C61.8574 73.041 62.1621 73.3223 62.3809 73.6855C62.6035 74.0488 62.7188 74.4766 62.7266 74.9688H61.2676C61.2598 74.7422 61.209 74.5391 61.1152 74.3594C61.0215 74.1797 60.8887 74.0352 60.7168 73.9258C60.5449 73.8164 60.3359 73.7617 60.0898 73.7617C59.8281 73.7617 59.6094 73.8164 59.4336 73.9258C59.2617 74.0352 59.127 74.1855 59.0293 74.377C58.9355 74.5645 58.8691 74.7754 58.8301 75.0098C58.7949 75.2402 58.7773 75.4824 58.7773 75.7363V75.9238C58.7773 76.1816 58.7949 76.4277 58.8301 76.6621C58.8691 76.8965 58.9355 77.1074 59.0293 77.2949C59.127 77.4785 59.2617 77.625 59.4336 77.7344C59.6094 77.8438 59.832 77.8984 60.1016 77.8984ZM66.6055 79.1172C66.125 79.1172 65.6934 79.0391 65.3105 78.8828C64.9277 78.7266 64.6016 78.5098 64.332 78.2324C64.0664 77.9512 63.8613 77.625 63.7168 77.2539C63.5762 76.8789 63.5059 76.4766 63.5059 76.0469V75.8125C63.5059 75.3242 63.5762 74.8809 63.7168 74.4824C63.8574 74.0801 64.0566 73.7344 64.3145 73.4453C64.5723 73.1562 64.8809 72.9336 65.2402 72.7773C65.5996 72.6211 65.9961 72.543 66.4297 72.543C66.8789 72.543 67.2754 72.6191 67.6191 72.7715C67.9629 72.9199 68.25 73.1309 68.4805 73.4043C68.7109 73.6777 68.8848 74.0059 69.002 74.3887C69.1191 74.7676 69.1777 75.1875 69.1777 75.6484V76.2988H64.209V75.2324H67.6543V75.1152C67.6465 74.8691 67.5996 74.6445 67.5137 74.4414C67.4277 74.2344 67.2949 74.0703 67.1152 73.9492C66.9355 73.8242 66.7031 73.7617 66.418 73.7617C66.1875 73.7617 65.9863 73.8125 65.8145 73.9141C65.6465 74.0117 65.5059 74.1523 65.3926 74.3359C65.2832 74.5156 65.2012 74.7305 65.1465 74.9805C65.0918 75.2305 65.0645 75.5078 65.0645 75.8125V76.0469C65.0645 76.3125 65.0996 76.5586 65.1699 76.7852C65.2441 77.0117 65.3516 77.209 65.4922 77.377C65.6367 77.541 65.8086 77.6699 66.0078 77.7637C66.2109 77.8535 66.4414 77.8984 66.6992 77.8984C67.0234 77.8984 67.3164 77.8359 67.5781 77.7109C67.8438 77.582 68.0742 77.3926 68.2695 77.1426L69.0488 77.9512C68.916 78.1465 68.7363 78.334 68.5098 78.5137C68.2871 78.6934 68.0176 78.8398 67.7012 78.9531C67.3848 79.0625 67.0195 79.1172 66.6055 79.1172Z" fill="white"/>
<defs>
<filter id="filter0_d_1741_7199" x="0" y="0" width="103" height="103.001" filterUnits="userSpaceOnUse" color-interpolation-filters="sRGB">
<feFlood flood-opacity="0" result="BackgroundImageFix"/>
<feColorMatrix in="SourceAlpha" type="matrix" values="0 0 0 0 0 0 0 0 0 0 0 0 0 0 0 0 0 0 127 0" result="hardAlpha"/>
<feOffset dy="4"/>
<feGaussianBlur stdDeviation="2"/>
<feComposite in2="hardAlpha" operator="out"/>
<feColorMatrix type="matrix" values="0 0 0 0 0 0 0 0 0 0 0 0 0 0 0 0 0 0 0.25 0"/>
<feBlend mode="normal" in2="BackgroundImageFix" result="effect1_dropShadow_1741_7199"/>
<feBlend mode="normal" in="SourceGraphic" in2="effect1_dropShadow_1741_7199" result="shape"/>
</filter>
</defs>
</svg>
