<svg width="136" height="120" viewBox="0 0 136 120" fill="none" xmlns="http://www.w3.org/2000/svg">
<g filter="url(#filter0_d_1638_2121)">
<rect x="4" width="128" height="112" rx="15" fill="#01728B"/>
</g>
<path d="M86.8676 51.5228L87.7721 51.0709L82.8607 41.2403H78.6802V42.295H82.2087L86.8189 51.5229H71.0735V74.2339H93.7844V51.5228H86.8676ZM92.7298 73.1791H72.1282V52.5775H92.7298V73.1791ZM65.2582 36.5576V39.8981H61.9177V43.6371H65.2582V46.9776H68.9972V43.6371H72.3376V39.8981H68.9972V36.5576H65.2582ZM71.2829 40.9528V42.5824H67.9426V45.9229H66.313V42.5824H62.9725V40.9528H66.313V37.6123H67.9426V40.9528H71.2829ZM69.0858 65.5951H68.0311V67.8608H58.5072C58.3045 66.1123 56.8168 64.7418 55.0166 64.7302L50.2316 64.6985C49.6259 64.6931 49.0609 64.4499 48.6407 64.0134C48.225 63.5814 48.0034 63.0151 48.0156 62.4165L48.0797 61.8496C48.1639 61.0691 47.8474 60.3112 47.233 59.8224L46.7532 59.4407C46.4734 59.218 46.3668 58.8424 46.4878 58.5061C46.6766 57.9816 46.6248 57.4041 46.3459 56.9214L46.1085 56.5108C45.9841 56.2956 45.9629 56.0362 46.0505 55.7989C46.3888 54.8819 46.6881 53.5905 46.1932 52.647C45.937 52.1588 45.4913 51.8212 44.904 51.6706C44.4488 51.554 44.0673 51.3894 43.7695 51.1807C43.4927 50.9873 43.3183 50.693 43.2781 50.352C43.237 50.0026 43.3474 49.6515 43.5811 49.3886L47.5404 44.9326L47.5518 44.9193C47.9631 44.4242 47.9795 43.478 47.9741 43.1904V38.6898C47.9741 37.1643 48.4349 35.695 49.3066 34.4411L50.5838 32.6059C50.9492 32.0809 51.6057 31.8529 52.2181 32.0395C53.8291 32.5281 54.9446 32.8673 56.591 33.3678L57.4805 33.6383L57.7873 32.6291L56.8977 32.3588C55.251 31.8582 54.1354 31.5189 52.5244 31.0302C51.4733 30.7109 50.3455 31.1019 49.7181 32.0036L48.4407 33.8392C47.4454 35.271 46.9194 36.9484 46.9194 38.6901L46.9195 43.2055C46.9262 43.5826 46.8528 44.101 46.7441 44.2409L42.7927 48.6881C42.3592 49.1756 42.1542 49.8271 42.2305 50.4753C42.3052 51.1103 42.6459 51.6826 43.1647 52.0449C43.5664 52.3263 44.0634 52.544 44.642 52.6924C44.9445 52.77 45.1406 52.9111 45.2591 53.1371C45.5013 53.5987 45.429 54.4359 45.0608 55.4339C44.8645 55.9664 44.9135 56.5515 45.1954 57.0388L45.4327 57.4494C45.5559 57.6625 45.5788 57.9175 45.4954 58.149C45.2211 58.9112 45.4626 59.7619 46.0964 60.266L46.5762 60.6479C46.9062 60.9103 47.0762 61.3172 47.0312 61.7337L46.9648 62.3211L46.9616 62.3648C46.9356 63.2567 47.2619 64.102 47.8807 64.7446C48.499 65.3871 49.3306 65.7453 50.2232 65.7532L55.0095 65.7849C56.2332 65.7927 57.251 66.695 57.4435 67.8667L54.1091 72.1806V74.0833H69.8591V67.8607H69.0858V65.5951ZM68.8044 70.9818H66.3787V72.0365H68.8044V73.0287H55.1639V72.5407L57.9659 68.9154H68.8044V70.9818ZM53.5719 28.8214L63.4499 29.7892C64.2079 29.8633 64.9372 30.0682 65.6174 30.3979L66.0775 29.4489C65.2846 29.0645 64.4351 28.8258 63.5527 28.7393L53.6481 27.769L53.5967 27.7666C52.2407 27.7666 50.982 28.3783 50.1436 29.4445L50.9727 30.0965C51.6047 29.2926 52.5508 28.8289 53.5719 28.8214Z" fill="white"/>
<path d="M69.0859 54.9922H68.0312V64.2726H69.0859V54.9922Z" fill="white"/>
<path d="M57.0625 41.7673C57.0625 47.3179 61.5783 51.8336 67.1288 51.8336C72.6793 51.8336 77.1949 47.3179 77.1949 41.7673C77.1949 36.2168 72.6794 31.7012 67.1288 31.7012C61.5781 31.7012 57.0625 36.2168 57.0625 41.7673ZM67.1288 32.7559C72.0977 32.7559 76.1402 36.7984 76.1402 41.7673C76.1402 46.7363 72.0977 50.7789 67.1288 50.7789C62.1597 50.7789 58.1172 46.7363 58.1172 41.7673C58.1172 36.7984 62.1597 32.7559 67.1288 32.7559Z" fill="white"/>
<path d="M67.1277 49.6295C71.4628 49.6295 74.9896 46.1026 74.9896 41.7673C74.9896 37.4321 71.4628 33.9053 67.1277 33.9053C65.1485 33.9053 63.2573 34.6432 61.8025 35.9832L62.517 36.7589C63.7765 35.5988 65.4139 34.9599 67.1277 34.9599C70.8812 34.9599 73.935 38.0136 73.935 41.7672C73.935 45.5209 70.8812 48.5747 67.1277 48.5747C63.3741 48.5747 60.3203 45.5209 60.3203 41.7672C60.3203 40.4247 60.7105 39.1262 61.4487 38.0121L60.5695 37.4296C59.7165 38.7169 59.2656 40.2168 59.2656 41.7672C59.2655 46.1026 62.7925 49.6295 67.1277 49.6295ZM80.6841 53.9224H72.807V57.181H80.6841V53.9224ZM79.6294 56.1263H73.8617V54.9771H79.6294V56.1263Z" fill="white"/>
<path d="M86.626 69.5977H80.1562V70.6523H86.626V69.5977Z" fill="white"/>
<path d="M91.7746 67.2007H80.1562V68.2554H91.7746V67.2007Z" fill="white"/>
<path d="M91.7746 60.0415H80.1562V61.0962H91.7746V60.0415Z" fill="white"/>
<path d="M91.7768 62.4385H89.8008V63.4932H91.7768V62.4385Z" fill="white"/>
<path d="M88.4175 62.4385H80.1562V63.4932H88.4175V62.4385Z" fill="white"/>
<path d="M91.7726 55.0244H85.0586V56.0791H91.7726V55.0244Z" fill="white"/>
<path d="M83.5835 55.0244H81.8789V56.0791H83.5835V55.0244Z" fill="white"/>
<path d="M76.414 60.2495V59.1948H72.8984V64.3403H78.0438V62.0602H76.9891V63.2856H73.9531V60.2495H76.414Z" fill="white"/>
<path d="M75.6887 61.5102L74.8746 60.6962L74.1289 61.4418L75.6887 63.0018L79.5303 59.1602L78.7843 58.4146L75.6887 61.5102Z" fill="white"/>
<path d="M76.9891 70.4443H73.9531V67.4082H76.414V66.3535H72.8984V71.499H78.0438V69.2189H76.9891V70.4443Z" fill="white"/>
<path d="M75.6887 68.6693L74.8746 67.8552L74.1289 68.601L75.6887 70.161L79.5303 66.3194L78.7843 65.5737L75.6887 68.6693Z" fill="white"/>
<path d="M34.4004 96H32.2539L32.2676 94.5234H34.4004C34.9792 94.5234 35.4645 94.3958 35.8564 94.1406C36.2484 93.8809 36.5446 93.5094 36.7451 93.0264C36.9456 92.5387 37.0459 91.9554 37.0459 91.2764V90.7637C37.0459 90.2396 36.9889 89.777 36.875 89.376C36.7611 88.9749 36.5924 88.6377 36.3691 88.3643C36.1504 88.0908 35.8792 87.8835 35.5557 87.7422C35.2321 87.6009 34.8607 87.5303 34.4414 87.5303H32.2129V86.0469H34.4414C35.1068 86.0469 35.7129 86.1585 36.2598 86.3818C36.8112 86.6051 37.2874 86.9264 37.6885 87.3457C38.0941 87.7604 38.404 88.2572 38.6182 88.8359C38.8369 89.4147 38.9463 90.0618 38.9463 90.7773V91.2764C38.9463 91.9873 38.8369 92.6344 38.6182 93.2178C38.404 93.7965 38.0941 94.2933 37.6885 94.708C37.2874 95.1227 36.8089 95.4417 36.2529 95.665C35.6969 95.8883 35.0794 96 34.4004 96ZM33.3066 86.0469V96H31.4268V86.0469H33.3066ZM42.3232 88.6035V96H40.5117V88.6035H42.3232ZM40.3887 86.6689C40.3887 86.4001 40.4798 86.1768 40.6621 85.999C40.849 85.8213 41.0996 85.7324 41.4141 85.7324C41.7285 85.7324 41.9769 85.8213 42.1592 85.999C42.346 86.1768 42.4395 86.4001 42.4395 86.6689C42.4395 86.9333 42.346 87.1543 42.1592 87.332C41.9769 87.5098 41.7285 87.5986 41.4141 87.5986C41.0996 87.5986 40.849 87.5098 40.6621 87.332C40.4798 87.1543 40.3887 86.9333 40.3887 86.6689ZM48.1201 94.4277V91.0166C48.1201 90.766 48.0768 90.5495 47.9902 90.3672C47.9036 90.1849 47.7715 90.0436 47.5938 89.9434C47.416 89.8431 47.1904 89.793 46.917 89.793C46.6755 89.793 46.4635 89.834 46.2812 89.916C46.1035 89.998 45.9668 90.1143 45.8711 90.2646C45.7754 90.4105 45.7275 90.5791 45.7275 90.7705H43.916C43.916 90.4652 43.9889 90.1758 44.1348 89.9023C44.2806 89.6243 44.488 89.3783 44.7568 89.1641C45.0303 88.9453 45.3561 88.7744 45.7344 88.6514C46.1172 88.5283 46.5456 88.4668 47.0195 88.4668C47.5801 88.4668 48.0791 88.5625 48.5166 88.7539C48.9587 88.9408 49.305 89.2233 49.5557 89.6016C49.8109 89.9798 49.9385 90.4561 49.9385 91.0303V94.2568C49.9385 94.626 49.9613 94.9427 50.0068 95.207C50.057 95.4668 50.1299 95.6924 50.2256 95.8838V96H48.3867C48.3001 95.8132 48.234 95.5762 48.1885 95.2891C48.1429 94.9974 48.1201 94.7103 48.1201 94.4277ZM48.373 91.4951L48.3867 92.5684H47.2451C46.9626 92.5684 46.7142 92.598 46.5 92.6572C46.2858 92.7119 46.1104 92.7939 45.9736 92.9033C45.8369 93.0081 45.7344 93.1357 45.666 93.2861C45.5977 93.432 45.5635 93.5983 45.5635 93.7852C45.5635 93.9674 45.6045 94.1315 45.6865 94.2773C45.7731 94.4232 45.8962 94.5394 46.0557 94.626C46.2197 94.708 46.4111 94.749 46.6299 94.749C46.9489 94.749 47.2269 94.6852 47.4639 94.5576C47.7008 94.4255 47.8854 94.266 48.0176 94.0791C48.1497 93.8923 48.2204 93.7145 48.2295 93.5459L48.749 94.3252C48.6852 94.512 48.5895 94.7103 48.4619 94.9199C48.3343 95.1296 48.1702 95.3255 47.9697 95.5078C47.7692 95.6901 47.5277 95.8405 47.2451 95.959C46.9626 96.0775 46.6344 96.1367 46.2607 96.1367C45.7822 96.1367 45.3538 96.041 44.9756 95.8496C44.5973 95.6582 44.2988 95.3962 44.0801 95.0635C43.8613 94.7308 43.752 94.3525 43.752 93.9287C43.752 93.5368 43.8249 93.1904 43.9707 92.8896C44.1165 92.5889 44.333 92.3359 44.6201 92.1309C44.9072 91.9212 45.2627 91.764 45.6865 91.6592C46.1149 91.5498 46.6048 91.4951 47.1562 91.4951H48.373ZM56.2686 88.6035H57.9092V95.7744C57.9092 96.4443 57.7633 97.0117 57.4717 97.4766C57.1846 97.946 56.7812 98.3014 56.2617 98.543C55.7422 98.7891 55.1383 98.9121 54.4502 98.9121C54.154 98.9121 53.8327 98.8711 53.4863 98.7891C53.1445 98.707 52.8141 98.5771 52.4951 98.3994C52.1807 98.2262 51.9186 98.0007 51.709 97.7227L52.5225 96.6562C52.7686 96.9434 53.0465 97.1598 53.3564 97.3057C53.6663 97.4561 54.0013 97.5312 54.3613 97.5312C54.7259 97.5312 55.0358 97.4629 55.291 97.3262C55.5508 97.194 55.749 96.998 55.8857 96.7383C56.027 96.4831 56.0977 96.1686 56.0977 95.7949V90.292L56.2686 88.6035ZM51.2715 92.3906V92.2471C51.2715 91.682 51.3398 91.1693 51.4766 90.709C51.6133 90.2441 51.8092 89.8454 52.0645 89.5127C52.3242 89.18 52.6364 88.9225 53.001 88.7402C53.3701 88.5579 53.7848 88.4668 54.2451 88.4668C54.7327 88.4668 55.1429 88.5557 55.4756 88.7334C55.8128 88.9111 56.0908 89.1641 56.3096 89.4922C56.5329 89.8203 56.7061 90.21 56.8291 90.6611C56.9567 91.1077 57.0547 91.5999 57.123 92.1377V92.5273C57.0592 93.0514 56.9567 93.5322 56.8154 93.9697C56.6787 94.4072 56.4964 94.79 56.2686 95.1182C56.0407 95.4417 55.7581 95.6924 55.4209 95.8701C55.0837 96.0479 54.6872 96.1367 54.2314 96.1367C53.7757 96.1367 53.3656 96.0433 53.001 95.8564C52.6364 95.6696 52.3242 95.4076 52.0645 95.0703C51.8092 94.7331 51.6133 94.3366 51.4766 93.8809C51.3398 93.4251 51.2715 92.9284 51.2715 92.3906ZM53.0762 92.2471V92.3906C53.0762 92.7096 53.1081 93.0081 53.1719 93.2861C53.2357 93.5641 53.3337 93.8102 53.4658 94.0244C53.598 94.234 53.7643 94.3981 53.9648 94.5166C54.1654 94.6351 54.4046 94.6943 54.6826 94.6943C55.0563 94.6943 55.3617 94.6169 55.5986 94.4619C55.8402 94.3024 56.0225 94.0859 56.1455 93.8125C56.2731 93.5345 56.3551 93.2223 56.3916 92.876V91.8027C56.3688 91.5293 56.3187 91.2764 56.2412 91.0439C56.1683 90.8115 56.0658 90.611 55.9336 90.4424C55.8014 90.2738 55.6328 90.1416 55.4277 90.0459C55.2227 89.9502 54.9788 89.9023 54.6963 89.9023C54.4229 89.9023 54.1836 89.9639 53.9785 90.0869C53.7734 90.2054 53.6048 90.3717 53.4727 90.5859C53.3405 90.8001 53.2402 91.0485 53.1719 91.3311C53.1081 91.6136 53.0762 91.9189 53.0762 92.2471ZM61.3066 90.1826V96H59.502V88.6035H61.1973L61.3066 90.1826ZM61.0195 92.0352H60.4863C60.4909 91.4974 60.5638 91.0098 60.7051 90.5723C60.8464 90.1348 61.0446 89.7588 61.2998 89.4443C61.5596 89.1299 61.8672 88.8883 62.2227 88.7197C62.5781 88.5511 62.9746 88.4668 63.4121 88.4668C63.7676 88.4668 64.0889 88.5169 64.376 88.6172C64.6631 88.7174 64.9092 88.877 65.1143 89.0957C65.3239 89.3145 65.4834 89.6016 65.5928 89.957C65.7067 90.3079 65.7637 90.7409 65.7637 91.2559V96H63.9453V91.2422C63.9453 90.9049 63.8952 90.6383 63.7949 90.4424C63.6992 90.2464 63.5579 90.1074 63.3711 90.0254C63.1888 89.9434 62.9632 89.9023 62.6943 89.9023C62.4163 89.9023 62.1725 89.9593 61.9629 90.0732C61.7578 90.1826 61.5846 90.3353 61.4434 90.5312C61.3066 90.7272 61.2018 90.9528 61.1289 91.208C61.056 91.4632 61.0195 91.7389 61.0195 92.0352ZM67.0352 92.377V92.2334C67.0352 91.6911 67.1126 91.1921 67.2676 90.7363C67.4225 90.276 67.6481 89.8773 67.9443 89.54C68.2406 89.2028 68.6029 88.9408 69.0312 88.7539C69.4596 88.5625 69.9473 88.4668 70.4941 88.4668C71.0501 88.4668 71.5423 88.5625 71.9707 88.7539C72.4036 88.9408 72.7682 89.2028 73.0645 89.54C73.3607 89.8773 73.5863 90.276 73.7412 90.7363C73.8962 91.1921 73.9736 91.6911 73.9736 92.2334V92.377C73.9736 92.9147 73.8962 93.4137 73.7412 93.874C73.5863 94.3298 73.3607 94.7285 73.0645 95.0703C72.7682 95.4076 72.4059 95.6696 71.9775 95.8564C71.5492 96.0433 71.0592 96.1367 70.5078 96.1367C69.9609 96.1367 69.471 96.0433 69.0381 95.8564C68.6051 95.6696 68.2406 95.4076 67.9443 95.0703C67.6481 94.7285 67.4225 94.3298 67.2676 93.874C67.1126 93.4137 67.0352 92.9147 67.0352 92.377ZM68.8398 92.2334V92.377C68.8398 92.7005 68.8717 93.0036 68.9355 93.2861C68.9993 93.5687 69.0973 93.8171 69.2295 94.0312C69.3617 94.2454 69.5326 94.4141 69.7422 94.5371C69.9564 94.6556 70.2116 94.7148 70.5078 94.7148C70.7995 94.7148 71.0501 94.6556 71.2598 94.5371C71.4694 94.4141 71.6403 94.2454 71.7725 94.0312C71.9092 93.8171 72.0094 93.5687 72.0732 93.2861C72.137 93.0036 72.1689 92.7005 72.1689 92.377V92.2334C72.1689 91.9144 72.137 91.6159 72.0732 91.3379C72.0094 91.0553 71.9092 90.807 71.7725 90.5928C71.6403 90.374 71.4671 90.2031 71.2529 90.0801C71.0433 89.9525 70.7904 89.8887 70.4941 89.8887C70.2025 89.8887 69.9518 89.9525 69.7422 90.0801C69.5326 90.2031 69.3617 90.374 69.2295 90.5928C69.0973 90.807 68.9993 91.0553 68.9355 91.3379C68.8717 91.6159 68.8398 91.9144 68.8398 92.2334ZM79.3535 93.9766C79.3535 93.8216 79.3125 93.6826 79.2305 93.5596C79.1484 93.4365 78.9935 93.3249 78.7656 93.2246C78.5423 93.1198 78.2142 93.0218 77.7812 92.9307C77.3984 92.8486 77.0452 92.7461 76.7217 92.623C76.3981 92.5 76.1201 92.3519 75.8877 92.1787C75.6553 92.001 75.473 91.7936 75.3408 91.5566C75.2132 91.3151 75.1494 91.0371 75.1494 90.7227C75.1494 90.4173 75.2155 90.1302 75.3477 89.8613C75.4798 89.5879 75.6712 89.3486 75.9219 89.1436C76.1725 88.9339 76.4779 88.7699 76.8379 88.6514C77.1979 88.5283 77.6035 88.4668 78.0547 88.4668C78.6836 88.4668 79.2236 88.5693 79.6748 88.7744C80.1305 88.9795 80.4792 89.262 80.7207 89.6221C80.9622 89.9775 81.083 90.3786 81.083 90.8252H79.2783C79.2783 90.6292 79.2327 90.4515 79.1416 90.292C79.055 90.1325 78.9206 90.0049 78.7383 89.9092C78.556 89.8089 78.3258 89.7588 78.0479 89.7588C77.7972 89.7588 77.5853 89.7998 77.4121 89.8818C77.2435 89.9639 77.1159 90.071 77.0293 90.2031C76.9427 90.3353 76.8994 90.4811 76.8994 90.6406C76.8994 90.7591 76.9222 90.8662 76.9678 90.9619C77.0179 91.0531 77.0977 91.1374 77.207 91.2148C77.3164 91.2923 77.4645 91.363 77.6514 91.4268C77.8428 91.4906 78.0775 91.5521 78.3555 91.6113C78.9069 91.7207 79.3877 91.8665 79.7979 92.0488C80.2126 92.2266 80.5361 92.4635 80.7686 92.7598C81.001 93.056 81.1172 93.4342 81.1172 93.8945C81.1172 94.2227 81.0465 94.5234 80.9053 94.7969C80.764 95.0658 80.5589 95.3005 80.29 95.501C80.0212 95.7015 79.6999 95.8587 79.3262 95.9727C78.9525 96.082 78.5309 96.1367 78.0615 96.1367C77.3825 96.1367 76.8083 96.016 76.3389 95.7744C75.8695 95.5283 75.514 95.2184 75.2725 94.8447C75.0309 94.4665 74.9102 94.0745 74.9102 93.6689H76.6396C76.6533 93.9561 76.7308 94.1862 76.8721 94.3594C77.0133 94.5326 77.1911 94.6579 77.4053 94.7354C77.624 94.8083 77.8542 94.8447 78.0957 94.8447C78.3691 94.8447 78.5993 94.8083 78.7861 94.7354C78.973 94.6579 79.1143 94.5553 79.21 94.4277C79.3057 94.2956 79.3535 94.1452 79.3535 93.9766ZM85.9912 88.6035V89.9023H81.7529V88.6035H85.9912ZM82.8877 86.7852H84.6992V93.8672C84.6992 94.0859 84.7288 94.2546 84.7881 94.373C84.8473 94.4915 84.9362 94.5713 85.0547 94.6123C85.1732 94.6533 85.3145 94.6738 85.4785 94.6738C85.597 94.6738 85.7064 94.667 85.8066 94.6533C85.9069 94.6396 85.9912 94.626 86.0596 94.6123L86.0664 95.9658C85.916 96.016 85.7451 96.057 85.5537 96.0889C85.3669 96.1208 85.1549 96.1367 84.918 96.1367C84.5124 96.1367 84.1569 96.0684 83.8516 95.9316C83.5462 95.7904 83.3092 95.5648 83.1406 95.2549C82.972 94.9404 82.8877 94.5257 82.8877 94.0107V86.7852ZM89.1084 88.6035V96H87.2969V88.6035H89.1084ZM87.1738 86.6689C87.1738 86.4001 87.265 86.1768 87.4473 85.999C87.6341 85.8213 87.8848 85.7324 88.1992 85.7324C88.5137 85.7324 88.762 85.8213 88.9443 85.999C89.1312 86.1768 89.2246 86.4001 89.2246 86.6689C89.2246 86.9333 89.1312 87.1543 88.9443 87.332C88.762 87.5098 88.5137 87.5986 88.1992 87.5986C87.8848 87.5986 87.6341 87.5098 87.4473 87.332C87.265 87.1543 87.1738 86.9333 87.1738 86.6689ZM93.8662 94.7148C94.1214 94.7148 94.3493 94.6647 94.5498 94.5645C94.7503 94.4642 94.9098 94.3229 95.0283 94.1406C95.1514 93.9583 95.2174 93.7464 95.2266 93.5049H96.9287C96.9196 94.0062 96.7783 94.4551 96.5049 94.8516C96.2314 95.248 95.8669 95.5625 95.4111 95.7949C94.96 96.0228 94.4541 96.1367 93.8936 96.1367C93.3239 96.1367 92.8271 96.041 92.4033 95.8496C91.9795 95.6582 91.6263 95.3916 91.3438 95.0498C91.0658 94.708 90.8561 94.3115 90.7148 93.8604C90.5781 93.4092 90.5098 92.9261 90.5098 92.4111V92.1924C90.5098 91.6774 90.5781 91.1943 90.7148 90.7432C90.8561 90.292 91.0658 89.8955 91.3438 89.5537C91.6263 89.2119 91.9795 88.9453 92.4033 88.7539C92.8271 88.5625 93.3216 88.4668 93.8867 88.4668C94.4837 88.4668 95.0078 88.583 95.459 88.8154C95.9147 89.0479 96.2702 89.376 96.5254 89.7998C96.7852 90.2236 96.9196 90.7227 96.9287 91.2969H95.2266C95.2174 91.0326 95.1582 90.7956 95.0488 90.5859C94.9395 90.3763 94.7845 90.2077 94.584 90.0801C94.3835 89.9525 94.1396 89.8887 93.8525 89.8887C93.5472 89.8887 93.292 89.9525 93.0869 90.0801C92.8864 90.2077 92.7292 90.3831 92.6152 90.6064C92.5059 90.8252 92.4284 91.0713 92.3828 91.3447C92.3418 91.6136 92.3213 91.8962 92.3213 92.1924V92.4111C92.3213 92.7119 92.3418 92.999 92.3828 93.2725C92.4284 93.5459 92.5059 93.792 92.6152 94.0107C92.7292 94.2249 92.8864 94.3958 93.0869 94.5234C93.292 94.651 93.5518 94.7148 93.8662 94.7148ZM102.199 93.9766C102.199 93.8216 102.158 93.6826 102.076 93.5596C101.994 93.4365 101.839 93.3249 101.611 93.2246C101.388 93.1198 101.06 93.0218 100.627 92.9307C100.244 92.8486 99.891 92.7461 99.5674 92.623C99.2438 92.5 98.9658 92.3519 98.7334 92.1787C98.501 92.001 98.3187 91.7936 98.1865 91.5566C98.0589 91.3151 97.9951 91.0371 97.9951 90.7227C97.9951 90.4173 98.0612 90.1302 98.1934 89.8613C98.3255 89.5879 98.5169 89.3486 98.7676 89.1436C99.0182 88.9339 99.3236 88.7699 99.6836 88.6514C100.044 88.5283 100.449 88.4668 100.9 88.4668C101.529 88.4668 102.069 88.5693 102.521 88.7744C102.976 88.9795 103.325 89.262 103.566 89.6221C103.808 89.9775 103.929 90.3786 103.929 90.8252H102.124C102.124 90.6292 102.078 90.4515 101.987 90.292C101.901 90.1325 101.766 90.0049 101.584 89.9092C101.402 89.8089 101.172 89.7588 100.894 89.7588C100.643 89.7588 100.431 89.7998 100.258 89.8818C100.089 89.9639 99.9616 90.071 99.875 90.2031C99.7884 90.3353 99.7451 90.4811 99.7451 90.6406C99.7451 90.7591 99.7679 90.8662 99.8135 90.9619C99.8636 91.0531 99.9434 91.1374 100.053 91.2148C100.162 91.2923 100.31 91.363 100.497 91.4268C100.688 91.4906 100.923 91.5521 101.201 91.6113C101.753 91.7207 102.233 91.8665 102.644 92.0488C103.058 92.2266 103.382 92.4635 103.614 92.7598C103.847 93.056 103.963 93.4342 103.963 93.8945C103.963 94.2227 103.892 94.5234 103.751 94.7969C103.61 95.0658 103.405 95.3005 103.136 95.501C102.867 95.7015 102.546 95.8587 102.172 95.9727C101.798 96.082 101.377 96.1367 100.907 96.1367C100.228 96.1367 99.654 96.016 99.1846 95.7744C98.7152 95.5283 98.3597 95.2184 98.1182 94.8447C97.8766 94.4665 97.7559 94.0745 97.7559 93.6689H99.4854C99.499 93.9561 99.5765 94.1862 99.7178 94.3594C99.859 94.5326 100.037 94.6579 100.251 94.7354C100.47 94.8083 100.7 94.8447 100.941 94.8447C101.215 94.8447 101.445 94.8083 101.632 94.7354C101.819 94.6579 101.96 94.5553 102.056 94.4277C102.151 94.2956 102.199 94.1452 102.199 93.9766Z" fill="white"/>
<defs>
<filter id="filter0_d_1638_2121" x="0" y="0" width="136" height="120" filterUnits="userSpaceOnUse" color-interpolation-filters="sRGB">
<feFlood flood-opacity="0" result="BackgroundImageFix"/>
<feColorMatrix in="SourceAlpha" type="matrix" values="0 0 0 0 0 0 0 0 0 0 0 0 0 0 0 0 0 0 127 0" result="hardAlpha"/>
<feOffset dy="4"/>
<feGaussianBlur stdDeviation="2"/>
<feComposite in2="hardAlpha" operator="out"/>
<feColorMatrix type="matrix" values="0 0 0 0 0 0 0 0 0 0 0 0 0 0 0 0 0 0 0.25 0"/>
<feBlend mode="normal" in2="BackgroundImageFix" result="effect1_dropShadow_1638_2121"/>
<feBlend mode="normal" in="SourceGraphic" in2="effect1_dropShadow_1638_2121" result="shape"/>
</filter>
</defs>
</svg>
