<svg width="136" height="120" viewBox="0 0 136 120" fill="none" xmlns="http://www.w3.org/2000/svg">
<g filter="url(#filter0_d_3383_6246)">
<rect x="4" width="128" height="112" rx="15" fill="#354764"/>
</g>
<path d="M86.8676 51.5218L87.7721 51.0699L82.8607 41.2394H78.6802V42.2941H82.2087L86.8189 51.5219H71.0735V74.2329H93.7844V51.5218H86.8676ZM92.7298 73.1782H72.1282V52.5765H92.7298V73.1782ZM65.2582 36.5567V39.8972H61.9177V43.6361H65.2582V46.9767H68.9972V43.6361H72.3376V39.8972H68.9972V36.5567H65.2582ZM71.2829 40.9519V42.5815H67.9426V45.922H66.313V42.5815H62.9725V40.9519H66.313V37.6113H67.9426V40.9519H71.2829ZM69.0858 65.5941H68.0311V67.8598H58.5072C58.3045 66.1113 56.8168 64.7409 55.0166 64.7293L50.2316 64.6975C49.6259 64.6921 49.0609 64.4489 48.6407 64.0124C48.225 63.5804 48.0034 63.0141 48.0156 62.4155L48.0797 61.8486C48.1639 61.0681 47.8474 60.3102 47.233 59.8214L46.7532 59.4397C46.4734 59.217 46.3668 58.8415 46.4878 58.5051C46.6766 57.9806 46.6248 57.4031 46.3459 56.9205L46.1085 56.5099C45.9841 56.2946 45.9629 56.0353 46.0505 55.798C46.3888 54.8809 46.6881 53.5895 46.1932 52.646C45.937 52.1578 45.4913 51.8202 44.904 51.6696C44.4488 51.553 44.0673 51.3884 43.7695 51.1797C43.4927 50.9864 43.3183 50.692 43.2781 50.351C43.237 50.0016 43.3474 49.6505 43.5811 49.3877L47.5404 44.9316L47.5518 44.9183C47.9631 44.4233 47.9795 43.477 47.9741 43.1894V38.6888C47.9741 37.1633 48.4349 35.694 49.3066 34.4401L50.5838 32.605C50.9492 32.0799 51.6057 31.8519 52.2181 32.0385C53.8291 32.5271 54.9446 32.8663 56.591 33.3669L57.4805 33.6373L57.7873 32.6282L56.8977 32.3578C55.251 31.8572 54.1354 31.5179 52.5244 31.0293C51.4733 30.7099 50.3455 31.101 49.7181 32.0026L48.4407 33.8382C47.4454 35.27 46.9194 36.9474 46.9194 38.6891L46.9195 43.2046C46.9262 43.5816 46.8528 44.1 46.7441 44.24L42.7927 48.6871C42.3592 49.1746 42.1542 49.8261 42.2305 50.4743C42.3052 51.1093 42.6459 51.6816 43.1647 52.0439C43.5664 52.3253 44.0634 52.543 44.642 52.6914C44.9445 52.769 45.1406 52.9101 45.2591 53.1361C45.5013 53.5978 45.429 54.4349 45.0608 55.4329C44.8645 55.9654 44.9135 56.5505 45.1954 57.0378L45.4327 57.4484C45.5559 57.6615 45.5788 57.9165 45.4954 58.148C45.2211 58.9102 45.4626 59.7609 46.0964 60.265L46.5762 60.6469C46.9062 60.9093 47.0762 61.3162 47.0312 61.7327L46.9648 62.3201L46.9616 62.3638C46.9356 63.2558 47.2619 64.101 47.8807 64.7436C48.499 65.3861 49.3306 65.7443 50.2232 65.7522L55.0095 65.7839C56.2332 65.7918 57.251 66.694 57.4435 67.8657L54.1091 72.1796V74.0823H69.8591V67.8597H69.0858V65.5941ZM68.8044 70.9808H66.3787V72.0355H68.8044V73.0278H55.1639V72.5397L57.9659 68.9145H68.8044V70.9808ZM53.5719 28.8204L63.4499 29.7882C64.2079 29.8623 64.9372 30.0673 65.6174 30.397L66.0775 29.448C65.2846 29.0635 64.4351 28.8248 63.5527 28.7384L53.6481 27.7681L53.5967 27.7656C52.2407 27.7656 50.982 28.3773 50.1436 29.4435L50.9727 30.0955C51.6047 29.2917 52.5508 28.8279 53.5719 28.8204Z" fill="white"/>
<path d="M69.0859 54.9922H68.0312V64.2726H69.0859V54.9922Z" fill="white"/>
<path d="M57.0625 41.7673C57.0625 47.3179 61.5783 51.8336 67.1288 51.8336C72.6793 51.8336 77.1949 47.3179 77.1949 41.7673C77.1949 36.2168 72.6794 31.7012 67.1288 31.7012C61.5781 31.7012 57.0625 36.2168 57.0625 41.7673ZM67.1288 32.7559C72.0977 32.7559 76.1402 36.7984 76.1402 41.7673C76.1402 46.7363 72.0977 50.7789 67.1288 50.7789C62.1597 50.7789 58.1172 46.7363 58.1172 41.7673C58.1172 36.7984 62.1597 32.7559 67.1288 32.7559Z" fill="white"/>
<path d="M67.1277 49.6305C71.4628 49.6305 74.9896 46.1036 74.9896 41.7683C74.9896 37.4331 71.4628 33.9062 67.1277 33.9062C65.1485 33.9062 63.2573 34.6442 61.8025 35.9842L62.517 36.7599C63.7765 35.5998 65.4139 34.9608 67.1277 34.9608C70.8812 34.9608 73.935 38.0146 73.935 41.7682C73.935 45.5218 70.8812 48.5757 67.1277 48.5757C63.3741 48.5757 60.3203 45.5218 60.3203 41.7682C60.3203 40.4257 60.7105 39.1272 61.4487 38.0131L60.5695 37.4306C59.7165 38.7178 59.2656 40.2178 59.2656 41.7682C59.2655 46.1036 62.7925 49.6305 67.1277 49.6305ZM80.6841 53.9234H72.807V57.1819H80.6841V53.9234ZM79.6294 56.1272H73.8617V54.9781H79.6294V56.1272Z" fill="white"/>
<path d="M86.626 69.5977H80.1562V70.6523H86.626V69.5977Z" fill="white"/>
<path d="M91.7746 67.2012H80.1562V68.2559H91.7746V67.2012Z" fill="white"/>
<path d="M91.7746 60.041H80.1562V61.0957H91.7746V60.041Z" fill="white"/>
<path d="M91.7768 62.4375H89.8008V63.4922H91.7768V62.4375Z" fill="white"/>
<path d="M88.4175 62.4375H80.1562V63.4922H88.4175V62.4375Z" fill="white"/>
<path d="M91.7726 55.0254H85.0586V56.0801H91.7726V55.0254Z" fill="white"/>
<path d="M83.5835 55.0254H81.8789V56.0801H83.5835V55.0254Z" fill="white"/>
<path d="M76.414 60.25V59.1953H72.8984V64.3408H78.0438V62.0607H76.9891V63.2861H73.9531V60.25H76.414Z" fill="white"/>
<path d="M75.6887 61.5097L74.8746 60.6957L74.1289 61.4413L75.6887 63.0013L79.5303 59.1597L78.7843 58.4141L75.6887 61.5097Z" fill="white"/>
<path d="M76.9891 70.4443H73.9531V67.4082H76.414V66.3535H72.8984V71.499H78.0438V69.2189H76.9891V70.4443Z" fill="white"/>
<path d="M75.6887 68.6698L74.8746 67.8557L74.1289 68.6015L75.6887 70.1615L79.5303 66.3199L78.7843 65.5742L75.6887 68.6698Z" fill="white"/>
<path d="M45.126 86.0469H46.7529L49.4736 93.5391L52.1875 86.0469H53.8213L50.123 96H48.8174L45.126 86.0469ZM44.3057 86.0469H45.8984L46.1855 92.9307V96H44.3057V86.0469ZM53.042 86.0469H54.6416V96H52.7617V92.9307L53.042 86.0469ZM60.6367 87.5576L57.7998 96H55.8105L59.5293 86.0469H60.8008L60.6367 87.5576ZM63.0088 96L60.1582 87.5576L59.9873 86.0469H61.2656L65.0049 96H63.0088ZM62.8789 92.3018V93.7852H57.54V92.3018H62.8789ZM69.0039 96H66.8574L66.8711 94.5234H69.0039C69.5827 94.5234 70.068 94.3958 70.46 94.1406C70.8519 93.8809 71.1481 93.5094 71.3486 93.0264C71.5492 92.5387 71.6494 91.9554 71.6494 91.2764V90.7637C71.6494 90.2396 71.5924 89.777 71.4785 89.376C71.3646 88.9749 71.196 88.6377 70.9727 88.3643C70.7539 88.0908 70.4827 87.8835 70.1592 87.7422C69.8356 87.6009 69.4642 87.5303 69.0449 87.5303H66.8164V86.0469H69.0449C69.7103 86.0469 70.3164 86.1585 70.8633 86.3818C71.4147 86.6051 71.891 86.9264 72.292 87.3457C72.6976 87.7604 73.0075 88.2572 73.2217 88.8359C73.4404 89.4147 73.5498 90.0618 73.5498 90.7773V91.2764C73.5498 91.9873 73.4404 92.6344 73.2217 93.2178C73.0075 93.7965 72.6976 94.2933 72.292 94.708C71.891 95.1227 71.4124 95.4417 70.8564 95.665C70.3005 95.8883 69.6829 96 69.0039 96ZM67.9102 86.0469V96H66.0303V86.0469H67.9102ZM75.1494 86.0469H78.7656C79.5221 86.0469 80.1715 86.1608 80.7139 86.3887C81.2562 86.6165 81.6732 86.9538 81.9648 87.4004C82.2565 87.847 82.4023 88.3962 82.4023 89.0479C82.4023 89.5628 82.3112 90.0094 82.1289 90.3877C81.9466 90.766 81.6891 91.0827 81.3564 91.3379C81.0283 91.5931 80.641 91.7936 80.1943 91.9395L79.6064 92.2402H76.4141L76.4004 90.7568H78.7861C79.1735 90.7568 79.4948 90.6885 79.75 90.5518C80.0052 90.415 80.1966 90.2259 80.3242 89.9844C80.4564 89.7428 80.5225 89.4671 80.5225 89.1572C80.5225 88.8245 80.4587 88.5374 80.3311 88.2959C80.2035 88.0498 80.0098 87.8607 79.75 87.7285C79.4902 87.5964 79.1621 87.5303 78.7656 87.5303H77.0293V96H75.1494V86.0469ZM80.7686 96L78.4648 91.543L80.4541 91.5361L82.7852 95.9043V96H80.7686ZM89.2588 93.416C89.2588 93.2246 89.2292 93.0537 89.1699 92.9033C89.1152 92.7484 89.0127 92.6094 88.8623 92.4863C88.7165 92.3587 88.5091 92.2357 88.2402 92.1172C87.9759 91.9941 87.6341 91.8665 87.2148 91.7344C86.75 91.5885 86.3171 91.4245 85.916 91.2422C85.515 91.0599 85.1618 90.848 84.8564 90.6064C84.5557 90.3649 84.321 90.0869 84.1523 89.7725C83.9837 89.4535 83.8994 89.0843 83.8994 88.665C83.8994 88.2549 83.986 87.8812 84.1592 87.5439C84.3369 87.2067 84.5876 86.9173 84.9111 86.6758C85.2347 86.4297 85.6152 86.2406 86.0527 86.1084C86.4948 85.9762 86.9824 85.9102 87.5156 85.9102C88.2539 85.9102 88.8919 86.0446 89.4297 86.3135C89.972 86.5824 90.3913 86.9469 90.6875 87.4072C90.9837 87.8675 91.1318 88.3848 91.1318 88.959H89.2588C89.2588 88.6491 89.1927 88.3757 89.0605 88.1387C88.9329 87.9017 88.737 87.7148 88.4727 87.5781C88.2129 87.4414 87.8848 87.373 87.4883 87.373C87.1055 87.373 86.7865 87.43 86.5312 87.5439C86.2806 87.6579 86.0915 87.8128 85.9639 88.0088C85.8408 88.2048 85.7793 88.4235 85.7793 88.665C85.7793 88.8473 85.8226 89.0114 85.9092 89.1572C85.9958 89.2985 86.1257 89.4329 86.2988 89.5605C86.472 89.6836 86.6862 89.7998 86.9414 89.9092C87.2012 90.014 87.502 90.1188 87.8438 90.2236C88.3906 90.3877 88.8691 90.57 89.2793 90.7705C89.694 90.971 90.0381 91.1989 90.3115 91.4541C90.5895 91.7093 90.7969 91.9964 90.9336 92.3154C91.0749 92.6344 91.1455 92.9967 91.1455 93.4023C91.1455 93.8307 91.0612 94.2135 90.8926 94.5508C90.724 94.888 90.4824 95.1751 90.168 95.4121C89.8535 95.6491 89.4753 95.8291 89.0332 95.9521C88.5957 96.0752 88.1058 96.1367 87.5635 96.1367C87.0804 96.1367 86.6019 96.0729 86.1279 95.9453C85.6585 95.8132 85.2324 95.6172 84.8496 95.3574C84.4668 95.0931 84.1615 94.7604 83.9336 94.3594C83.7057 93.9538 83.5918 93.4798 83.5918 92.9375H85.4785C85.4785 93.252 85.5286 93.5208 85.6289 93.7441C85.7337 93.9629 85.8796 94.1429 86.0664 94.2842C86.2578 94.4209 86.4811 94.5212 86.7363 94.585C86.9915 94.6488 87.2673 94.6807 87.5635 94.6807C87.9463 94.6807 88.2607 94.6283 88.5068 94.5234C88.7575 94.4141 88.9443 94.2637 89.0674 94.0723C89.195 93.8809 89.2588 93.6621 89.2588 93.416Z" fill="white"/>
<defs>
<filter id="filter0_d_3383_6246" x="0" y="0" width="136" height="120" filterUnits="userSpaceOnUse" color-interpolation-filters="sRGB">
<feFlood flood-opacity="0" result="BackgroundImageFix"/>
<feColorMatrix in="SourceAlpha" type="matrix" values="0 0 0 0 0 0 0 0 0 0 0 0 0 0 0 0 0 0 127 0" result="hardAlpha"/>
<feOffset dy="4"/>
<feGaussianBlur stdDeviation="2"/>
<feComposite in2="hardAlpha" operator="out"/>
<feColorMatrix type="matrix" values="0 0 0 0 0 0 0 0 0 0 0 0 0 0 0 0 0 0 0.25 0"/>
<feBlend mode="normal" in2="BackgroundImageFix" result="effect1_dropShadow_3383_6246"/>
<feBlend mode="normal" in="SourceGraphic" in2="effect1_dropShadow_3383_6246" result="shape"/>
</filter>
</defs>
</svg>
