<svg width="20" height="20" viewBox="0 0 20 20" fill="none" xmlns="http://www.w3.org/2000/svg">
<path d="M10.8887 4.61123C10.8887 5.04725 10.9528 5.71806 11.5301 6.32179C12.0433 6.85843 13.7432 8.06589 13.8073 8.13297C13.8715 8.16651 13.9356 8.20005 13.9998 8.20005C14.0639 8.20005 14.1281 8.16651 14.1922 8.13297C14.2564 8.06589 15.9563 6.89197 16.4694 6.32179C17.0467 5.71806 17.1109 5.04725 17.1109 4.61123C17.1109 3.60502 16.3411 2.80005 15.3789 2.80005C14.8658 2.80005 14.3526 3.10191 14.0319 3.57148C13.7111 3.10191 13.198 2.80005 12.6206 2.80005C11.6905 2.80005 10.8887 3.60502 10.8887 4.61123Z" fill="black"/>
<rect x="0.25" y="0.25" width="19.5" height="19.5" rx="3.75" stroke="black" stroke-width="0.5"/>
</svg>
