<svg width="27" height="38" viewBox="0 0 27 38" fill="none" xmlns="http://www.w3.org/2000/svg">
<path fill-rule="evenodd" clip-rule="evenodd" d="M13.2922 0.210648L4.3822 7.21064C4.14105 7.4001 4 7.6914 4 7.99999V19C4 20.6568 5.32971 22 6.97 22H10.9275C10.9288 22 10.9301 22 10.9314 22L10.9315 22H16.8675C16.8688 22 16.8701 22 16.8714 22C16.8727 22 16.874 22 16.8753 22H20.83C22.4703 22 23.8 20.6568 23.8 19V7.99999C23.8 7.6914 23.6589 7.4001 23.4178 7.21064L14.5078 0.210648C14.1503 -0.0702159 13.6497 -0.0702159 13.2922 0.210648ZM17.8614 19.9996H20.8305C21.3772 19.9996 21.8205 19.5519 21.8205 18.9996V8.48862L13.9005 2.26562L5.98047 8.48762V18.9996C5.98047 19.5124 6.36265 19.9351 6.85501 19.9929L6.97047 19.9996H9.94141V11C9.94141 10.4872 10.3236 10.0645 10.816 10.0067L10.9314 10H16.8714C17.3791 10 17.7976 10.386 17.8547 10.8834L17.8614 11V19.9996ZM11.9214 19.9996H15.8814V12H11.9214V19.9996Z" fill="#01728B"/>
<path d="M5.46875 30.9473V31.7139H1.62109V30.9473H5.46875ZM1.76758 27.8906V35H0.825195V27.8906H1.76758ZM6.28906 27.8906V35H5.35156V27.8906H6.28906ZM7.58789 32.417V32.3047C7.58789 31.9238 7.64323 31.5706 7.75391 31.2451C7.86458 30.9163 8.02409 30.6315 8.23242 30.3906C8.44076 30.1465 8.69303 29.9577 8.98926 29.8242C9.28548 29.6875 9.61751 29.6191 9.98535 29.6191C10.3564 29.6191 10.6901 29.6875 10.9863 29.8242C11.2858 29.9577 11.5397 30.1465 11.748 30.3906C11.9596 30.6315 12.1208 30.9163 12.2314 31.2451C12.3421 31.5706 12.3975 31.9238 12.3975 32.3047V32.417C12.3975 32.7979 12.3421 33.151 12.2314 33.4766C12.1208 33.8021 11.9596 34.0869 11.748 34.3311C11.5397 34.5719 11.2874 34.7607 10.9912 34.8975C10.6982 35.0309 10.3662 35.0977 9.99512 35.0977C9.62402 35.0977 9.29036 35.0309 8.99414 34.8975C8.69792 34.7607 8.44401 34.5719 8.23242 34.3311C8.02409 34.0869 7.86458 33.8021 7.75391 33.4766C7.64323 33.151 7.58789 32.7979 7.58789 32.417ZM8.49121 32.3047V32.417C8.49121 32.6807 8.52214 32.9297 8.58398 33.1641C8.64583 33.3952 8.73861 33.6003 8.8623 33.7793C8.98926 33.9583 9.14714 34.0999 9.33594 34.2041C9.52474 34.305 9.74447 34.3555 9.99512 34.3555C10.2425 34.3555 10.459 34.305 10.6445 34.2041C10.8333 34.0999 10.9896 33.9583 11.1133 33.7793C11.237 33.6003 11.3298 33.3952 11.3916 33.1641C11.4567 32.9297 11.4893 32.6807 11.4893 32.417V32.3047C11.4893 32.0443 11.4567 31.7985 11.3916 31.5674C11.3298 31.333 11.2354 31.1263 11.1084 30.9473C10.9847 30.765 10.8285 30.6217 10.6396 30.5176C10.4541 30.4134 10.236 30.3613 9.98535 30.3613C9.73796 30.3613 9.51986 30.4134 9.33105 30.5176C9.14551 30.6217 8.98926 30.765 8.8623 30.9473C8.73861 31.1263 8.64583 31.333 8.58398 31.5674C8.52214 31.7985 8.49121 32.0443 8.49121 32.3047ZM14.4287 30.7666V35H13.5205V29.7168H14.3799L14.4287 30.7666ZM14.2432 32.1582L13.8232 32.1436C13.8265 31.7822 13.8737 31.4486 13.9648 31.1426C14.056 30.8333 14.1911 30.5648 14.3701 30.3369C14.5492 30.109 14.7721 29.9333 15.0391 29.8096C15.306 29.6826 15.6152 29.6191 15.9668 29.6191C16.2142 29.6191 16.4421 29.6549 16.6504 29.7266C16.8587 29.7949 17.0394 29.904 17.1924 30.0537C17.3454 30.2035 17.4642 30.3955 17.5488 30.6299C17.6335 30.8643 17.6758 31.1475 17.6758 31.4795V35H16.7725V31.5234C16.7725 31.2467 16.7253 31.0254 16.6309 30.8594C16.5397 30.6934 16.4095 30.5729 16.2402 30.498C16.071 30.4199 15.8724 30.3809 15.6445 30.3809C15.3776 30.3809 15.1546 30.4281 14.9756 30.5225C14.7965 30.6169 14.6533 30.7471 14.5459 30.9131C14.4385 31.0791 14.3604 31.2695 14.3115 31.4844C14.266 31.696 14.2432 31.9206 14.2432 32.1582ZM17.666 31.6602L17.0605 31.8457C17.0638 31.556 17.111 31.2777 17.2021 31.0107C17.2965 30.7438 17.4316 30.5062 17.6074 30.2979C17.7865 30.0895 18.0062 29.9251 18.2666 29.8047C18.527 29.681 18.8249 29.6191 19.1602 29.6191C19.4434 29.6191 19.694 29.6566 19.9121 29.7314C20.1335 29.8063 20.319 29.9219 20.4688 30.0781C20.6217 30.2311 20.7373 30.4281 20.8154 30.6689C20.8936 30.9098 20.9326 31.1963 20.9326 31.5283V35H20.0244V31.5186C20.0244 31.2223 19.9772 30.9928 19.8828 30.8301C19.7917 30.6641 19.6615 30.5485 19.4922 30.4834C19.3262 30.415 19.1276 30.3809 18.8965 30.3809C18.6979 30.3809 18.5221 30.415 18.3691 30.4834C18.2161 30.5518 18.0876 30.6462 17.9834 30.7666C17.8792 30.8838 17.7995 31.0189 17.7441 31.1719C17.6921 31.3249 17.666 31.4876 17.666 31.6602ZM24.4922 35.0977C24.1243 35.0977 23.7907 35.0358 23.4912 34.9121C23.195 34.7852 22.9395 34.6077 22.7246 34.3799C22.513 34.152 22.3503 33.8818 22.2363 33.5693C22.1224 33.2568 22.0654 32.915 22.0654 32.5439V32.3389C22.0654 31.9092 22.1289 31.5267 22.2559 31.1914C22.3828 30.8529 22.5553 30.5664 22.7734 30.332C22.9915 30.0977 23.2389 29.9202 23.5156 29.7998C23.7923 29.6794 24.0788 29.6191 24.375 29.6191C24.7526 29.6191 25.0781 29.6842 25.3516 29.8145C25.6283 29.9447 25.8545 30.127 26.0303 30.3613C26.2061 30.5924 26.3363 30.8659 26.4209 31.1816C26.5055 31.4941 26.5479 31.8359 26.5479 32.207V32.6123H22.6025V31.875H25.6445V31.8066C25.6315 31.5723 25.5827 31.3444 25.498 31.123C25.4167 30.9017 25.2865 30.7194 25.1074 30.5762C24.9284 30.4329 24.6842 30.3613 24.375 30.3613C24.1699 30.3613 23.9811 30.4053 23.8086 30.4932C23.6361 30.5778 23.488 30.7048 23.3643 30.874C23.2406 31.0433 23.1445 31.25 23.0762 31.4941C23.0078 31.7383 22.9736 32.0199 22.9736 32.3389V32.5439C22.9736 32.7946 23.0078 33.0306 23.0762 33.252C23.1478 33.4701 23.2503 33.6621 23.3838 33.8281C23.5205 33.9941 23.6849 34.1243 23.877 34.2188C24.0723 34.3132 24.2936 34.3604 24.541 34.3604C24.86 34.3604 25.1302 34.2952 25.3516 34.165C25.5729 34.0348 25.7666 33.8607 25.9326 33.6426L26.4795 34.0771C26.3656 34.2497 26.2207 34.4141 26.0449 34.5703C25.8691 34.7266 25.6527 34.8535 25.3955 34.9512C25.1416 35.0488 24.8405 35.0977 24.4922 35.0977Z" fill="#01728B"/>
</svg>
