<svg width="136" height="120" viewBox="0 0 136 120" fill="none" xmlns="http://www.w3.org/2000/svg">
<g filter="url(#filter0_d_3383_6279)">
<rect x="4" width="128" height="112" rx="15" fill="#354764"/>
</g>
<path d="M51.0186 86.0469V96H49.1387V86.0469H51.0186ZM54.6826 90.1826V96H52.8779V88.6035H54.5732L54.6826 90.1826ZM54.3955 92.0352H53.8623C53.8669 91.4974 53.9398 91.0098 54.0811 90.5723C54.2223 90.1348 54.4206 89.7588 54.6758 89.4443C54.9355 89.1299 55.2432 88.8883 55.5986 88.7197C55.9541 88.5511 56.3506 88.4668 56.7881 88.4668C57.1436 88.4668 57.4648 88.5169 57.752 88.6172C58.0391 88.7174 58.2852 88.877 58.4902 89.0957C58.6999 89.3145 58.8594 89.6016 58.9688 89.957C59.0827 90.3079 59.1396 90.7409 59.1396 91.2559V96H57.3213V91.2422C57.3213 90.9049 57.2712 90.6383 57.1709 90.4424C57.0752 90.2464 56.9339 90.1074 56.7471 90.0254C56.5648 89.9434 56.3392 89.9023 56.0703 89.9023C55.7923 89.9023 55.5485 89.9593 55.3389 90.0732C55.1338 90.1826 54.9606 90.3353 54.8193 90.5312C54.6826 90.7272 54.5778 90.9528 54.5049 91.208C54.432 91.4632 54.3955 91.7389 54.3955 92.0352ZM64.2324 88.6035V89.9023H59.9941V88.6035H64.2324ZM61.1289 86.7852H62.9404V93.8672C62.9404 94.0859 62.9701 94.2546 63.0293 94.373C63.0885 94.4915 63.1774 94.5713 63.2959 94.6123C63.4144 94.6533 63.5557 94.6738 63.7197 94.6738C63.8382 94.6738 63.9476 94.667 64.0479 94.6533C64.1481 94.6396 64.2324 94.626 64.3008 94.6123L64.3076 95.9658C64.1572 96.016 63.9863 96.057 63.7949 96.0889C63.6081 96.1208 63.3962 96.1367 63.1592 96.1367C62.7536 96.1367 62.3981 96.0684 62.0928 95.9316C61.7874 95.7904 61.5505 95.5648 61.3818 95.2549C61.2132 94.9404 61.1289 94.5257 61.1289 94.0107V86.7852ZM69.5098 94.4277V91.0166C69.5098 90.766 69.4665 90.5495 69.3799 90.3672C69.2933 90.1849 69.1611 90.0436 68.9834 89.9434C68.8057 89.8431 68.5801 89.793 68.3066 89.793C68.0651 89.793 67.8532 89.834 67.6709 89.916C67.4932 89.998 67.3564 90.1143 67.2607 90.2646C67.165 90.4105 67.1172 90.5791 67.1172 90.7705H65.3057C65.3057 90.4652 65.3786 90.1758 65.5244 89.9023C65.6702 89.6243 65.8776 89.3783 66.1465 89.1641C66.4199 88.9453 66.7458 88.7744 67.124 88.6514C67.5068 88.5283 67.9352 88.4668 68.4092 88.4668C68.9697 88.4668 69.4688 88.5625 69.9062 88.7539C70.3483 88.9408 70.6947 89.2233 70.9453 89.6016C71.2005 89.9798 71.3281 90.4561 71.3281 91.0303V94.2568C71.3281 94.626 71.3509 94.9427 71.3965 95.207C71.4466 95.4668 71.5195 95.6924 71.6152 95.8838V96H69.7764C69.6898 95.8132 69.6237 95.5762 69.5781 95.2891C69.5326 94.9974 69.5098 94.7103 69.5098 94.4277ZM69.7627 91.4951L69.7764 92.5684H68.6348C68.3522 92.5684 68.1038 92.598 67.8896 92.6572C67.6755 92.7119 67.5 92.7939 67.3633 92.9033C67.2266 93.0081 67.124 93.1357 67.0557 93.2861C66.9873 93.432 66.9531 93.5983 66.9531 93.7852C66.9531 93.9674 66.9941 94.1315 67.0762 94.2773C67.1628 94.4232 67.2858 94.5394 67.4453 94.626C67.6094 94.708 67.8008 94.749 68.0195 94.749C68.3385 94.749 68.6165 94.6852 68.8535 94.5576C69.0905 94.4255 69.2751 94.266 69.4072 94.0791C69.5394 93.8923 69.61 93.7145 69.6191 93.5459L70.1387 94.3252C70.0749 94.512 69.9792 94.7103 69.8516 94.9199C69.724 95.1296 69.5599 95.3255 69.3594 95.5078C69.1589 95.6901 68.9173 95.8405 68.6348 95.959C68.3522 96.0775 68.0241 96.1367 67.6504 96.1367C67.1719 96.1367 66.7435 96.041 66.3652 95.8496C65.987 95.6582 65.6885 95.3962 65.4697 95.0635C65.251 94.7308 65.1416 94.3525 65.1416 93.9287C65.1416 93.5368 65.2145 93.1904 65.3604 92.8896C65.5062 92.5889 65.7227 92.3359 66.0098 92.1309C66.2969 91.9212 66.6523 91.764 67.0762 91.6592C67.5046 91.5498 67.9945 91.4951 68.5459 91.4951H69.7627ZM74.7598 85.4932V96H72.9551V85.4932H74.7598ZM79.3945 88.6035L76.1748 92.2197L74.4316 93.9902L73.8574 92.5889L75.2041 90.8936L77.2139 88.6035H79.3945ZM77.5488 96L75.2588 92.5547L76.4619 91.3857L79.6406 96H77.5488ZM83.5371 96.1367C82.9766 96.1367 82.473 96.0456 82.0264 95.8633C81.5798 95.681 81.1992 95.4281 80.8848 95.1045C80.5749 94.7764 80.3356 94.3958 80.167 93.9629C80.0029 93.5254 79.9209 93.056 79.9209 92.5547V92.2812C79.9209 91.7116 80.0029 91.1943 80.167 90.7295C80.3311 90.2601 80.5635 89.8568 80.8643 89.5195C81.165 89.1823 81.5251 88.9225 81.9443 88.7402C82.3636 88.5579 82.8262 88.4668 83.332 88.4668C83.8561 88.4668 84.3187 88.5557 84.7197 88.7334C85.1208 88.9066 85.4557 89.1527 85.7246 89.4717C85.9935 89.7907 86.1963 90.1735 86.333 90.6201C86.4697 91.0622 86.5381 91.5521 86.5381 92.0898V92.8486H80.7412V91.6045H84.7607V91.4678C84.7516 91.1807 84.6969 90.9186 84.5967 90.6816C84.4964 90.4401 84.3415 90.2487 84.1318 90.1074C83.9222 89.9616 83.651 89.8887 83.3184 89.8887C83.0495 89.8887 82.8148 89.9479 82.6143 90.0664C82.4183 90.1803 82.2542 90.3444 82.1221 90.5586C81.9945 90.7682 81.8988 91.0189 81.835 91.3105C81.7712 91.6022 81.7393 91.9258 81.7393 92.2812V92.5547C81.7393 92.8646 81.7803 93.1517 81.8623 93.416C81.9489 93.6803 82.0742 93.9105 82.2383 94.1064C82.4069 94.2979 82.6074 94.4482 82.8398 94.5576C83.0768 94.6624 83.3457 94.7148 83.6465 94.7148C84.0247 94.7148 84.3665 94.6419 84.6719 94.4961C84.9818 94.3457 85.2507 94.1247 85.4785 93.833L86.3877 94.7764C86.2327 95.0042 86.0231 95.223 85.7588 95.4326C85.499 95.6423 85.1846 95.8132 84.8154 95.9453C84.4463 96.0729 84.0202 96.1367 83.5371 96.1367Z" fill="white"/>
<path d="M74.1221 66.4601L74.1375 66.4513L74.1523 66.4414C74.3986 66.2772 74.7689 66.0043 75.0501 65.5387L78.475 60.1651V69.0254C78.475 70.4818 77.2663 71.7504 75.75 71.7504H46.35C44.8337 71.7504 43.625 70.4818 43.625 69.0254V34.0004C43.625 32.4765 44.8261 31.2754 46.35 31.2754H46.6V34.4504C46.6 36.0015 47.7989 37.2004 49.35 37.2004H72.675C74.2261 37.2004 75.425 36.0015 75.425 34.4504V31.2754H75.675C77.1989 31.2754 78.4 32.4765 78.4 34.0004V36.4799C75.7948 40.5793 74.4863 42.6853 73.8418 43.7237C73.6076 43.506 73.2994 43.4004 72.975 43.4004H47.625C47.2864 43.4004 46.9653 43.5154 46.7277 43.7531C46.4901 43.9907 46.375 44.3118 46.375 44.6504C46.375 44.989 46.4901 45.3101 46.7277 45.5477C46.9653 45.7853 47.2864 45.9004 47.625 45.9004H72.6194C71.6458 47.3654 69.3511 50.828 64.4615 58.6935C64.2154 59.0256 64.0097 59.4146 64.0003 59.9147L63 67.4169C62.9564 67.3496 62.9055 67.2863 62.8473 67.2281C62.6097 66.9904 62.2886 66.8754 61.95 66.8754H47.625C47.2864 66.8754 46.9653 66.9904 46.7277 67.2281C46.4901 67.4657 46.375 67.7868 46.375 68.1254C46.375 68.464 46.4901 68.785 46.7277 69.0227C46.9653 69.2603 47.2864 69.3754 47.625 69.3754H61.95C62.2886 69.3754 62.6097 69.2603 62.8473 69.0227C62.9063 68.9637 62.9577 68.8996 63.0017 68.8313C63.1675 69.4544 63.5695 70.0119 64.1383 70.41L64.1382 70.4101L64.1476 70.4164C64.9667 70.9624 66.0722 71.0622 67.0019 70.5074L74.1221 66.4601ZM68.25 37.5504H47.625C47.0069 37.5504 46.375 38.0423 46.375 38.8004C46.375 39.139 46.4901 39.4601 46.7277 39.6977C46.9653 39.9353 47.2864 40.0504 47.625 40.0504H68.25C68.5886 40.0504 68.9097 39.9353 69.1473 39.6977C69.3849 39.4601 69.5 39.139 69.5 38.8004C69.5 38.4618 69.3849 38.1407 69.1473 37.9031C68.9097 37.6654 68.5886 37.5504 68.25 37.5504ZM67.425 49.2504H47.625C47.0069 49.2504 46.375 49.7423 46.375 50.5004C46.375 50.839 46.4901 51.1601 46.7277 51.3977C46.9653 51.6353 47.2864 51.7504 47.625 51.7504H67.425C67.7636 51.7504 68.0847 51.6353 68.3223 51.3977C68.5599 51.1601 68.675 50.839 68.675 50.5004C68.675 50.1618 68.5599 49.8407 68.3223 49.6031C68.0847 49.3654 67.7636 49.2504 67.425 49.2504ZM64.125 55.1004H47.625C47.0069 55.1004 46.375 55.5923 46.375 56.3504C46.375 56.689 46.4901 57.0101 46.7277 57.2477C46.9653 57.4853 47.2864 57.6004 47.625 57.6004H64.125C64.4636 57.6004 64.7847 57.4853 65.0223 57.2477C65.2599 57.0101 65.375 56.689 65.375 56.3504C65.375 56.0118 65.2599 55.6907 65.0223 55.4531C64.7847 55.2154 64.4636 55.1004 64.125 55.1004ZM47.625 63.5254H61.95C62.2886 63.5254 62.6097 63.4103 62.8473 63.1727C63.0849 62.9351 63.2 62.614 63.2 62.2754C63.2 61.9368 63.0849 61.6157 62.8473 61.3781C62.6097 61.1404 62.2886 61.0254 61.95 61.0254H47.625C47.2864 61.0254 46.9653 61.1404 46.7277 61.3781C46.4901 61.6157 46.375 61.9368 46.375 62.2754C46.375 62.614 46.4901 62.9351 46.7277 63.1727C46.9653 63.4103 47.2864 63.5254 47.625 63.5254Z" stroke="white"/>
<path d="M61.0516 30.0992C61.7143 30.0992 62.2516 29.562 62.2516 28.8992C62.2516 28.2365 61.7143 27.6992 61.0516 27.6992C60.3888 27.6992 59.8516 28.2365 59.8516 28.8992C59.8516 29.562 60.3888 30.0992 61.0516 30.0992Z" fill="white"/>
<path d="M68.7839 27.9324L68.9243 28.2H69.2266H72.7516C72.8295 28.2 72.8871 28.2298 72.9298 28.2755C72.9771 28.3262 73.0016 28.3927 73.0016 28.45V34.375C73.0016 34.4323 72.9771 34.4988 72.9298 34.5495C72.8871 34.5952 72.8295 34.625 72.7516 34.625H49.3516C49.3267 34.625 49.2599 34.6075 49.1895 34.5371C49.119 34.4666 49.1016 34.3999 49.1016 34.375V28.45C49.1016 28.3927 49.126 28.3262 49.1733 28.2755C49.216 28.2298 49.2737 28.2 49.3516 28.2H52.8016H53.1038L53.2443 27.9324C54.7363 25.0904 57.6447 23.25 60.9016 23.25H61.1266C64.3834 23.25 67.2918 25.0904 68.7839 27.9324ZM66.4266 60.1524C66.4267 60.1473 66.4268 60.1425 66.4269 60.1379L79.0562 40.2395L85.5622 44.3555L73.0473 64.189C73.0346 64.1978 73.0193 64.2081 72.9992 64.2215C72.9729 64.239 72.936 64.2635 72.9004 64.2894C72.8811 64.3035 72.8578 64.321 72.8331 64.3417L65.7674 68.358C65.5894 68.4437 65.4912 68.4088 65.4539 68.384L65.1766 68.8L65.4539 68.384C65.4241 68.3641 65.3926 68.3286 65.3736 68.2843C65.3557 68.2425 65.3534 68.2043 65.3616 68.1713L65.3685 68.144L65.3722 68.1161L66.4222 60.2411L66.4266 60.2082V60.175C66.4266 60.1664 66.4266 60.1591 66.4266 60.1524ZM64.2516 28.9C64.2516 27.1239 62.8277 25.7 61.0516 25.7C59.2754 25.7 57.8516 27.1239 57.8516 28.9C57.8516 30.6761 59.2754 32.1 61.0516 32.1C62.8277 32.1 64.2516 30.6761 64.2516 28.9ZM86.9855 31.3287L87.871 29.9223C88.4725 29.0255 89.5979 28.7909 90.4943 29.3287C91.3777 29.8588 91.6804 30.9703 91.0777 31.9349C91.0776 31.9349 91.0776 31.935 91.0776 31.935L90.1877 33.3482C89.3608 32.3852 88.2346 31.662 86.9855 31.3287Z" stroke="white"/>
<path d="M89.0234 39.6994C90.2984 37.5994 89.6234 34.9744 87.6734 33.6994C85.7234 32.4244 83.0234 32.9494 81.6734 35.0494L79.6484 38.2744L86.9984 42.9244L88.0484 41.1994C88.7234 41.9494 88.9484 42.9994 88.5734 43.8994C88.4234 44.3494 88.7984 43.6744 82.5734 53.5744C82.3484 53.9494 82.4234 54.3994 82.7984 54.6244C83.0984 54.8494 83.6234 54.7744 83.8484 54.3994C89.9984 44.6494 89.6984 45.1744 89.9234 44.7244C90.6734 43.0744 90.2234 41.1244 88.9484 39.9244L89.0234 39.6994Z" fill="white"/>
<defs>
<filter id="filter0_d_3383_6279" x="0" y="0" width="136" height="120" filterUnits="userSpaceOnUse" color-interpolation-filters="sRGB">
<feFlood flood-opacity="0" result="BackgroundImageFix"/>
<feColorMatrix in="SourceAlpha" type="matrix" values="0 0 0 0 0 0 0 0 0 0 0 0 0 0 0 0 0 0 127 0" result="hardAlpha"/>
<feOffset dy="4"/>
<feGaussianBlur stdDeviation="2"/>
<feComposite in2="hardAlpha" operator="out"/>
<feColorMatrix type="matrix" values="0 0 0 0 0 0 0 0 0 0 0 0 0 0 0 0 0 0 0.25 0"/>
<feBlend mode="normal" in2="BackgroundImageFix" result="effect1_dropShadow_3383_6279"/>
<feBlend mode="normal" in="SourceGraphic" in2="effect1_dropShadow_3383_6279" result="shape"/>
</filter>
</defs>
</svg>
