<svg width="58" height="38" viewBox="0 0 58 38" fill="none" xmlns="http://www.w3.org/2000/svg">
<path d="M3.45703 28.5205L1.10352 35H0.141602L2.85156 27.8906H3.47168L3.45703 28.5205ZM5.42969 35L3.07129 28.5205L3.05664 27.8906H3.67676L6.39648 35H5.42969ZM5.30762 32.3682V33.1396H1.31348V32.3682H5.30762ZM8.11523 30.7324V37.0312H7.20703V29.7168H8.03711L8.11523 30.7324ZM11.6748 32.3145V32.417C11.6748 32.8011 11.6292 33.1576 11.5381 33.4863C11.4469 33.8118 11.3135 34.0951 11.1377 34.3359C10.9652 34.5768 10.752 34.764 10.498 34.8975C10.2441 35.0309 9.9528 35.0977 9.62402 35.0977C9.28874 35.0977 8.99251 35.0423 8.73535 34.9316C8.47819 34.821 8.26009 34.6598 8.08105 34.4482C7.90202 34.2367 7.75879 33.9827 7.65137 33.6865C7.5472 33.3903 7.47559 33.0566 7.43652 32.6855V32.1387C7.47559 31.748 7.54883 31.3981 7.65625 31.0889C7.76367 30.7796 7.90527 30.516 8.08105 30.2979C8.26009 30.0765 8.47656 29.9089 8.73047 29.7949C8.98438 29.6777 9.27734 29.6191 9.60938 29.6191C9.94141 29.6191 10.236 29.6842 10.4932 29.8145C10.7503 29.9414 10.9668 30.1237 11.1426 30.3613C11.3184 30.599 11.4502 30.8838 11.5381 31.2158C11.6292 31.5446 11.6748 31.9108 11.6748 32.3145ZM10.7666 32.417V32.3145C10.7666 32.0508 10.7389 31.8034 10.6836 31.5723C10.6283 31.3379 10.542 31.1328 10.4248 30.957C10.3109 30.778 10.1644 30.638 9.98535 30.5371C9.80632 30.4329 9.5931 30.3809 9.3457 30.3809C9.11784 30.3809 8.91927 30.4199 8.75 30.498C8.58398 30.5762 8.44238 30.682 8.3252 30.8154C8.20801 30.9456 8.11198 31.0954 8.03711 31.2646C7.96549 31.4307 7.91178 31.6032 7.87598 31.7822V33.0469C7.94108 33.2747 8.03223 33.4896 8.14941 33.6914C8.2666 33.89 8.42285 34.0511 8.61816 34.1748C8.81348 34.2952 9.05924 34.3555 9.35547 34.3555C9.59961 34.3555 9.80957 34.305 9.98535 34.2041C10.1644 34.0999 10.3109 33.9583 10.4248 33.7793C10.542 33.6003 10.6283 33.3952 10.6836 33.1641C10.7389 32.9297 10.7666 32.6807 10.7666 32.417ZM13.7305 30.7324V37.0312H12.8223V29.7168H13.6523L13.7305 30.7324ZM17.29 32.3145V32.417C17.29 32.8011 17.2445 33.1576 17.1533 33.4863C17.0622 33.8118 16.9287 34.0951 16.7529 34.3359C16.5804 34.5768 16.3672 34.764 16.1133 34.8975C15.8594 35.0309 15.568 35.0977 15.2393 35.0977C14.904 35.0977 14.6077 35.0423 14.3506 34.9316C14.0934 34.821 13.8753 34.6598 13.6963 34.4482C13.5173 34.2367 13.374 33.9827 13.2666 33.6865C13.1624 33.3903 13.0908 33.0566 13.0518 32.6855V32.1387C13.0908 31.748 13.1641 31.3981 13.2715 31.0889C13.3789 30.7796 13.5205 30.516 13.6963 30.2979C13.8753 30.0765 14.0918 29.9089 14.3457 29.7949C14.5996 29.6777 14.8926 29.6191 15.2246 29.6191C15.5566 29.6191 15.8512 29.6842 16.1084 29.8145C16.3656 29.9414 16.582 30.1237 16.7578 30.3613C16.9336 30.599 17.0654 30.8838 17.1533 31.2158C17.2445 31.5446 17.29 31.9108 17.29 32.3145ZM16.3818 32.417V32.3145C16.3818 32.0508 16.3542 31.8034 16.2988 31.5723C16.2435 31.3379 16.1572 31.1328 16.04 30.957C15.9261 30.778 15.7796 30.638 15.6006 30.5371C15.4215 30.4329 15.2083 30.3809 14.9609 30.3809C14.7331 30.3809 14.5345 30.4199 14.3652 30.498C14.1992 30.5762 14.0576 30.682 13.9404 30.8154C13.8232 30.9456 13.7272 31.0954 13.6523 31.2646C13.5807 31.4307 13.527 31.6032 13.4912 31.7822V33.0469C13.5563 33.2747 13.6475 33.4896 13.7646 33.6914C13.8818 33.89 14.0381 34.0511 14.2334 34.1748C14.4287 34.2952 14.6745 34.3555 14.9707 34.3555C15.2148 34.3555 15.4248 34.305 15.6006 34.2041C15.7796 34.0999 15.9261 33.9583 16.04 33.7793C16.1572 33.6003 16.2435 33.3952 16.2988 33.1641C16.3542 32.9297 16.3818 32.6807 16.3818 32.417ZM18.2031 32.417V32.3047C18.2031 31.9238 18.2585 31.5706 18.3691 31.2451C18.4798 30.9163 18.6393 30.6315 18.8477 30.3906C19.056 30.1465 19.3083 29.9577 19.6045 29.8242C19.9007 29.6875 20.2327 29.6191 20.6006 29.6191C20.9717 29.6191 21.3053 29.6875 21.6016 29.8242C21.901 29.9577 22.1549 30.1465 22.3633 30.3906C22.5749 30.6315 22.736 30.9163 22.8467 31.2451C22.9574 31.5706 23.0127 31.9238 23.0127 32.3047V32.417C23.0127 32.7979 22.9574 33.151 22.8467 33.4766C22.736 33.8021 22.5749 34.0869 22.3633 34.3311C22.1549 34.5719 21.9027 34.7607 21.6064 34.8975C21.3135 35.0309 20.9814 35.0977 20.6104 35.0977C20.2393 35.0977 19.9056 35.0309 19.6094 34.8975C19.3132 34.7607 19.0592 34.5719 18.8477 34.3311C18.6393 34.0869 18.4798 33.8021 18.3691 33.4766C18.2585 33.151 18.2031 32.7979 18.2031 32.417ZM19.1064 32.3047V32.417C19.1064 32.6807 19.1374 32.9297 19.1992 33.1641C19.2611 33.3952 19.3538 33.6003 19.4775 33.7793C19.6045 33.9583 19.7624 34.0999 19.9512 34.2041C20.14 34.305 20.3597 34.3555 20.6104 34.3555C20.8577 34.3555 21.0742 34.305 21.2598 34.2041C21.4486 34.0999 21.6048 33.9583 21.7285 33.7793C21.8522 33.6003 21.945 33.3952 22.0068 33.1641C22.0719 32.9297 22.1045 32.6807 22.1045 32.417V32.3047C22.1045 32.0443 22.0719 31.7985 22.0068 31.5674C21.945 31.333 21.8506 31.1263 21.7236 30.9473C21.5999 30.765 21.4437 30.6217 21.2549 30.5176C21.0693 30.4134 20.8512 30.3613 20.6006 30.3613C20.3532 30.3613 20.1351 30.4134 19.9463 30.5176C19.7607 30.6217 19.6045 30.765 19.4775 30.9473C19.3538 31.1263 19.2611 31.333 19.1992 31.5674C19.1374 31.7985 19.1064 32.0443 19.1064 32.3047ZM25.127 29.7168V35H24.2188V29.7168H25.127ZM24.1504 28.3154C24.1504 28.1689 24.1943 28.0452 24.2822 27.9443C24.3734 27.8434 24.5068 27.793 24.6826 27.793C24.8551 27.793 24.987 27.8434 25.0781 27.9443C25.1725 28.0452 25.2197 28.1689 25.2197 28.3154C25.2197 28.4554 25.1725 28.5758 25.0781 28.6768C24.987 28.7744 24.8551 28.8232 24.6826 28.8232C24.5068 28.8232 24.3734 28.7744 24.2822 28.6768C24.1943 28.5758 24.1504 28.4554 24.1504 28.3154ZM27.4805 30.8447V35H26.5771V29.7168H27.4316L27.4805 30.8447ZM27.2656 32.1582L26.8896 32.1436C26.8929 31.7822 26.9466 31.4486 27.0508 31.1426C27.1549 30.8333 27.3014 30.5648 27.4902 30.3369C27.679 30.109 27.9036 29.9333 28.1641 29.8096C28.4277 29.6826 28.7191 29.6191 29.0381 29.6191C29.2985 29.6191 29.5329 29.6549 29.7412 29.7266C29.9495 29.7949 30.127 29.9056 30.2734 30.0586C30.4232 30.2116 30.5371 30.4102 30.6152 30.6543C30.6934 30.8952 30.7324 31.1898 30.7324 31.5381V35H29.8242V31.5283C29.8242 31.2516 29.7835 31.0303 29.7021 30.8643C29.6208 30.695 29.502 30.5729 29.3457 30.498C29.1895 30.4199 28.9974 30.3809 28.7695 30.3809C28.5449 30.3809 28.3398 30.4281 28.1543 30.5225C27.972 30.6169 27.8141 30.7471 27.6807 30.9131C27.5505 31.0791 27.4479 31.2695 27.373 31.4844C27.3014 31.696 27.2656 31.9206 27.2656 32.1582ZM34.3164 29.7168V30.4102H31.46V29.7168H34.3164ZM32.4268 28.4326H33.3301V33.6914C33.3301 33.8704 33.3577 34.0055 33.4131 34.0967C33.4684 34.1878 33.54 34.248 33.6279 34.2773C33.7158 34.3066 33.8102 34.3213 33.9111 34.3213C33.986 34.3213 34.0641 34.3148 34.1455 34.3018C34.2301 34.2855 34.2936 34.2725 34.3359 34.2627L34.3408 35C34.2692 35.0228 34.1748 35.0439 34.0576 35.0635C33.9437 35.0863 33.8053 35.0977 33.6426 35.0977C33.4212 35.0977 33.2178 35.0537 33.0322 34.9658C32.8467 34.8779 32.6986 34.7314 32.5879 34.5264C32.4805 34.318 32.4268 34.0381 32.4268 33.6865V28.4326ZM36.2744 30.7666V35H35.3662V29.7168H36.2256L36.2744 30.7666ZM36.0889 32.1582L35.6689 32.1436C35.6722 31.7822 35.7194 31.4486 35.8105 31.1426C35.9017 30.8333 36.0368 30.5648 36.2158 30.3369C36.3949 30.109 36.6178 29.9333 36.8848 29.8096C37.1517 29.6826 37.4609 29.6191 37.8125 29.6191C38.0599 29.6191 38.2878 29.6549 38.4961 29.7266C38.7044 29.7949 38.8851 29.904 39.0381 30.0537C39.1911 30.2035 39.3099 30.3955 39.3945 30.6299C39.4792 30.8643 39.5215 31.1475 39.5215 31.4795V35H38.6182V31.5234C38.6182 31.2467 38.571 31.0254 38.4766 30.8594C38.3854 30.6934 38.2552 30.5729 38.0859 30.498C37.9167 30.4199 37.7181 30.3809 37.4902 30.3809C37.2233 30.3809 37.0003 30.4281 36.8213 30.5225C36.6423 30.6169 36.499 30.7471 36.3916 30.9131C36.2842 31.0791 36.2061 31.2695 36.1572 31.4844C36.1117 31.696 36.0889 31.9206 36.0889 32.1582ZM39.5117 31.6602L38.9062 31.8457C38.9095 31.556 38.9567 31.2777 39.0479 31.0107C39.1423 30.7438 39.2773 30.5062 39.4531 30.2979C39.6322 30.0895 39.8519 29.9251 40.1123 29.8047C40.3727 29.681 40.6706 29.6191 41.0059 29.6191C41.2891 29.6191 41.5397 29.6566 41.7578 29.7314C41.9792 29.8063 42.1647 29.9219 42.3145 30.0781C42.4674 30.2311 42.583 30.4281 42.6611 30.6689C42.7393 30.9098 42.7783 31.1963 42.7783 31.5283V35H41.8701V31.5186C41.8701 31.2223 41.8229 30.9928 41.7285 30.8301C41.6374 30.6641 41.5072 30.5485 41.3379 30.4834C41.1719 30.415 40.9733 30.3809 40.7422 30.3809C40.5436 30.3809 40.3678 30.415 40.2148 30.4834C40.0618 30.5518 39.9333 30.6462 39.8291 30.7666C39.7249 30.8838 39.6452 31.0189 39.5898 31.1719C39.5378 31.3249 39.5117 31.4876 39.5117 31.6602ZM46.3379 35.0977C45.9701 35.0977 45.6364 35.0358 45.3369 34.9121C45.0407 34.7852 44.7852 34.6077 44.5703 34.3799C44.3587 34.152 44.196 33.8818 44.082 33.5693C43.9681 33.2568 43.9111 32.915 43.9111 32.5439V32.3389C43.9111 31.9092 43.9746 31.5267 44.1016 31.1914C44.2285 30.8529 44.401 30.5664 44.6191 30.332C44.8372 30.0977 45.0846 29.9202 45.3613 29.7998C45.638 29.6794 45.9245 29.6191 46.2207 29.6191C46.5983 29.6191 46.9238 29.6842 47.1973 29.8145C47.474 29.9447 47.7002 30.127 47.876 30.3613C48.0518 30.5924 48.182 30.8659 48.2666 31.1816C48.3512 31.4941 48.3936 31.8359 48.3936 32.207V32.6123H44.4482V31.875H47.4902V31.8066C47.4772 31.5723 47.4284 31.3444 47.3438 31.123C47.2624 30.9017 47.1322 30.7194 46.9531 30.5762C46.7741 30.4329 46.5299 30.3613 46.2207 30.3613C46.0156 30.3613 45.8268 30.4053 45.6543 30.4932C45.4818 30.5778 45.3337 30.7048 45.21 30.874C45.0863 31.0433 44.9902 31.25 44.9219 31.4941C44.8535 31.7383 44.8193 32.0199 44.8193 32.3389V32.5439C44.8193 32.7946 44.8535 33.0306 44.9219 33.252C44.9935 33.4701 45.096 33.6621 45.2295 33.8281C45.3662 33.9941 45.5306 34.1243 45.7227 34.2188C45.918 34.3132 46.1393 34.3604 46.3867 34.3604C46.7057 34.3604 46.9759 34.2952 47.1973 34.165C47.4186 34.0348 47.6123 33.8607 47.7783 33.6426L48.3252 34.0771C48.2113 34.2497 48.0664 34.4141 47.8906 34.5703C47.7148 34.7266 47.4984 34.8535 47.2412 34.9512C46.9873 35.0488 46.6862 35.0977 46.3379 35.0977ZM50.3516 30.8447V35H49.4482V29.7168H50.3027L50.3516 30.8447ZM50.1367 32.1582L49.7607 32.1436C49.764 31.7822 49.8177 31.4486 49.9219 31.1426C50.026 30.8333 50.1725 30.5648 50.3613 30.3369C50.5501 30.109 50.7747 29.9333 51.0352 29.8096C51.2988 29.6826 51.5902 29.6191 51.9092 29.6191C52.1696 29.6191 52.404 29.6549 52.6123 29.7266C52.8206 29.7949 52.998 29.9056 53.1445 30.0586C53.2943 30.2116 53.4082 30.4102 53.4863 30.6543C53.5645 30.8952 53.6035 31.1898 53.6035 31.5381V35H52.6953V31.5283C52.6953 31.2516 52.6546 31.0303 52.5732 30.8643C52.4919 30.695 52.373 30.5729 52.2168 30.498C52.0605 30.4199 51.8685 30.3809 51.6406 30.3809C51.416 30.3809 51.2109 30.4281 51.0254 30.5225C50.8431 30.6169 50.6852 30.7471 50.5518 30.9131C50.4215 31.0791 50.319 31.2695 50.2441 31.4844C50.1725 31.696 50.1367 31.9206 50.1367 32.1582ZM57.1875 29.7168V30.4102H54.3311V29.7168H57.1875ZM55.2979 28.4326H56.2012V33.6914C56.2012 33.8704 56.2288 34.0055 56.2842 34.0967C56.3395 34.1878 56.4111 34.248 56.499 34.2773C56.5869 34.3066 56.6813 34.3213 56.7822 34.3213C56.8571 34.3213 56.9352 34.3148 57.0166 34.3018C57.1012 34.2855 57.1647 34.2725 57.207 34.2627L57.2119 35C57.1403 35.0228 57.0459 35.0439 56.9287 35.0635C56.8148 35.0863 56.6764 35.0977 56.5137 35.0977C56.2923 35.0977 56.0889 35.0537 55.9033 34.9658C55.7178 34.8779 55.5697 34.7314 55.459 34.5264C55.3516 34.318 55.2979 34.0381 55.2979 33.6865V28.4326Z" fill="#87ABC9"/>
<path fill-rule="evenodd" clip-rule="evenodd" d="M33.5312 2.875H29.2188V2.15625C29.2188 1.7595 28.8968 1.4375 28.5 1.4375C28.1032 1.4375 27.7812 1.7595 27.7812 2.15625V2.875H23.4688V2.15625C23.4688 1.7595 23.1467 1.4375 22.75 1.4375C22.3533 1.4375 22.0312 1.7595 22.0312 2.15625V2.875H20.5938C19.4035 2.875 18.4375 3.841 18.4375 5.03125V19.4062C18.4375 20.5965 19.4035 21.5625 20.5938 21.5625H36.4062C37.5965 21.5625 38.5625 20.5965 38.5625 19.4062V5.03125C38.5625 3.841 37.5965 2.875 36.4062 2.875H34.9688V2.15625C34.9688 1.7595 34.6467 1.4375 34.25 1.4375C33.8532 1.4375 33.5312 1.7595 33.5312 2.15625V2.875ZM37.125 8.625V19.4062C37.125 19.803 36.803 20.125 36.4062 20.125H20.5938C20.197 20.125 19.875 19.803 19.875 19.4062V8.625H37.125ZM23.4688 15.0938C22.6753 15.0938 22.0312 15.7378 22.0312 16.5312C22.0312 17.3247 22.6753 17.9688 23.4688 17.9688C24.2622 17.9688 24.9062 17.3247 24.9062 16.5312C24.9062 15.7378 24.2622 15.0938 23.4688 15.0938ZM28.5 15.0938C27.7065 15.0938 27.0625 15.7378 27.0625 16.5312C27.0625 17.3247 27.7065 17.9688 28.5 17.9688C29.2935 17.9688 29.9375 17.3247 29.9375 16.5312C29.9375 15.7378 29.2935 15.0938 28.5 15.0938ZM23.4688 10.7812C22.6753 10.7812 22.0312 11.4253 22.0312 12.2188C22.0312 13.0122 22.6753 13.6562 23.4688 13.6562C24.2622 13.6562 24.9062 13.0122 24.9062 12.2188C24.9062 11.4253 24.2622 10.7812 23.4688 10.7812ZM28.5 10.7812C27.7065 10.7812 27.0625 11.4253 27.0625 12.2188C27.0625 13.0122 27.7065 13.6562 28.5 13.6562C29.2935 13.6562 29.9375 13.0122 29.9375 12.2188C29.9375 11.4253 29.2935 10.7812 28.5 10.7812ZM33.5312 10.7812C32.7378 10.7812 32.0938 11.4253 32.0938 12.2188C32.0938 13.0122 32.7378 13.6562 33.5312 13.6562C34.3247 13.6562 34.9688 13.0122 34.9688 12.2188C34.9688 11.4253 34.3247 10.7812 33.5312 10.7812ZM34.9688 4.3125H33.5312V5.03125C33.5312 5.428 33.8532 5.75 34.25 5.75C34.6467 5.75 34.9688 5.428 34.9688 5.03125V4.3125ZM29.2188 4.3125H27.7812V5.03125C27.7812 5.428 28.1032 5.75 28.5 5.75C28.8968 5.75 29.2188 5.428 29.2188 5.03125V4.3125ZM23.4688 4.3125H22.0312V5.03125C22.0312 5.428 22.3533 5.75 22.75 5.75C23.1467 5.75 23.4688 5.428 23.4688 5.03125V4.3125Z" fill="#87ABC9"/>
</svg>
