<svg width="45" height="39" viewBox="0 0 45 39" fill="none" xmlns="http://www.w3.org/2000/svg">
<path d="M1.12305 28.8906H2.03613L4.36523 34.6865L6.68945 28.8906H7.60742L4.7168 36H4.00391L1.12305 28.8906ZM0.825195 28.8906H1.63086L1.7627 33.2266V36H0.825195V28.8906ZM7.09473 28.8906H7.90039V36H6.96289V33.2266L7.09473 28.8906ZM10.9033 35.4531L12.373 30.7168H13.3398L11.2207 36.8154C11.1719 36.9456 11.1068 37.0856 11.0254 37.2354C10.9473 37.3883 10.8464 37.5332 10.7227 37.6699C10.599 37.8066 10.4492 37.9173 10.2734 38.002C10.1009 38.0898 9.89421 38.1338 9.65332 38.1338C9.58171 38.1338 9.49056 38.124 9.37988 38.1045C9.26921 38.085 9.19108 38.0687 9.14551 38.0557L9.14062 37.3232C9.16667 37.3265 9.20736 37.3298 9.2627 37.333C9.32129 37.3395 9.36198 37.3428 9.38477 37.3428C9.58984 37.3428 9.764 37.3151 9.90723 37.2598C10.0505 37.2077 10.1709 37.1182 10.2686 36.9912C10.3695 36.8675 10.4557 36.6966 10.5273 36.4785L10.9033 35.4531ZM9.82422 30.7168L11.1963 34.8184L11.4307 35.7705L10.7812 36.1025L8.83789 30.7168H9.82422ZM19.3945 33.2119H17.4951V32.4453H19.3945C19.7624 32.4453 20.0602 32.3867 20.2881 32.2695C20.516 32.1523 20.682 31.9896 20.7861 31.7812C20.8936 31.5729 20.9473 31.3353 20.9473 31.0684C20.9473 30.8242 20.8936 30.5947 20.7861 30.3799C20.682 30.165 20.516 29.9925 20.2881 29.8623C20.0602 29.7288 19.7624 29.6621 19.3945 29.6621H17.7148V36H16.7725V28.8906H19.3945C19.9316 28.8906 20.3857 28.9834 20.7568 29.1689C21.1279 29.3545 21.4095 29.6117 21.6016 29.9404C21.7936 30.266 21.8896 30.6387 21.8896 31.0586C21.8896 31.5143 21.7936 31.9033 21.6016 32.2256C21.4095 32.5479 21.1279 32.7936 20.7568 32.9629C20.3857 33.1289 19.9316 33.2119 19.3945 33.2119ZM23.8477 31.5469V36H22.9443V30.7168H23.8232L23.8477 31.5469ZM25.498 30.6875L25.4932 31.5273C25.4183 31.5111 25.3467 31.5013 25.2783 31.498C25.2132 31.4915 25.1383 31.4883 25.0537 31.4883C24.8454 31.4883 24.6615 31.5208 24.502 31.5859C24.3424 31.651 24.2074 31.7422 24.0967 31.8594C23.986 31.9766 23.8981 32.1165 23.833 32.2793C23.7712 32.4388 23.7305 32.6146 23.7109 32.8066L23.457 32.9531C23.457 32.6341 23.488 32.3346 23.5498 32.0547C23.6149 31.7747 23.7142 31.5273 23.8477 31.3125C23.9811 31.0944 24.1504 30.9251 24.3555 30.8047C24.5638 30.681 24.8112 30.6191 25.0977 30.6191C25.1628 30.6191 25.2376 30.6273 25.3223 30.6436C25.4069 30.6566 25.4655 30.6712 25.498 30.6875ZM25.9961 33.417V33.3047C25.9961 32.9238 26.0514 32.5706 26.1621 32.2451C26.2728 31.9163 26.4323 31.6315 26.6406 31.3906C26.849 31.1465 27.1012 30.9577 27.3975 30.8242C27.6937 30.6875 28.0257 30.6191 28.3936 30.6191C28.7646 30.6191 29.0983 30.6875 29.3945 30.8242C29.694 30.9577 29.9479 31.1465 30.1562 31.3906C30.3678 31.6315 30.529 31.9163 30.6396 32.2451C30.7503 32.5706 30.8057 32.9238 30.8057 33.3047V33.417C30.8057 33.7979 30.7503 34.151 30.6396 34.4766C30.529 34.8021 30.3678 35.0869 30.1562 35.3311C29.9479 35.5719 29.6956 35.7607 29.3994 35.8975C29.1064 36.0309 28.7744 36.0977 28.4033 36.0977C28.0322 36.0977 27.6986 36.0309 27.4023 35.8975C27.1061 35.7607 26.8522 35.5719 26.6406 35.3311C26.4323 35.0869 26.2728 34.8021 26.1621 34.4766C26.0514 34.151 25.9961 33.7979 25.9961 33.417ZM26.8994 33.3047V33.417C26.8994 33.6807 26.9303 33.9297 26.9922 34.1641C27.054 34.3952 27.1468 34.6003 27.2705 34.7793C27.3975 34.9583 27.5553 35.0999 27.7441 35.2041C27.9329 35.305 28.1527 35.3555 28.4033 35.3555C28.6507 35.3555 28.8672 35.305 29.0527 35.2041C29.2415 35.0999 29.3978 34.9583 29.5215 34.7793C29.6452 34.6003 29.738 34.3952 29.7998 34.1641C29.8649 33.9297 29.8975 33.6807 29.8975 33.417V33.3047C29.8975 33.0443 29.8649 32.7985 29.7998 32.5674C29.738 32.333 29.6436 32.1263 29.5166 31.9473C29.3929 31.765 29.2367 31.6217 29.0479 31.5176C28.8623 31.4134 28.6442 31.3613 28.3936 31.3613C28.1462 31.3613 27.9281 31.4134 27.7393 31.5176C27.5537 31.6217 27.3975 31.765 27.2705 31.9473C27.1468 32.1263 27.054 32.333 26.9922 32.5674C26.9303 32.7985 26.8994 33.0443 26.8994 33.3047ZM33.1445 36H32.2412V30.2578C32.2412 29.8574 32.3193 29.5189 32.4756 29.2422C32.6318 28.9655 32.8548 28.7555 33.1445 28.6123C33.4342 28.4691 33.7777 28.3975 34.1748 28.3975C34.4092 28.3975 34.6387 28.4268 34.8633 28.4854C35.0879 28.5407 35.319 28.6107 35.5566 28.6953L35.4053 29.457C35.2555 29.3984 35.0814 29.3431 34.8828 29.291C34.6875 29.2357 34.4727 29.208 34.2383 29.208C33.8509 29.208 33.571 29.2959 33.3984 29.4717C33.2292 29.6442 33.1445 29.9062 33.1445 30.2578V36ZM34.2236 30.7168V31.4102H31.4062V30.7168H34.2236ZM36.001 30.7168V36H35.0977V30.7168H36.001ZM38.4668 28.5V36H37.5586V28.5H38.4668ZM42.1094 36.0977C41.7415 36.0977 41.4079 36.0358 41.1084 35.9121C40.8122 35.7852 40.5566 35.6077 40.3418 35.3799C40.1302 35.152 39.9674 34.8818 39.8535 34.5693C39.7396 34.2568 39.6826 33.915 39.6826 33.5439V33.3389C39.6826 32.9092 39.7461 32.5267 39.873 32.1914C40 31.8529 40.1725 31.5664 40.3906 31.332C40.6087 31.0977 40.8561 30.9202 41.1328 30.7998C41.4095 30.6794 41.696 30.6191 41.9922 30.6191C42.3698 30.6191 42.6953 30.6842 42.9688 30.8145C43.2454 30.9447 43.4717 31.127 43.6475 31.3613C43.8232 31.5924 43.9535 31.8659 44.0381 32.1816C44.1227 32.4941 44.165 32.8359 44.165 33.207V33.6123H40.2197V32.875H43.2617V32.8066C43.2487 32.5723 43.1999 32.3444 43.1152 32.123C43.0339 31.9017 42.9036 31.7194 42.7246 31.5762C42.5456 31.4329 42.3014 31.3613 41.9922 31.3613C41.7871 31.3613 41.5983 31.4053 41.4258 31.4932C41.2533 31.5778 41.1051 31.7048 40.9814 31.874C40.8577 32.0433 40.7617 32.25 40.6934 32.4941C40.625 32.7383 40.5908 33.0199 40.5908 33.3389V33.5439C40.5908 33.7946 40.625 34.0306 40.6934 34.252C40.765 34.4701 40.8675 34.6621 41.001 34.8281C41.1377 34.9941 41.3021 35.1243 41.4941 35.2188C41.6895 35.3132 41.9108 35.3604 42.1582 35.3604C42.4772 35.3604 42.7474 35.2952 42.9688 35.165C43.1901 35.0348 43.3838 34.8607 43.5498 34.6426L44.0967 35.0771C43.9827 35.2497 43.8379 35.4141 43.6621 35.5703C43.4863 35.7266 43.2699 35.8535 43.0127 35.9512C42.7588 36.0488 42.4577 36.0977 42.1094 36.0977Z" fill="#87ABC9"/>
<path d="M22.1637 13.8118C25.7016 13.8118 28.5696 10.9438 28.5696 7.40588C28.5696 3.86801 25.7016 1 22.1637 1C18.6258 1 15.7578 3.86801 15.7578 7.40588C15.7578 10.9438 18.6258 13.8118 22.1637 13.8118Z" stroke="#87ABC9" stroke-linecap="round" stroke-linejoin="round"/>
<path fill-rule="evenodd" clip-rule="evenodd" d="M12 19.9498C11.9983 19.4995 12.099 19.0547 12.2946 18.649C12.9082 17.4218 14.6385 16.7714 16.0743 16.4769C17.1098 16.2559 18.1596 16.1083 19.2159 16.0351C21.1716 15.8633 23.1385 15.8633 25.0941 16.0351C26.1503 16.1091 27.2001 16.2567 28.2358 16.4769C29.6716 16.7714 31.4019 17.3605 32.0155 18.649C32.4087 19.4759 32.4087 20.436 32.0155 21.2629C31.4019 22.5515 29.6716 23.1405 28.2358 23.4228C27.2015 23.6529 26.1513 23.8047 25.0941 23.8768C23.5024 24.0118 21.9032 24.0364 20.3081 23.9505C19.94 23.9505 19.5841 23.9505 19.2159 23.8768C18.1627 23.8056 17.1166 23.6538 16.0866 23.4228C14.6385 23.1405 12.9204 22.5515 12.2946 21.2629C12.1 20.8525 11.9994 20.404 12 19.9498Z" stroke="#87ABC9" stroke-linecap="round" stroke-linejoin="round"/>
</svg>
