<svg width="26" height="26" viewBox="0 0 26 26" fill="none" xmlns="http://www.w3.org/2000/svg">
<path d="M12.9987 2C10.7009 2.00258 8.49805 2.9165 6.87329 4.54126C5.24853 6.16601 4.33461 8.36892 4.33203 10.6667C4.33203 14.1929 6.89195 17.1212 9.60353 20.2206C10.4615 21.2021 11.3499 22.2172 12.1407 23.2442C12.2419 23.3755 12.3719 23.4818 12.5206 23.5549C12.6694 23.6281 12.8329 23.6661 12.9987 23.6661C13.1645 23.6661 13.328 23.6281 13.4768 23.5549C13.6255 23.4818 13.7555 23.3755 13.8567 23.2442C14.6475 22.2172 15.5359 21.2021 16.3939 20.2206C19.1054 17.1212 21.6654 14.1929 21.6654 10.6667C21.6628 8.36892 20.7489 6.16601 19.1241 4.54126C17.4993 2.9165 15.2964 2.00258 12.9987 2ZM12.9987 13.9167C12.3559 13.9167 11.7276 13.7261 11.1931 13.3689C10.6586 13.0118 10.2421 12.5042 9.99609 11.9104C9.7501 11.3165 9.68574 10.6631 9.81115 10.0326C9.93655 9.40218 10.2461 8.82309 10.7006 8.36857C11.1551 7.91405 11.7342 7.60452 12.3647 7.47912C12.9951 7.35371 13.6486 7.41807 14.2424 7.66406C14.8363 7.91004 15.3439 8.3266 15.701 8.86106C16.0581 9.39552 16.2487 10.0239 16.2487 10.6667C16.2487 11.5286 15.9063 12.3553 15.2968 12.9648C14.6873 13.5743 13.8607 13.9167 12.9987 13.9167Z" fill="black"/>
</svg>
