<svg width="24" height="24" viewBox="0 0 24 24" fill="none" xmlns="http://www.w3.org/2000/svg">
<circle cx="12" cy="12" r="12" fill="#E4EEF1"/>
<path d="M12 6C10.6744 6.00149 9.40347 6.52875 8.46611 7.46611C7.52875 8.40347 7.00149 9.67437 7 11C7 13.0344 8.47688 14.7238 10.0413 16.5119C10.5363 17.0781 11.0487 17.6638 11.505 18.2563C11.5634 18.332 11.6384 18.3933 11.7242 18.4355C11.81 18.4777 11.9044 18.4997 12 18.4997C12.0956 18.4997 12.19 18.4777 12.2758 18.4355C12.3616 18.3933 12.4366 18.332 12.495 18.2563C12.9513 17.6638 13.4637 17.0781 13.9587 16.5119C15.5231 14.7238 17 13.0344 17 11C16.9985 9.67437 16.4712 8.40347 15.5339 7.46611C14.5965 6.52875 13.3256 6.00149 12 6ZM12 12.875C11.6292 12.875 11.2666 12.765 10.9583 12.559C10.65 12.353 10.4096 12.0601 10.2677 11.7175C10.1258 11.3749 10.0887 10.9979 10.161 10.6342C10.2334 10.2705 10.412 9.9364 10.6742 9.67418C10.9364 9.41195 11.2705 9.23338 11.6342 9.16103C11.9979 9.08868 12.3749 9.12581 12.7175 9.26773C13.0601 9.40964 13.353 9.64996 13.559 9.95831C13.765 10.2666 13.875 10.6292 13.875 11C13.875 11.4973 13.6775 11.9742 13.3258 12.3258C12.9742 12.6775 12.4973 12.875 12 12.875Z" fill="#274E6D"/>
</svg>
