<svg width="24" height="24" viewBox="0 0 24 24" fill="none" xmlns="http://www.w3.org/2000/svg">
<path d="M21 17.8805C20.6543 17.8808 20.3164 17.7781 20.0293 17.5856L15.584 14.6227C15.4812 14.5543 15.3969 14.4615 15.3386 14.3526C15.2804 14.2437 15.2499 14.1222 15.25 13.9987V9.99867C15.25 9.79976 15.329 9.609 15.4697 9.46834C15.6103 9.32769 15.8011 9.24867 16 9.24867C16.1989 9.24867 16.3897 9.32769 16.5303 9.46834C16.671 9.609 16.75 9.79976 16.75 9.99867V13.5973L20.8613 16.338C20.899 16.3632 20.9427 16.3777 20.988 16.38C21.0332 16.3822 21.0782 16.3721 21.1181 16.3507C21.1581 16.3294 21.1914 16.2975 21.2147 16.2587C21.2379 16.2198 21.2501 16.1753 21.25 16.13V7.86732C21.2501 7.82204 21.2378 7.7776 21.2146 7.73873C21.1914 7.69985 21.158 7.66802 21.1181 7.64661C21.0782 7.62521 21.0333 7.61504 20.988 7.61719C20.9428 7.61935 20.899 7.63374 20.8613 7.65883L18.2129 9.42445C18.131 9.48038 18.0388 9.51949 17.9416 9.53954C17.8445 9.55959 17.7444 9.56018 17.647 9.54126C17.5496 9.52234 17.457 9.4843 17.3744 9.42934C17.2919 9.37438 17.221 9.30358 17.166 9.22105C17.111 9.13853 17.0729 9.04591 17.0539 8.94855C17.0349 8.8512 17.0354 8.75105 17.0554 8.6539C17.0754 8.55675 17.1145 8.46453 17.1703 8.38257C17.2262 8.30062 17.2978 8.23056 17.3809 8.17645L20.0293 6.41127C20.2928 6.23551 20.5991 6.13457 20.9155 6.11924C21.2319 6.10391 21.5465 6.17475 21.8258 6.32421C22.1051 6.47368 22.3386 6.69615 22.5014 6.96791C22.6641 7.23966 22.7501 7.55051 22.75 7.86727V16.13C22.75 16.5941 22.5656 17.0393 22.2374 17.3676C21.9093 17.6958 21.4642 17.8803 21 17.8805Z" fill="#7FBDE7"/>
<path d="M14 19.75H4C3.27088 19.7493 2.57184 19.4593 2.05628 18.9437C1.54071 18.4282 1.25074 17.7291 1.25 17V7C1.25074 6.27088 1.54071 5.57184 2.05628 5.05627C2.57184 4.54071 3.27088 4.25074 4 4.25H14C14.7291 4.25074 15.4282 4.54071 15.9437 5.05627C16.4593 5.57184 16.7493 6.27088 16.75 7V17C16.7493 17.7291 16.4593 18.4282 15.9437 18.9437C15.4282 19.4593 14.7291 19.7493 14 19.75ZM4 5.75C3.66857 5.75031 3.35081 5.8821 3.11646 6.11646C2.8821 6.35081 2.75031 6.66857 2.75 7V17C2.75031 17.3314 2.8821 17.6492 3.11646 17.8835C3.35081 18.1179 3.66857 18.2497 4 18.25H14C14.3314 18.2497 14.6492 18.1179 14.8835 17.8835C15.1179 17.6492 15.2497 17.3314 15.25 17V7C15.2497 6.66857 15.1179 6.35081 14.8835 6.11646C14.6492 5.8821 14.3314 5.75031 14 5.75H4Z" fill="#354764"/>
</svg>
