<svg width="24" height="24" viewBox="0 0 24 24" fill="none" xmlns="http://www.w3.org/2000/svg">
<circle cx="12" cy="12" r="12" fill="#E4EEF1"/>
<path fill-rule="evenodd" clip-rule="evenodd" d="M10.0445 8.50057L10.2797 8.50087C10.3199 8.50093 10.3605 8.50099 10.4016 8.50105L10.6515 8.50145C11.1999 8.50239 11.784 8.50367 12.2292 8.5046L12.4242 8.505C12.4548 8.50506 12.4845 8.50512 12.5131 8.50517C13.6381 8.42617 14.6536 9.26117 14.7441 10.3817C14.7449 10.3932 14.7456 10.4584 14.7463 10.577L15.7842 9.72702C16.0862 9.47952 16.4927 9.43102 16.8452 9.59752C17.1977 9.76502 17.4167 10.111 17.4162 10.501L17.4102 14.1755C17.4097 14.5655 17.1902 14.9115 16.8382 15.0775C16.7002 15.143 16.5542 15.1745 16.4092 15.1745C16.1837 15.1745 15.9612 15.097 15.7777 14.9465L14.7486 14.0926C14.7486 14.1071 14.7486 14.1216 14.7486 14.1362C14.7696 14.6642 14.5816 15.1727 14.2186 15.5677C13.8371 15.9832 13.3111 16.2247 12.7381 16.2482C12.7283 16.2489 12.6736 16.2493 12.5837 16.2496L12.3862 16.25C12.3091 16.25 12.2216 16.25 12.1257 16.25L11.7027 16.2496C11.6646 16.2495 11.6259 16.2495 11.5866 16.2494L11.3454 16.2491C10.7707 16.2481 10.1234 16.2466 9.62152 16.2455L9.41597 16.245C9.35085 16.2449 9.28933 16.2448 9.23205 16.2447C9.17905 16.2487 9.12605 16.2507 9.07305 16.2507C8.01605 16.2512 7.09405 15.4412 7.00705 14.3787L7.00698 14.3776L7.00651 14.3677C7.00647 14.3666 7.00644 14.3654 7.0064 14.3641L7.00606 14.3484C7.00602 14.3461 7.00598 14.3437 7.00594 14.3411L7.00556 14.312C7.00552 14.3081 7.00547 14.3039 7.00543 14.2995L7.00503 14.2522C7.00498 14.2461 7.00494 14.2397 7.00489 14.2329L7.00462 14.1882C7.00458 14.1801 7.00453 14.1716 7.00448 14.1627L7.00408 14.0722C7.00403 14.0609 7.00399 14.0492 7.00395 14.0371L7.00355 13.9153C7.00351 13.9003 7.00347 13.8849 7.00343 13.8689L7.00307 13.7111C7.00303 13.692 7.00299 13.6722 7.00295 13.6519L7.00253 13.3797C7.0025 13.3546 7.00247 13.3288 7.00244 13.3023L7.00205 12.854C7.00203 12.8205 7.00201 12.7863 7.00199 12.7514L7.00198 10.7924C7.00201 10.733 7.00203 10.6726 7.00205 10.6112C6.97805 10.0957 7.16505 9.58367 7.53005 9.18517C7.91105 8.76917 8.43655 8.52667 9.01005 8.50217C9.01778 8.50162 9.05432 8.5012 9.1146 8.50089L9.22217 8.50052C9.24286 8.50047 9.26487 8.50043 9.28812 8.50039L9.93217 8.50045C9.96896 8.50048 10.0064 8.50052 10.0445 8.50057ZM12.5401 9.25417C11.9088 9.25326 11.1369 9.25215 10.4782 9.25143L10.1316 9.25108C10.0763 9.25103 10.0222 9.25098 9.96965 9.25094L9.10011 9.25097C9.06739 9.25112 9.04622 9.25134 9.03805 9.25167C8.66905 9.26717 8.32855 9.42367 8.08305 9.69167C7.85405 9.94217 7.73605 10.2622 7.75155 10.5942L7.75197 12.5257C7.75199 12.5683 7.75201 12.6106 7.75204 12.6526L7.75249 13.2497C7.75253 13.2868 7.75257 13.3233 7.75261 13.3592L7.75287 13.5657C7.75291 13.5986 7.75296 13.6308 7.75301 13.6621L7.7535 13.9196C7.75403 14.1514 7.7547 14.3017 7.75555 14.3307C7.81255 15.0232 8.46155 15.5527 9.20455 15.4957C9.28313 15.4958 9.36386 15.4959 9.44627 15.496L9.69804 15.4964C9.91122 15.4968 10.1318 15.4972 10.3523 15.4975L10.6163 15.498C10.7478 15.4982 10.8781 15.4984 11.0057 15.4986L11.2566 15.499C11.2976 15.499 11.3382 15.4991 11.3783 15.4992L11.6126 15.4995C11.6505 15.4995 11.6878 15.4996 11.7244 15.4996L12.6071 15.4996C12.6649 15.4994 12.7011 15.4991 12.7121 15.4987C13.0796 15.4837 13.4206 15.3277 13.6661 15.0602C13.8956 14.8107 14.0136 14.4907 13.9991 14.1602L13.9986 14.1519L13.9985 11.7338C13.9985 11.6946 13.9985 11.6558 13.9985 11.6176L13.9981 11.1897C13.998 11.1568 13.998 11.1248 13.998 11.0936L13.9975 10.8369C13.9974 10.7599 13.9972 10.6919 13.997 10.6344L13.9966 10.5339C13.9963 10.4769 13.9959 10.4403 13.9956 10.4277C13.9391 9.73167 13.2871 9.19567 12.5401 9.25417ZM16.2592 10.3075L14.7484 11.5402C14.7484 11.6016 14.7485 11.6655 14.7485 11.7317L14.7488 12.9856L16.2532 14.367C16.3637 14.457 16.4747 14.42 16.5177 14.399C16.5607 14.379 16.6602 14.3165 16.6602 14.1745L16.6662 10.5C16.6667 10.358 16.5667 10.2955 16.5237 10.275C16.4812 10.255 16.3687 10.2175 16.2592 10.3075Z" fill="#274E6D"/>
</svg>
