<svg width="24" height="24" viewBox="0 0 24 24" fill="none" xmlns="http://www.w3.org/2000/svg">
<path d="M21 17.8815C20.6543 17.8817 20.3164 17.7791 20.0293 17.5866L15.584 14.6236C15.4812 14.5552 15.3969 14.4625 15.3386 14.3536C15.2804 14.2447 15.2499 14.1231 15.25 13.9997V9.99965C15.25 9.80074 15.329 9.60997 15.4697 9.46932C15.6103 9.32867 15.8011 9.24965 16 9.24965C16.1989 9.24965 16.3897 9.32867 16.5303 9.46932C16.671 9.60997 16.75 9.80074 16.75 9.99965V13.5983L20.8613 16.339C20.899 16.3642 20.9427 16.3787 20.988 16.381C21.0332 16.3832 21.0782 16.3731 21.1181 16.3517C21.1581 16.3304 21.1914 16.2985 21.2147 16.2596C21.2379 16.2208 21.2501 16.1763 21.25 16.131V7.8683C21.2501 7.82302 21.2378 7.77857 21.2146 7.7397C21.1914 7.70083 21.158 7.66899 21.1181 7.64759C21.0782 7.62619 21.0333 7.61602 20.988 7.61817C20.9428 7.62032 20.899 7.63471 20.8613 7.65981L18.2129 9.42543C18.131 9.48135 18.0388 9.52047 17.9416 9.54052C17.8445 9.56057 17.7444 9.56115 17.647 9.54224C17.5496 9.52332 17.457 9.48528 17.3744 9.43032C17.2919 9.37535 17.221 9.30456 17.166 9.22203C17.111 9.1395 17.0729 9.04688 17.0539 8.94953C17.0349 8.85218 17.0354 8.75203 17.0554 8.65488C17.0754 8.55773 17.1145 8.4655 17.1703 8.38355C17.2262 8.3016 17.2978 8.23154 17.3809 8.17743L20.0293 6.41225C20.2928 6.23648 20.5991 6.13555 20.9155 6.12022C21.2319 6.10488 21.5465 6.17573 21.8258 6.32519C22.1051 6.47465 22.3386 6.69713 22.5014 6.96889C22.6641 7.24064 22.7501 7.55148 22.75 7.86825V16.1309C22.75 16.5951 22.5656 17.0403 22.2374 17.3685C21.9093 17.6968 21.4642 17.8813 21 17.8815Z" fill="#7FBDE7"/>
<path d="M14 19.75H4C3.27088 19.7493 2.57184 19.4593 2.05628 18.9437C1.54071 18.4282 1.25074 17.7291 1.25 17V7C1.25074 6.27088 1.54071 5.57184 2.05628 5.05627C2.57184 4.54071 3.27088 4.25074 4 4.25H14C14.7291 4.25074 15.4282 4.54071 15.9437 5.05627C16.4593 5.57184 16.7493 6.27088 16.75 7V17C16.7493 17.7291 16.4593 18.4282 15.9437 18.9437C15.4282 19.4593 14.7291 19.7493 14 19.75ZM4 5.75C3.66857 5.75031 3.35081 5.8821 3.11646 6.11646C2.8821 6.35081 2.75031 6.66857 2.75 7V17C2.75031 17.3314 2.8821 17.6492 3.11646 17.8835C3.35081 18.1179 3.66857 18.2497 4 18.25H14C14.3314 18.2497 14.6492 18.1179 14.8835 17.8835C15.1179 17.6492 15.2497 17.3314 15.25 17V7C15.2497 6.66857 15.1179 6.35081 14.8835 6.11646C14.6492 5.8821 14.3314 5.75031 14 5.75H4Z" fill="#01728B"/>
</svg>
