<svg width="60" height="60" viewBox="0 0 60 60" fill="none" xmlns="http://www.w3.org/2000/svg">
<rect width="60" height="60" rx="16" fill="#F5F5F5"/>
<path d="M38.25 36.75L22.5 21L38.25 36.75Z" fill="#18273B"/>
<path d="M38.25 36.75L22.5 21" stroke="#18273B" stroke-width="1.5" stroke-miterlimit="10" stroke-linecap="round"/>
<path d="M36.0361 27.0011C36.4397 27.0212 36.75 27.3676 36.75 27.7712V29.2501C36.7506 30.0182 36.6195 30.7806 36.3623 31.5044M36.0361 27.0011C35.9347 26.9962 35.8333 27.0119 35.7382 27.0474C35.6431 27.0828 35.5561 27.1372 35.4826 27.2072C35.4091 27.2773 35.3506 27.3615 35.3106 27.4548C35.2706 27.5482 35.25 27.6486 35.25 27.7501V29.2501C35.2502 29.6174 35.2117 29.9836 35.1352 30.3428C35.1285 30.3735 35.1297 30.4054 35.1384 30.4356C35.1472 30.4658 35.1633 30.4933 35.1853 30.5158M36.0361 27.0011L36.035 27.0245C36.035 27.0245 36.0349 27.0245 36.0349 27.0245M36.0361 27.0011L36.0349 27.0245M35.1853 30.5158L36.2081 31.5381C36.2192 31.5492 36.233 31.5574 36.2481 31.5618C36.2631 31.5662 36.2791 31.5668 36.2945 31.5634C36.3098 31.56 36.3241 31.5529 36.3359 31.5426C36.3478 31.5322 36.3569 31.5191 36.3623 31.5044M35.1853 30.5158L35.2019 30.4992L35.2019 30.4992C35.1827 30.4796 35.1686 30.4555 35.1609 30.4291C35.1533 30.4026 35.1523 30.3747 35.1581 30.3477L35.1581 30.3477C35.235 29.9869 35.2736 29.619 35.2734 29.2501V27.7501C35.2734 27.6518 35.2934 27.5545 35.3322 27.4641C35.3709 27.3737 35.4276 27.2921 35.4988 27.2242C35.57 27.1564 35.6542 27.1037 35.7464 27.0693C35.8385 27.035 35.9367 27.0198 36.0349 27.0245M35.1853 30.5158L35.202 30.4993L36.2247 31.5215L36.2247 31.5215C36.233 31.5299 36.2433 31.536 36.2547 31.5393C36.266 31.5426 36.2779 31.543 36.2895 31.5405C36.301 31.538 36.3117 31.5326 36.3206 31.5249C36.3295 31.5171 36.3363 31.5073 36.3404 31.4962L36.3623 31.5044M36.3623 31.5044L36.3403 31.4965C36.5965 30.7753 36.7272 30.0155 36.7266 29.2502V29.2501V27.7712C36.7266 27.3793 36.4253 27.044 36.0349 27.0245M30 34.5236H29.9999C28.6027 34.5191 27.264 33.9621 26.276 32.9741C25.2881 31.9861 24.731 30.6474 24.7266 29.2502L24.7266 29.2501L24.7266 27.7712C24.7266 27.3793 24.4253 27.044 24.0349 27.0245C23.9367 27.0198 23.8385 27.035 23.7464 27.0693C23.6542 27.1037 23.57 27.1564 23.4988 27.2242C23.4276 27.2921 23.3709 27.3737 23.3322 27.4641C23.2934 27.5545 23.2734 27.6518 23.2734 27.7501V29.2501C23.2734 32.7068 25.894 35.5619 29.2526 35.9351L29.2734 35.9374V35.9584V38.2501V38.2736H29.25H27.0211C26.6292 38.2736 26.2938 38.5749 26.2743 38.9652C26.2696 39.0634 26.2849 39.1616 26.3192 39.2538C26.3535 39.3459 26.4062 39.4302 26.4741 39.5014C26.5419 39.5726 26.6235 39.6292 26.7139 39.668C26.8043 39.7067 26.9016 39.7267 27 39.7267H32.9789C33.3708 39.7267 33.7061 39.4254 33.7257 39.0351C33.7304 38.9369 33.7151 38.8387 33.6808 38.7465C33.6465 38.6544 33.5938 38.5701 33.5259 38.4989C33.4581 38.4277 33.3765 38.371 33.2861 38.3323C33.1957 38.2936 33.0983 38.2736 33 38.2736H30.75H30.7266V38.2501V35.9584V35.9374L30.7474 35.9351C31.5981 35.8404 32.4227 35.5832 33.1764 35.1775C33.1988 35.1653 33.2181 35.148 33.2326 35.127C33.2472 35.1061 33.2567 35.082 33.2603 35.0567C33.264 35.0314 33.2616 35.0056 33.2535 34.9813C33.2454 34.9571 33.2317 34.9351 33.2136 34.9171L33.2136 34.917L32.3741 34.0776L30 34.5236ZM30 34.5236C30.7557 34.5247 31.5026 34.3616 32.189 34.0457L32.1892 34.0456M30 34.5236L32.1892 34.0456M32.1892 34.0456C32.2196 34.0314 32.2536 34.0268 32.2867 34.0325C32.3197 34.0382 32.3502 34.0539 32.3741 34.0775L32.1892 34.0456ZM29.9999 21.7267C29.5585 21.722 29.1255 21.8474 28.7549 22.0873C28.3842 22.3272 28.0925 22.671 27.916 23.0758L27.916 23.0759C27.9114 23.0865 27.9044 23.0958 27.8955 23.103C27.8865 23.1102 27.876 23.1151 27.8647 23.1173C27.8534 23.1195 27.8418 23.1189 27.8308 23.1155C27.8198 23.1122 27.8098 23.1062 27.8017 23.0981L26.8858 22.1822L26.8858 22.1821C26.8592 22.1556 26.8425 22.1208 26.8384 22.0835C26.8344 22.0462 26.8433 22.0086 26.8636 21.9771L26.8636 21.977C27.2058 21.4447 27.6786 21.0087 28.2368 20.7105C28.795 20.4124 29.4202 20.262 30.053 20.2736L30.0531 20.2736C32.0959 20.3015 33.7266 21.997 33.7266 24.0428V28.8555V28.8555C33.7266 28.8694 33.7225 28.883 33.7148 28.8945C33.7071 28.9061 33.6961 28.9151 33.6833 28.9204C33.6705 28.9258 33.6563 28.9272 33.6427 28.9245C33.6291 28.9218 33.6165 28.9152 33.6067 28.9054L32.3214 27.6183C32.2908 27.5876 32.2735 27.546 32.2734 27.5026V24.0003C32.2787 23.7004 32.2234 23.4024 32.1111 23.1242C31.9987 22.8459 31.8314 22.5932 31.6192 22.381C31.407 22.1688 31.1542 22.0015 30.8759 21.8891C30.5978 21.7767 30.2999 21.7215 29.9999 21.7267ZM29.9999 21.7267C30 21.7267 30.0001 21.7267 30.0003 21.7267L30 21.7501L29.9996 21.7267C29.9997 21.7267 29.9998 21.7267 29.9999 21.7267Z" fill="#18273B" stroke="#18273B" stroke-width="0.046875"/>
<path d="M26.25 29.203V28.1446C26.25 28.1261 26.2555 28.108 26.2657 28.0926C26.276 28.0771 26.2906 28.0651 26.3077 28.058C26.3248 28.0509 26.3436 28.049 26.3618 28.0525C26.38 28.0561 26.3967 28.065 26.4098 28.078L27.7158 29.3859C27.7454 29.4156 27.7642 29.4543 27.7692 29.496C27.9047 30.5268 28.7405 31.3668 29.7553 31.4849C29.7981 31.4896 29.8381 31.5086 29.8687 31.5388L31.0364 32.7065C31.0481 32.718 31.0566 32.7324 31.061 32.7482C31.0654 32.764 31.0655 32.7807 31.0614 32.7966C31.0574 32.8125 31.0492 32.827 31.0377 32.8388C31.0262 32.8505 31.0119 32.8591 30.9961 32.8635M26.25 29.203C26.2507 30.2022 26.6457 31.1607 27.3492 31.8702C27.8106 32.3499 28.3933 32.6956 29.0355 32.8705C29.6776 33.0454 30.3552 33.043 30.9961 32.8635M26.25 29.203H26.2734M26.25 29.203L26.2734 29.203M30.9961 32.8635L30.9898 32.8409M30.9961 32.8635L30.9897 32.841C30.9897 32.841 30.9898 32.8409 30.9898 32.8409M30.9898 32.8409C31.0016 32.8376 31.0123 32.8312 31.0209 32.8224C31.0295 32.8136 31.0357 32.8027 31.0387 32.7908C31.0418 32.7788 31.0417 32.7663 31.0384 32.7545C31.0351 32.7426 31.0287 32.7318 31.02 32.7232L31.0198 32.7231L29.8523 31.5555C29.8523 31.5555 29.8523 31.5555 29.8522 31.5555C29.8253 31.529 29.7903 31.5123 29.7528 31.5082L29.7526 31.5082C28.7268 31.3888 27.8828 30.5402 27.746 29.4991L27.7459 29.4988L27.7459 29.4988C27.7416 29.4623 27.7251 29.4284 27.6992 29.4024L26.3933 28.0947C26.3933 28.0947 26.3933 28.0946 26.3933 28.0946C26.3834 28.0849 26.3709 28.0782 26.3573 28.0755C26.3437 28.0729 26.3295 28.0743 26.3167 28.0796C26.3039 28.085 26.2929 28.094 26.2852 28.1055C26.2775 28.1171 26.2734 28.1307 26.2734 28.1446L26.2734 28.1446L26.2734 29.203M30.9898 32.8409C30.353 33.0193 29.6797 33.0217 29.0416 32.8479C28.4036 32.6741 27.8245 32.3306 27.3661 31.854L27.3661 31.854L27.3659 31.8537C26.6667 31.1486 26.2741 30.196 26.2734 29.203M26.2734 29.203L26.2734 29.203M26.2734 29.203C26.2734 29.203 26.2734 29.203 26.2734 29.203M26.2734 29.203L26.2734 29.203M26.2734 29.203L26.2734 29.203" fill="#18273B" stroke="#18273B" stroke-width="0.046875"/>
</svg>
