<svg width="20" height="20" viewBox="0 0 20 20" fill="none" xmlns="http://www.w3.org/2000/svg">
<path d="M16.5972 1.92676H4.61858C4.33263 1.92676 4.09999 2.15938 4.09999 2.44532V4.15632H3.73318C3.26644 4.15632 2.88672 4.53498 2.88672 5.00041V5.74055C2.88672 6.20598 3.26644 6.58463 3.73318 6.58463H4.09999V8.99481H3.73318C3.52184 8.99481 3.31967 9.06103 3.16392 9.18125C2.98775 9.31725 2.88672 9.51238 2.88672 9.71663V10.2904C2.88672 10.4946 2.98775 10.6898 3.16392 10.8258C3.31967 10.946 3.52184 11.0122 3.73318 11.0122H4.09999V13.4152H3.73318C3.26644 13.4152 2.88672 13.7939 2.88672 14.2593V14.9994C2.88672 15.4649 3.26644 15.8435 3.73318 15.8435H4.09999V17.5545C4.09999 17.8405 4.33263 18.0731 4.61858 18.0731H16.5972C16.8831 18.0731 17.1158 17.8405 17.1158 17.5545V2.44532C17.1158 2.15938 16.8831 1.92676 16.5972 1.92676ZM3.48672 5.74055V5.00041C3.48672 4.86582 3.59728 4.75632 3.73318 4.75632H5.06681C5.20271 4.75632 5.31328 4.86582 5.31328 5.00041V5.74055C5.31328 5.87514 5.20272 5.98463 5.06681 5.98463H3.73318C3.59728 5.98463 3.48672 5.87514 3.48672 5.74055ZM3.48672 10.2904V9.71663C3.48672 9.67942 3.57983 9.59481 3.73318 9.59481H5.06681C5.22016 9.59481 5.31328 9.67942 5.31328 9.71663V10.2904C5.31328 10.3276 5.22016 10.4122 5.06681 10.4122H3.73318C3.57983 10.4122 3.48672 10.3276 3.48672 10.2904ZM3.48672 14.9994V14.2593C3.48672 14.1247 3.59728 14.0152 3.73318 14.0152H5.06681C5.20271 14.0152 5.31328 14.1247 5.31328 14.2593V14.9994C5.31328 15.134 5.20272 15.2435 5.06681 15.2435H3.73318C3.59728 15.2435 3.48672 15.134 3.48672 14.9994ZM16.5158 17.4731H4.69999V15.8435H5.06681C5.53355 15.8435 5.91328 15.4649 5.91328 14.9994V14.2593C5.91328 13.7939 5.53355 13.4152 5.06681 13.4152H4.69999V11.0122H5.06681C5.27815 11.0122 5.48032 10.946 5.63606 10.8258C5.81224 10.6898 5.91328 10.4946 5.91328 10.2904V9.71663C5.91328 9.51238 5.81224 9.31723 5.63606 9.18125C5.48032 9.06102 5.27815 8.99481 5.06681 8.99481H4.69999V6.58463H5.06681C5.53355 6.58463 5.91328 6.20598 5.91328 5.74055V5.00041C5.91328 4.53498 5.53355 4.15632 5.06681 4.15632H4.69999V2.52676H16.5158V17.4731Z" fill="black"/>
<path d="M10.6069 10.3316C11.6601 10.3316 12.5169 9.47483 12.5169 8.42168C12.5169 7.36853 11.6601 6.51172 10.6069 6.51172C9.55379 6.51172 8.69699 7.36853 8.69699 8.42168C8.69699 9.47483 9.55379 10.3316 10.6069 10.3316ZM10.6069 7.11172C11.3292 7.11172 11.9169 7.69936 11.9169 8.42168C11.9169 9.14399 11.3292 9.73164 10.6069 9.73164C9.88463 9.73164 9.29699 9.14399 9.29699 8.42168C9.29699 7.69936 9.88463 7.11172 10.6069 7.11172ZM7.85493 13.0433C7.98653 13.138 8.16605 13.2206 8.38852 13.2886C8.80946 13.4174 9.36136 13.4883 9.94256 13.4883H11.2713C11.8525 13.4883 12.4044 13.4174 12.8253 13.2886C13.0478 13.2206 13.2273 13.138 13.3589 13.0433C13.5974 12.8715 13.6475 12.682 13.6475 12.5532C13.6475 11.4509 12.5815 10.5542 11.2713 10.5542H9.94256C8.63235 10.5542 7.56641 11.4509 7.56641 12.5532C7.56641 12.682 7.61646 12.8716 7.85493 13.0433ZM8.66626 11.5854C9.00609 11.3074 9.45935 11.1542 9.94256 11.1542H11.2713C11.7545 11.1542 12.2078 11.3074 12.5476 11.5854C12.8614 11.8422 13.0379 12.1747 13.0471 12.5245C13.0071 12.5669 12.8633 12.6632 12.5255 12.7496C12.1761 12.8391 11.7307 12.8883 11.2713 12.8883H9.94256C9.48315 12.8883 9.03772 12.8391 8.68832 12.7496C8.35056 12.6632 8.20675 12.5669 8.16678 12.5246C8.17593 12.1747 8.35249 11.8422 8.66626 11.5854Z" fill="black"/>
</svg>
