<svg width="136" height="120" viewBox="0 0 136 120" fill="none" xmlns="http://www.w3.org/2000/svg">
<g filter="url(#filter0_d_1638_2124)">
<rect x="4" width="128" height="112" rx="15" fill="#01728B"/>
</g>
<path d="M80.8333 73H54.1667C53.0616 73 52.0018 72.5202 51.2204 71.6663C50.439 70.8123 50 69.6541 50 68.4464V30.1964C50 28.9887 50.439 27.8305 51.2204 26.9766C52.0018 26.1226 53.0616 25.6429 54.1667 25.6429H58.3333V27.4643H54.1667C53.5036 27.4643 52.8677 27.7521 52.3989 28.2645C51.9301 28.7769 51.6667 29.4718 51.6667 30.1964V68.4464C51.6667 69.171 51.9301 69.866 52.3989 70.3783C52.8677 70.8907 53.5036 71.1786 54.1667 71.1786H80.8333C81.4964 71.1786 82.1323 70.8907 82.6011 70.3783C83.0699 69.866 83.3333 69.171 83.3333 68.4464V30.1964C83.3333 29.4718 83.0699 28.7769 82.6011 28.2645C82.1323 27.7521 81.4964 27.4643 80.8333 27.4643H76.6667V25.6429H80.8333C81.9384 25.6429 82.9982 26.1226 83.7796 26.9766C84.561 27.8305 85 28.9887 85 30.1964V68.4464C85 69.6541 84.561 70.8123 83.7796 71.6663C82.9982 72.5202 81.9384 73 80.8333 73ZM81.6667 68.4464V30.1964C81.6667 29.9549 81.5789 29.7232 81.4226 29.5525C81.2663 29.3817 81.0543 29.2857 80.8333 29.2857H76.6667V31.1071H80V67.5357H55V31.1071H58.3333V29.2857H54.1667C53.9457 29.2857 53.7337 29.3817 53.5774 29.5525C53.4211 29.7232 53.3333 29.9549 53.3333 30.1964V68.4464C53.3333 68.688 53.4211 68.9196 53.5774 69.0904C53.7337 69.2612 53.9457 69.3571 54.1667 69.3571H80.8333C81.0543 69.3571 81.2663 69.2612 81.4226 69.0904C81.5789 68.9196 81.6667 68.688 81.6667 68.4464ZM75 33.8393V26.5536C75 26.312 74.9122 26.0804 74.7559 25.9096C74.5996 25.7388 74.3877 25.6429 74.1667 25.6429H70.8333C70.8333 24.6767 70.4821 23.7501 69.857 23.067C69.2319 22.3838 68.3841 22 67.5 22C66.6159 22 65.7681 22.3838 65.143 23.067C64.5179 23.7501 64.1667 24.6767 64.1667 25.6429H60.8333C60.6123 25.6429 60.4004 25.7388 60.2441 25.9096C60.0878 26.0804 60 26.312 60 26.5536V33.8393C60 34.0808 60.0878 34.3125 60.2441 34.4833C60.4004 34.6541 60.6123 34.75 60.8333 34.75H74.1667C74.3877 34.75 74.5996 34.6541 74.7559 34.4833C74.9122 34.3125 75 34.0808 75 33.8393ZM61.6667 27.4643H65C65.221 27.4643 65.433 27.3683 65.5893 27.1975C65.7455 27.0268 65.8333 26.7951 65.8333 26.5536V25.6429C65.8333 25.1598 66.0089 24.6965 66.3215 24.3549C66.634 24.0133 67.058 23.8214 67.5 23.8214C67.942 23.8214 68.366 24.0133 68.6785 24.3549C68.9911 24.6965 69.1667 25.1598 69.1667 25.6429V26.5536C69.1667 26.7951 69.2545 27.0268 69.4107 27.1975C69.567 27.3683 69.779 27.4643 70 27.4643H73.3333V32.9286H61.6667V27.4643ZM70 29.2857H65V31.1071H70V29.2857ZM76.6667 39.3036H68.3333V41.125H76.6667V39.3036ZM76.6667 44.7679H68.3333V46.5893H76.6667V44.7679ZM76.6667 50.2321H68.3333V52.0536H76.6667V50.2321ZM76.6667 55.6964H68.3333V57.5179H76.6667V55.6964ZM65 62.0714V56.6071C65 56.3656 64.9122 56.134 64.7559 55.9632C64.5996 55.7924 64.3877 55.6964 64.1667 55.6964H59.1667C58.9457 55.6964 58.7337 55.7924 58.5774 55.9632C58.4211 56.134 58.3333 56.3656 58.3333 56.6071V62.0714C58.3333 62.313 58.4211 62.5446 58.5774 62.7154C58.7337 62.8862 58.9457 62.9821 59.1667 62.9821H64.1667C64.3877 62.9821 64.5996 62.8862 64.7559 62.7154C64.9122 62.5446 65 62.313 65 62.0714ZM60 57.5179H63.3333V61.1607H60V57.5179ZM76.6667 55.6964H68.3333V57.5179H76.6667V55.6964ZM65 62.0714V56.6071C65 56.3656 64.9122 56.134 64.7559 55.9632C64.5996 55.7924 64.3877 55.6964 64.1667 55.6964H59.1667C58.9457 55.6964 58.7337 55.7924 58.5774 55.9632C58.4211 56.134 58.3333 56.3656 58.3333 56.6071V62.0714C58.3333 62.313 58.4211 62.5446 58.5774 62.7154C58.7337 62.8862 58.9457 62.9821 59.1667 62.9821H64.1667C64.3877 62.9821 64.5996 62.8862 64.7559 62.7154C64.9122 62.5446 65 62.313 65 62.0714ZM60 57.5179H63.3333V61.1607H60V57.5179ZM76.6667 61.1607H68.3333V62.9821H76.6667V61.1607ZM61.425 44.5037L64.7583 40.8609L63.575 39.5677L60.725 42.6823L58.7917 41.2798L57.875 42.7916L60.375 44.613C60.5106 44.7126 60.67 44.7665 60.8333 44.7679C60.943 44.7685 61.0517 44.7456 61.1533 44.7003C61.2548 44.6549 61.3471 44.5882 61.425 44.5037ZM61.425 51.7895L64.7583 48.1466L63.575 46.8534L60.725 49.968L58.7917 48.5655L57.875 50.0773L60.375 51.8988C60.5106 51.9983 60.67 52.0522 60.8333 52.0536C60.943 52.0543 61.0517 52.0313 61.1533 51.986C61.2548 51.9406 61.3471 51.8739 61.425 51.7895Z" fill="white"/>
<path d="M51.9355 92.3701H49.3721V90.8936H51.9355C52.3548 90.8936 52.6943 90.8252 52.9541 90.6885C53.2184 90.5472 53.4121 90.3558 53.5352 90.1143C53.6582 89.8682 53.7197 89.5879 53.7197 89.2734C53.7197 88.9681 53.6582 88.6833 53.5352 88.4189C53.4121 88.1546 53.2184 87.9404 52.9541 87.7764C52.6943 87.6123 52.3548 87.5303 51.9355 87.5303H49.9873V96H48.1074V86.0469H51.9355C52.7103 86.0469 53.3711 86.1859 53.918 86.4639C54.4694 86.7373 54.8887 87.1178 55.1758 87.6055C55.4674 88.0885 55.6133 88.64 55.6133 89.2598C55.6133 89.9023 55.4674 90.4561 55.1758 90.9209C54.8887 91.3857 54.4694 91.7435 53.918 91.9941C53.3711 92.2448 52.7103 92.3701 51.9355 92.3701ZM63.6934 90.1553V91.6318H58.457V90.1553H63.6934ZM58.9697 86.0469V96H57.0898V86.0469H58.9697ZM65.0879 86.0469V96H63.208V86.0469H65.0879ZM72.3408 94.5986L74.9932 96.7041L73.79 97.75L71.1787 95.6582L72.3408 94.5986ZM75.041 90.7705V91.2832C75.041 92.0352 74.9408 92.7119 74.7402 93.3135C74.5397 93.9105 74.2526 94.4186 73.8789 94.8379C73.5098 95.2572 73.07 95.5785 72.5596 95.8018C72.0492 96.0251 71.484 96.1367 70.8643 96.1367C70.249 96.1367 69.6839 96.0251 69.1689 95.8018C68.6585 95.5785 68.2165 95.2572 67.8428 94.8379C67.4691 94.4186 67.1797 93.9105 66.9746 93.3135C66.7695 92.7119 66.667 92.0352 66.667 91.2832V90.7705C66.667 90.014 66.7673 89.3372 66.9678 88.7402C67.1729 88.1432 67.46 87.6351 67.8291 87.2158C68.2028 86.792 68.6449 86.4684 69.1553 86.2451C69.6702 86.0218 70.2354 85.9102 70.8506 85.9102C71.4704 85.9102 72.0355 86.0218 72.5459 86.2451C73.0609 86.4684 73.5029 86.792 73.8721 87.2158C74.2458 87.6351 74.5329 88.1432 74.7334 88.7402C74.9385 89.3372 75.041 90.014 75.041 90.7705ZM73.1406 91.2832V90.7568C73.1406 90.2145 73.0905 89.7383 72.9902 89.3281C72.89 88.9134 72.7396 88.5648 72.5391 88.2822C72.3431 87.9997 72.1038 87.7878 71.8213 87.6465C71.5387 87.5007 71.2152 87.4277 70.8506 87.4277C70.4906 87.4277 70.1693 87.5007 69.8867 87.6465C69.6042 87.7878 69.3649 87.9997 69.1689 88.2822C68.973 88.5648 68.8226 88.9134 68.7178 89.3281C68.6175 89.7383 68.5674 90.2145 68.5674 90.7568V91.2832C68.5674 91.821 68.6175 92.2972 68.7178 92.7119C68.8226 93.1266 68.973 93.4775 69.1689 93.7646C69.3695 94.0472 69.611 94.2614 69.8936 94.4072C70.1807 94.5531 70.5042 94.626 70.8643 94.626C71.2288 94.626 71.5524 94.5531 71.835 94.4072C72.1175 94.2614 72.3545 94.0472 72.5459 93.7646C72.7419 93.4775 72.89 93.1266 72.9902 92.7119C73.0905 92.2972 73.1406 91.821 73.1406 91.2832ZM80.1133 91.0234V92.4521H76.374V91.0234H80.1133ZM82.9229 94.5986H83.0527C83.6406 94.5986 84.1374 94.5234 84.543 94.373C84.9531 94.2227 85.2835 94.0107 85.5342 93.7373C85.7894 93.4593 85.974 93.1289 86.0879 92.7461C86.2064 92.3587 86.2656 91.9303 86.2656 91.4609V89.6562C86.2656 89.2734 86.2269 88.9385 86.1494 88.6514C86.0719 88.3597 85.9626 88.1159 85.8213 87.9199C85.6846 87.724 85.5228 87.5781 85.3359 87.4824C85.1491 87.3822 84.9486 87.332 84.7344 87.332C84.4974 87.332 84.2878 87.3867 84.1055 87.4961C83.9232 87.6055 83.7682 87.7559 83.6406 87.9473C83.5176 88.1341 83.4219 88.3506 83.3535 88.5967C83.2897 88.8428 83.2578 89.1025 83.2578 89.376C83.2578 89.6403 83.2874 89.8932 83.3467 90.1348C83.4105 90.3763 83.5039 90.5905 83.627 90.7773C83.7546 90.9642 83.9141 91.1123 84.1055 91.2217C84.2969 91.3265 84.5202 91.3789 84.7754 91.3789C85.0169 91.3789 85.2357 91.3333 85.4316 91.2422C85.6322 91.1465 85.8053 91.0212 85.9512 90.8662C86.097 90.7067 86.2087 90.5312 86.2861 90.3398C86.3682 90.1439 86.4137 89.9456 86.4229 89.7451L87.0586 90.0186C87.0586 90.3512 86.988 90.6794 86.8467 91.0029C86.71 91.3265 86.5163 91.6204 86.2656 91.8848C86.0195 92.1445 85.7324 92.3542 85.4043 92.5137C85.0762 92.6686 84.723 92.7461 84.3447 92.7461C83.8753 92.7461 83.4606 92.6595 83.1006 92.4863C82.7406 92.3132 82.4375 92.0739 82.1914 91.7686C81.9499 91.4587 81.7676 91.1032 81.6445 90.7021C81.5215 90.2965 81.46 89.8636 81.46 89.4033C81.46 88.9248 81.5352 88.4759 81.6855 88.0566C81.8359 87.6328 82.0524 87.2614 82.335 86.9424C82.6221 86.6188 82.9684 86.3659 83.374 86.1836C83.7796 85.9967 84.2354 85.9033 84.7412 85.9033C85.2653 85.9033 85.7324 86.0059 86.1426 86.2109C86.5527 86.416 86.9014 86.7008 87.1885 87.0654C87.4756 87.4255 87.6943 87.8516 87.8447 88.3438C87.9997 88.8359 88.0771 89.3737 88.0771 89.957V90.5928C88.0771 91.208 88.0156 91.7913 87.8926 92.3428C87.7695 92.8942 87.5804 93.3978 87.3252 93.8535C87.07 94.3092 86.7441 94.7035 86.3477 95.0361C85.9557 95.3688 85.4863 95.6263 84.9395 95.8086C84.3971 95.9863 83.7773 96.0752 83.0801 96.0752H82.9229V94.5986Z" fill="white"/>
<defs>
<filter id="filter0_d_1638_2124" x="0" y="0" width="136" height="120" filterUnits="userSpaceOnUse" color-interpolation-filters="sRGB">
<feFlood flood-opacity="0" result="BackgroundImageFix"/>
<feColorMatrix in="SourceAlpha" type="matrix" values="0 0 0 0 0 0 0 0 0 0 0 0 0 0 0 0 0 0 127 0" result="hardAlpha"/>
<feOffset dy="4"/>
<feGaussianBlur stdDeviation="2"/>
<feComposite in2="hardAlpha" operator="out"/>
<feColorMatrix type="matrix" values="0 0 0 0 0 0 0 0 0 0 0 0 0 0 0 0 0 0 0.25 0"/>
<feBlend mode="normal" in2="BackgroundImageFix" result="effect1_dropShadow_1638_2124"/>
<feBlend mode="normal" in="SourceGraphic" in2="effect1_dropShadow_1638_2124" result="shape"/>
</filter>
</defs>
</svg>
