<svg width="27" height="27" viewBox="0 0 27 27" fill="none" xmlns="http://www.w3.org/2000/svg">
<path d="M20.2642 6.38568C18.2878 5.81041 16.3763 5.03179 14.5604 4.06233C14.2413 3.86579 13.8739 3.76172 13.4991 3.76172C13.1244 3.76172 12.757 3.86579 12.4379 4.06233C10.6222 5.03167 8.71089 5.81028 6.73468 6.38568C6.31374 6.51863 5.94781 6.78556 5.69266 7.14578C5.4375 7.50601 5.30711 7.93977 5.32137 8.38098L5.54412 15.104C6.04051 18.4815 9.58291 21.2983 11.6508 22.676C12.1979 23.0417 12.8411 23.2369 13.4991 23.2369C14.1571 23.2369 14.8004 23.0417 15.3474 22.676C17.4153 21.2983 20.9577 18.4815 21.4608 15.0274L21.6768 8.38166C21.6912 7.94045 21.5609 7.50662 21.3059 7.14628C21.0509 6.78594 20.6851 6.51884 20.2642 6.38568ZM20.1186 14.9069C19.6981 17.7689 16.4799 20.2982 14.5987 21.552C14.2734 21.7699 13.8907 21.8862 13.4991 21.8862C13.1076 21.8862 12.7249 21.7699 12.3996 21.552C10.5183 20.2982 7.3002 17.7683 6.88629 14.9838L6.67029 8.33805C6.66538 8.19163 6.70835 8.0476 6.79269 7.9278C6.87704 7.80801 6.99815 7.719 7.13766 7.67426C9.22017 7.06643 11.233 6.24146 13.1431 5.21294C13.2495 5.14505 13.373 5.10898 13.4991 5.10898C13.6253 5.10898 13.7488 5.14505 13.8551 5.21294C15.7655 6.24142 17.7787 7.06621 19.8615 7.67372C20.0009 7.71859 20.1219 7.80767 20.2061 7.92744C20.2903 8.04722 20.3332 8.19118 20.3282 8.33751L20.1186 14.9069ZM14.6929 12.3592C14.6904 12.5489 14.6418 12.7351 14.5515 12.9019C14.4611 13.0687 14.3316 13.2111 14.1741 13.3169V15.1547C14.1741 15.3338 14.103 15.5055 13.9764 15.632C13.8498 15.7586 13.6781 15.8297 13.4991 15.8297C13.3201 15.8297 13.1484 15.7586 13.0218 15.632C12.8952 15.5055 12.8241 15.3338 12.8241 15.1547V13.3169C12.6666 13.2111 12.5371 13.0687 12.4468 12.9019C12.3564 12.7351 12.3079 12.5489 12.3053 12.3592C12.3053 12.0425 12.4311 11.7389 12.655 11.515C12.8789 11.2911 13.1825 11.1654 13.4991 11.1654C13.8157 11.1654 14.1194 11.2911 14.3433 11.515C14.5672 11.7389 14.6929 12.0425 14.6929 12.3592Z" fill="black"/>
</svg>
