<svg width="40" height="40" viewBox="0 0 40 40" fill="none" xmlns="http://www.w3.org/2000/svg">
<path d="M12.4473 30.7656C12.8356 30.7656 13.1504 30.4508 13.1504 30.0625C13.1504 29.6742 12.8356 29.3594 12.4473 29.3594C12.0589 29.3594 11.7441 29.6742 11.7441 30.0625C11.7441 30.4508 12.0589 30.7656 12.4473 30.7656Z" fill="white"/>
<path d="M12.4473 32.9531C12.8356 32.9531 13.1504 32.6383 13.1504 32.25C13.1504 31.8617 12.8356 31.5469 12.4473 31.5469C12.0589 31.5469 11.7441 31.8617 11.7441 32.25C11.7441 32.6383 12.0589 32.9531 12.4473 32.9531Z" fill="white"/>
<path d="M37.0685 8.89252L32.3076 3.12336C31.9807 2.7272 31.5045 2.5 31.0012 2.5H13.541C12.5933 2.5 11.8223 3.2988 11.8223 4.28066V9.67914C11.8223 10.0243 12.1021 10.3041 12.4473 10.3041C12.7925 10.3041 13.0723 10.0243 13.0723 9.67914V4.28066C13.0723 3.98804 13.2825 3.75 13.541 3.75H30.0854V8.9183C30.0854 9.95476 30.9286 10.798 31.965 10.798H36.2308V35.7193C36.2308 36.012 36.0205 36.25 35.762 36.25H13.541C13.2825 36.25 13.0723 36.012 13.0723 35.7193V34.4898C13.0723 34.1446 12.7925 33.8648 12.4473 33.8648C12.1021 33.8648 11.8223 34.1446 11.8223 34.4898V35.7193C11.8223 36.7012 12.5933 37.5 13.541 37.5H35.762C36.7097 37.5 37.4808 36.7012 37.4808 35.7193V10.0498C37.4808 9.62574 37.3344 9.21474 37.0685 8.89252ZM31.3354 8.9183V3.91007C31.338 3.91312 31.3409 3.91582 31.3435 3.91895L35.9887 9.548H31.965C31.6178 9.548 31.3354 9.26552 31.3354 8.9183Z" fill="white"/>
<path d="M19.3945 20C19.3945 15.3476 15.6095 11.5625 10.957 11.5625C6.30459 11.5625 2.51953 15.3476 2.51953 20C2.51953 24.6524 6.30459 28.4375 10.957 28.4375C15.6095 28.4375 19.3945 24.6524 19.3945 20ZM10.957 27.1875C6.99383 27.1875 3.76953 23.9632 3.76953 20C3.76953 16.0368 6.99383 12.8125 10.957 12.8125C14.9202 12.8125 18.1445 16.0368 18.1445 20C18.1445 23.9632 14.9202 27.1875 10.957 27.1875Z" fill="white"/>
<path d="M14.575 20.2255C14.3489 19.9646 13.9542 19.9365 13.6933 20.1625L12.1856 21.4693L10.5906 20.0869C11.3291 19.6499 11.8256 18.8455 11.8256 17.927C11.8256 16.5439 10.7004 15.4186 9.31724 15.4186H7.81055C7.46535 15.4186 7.18555 15.6984 7.18555 16.0436V22.2964C7.18555 22.6416 7.46535 22.9214 7.81055 22.9214C8.15574 22.9214 8.43555 22.6416 8.43555 22.2964V20.4354H9.08407L11.2313 22.2964L9.85912 23.4857C9.59827 23.7118 9.57011 24.1066 9.79617 24.3674C10.0223 24.6282 10.4169 24.6564 10.6778 24.4303L12.1856 23.1235L13.6933 24.4303C13.9541 24.6564 14.3489 24.6282 14.575 24.3674C14.801 24.1066 14.7729 23.7118 14.512 23.4857L13.1398 22.2964L14.512 21.1071C14.7729 20.881 14.801 20.4863 14.575 20.2255ZM8.43555 16.6686H9.31724C10.0111 16.6686 10.5756 17.2331 10.5756 17.927C10.5756 18.6209 10.0111 19.1854 9.31724 19.1854H8.43555V16.6686ZM21.5872 22.7854H33.4399C33.785 22.7854 34.0649 22.5056 34.0649 22.1604C34.0649 21.8153 33.785 21.5354 33.4399 21.5354H21.5872C21.242 21.5354 20.9622 21.8153 20.9622 22.1604C20.9622 22.5056 21.242 22.7854 21.5872 22.7854ZM21.5872 27.233H33.4399C33.785 27.233 34.0649 26.9532 34.0649 26.608C34.0649 26.2628 33.785 25.983 33.4399 25.983H21.5872C21.242 25.983 20.9622 26.2628 20.9622 26.608C20.9622 26.9532 21.242 27.233 21.5872 27.233ZM21.5872 31.4238H33.4399C33.785 31.4238 34.0649 31.144 34.0649 30.7988C34.0649 30.4536 33.785 30.1738 33.4399 30.1738H21.5872C21.242 30.1738 20.9622 30.4536 20.9622 30.7988C20.9622 31.144 21.242 31.4238 21.5872 31.4238ZM22.6809 18.552H32.3461C33.2938 18.552 34.0649 17.781 34.0649 16.8333V15.7207C34.0649 14.773 33.2938 14.002 32.3461 14.002H22.6809C21.7332 14.002 20.9622 14.773 20.9622 15.7207V16.8333C20.9622 17.781 21.7332 18.552 22.6809 18.552ZM22.2122 15.7207C22.2122 15.4622 22.4224 15.252 22.6809 15.252H32.3461C32.6046 15.252 32.8149 15.4622 32.8149 15.7207V16.8333C32.8149 17.0917 32.6046 17.302 32.3461 17.302H22.6809C22.4224 17.302 22.2122 17.0917 22.2122 16.8333V15.7207Z" fill="white"/>
</svg>
