<svg width="61" height="29" viewBox="0 0 61 29" fill="none" xmlns="http://www.w3.org/2000/svg">
<path d="M0.32 15.62C0.533333 15.0867 0.833333 14.4667 1.22 13.76C1.62 13.0533 1.96667 12.48 2.26 12.04L2.7 11.4C2.88667 11.1333 3.07333 11 3.26 11C3.40667 11 3.48 11.0733 3.48 11.22L3.42 11.42C2.94 12.6333 2.7 13.68 2.7 14.56C2.7 15.2667 2.85333 15.8467 3.16 16.3C3.48 16.74 3.97333 16.96 4.64 16.96C5.64 16.96 6.44667 16.5267 7.06 15.66C7.67333 14.78 7.98 13.8333 7.98 12.82C7.98 11.9533 7.68 10.72 7.08 9.12C6.49333 7.50667 6.2 6.41333 6.2 5.84C6.2 4.6 6.72667 3.60667 7.78 2.86C8.84667 2.1 10.0133 1.72 11.28 1.72C11.5067 1.72 11.7267 1.73333 11.94 1.76C12.1667 1.78667 12.4133 1.83333 12.68 1.9C12.9467 1.95333 13.16 2.04667 13.32 2.18C13.48 2.31333 13.56 2.48 13.56 2.68C13.56 2.94667 13.3733 3.4 13 4.04C12.6267 4.68 12.3133 5.16667 12.06 5.5C11.9667 5.56667 11.8867 5.6 11.82 5.6C11.7267 5.6 11.68 5.52 11.68 5.36C11.68 4.98667 11.72 4.48 11.8 3.84C11.8 2.8 11.4 2.28 10.6 2.28C9.92 2.28 9.34 2.51333 8.86 2.98C8.39333 3.44667 8.16 4.01333 8.16 4.68C8.16 5.56 8.46667 6.78667 9.08 8.36C9.70667 9.93333 10.02 11.1467 10.02 12C10.02 13.6 9.38667 14.92 8.12 15.96C6.86667 16.9867 5.45333 17.5 3.88 17.5C3.61333 17.5 3.29333 17.4733 2.92 17.42C2.54667 17.3667 2.15333 17.28 1.74 17.16C1.32667 17.0533 0.98 16.8933 0.7 16.68C0.406667 16.4533 0.26 16.2 0.26 15.92C0.26 15.8133 0.28 15.7133 0.32 15.62ZM12.7053 15.06C11.1453 16.5267 10.1453 17.26 9.70531 17.26C9.47865 17.26 9.36531 17.1067 9.36531 16.8C9.36531 16.4933 9.48531 16.0467 9.72531 15.46C9.96531 14.8733 10.2053 14.36 10.4453 13.92L10.8053 13.28C11.8186 11.5067 12.5853 10.2333 13.1053 9.46C13.332 9.12667 13.6186 8.84667 13.9653 8.62C14.3253 8.38 14.6586 8.26 14.9653 8.26C15.072 8.26 15.1253 8.30667 15.1253 8.4C15.1253 8.46667 15.0786 8.59333 14.9853 8.78C14.8253 9.07333 14.432 9.77333 13.8053 10.88C13.1786 11.9867 12.8053 12.6533 12.6853 12.88C12.1386 13.84 11.8653 14.48 11.8653 14.8C11.8653 14.92 11.9053 14.98 11.9853 14.98C12.1186 14.98 12.5453 14.6467 13.2653 13.98C13.8253 13.42 14.5653 12.6133 15.4853 11.56C15.5253 11.52 15.5586 11.5 15.5853 11.5C15.612 11.5 15.6253 11.5267 15.6253 11.58C15.6253 11.8333 15.5253 12.08 15.3253 12.32C14.3386 13.4133 13.4653 14.3267 12.7053 15.06ZM15.3653 7.12C15.032 7.12 14.8653 6.92 14.8653 6.52C14.8653 6.14667 15.0053 5.77333 15.2853 5.4C15.5653 5.01333 15.872 4.82 16.2053 4.82C16.6053 4.82 16.8053 5.04667 16.8053 5.5C16.8053 5.87333 16.652 6.24 16.3453 6.6C16.0386 6.94667 15.712 7.12 15.3653 7.12ZM18.2781 13.66C18.3315 13.5533 18.3581 13.48 18.3581 13.44L18.1581 13.58C17.7448 14.06 17.2648 14.5533 16.7181 15.06C16.1848 15.5667 15.7515 15.96 15.4181 16.24L14.9181 16.64C14.3715 17.04 13.9581 17.24 13.6781 17.24C13.4115 17.24 13.2781 17.0467 13.2781 16.66C13.2781 15.7 13.6315 14.5667 14.3381 13.26C15.0448 11.9533 15.9581 10.8067 17.0781 9.82C18.2115 8.83333 19.2848 8.34 20.2981 8.34C20.4981 8.34 20.6648 8.36667 20.7981 8.42C20.9448 8.46 21.0448 8.5 21.0981 8.54C21.1648 8.58 21.2048 8.6 21.2181 8.6C21.2448 8.6 21.2781 8.58 21.3181 8.54C21.3981 8.43333 21.4981 8.3 21.6181 8.14C21.7515 7.98 21.9715 7.76667 22.2781 7.5C22.5848 7.22 22.8315 7.08 23.0181 7.08C23.1115 7.08 23.1581 7.14667 23.1581 7.28C23.1581 7.46667 23.0648 7.74667 22.8781 8.12C21.4515 10.7467 20.5848 12.3333 20.2781 12.88C20.1715 13.08 19.9248 13.5133 19.5381 14.18C19.1648 14.8333 18.8981 15.3 18.7381 15.58C19.5781 14.9 20.2715 14.3133 20.8181 13.82C21.4048 13.2067 22.0915 12.4533 22.8781 11.56C22.9181 11.52 22.9515 11.5 22.9781 11.5C23.0048 11.5 23.0181 11.5267 23.0181 11.58C23.0181 11.8333 22.9181 12.08 22.7181 12.32C22.1315 12.96 21.6248 13.5067 21.1981 13.96C20.6381 14.5467 19.6381 15.4 18.1981 16.52L17.6781 17.48C15.1048 22.2133 13.3315 25.2933 12.3581 26.72C12.2648 26.8667 12.1448 27.04 11.9981 27.24C11.8515 27.4533 11.6115 27.7333 11.2781 28.08C10.9448 28.44 10.6781 28.62 10.4781 28.62C10.1581 28.62 9.99812 28.16 9.99812 27.24C9.99812 25.88 10.4848 24.4 11.4581 22.8C12.4848 21.1067 14.0848 19.3667 16.2581 17.58L18.2781 13.66ZM20.9381 9C20.9515 8.98667 20.9581 8.96 20.9581 8.92C20.9581 8.82667 20.8515 8.78 20.6381 8.78C20.1048 8.78 19.4181 9.19333 18.5781 10.02C17.7381 10.8467 17.0115 11.7533 16.3981 12.74C15.7848 13.7267 15.4781 14.4533 15.4781 14.92C15.4781 15.1067 15.5581 15.2 15.7181 15.2C15.8648 15.2 16.0515 15.1067 16.2781 14.92C16.4781 14.7467 16.7448 14.5067 17.0781 14.2C17.4248 13.88 18.0115 13.2067 18.8381 12.18C19.6648 11.1533 20.3648 10.0933 20.9381 9ZM11.9581 22.76C11.8515 22.92 11.7248 23.1267 11.5781 23.38C11.4315 23.6467 11.2315 24.0933 10.9781 24.72C10.7248 25.36 10.5981 25.8933 10.5981 26.32C10.5981 26.5467 10.6381 26.66 10.7181 26.66C10.7848 26.66 10.8848 26.5933 11.0181 26.46C11.1515 26.34 11.2648 26.2133 11.3581 26.08L11.4981 25.88C12.6181 24.1467 14.0315 21.7 15.7381 18.54C14.0581 19.9933 12.7981 21.4 11.9581 22.76ZM27.6805 15.06C26.1205 16.5267 25.0938 17.26 24.6005 17.26C24.3738 17.26 24.2605 17.14 24.2605 16.9C24.2605 16.7533 24.2938 16.5733 24.3605 16.36C24.4271 16.1333 24.5071 15.9133 24.6005 15.7C24.7071 15.4733 24.8071 15.2667 24.9005 15.08C24.9938 14.8933 25.0871 14.72 25.1805 14.56C25.2738 14.4 25.3205 14.3133 25.3205 14.3C25.5205 13.94 25.8205 13.44 26.2205 12.8C26.6205 12.1467 26.9405 11.6133 27.1805 11.2C27.4205 10.7733 27.5405 10.5133 27.5405 10.42C27.5405 10.3533 27.5071 10.32 27.4405 10.32L27.1605 10.42C26.5471 10.86 25.8138 11.5467 24.9605 12.48C24.1071 13.4 23.4071 14.2133 22.8605 14.92L22.0405 15.96C21.8671 16.2133 21.7138 16.42 21.5805 16.58C21.4471 16.74 21.2538 16.8933 21.0005 17.04C20.7605 17.2 20.5138 17.28 20.2605 17.28C20.0738 17.28 19.9805 17.2267 19.9805 17.12C19.9805 17.0133 20.1071 16.7067 20.3605 16.2C20.6138 15.68 20.8671 15.1867 21.1205 14.72L21.5005 14.04L23.4605 10.6C23.6605 10.2667 23.8205 10.0133 23.9405 9.84C24.0738 9.65333 24.2538 9.42667 24.4805 9.16C24.7071 8.88 24.9471 8.67333 25.2005 8.54C25.4671 8.40667 25.7471 8.32667 26.0405 8.3C26.1471 8.3 26.2005 8.34667 26.2005 8.44C26.2005 8.52 26.1805 8.58667 26.1405 8.64C25.8338 9.12 25.3605 9.91333 24.7205 11.02C24.0938 12.1267 23.6938 12.8467 23.5205 13.18C23.4805 13.26 23.4605 13.32 23.4605 13.36C23.4605 13.3867 23.4738 13.4 23.5005 13.4C23.5271 13.4 23.5938 13.36 23.7005 13.28C23.9538 12.9867 24.2805 12.62 24.6805 12.18C25.0938 11.74 25.7871 11.08 26.7605 10.2C27.7338 9.30667 28.5338 8.70667 29.1605 8.4C29.3071 8.33333 29.4471 8.3 29.5805 8.3C29.7671 8.3 29.8605 8.40667 29.8605 8.62C29.7538 9.24667 29.2405 10.32 28.3205 11.84C27.3071 13.5067 26.8005 14.4933 26.8005 14.8C26.8005 14.9067 26.8471 14.96 26.9405 14.96C27.0071 14.96 27.0805 14.94 27.1605 14.9C27.2538 14.8467 27.3538 14.78 27.4605 14.7C27.5671 14.6067 27.6538 14.5267 27.7205 14.46C27.8005 14.3933 27.9005 14.3067 28.0205 14.2C28.1405 14.08 28.2138 14.0067 28.2405 13.98C28.8005 13.42 29.5405 12.6133 30.4605 11.56C30.5005 11.52 30.5338 11.5 30.5605 11.5C30.5871 11.5 30.6005 11.5267 30.6005 11.58C30.6005 11.8333 30.5005 12.08 30.3005 12.32C29.3138 13.4133 28.4405 14.3267 27.6805 15.06ZM34.3786 15.74C33.2719 16.7533 32.5119 17.26 32.0986 17.26C31.9119 17.26 31.8186 17.1533 31.8186 16.94C31.8186 16.6733 31.9319 16.2667 32.1586 15.72C32.3986 15.1733 32.6386 14.6933 32.8786 14.28L33.2386 13.66C33.2919 13.5667 33.3186 13.5067 33.3186 13.48C33.3186 13.4533 33.3053 13.44 33.2786 13.44C33.2253 13.44 33.1253 13.5133 32.9786 13.66C32.5786 14.1 32.1186 14.5733 31.5986 15.08C31.0919 15.5733 30.6786 15.96 30.3586 16.24L29.8986 16.64C29.3786 17.04 28.9786 17.24 28.6986 17.24C28.4053 17.24 28.2586 17.0133 28.2586 16.56C28.2586 16.3333 28.3253 15.9867 28.4586 15.52C28.5786 15.0533 28.6719 14.74 28.7386 14.58C29.0453 13.8333 29.4253 13.1067 29.8786 12.4C30.3453 11.6933 30.8919 11.02 31.5186 10.38C32.1453 9.72667 32.8719 9.2 33.6986 8.8C34.5386 8.4 35.4053 8.2 36.2986 8.2C37.0453 8.2 37.4186 8.31333 37.4186 8.54C37.4186 8.67333 37.2519 8.74 36.9186 8.74C35.6919 8.74 34.5386 9.26667 33.4586 10.32C32.3919 11.36 31.5253 12.56 30.8586 13.92C30.6719 14.2933 30.5786 14.6067 30.5786 14.86C30.5786 15.0067 30.6253 15.08 30.7186 15.08C30.8786 15.08 31.0853 14.9667 31.3386 14.74C31.4986 14.5933 31.7119 14.4 31.9786 14.16C32.2586 13.92 32.7053 13.46 33.3186 12.78C33.9319 12.1 34.4186 11.4667 34.7786 10.88C34.8319 10.7733 34.9119 10.6467 35.0186 10.5C35.1386 10.3533 35.3586 10.16 35.6786 9.92C35.9986 9.66667 36.3186 9.54 36.6386 9.54C36.8119 9.54 36.8986 9.58667 36.8986 9.68C36.8986 9.70667 36.8786 9.75333 36.8386 9.82C36.7853 9.92667 36.6319 10.1933 36.3786 10.62C36.1386 11.0467 35.9119 11.4533 35.6986 11.84C35.4853 12.2133 35.2586 12.6267 35.0186 13.08C34.7786 13.52 34.5853 13.9 34.4386 14.22C34.3053 14.54 34.2386 14.7533 34.2386 14.86C34.2386 14.94 34.2719 14.98 34.3386 14.98C34.5386 14.98 35.0253 14.5933 35.7986 13.82C36.3853 13.2067 37.0719 12.4533 37.8586 11.56C37.8986 11.52 37.9319 11.5 37.9586 11.5C37.9853 11.5 37.9986 11.5267 37.9986 11.58C37.9986 11.8333 37.8986 12.08 37.6986 12.32C36.3919 13.7733 35.2853 14.9133 34.3786 15.74ZM39.4409 13.98C40.0009 13.42 40.7409 12.6133 41.6609 11.56C41.7009 11.52 41.7343 11.5 41.7609 11.5C41.7876 11.5 41.8009 11.5267 41.8009 11.58C41.8009 11.8333 41.7009 12.08 41.5009 12.32C40.5143 13.4133 39.6409 14.3267 38.8809 15.06C37.2809 16.6067 36.2209 17.38 35.7009 17.38C35.5143 17.38 35.4209 17.26 35.4209 17.02C35.4209 16.74 35.5276 16.32 35.7409 15.76C35.9543 15.2 36.1676 14.7067 36.3809 14.28L36.7009 13.66C37.0076 13.1133 37.5143 12.18 38.2209 10.86C38.9276 9.54 39.6076 8.29333 40.2609 7.12C40.9276 5.94667 41.5543 4.88667 42.1409 3.94H40.5609C40.4276 3.94 40.3609 3.90667 40.3609 3.84C40.3609 3.77333 40.4143 3.70667 40.5209 3.64C40.6276 3.57333 40.7409 3.54 40.8609 3.54C41.1543 3.54 41.6676 3.53333 42.4009 3.52C43.0543 2.49333 43.6143 1.68 44.0809 1.08C44.4943 0.559999 44.7809 0.299999 44.9409 0.299999C45.0343 0.299999 45.0809 0.359999 45.0809 0.479999C45.0809 0.759999 44.8276 1.36 44.3209 2.28L43.6409 3.52H45.7009C45.8209 3.52 45.8809 3.55333 45.8809 3.62C45.8809 3.83333 45.6876 3.94 45.3009 3.94H43.4209C40.3409 9.78 38.7209 12.84 38.5609 13.12C38.0009 14.1467 37.7209 14.8133 37.7209 15.12C37.7209 15.2133 37.7543 15.26 37.8209 15.26C38.0076 15.26 38.5476 14.8333 39.4409 13.98ZM44.2895 13.66L44.9095 12.6C44.9095 12.56 44.8962 12.54 44.8695 12.54C44.8429 12.54 44.8095 12.56 44.7695 12.6C44.2762 13.1733 43.7629 13.7333 43.2295 14.28C42.6962 14.8133 42.2895 15.2067 42.0095 15.46L41.5695 15.84C40.5295 16.8267 39.8095 17.32 39.4095 17.32C39.2229 17.32 39.1295 17.2 39.1295 16.96C39.1295 16.6933 39.2429 16.2867 39.4695 15.74C39.6829 15.1933 39.9029 14.7067 40.1295 14.28L40.4495 13.66C41.5695 11.5667 42.3962 10.1667 42.9295 9.46C43.1962 9.11333 43.5229 8.82667 43.9095 8.6C44.2962 8.36 44.5962 8.24 44.8095 8.24C44.9429 8.24 45.0095 8.28667 45.0095 8.38C45.0095 8.43333 44.9829 8.50667 44.9295 8.6C44.9029 8.65333 44.6295 9.1 44.1095 9.94C43.5895 10.7667 43.1695 11.48 42.8495 12.08C41.9695 13.6933 41.5295 14.62 41.5295 14.86C41.5295 14.9533 41.5695 15 41.6495 15C41.7695 15 41.9762 14.88 42.2695 14.64C43.1362 13.8933 44.0895 12.8867 45.1295 11.62C45.7029 11.0067 46.3029 10.2067 46.9295 9.22C47.3562 8.56667 47.9229 8.24 48.6295 8.24C48.7495 8.24 48.8095 8.29333 48.8095 8.4L48.6495 8.78C48.4629 9.11333 48.0429 9.84667 47.3895 10.98C46.7495 12.1 46.3829 12.74 46.2895 12.9C45.7429 13.86 45.4695 14.4933 45.4695 14.8C45.4695 14.92 45.5095 14.98 45.5895 14.98C45.7229 14.98 46.1495 14.6467 46.8695 13.98C47.4295 13.42 48.1695 12.6133 49.0895 11.56C49.1295 11.52 49.1629 11.5 49.1895 11.5C49.2162 11.5 49.2295 11.5267 49.2295 11.58C49.2295 11.8333 49.1295 12.08 48.9295 12.32C47.9429 13.4133 47.0695 14.3267 46.3095 15.06C45.7895 15.5533 45.2029 16.0467 44.5495 16.54C43.9095 17.0333 43.4429 17.28 43.1495 17.28C42.9495 17.28 42.8495 17.14 42.8495 16.86C42.8495 16.7 42.9695 16.3533 43.2095 15.82C43.4495 15.2867 43.6895 14.7933 43.9295 14.34L44.2895 13.66ZM52.2114 12.86C52.1047 12.86 52.0514 12.82 52.0514 12.74C52.0514 12.7 52.0714 12.6467 52.1114 12.58C52.8981 11.3533 53.2914 10.5133 53.2914 10.06C53.2914 9.94 53.2447 9.88 53.1514 9.88C52.7514 9.88 51.8114 10.7867 50.3314 12.6C49.8914 13.16 49.4781 13.74 49.0914 14.34C48.7181 14.94 48.4581 15.4 48.3114 15.72L48.0714 16.18C47.9114 16.5 47.6647 16.7933 47.3314 17.06C46.9981 17.34 46.6514 17.48 46.2914 17.48C46.1047 17.48 46.0114 17.4333 46.0114 17.34C46.0114 17.26 46.0714 17.0933 46.1914 16.84C46.2981 16.5867 46.4314 16.3067 46.5914 16C46.7514 15.6933 46.9114 15.3933 47.0714 15.1C47.2314 14.8067 47.3647 14.56 47.4714 14.36L47.6514 14.06L49.7514 10.4C50.5647 8.86667 51.4181 8.1 52.3114 8.1C52.4314 8.1 52.4914 8.14667 52.4914 8.24C52.4914 8.36 52.1981 8.86 51.6114 9.74C51.0381 10.6067 50.7047 11.16 50.6114 11.4C50.5847 11.48 50.5714 11.5267 50.5714 11.54C50.5714 11.5667 50.5847 11.58 50.6114 11.58C50.6381 11.58 50.6847 11.5467 50.7514 11.48C51.7514 10.3467 52.8114 9.34 53.9314 8.46C53.9981 8.39333 54.1447 8.3 54.3714 8.18C54.5981 8.04667 54.7981 7.98 54.9714 7.98C55.2247 7.98 55.3514 8.2 55.3514 8.64C55.3514 9.12 55.1914 9.69333 54.8714 10.36C54.5514 11.0267 54.1181 11.6133 53.5714 12.12L53.4914 12.2C53.4381 12.24 53.3781 12.2867 53.3114 12.34C53.2581 12.38 53.1847 12.4333 53.0914 12.5C52.9981 12.5667 52.9047 12.6267 52.8114 12.68C52.7181 12.72 52.6181 12.76 52.5114 12.8C52.4047 12.84 52.3047 12.86 52.2114 12.86ZM58.5313 10.22C58.6913 9.88667 58.7713 9.59333 58.7713 9.34C58.7713 9.12667 58.7046 9.02 58.5713 9.02C58.4913 9.02 58.3979 9.04667 58.2913 9.1C58.1979 9.14 58.1246 9.18667 58.0713 9.24L57.9713 9.32C57.5579 9.68 57.0379 10.34 56.4113 11.3C55.7979 12.2467 55.4913 12.8533 55.4913 13.12C55.4913 13.1733 55.5046 13.2 55.5312 13.2C55.6113 13.2 55.7846 13.1333 56.0513 13C56.3313 12.8667 56.7246 12.5533 57.2313 12.06C57.7513 11.5667 58.1846 10.9533 58.5313 10.22ZM57.6313 14.8C58.3379 14.1467 59.3513 13.0667 60.6713 11.56C60.7113 11.52 60.7446 11.5 60.7713 11.5C60.7979 11.5 60.8113 11.5267 60.8113 11.58C60.8113 11.8333 60.7113 12.08 60.5113 12.32C59.5246 13.4133 58.6513 14.3267 57.8913 15.06C57.3313 15.62 56.6646 16.16 55.8913 16.68C55.1179 17.1867 54.4779 17.44 53.9713 17.44C53.3579 17.44 53.0513 17.0133 53.0513 16.16C53.0513 14.7467 53.5713 13.2667 54.6113 11.72C55.6646 10.1733 56.8779 9.12667 58.2513 8.58C58.8246 8.34 59.3446 8.22 59.8113 8.22C60.3313 8.22 60.5913 8.42667 60.5913 8.84C60.5913 9.61333 60.0446 10.5 58.9513 11.5C57.8579 12.5 56.6313 13.26 55.2713 13.78C55.2179 13.7933 55.1713 13.84 55.1313 13.92C54.9313 14.4667 54.8313 14.9533 54.8313 15.38C54.8313 15.86 55.0113 16.1 55.3713 16.1C55.9446 16.1 56.6979 15.6667 57.6313 14.8Z" fill="#457EA3"/>
</svg>
