<svg width="20" height="20" viewBox="0 0 20 20" fill="none" xmlns="http://www.w3.org/2000/svg">
<path d="M18.267 8.4386C18.3339 7.98292 18.0187 7.55934 17.563 7.49245L12.8536 6.80398L10.7491 2.51524C10.6733 2.38442 10.5645 2.27578 10.4336 2.20014C10.0203 1.96124 9.49144 2.10264 9.25249 2.51605L7.14881 6.80398L2.43934 7.4925C2.25928 7.5189 2.09286 7.60354 1.96535 7.73339C1.64273 8.06201 1.64766 8.58997 1.97628 8.91259L5.38693 12.2565L4.58208 16.9766C4.57445 17.0217 4.57053 17.0674 4.57043 17.1133C4.56916 17.5745 4.94198 17.9494 5.4032 17.9507C5.53916 17.9505 5.67303 17.917 5.79302 17.853L10.0012 15.6281L14.2085 17.8522C14.3712 17.9385 14.5577 17.9686 14.7392 17.9377C15.1927 17.8603 15.4976 17.43 15.4203 16.9766L14.6154 12.2565L18.0269 8.91172C18.1563 8.78436 18.2406 8.61825 18.267 8.4386ZM13.8765 11.8137C13.779 11.9095 13.7343 12.0468 13.7569 12.1816L14.5984 17.1157L10.1957 14.7881C10.0738 14.7247 9.92861 14.7247 9.80669 14.7881L5.40402 17.1165L6.24544 12.1816C6.26807 12.0468 6.22341 11.9095 6.12581 11.8138L2.55973 8.3177L7.48649 7.59748C7.62254 7.57714 7.73993 7.49138 7.80066 7.36799L10.0012 2.88318L12.2017 7.36794C12.2624 7.49133 12.3798 7.57709 12.5158 7.59743L17.4434 8.31683L13.8765 11.8137Z" fill="black"/>
</svg>
