<svg width="91" height="91" viewBox="0 0 91 91" fill="none" xmlns="http://www.w3.org/2000/svg">
<g filter="url(#filter0_d_3455_9903)">
<rect x="5" y="5" width="80.5234" height="80.5244" rx="10" fill="#87ABC9"/>
</g>
<path d="M15.6602 71.1543C15.6602 71.0176 15.639 70.8955 15.5967 70.7881C15.5576 70.6774 15.4844 70.5781 15.377 70.4902C15.2728 70.3991 15.1247 70.3112 14.9326 70.2266C14.7438 70.1387 14.4997 70.0475 14.2002 69.9531C13.8682 69.849 13.5589 69.7318 13.2725 69.6016C12.986 69.4714 12.7337 69.32 12.5156 69.1475C12.3008 68.9749 12.1331 68.7764 12.0127 68.5518C11.8923 68.3239 11.832 68.0602 11.832 67.7607C11.832 67.4678 11.8939 67.2008 12.0176 66.96C12.1445 66.7191 12.3236 66.5124 12.5547 66.3398C12.7858 66.1641 13.0576 66.029 13.3701 65.9346C13.6859 65.8402 14.0342 65.793 14.415 65.793C14.9424 65.793 15.3981 65.889 15.7822 66.0811C16.1696 66.2731 16.4691 66.5335 16.6807 66.8623C16.8923 67.1911 16.998 67.5605 16.998 67.9707H15.6602C15.6602 67.7493 15.613 67.554 15.5186 67.3848C15.4274 67.2155 15.2874 67.082 15.0986 66.9844C14.9131 66.8867 14.6787 66.8379 14.3955 66.8379C14.1221 66.8379 13.8942 66.8786 13.7119 66.96C13.5329 67.0413 13.3978 67.152 13.3066 67.292C13.2188 67.432 13.1748 67.5882 13.1748 67.7607C13.1748 67.891 13.2057 68.0081 13.2676 68.1123C13.3294 68.2132 13.4222 68.3092 13.5459 68.4004C13.6696 68.4883 13.8226 68.5713 14.0049 68.6494C14.1904 68.7243 14.4053 68.7992 14.6494 68.874C15.04 68.9912 15.3818 69.1214 15.6748 69.2646C15.971 69.4079 16.2168 69.5706 16.4121 69.7529C16.6107 69.9352 16.7588 70.1403 16.8564 70.3682C16.9574 70.596 17.0078 70.8548 17.0078 71.1445C17.0078 71.4505 16.9476 71.724 16.8271 71.9648C16.7067 72.2057 16.5342 72.4108 16.3096 72.5801C16.085 72.7493 15.8148 72.8779 15.499 72.9658C15.1865 73.0537 14.8366 73.0977 14.4492 73.0977C14.1042 73.0977 13.7624 73.0521 13.4238 72.9609C13.0885 72.8665 12.7842 72.7266 12.5107 72.541C12.2373 72.3522 12.0192 72.1146 11.8564 71.8281C11.6937 71.5384 11.6123 71.1999 11.6123 70.8125H12.96C12.96 71.0371 12.9958 71.2292 13.0674 71.3887C13.1423 71.5449 13.2464 71.6735 13.3799 71.7744C13.5166 71.8721 13.6761 71.9437 13.8584 71.9893C14.0407 72.0348 14.2376 72.0576 14.4492 72.0576C14.7227 72.0576 14.9473 72.0202 15.123 71.9453C15.3021 71.8672 15.4355 71.7598 15.5234 71.623C15.6146 71.4863 15.6602 71.3301 15.6602 71.1543ZM21.0898 71.7451V67.7168H22.3887V73H21.168L21.0898 71.7451ZM21.2559 70.6514L21.6562 70.6416C21.6562 70.9964 21.6172 71.3236 21.5391 71.623C21.4609 71.9225 21.3389 72.1829 21.1729 72.4043C21.0101 72.6224 20.8034 72.7933 20.5527 72.917C20.3021 73.0374 20.0059 73.0977 19.6641 73.0977C19.4036 73.0977 19.166 73.0618 18.9512 72.9902C18.7363 72.9154 18.5508 72.7998 18.3945 72.6436C18.2415 72.484 18.1227 72.2806 18.0381 72.0332C17.9535 71.7826 17.9111 71.4814 17.9111 71.1299V67.7168H19.2002V71.1396C19.2002 71.3154 19.2197 71.4619 19.2588 71.5791C19.3011 71.6963 19.3581 71.7923 19.4297 71.8672C19.5046 71.9388 19.5908 71.9909 19.6885 72.0234C19.7894 72.0527 19.8968 72.0674 20.0107 72.0674C20.3232 72.0674 20.569 72.0055 20.748 71.8818C20.9303 71.7549 21.0605 71.5856 21.1387 71.374C21.2168 71.1592 21.2559 70.9183 21.2559 70.6514ZM24.8203 68.7959V73H23.5312V67.7168H24.752L24.8203 68.7959ZM26.4268 67.6826L26.4072 68.8838C26.3356 68.8708 26.2542 68.861 26.1631 68.8545C26.0752 68.848 25.9922 68.8447 25.9141 68.8447C25.7155 68.8447 25.5413 68.8724 25.3916 68.9277C25.2419 68.9798 25.1165 69.0563 25.0156 69.1572C24.918 69.2581 24.8431 69.3818 24.791 69.5283C24.7389 69.6715 24.7096 69.8343 24.7031 70.0166L24.4248 69.9824C24.4248 69.6471 24.459 69.3363 24.5273 69.0498C24.5957 68.7633 24.695 68.5127 24.8252 68.2979C24.9554 68.083 25.1182 67.917 25.3135 67.7998C25.512 67.6794 25.7399 67.6191 25.9971 67.6191C26.0687 67.6191 26.1452 67.6257 26.2266 67.6387C26.3112 67.6484 26.3779 67.6631 26.4268 67.6826ZM28.9756 72.0234L30.2061 67.7168H31.5537L29.7422 73H28.9219L28.9756 72.0234ZM28.0771 67.7168L29.3223 72.0332L29.3662 73H28.541L26.7246 67.7168H28.0771ZM34.5371 73.0977C34.1367 73.0977 33.777 73.0326 33.458 72.9023C33.139 72.7721 32.8672 72.5915 32.6426 72.3604C32.4212 72.126 32.2503 71.8542 32.1299 71.5449C32.0127 71.2324 31.9541 70.8971 31.9541 70.5391V70.3438C31.9541 69.9368 32.0127 69.5674 32.1299 69.2354C32.2471 68.9001 32.4131 68.612 32.6279 68.3711C32.8428 68.1302 33.0999 67.9447 33.3994 67.8145C33.6989 67.6842 34.0293 67.6191 34.3906 67.6191C34.765 67.6191 35.0954 67.6826 35.3818 67.8096C35.6683 67.9333 35.9076 68.109 36.0996 68.3369C36.2917 68.5648 36.4365 68.8382 36.5342 69.1572C36.6318 69.473 36.6807 69.8229 36.6807 70.207V70.749H32.54V69.8604H35.4111V69.7627C35.4046 69.5576 35.3656 69.3704 35.2939 69.2012C35.2223 69.0286 35.1117 68.8919 34.9619 68.791C34.8122 68.6868 34.6185 68.6348 34.3809 68.6348C34.1888 68.6348 34.0212 68.6771 33.8779 68.7617C33.738 68.8431 33.6208 68.9603 33.5264 69.1133C33.4352 69.263 33.3669 69.4421 33.3213 69.6504C33.2757 69.8587 33.2529 70.0898 33.2529 70.3438V70.5391C33.2529 70.7604 33.2822 70.9655 33.3408 71.1543C33.4027 71.3431 33.4922 71.5075 33.6094 71.6475C33.7298 71.7842 33.873 71.8916 34.0391 71.9697C34.2083 72.0446 34.4004 72.082 34.6152 72.082C34.8854 72.082 35.1296 72.0299 35.3477 71.9258C35.569 71.8184 35.7611 71.6605 35.9238 71.4521L36.5732 72.126C36.4626 72.2887 36.3128 72.445 36.124 72.5947C35.9385 72.7445 35.7139 72.8665 35.4502 72.9609C35.1865 73.0521 34.8822 73.0977 34.5371 73.0977ZM39.0244 72.4141L40.4404 67.7168H41.8223L39.7031 73.8008C39.6543 73.931 39.5908 74.0726 39.5127 74.2256C39.4378 74.3786 39.3369 74.5234 39.21 74.6602C39.083 74.8001 38.9235 74.9141 38.7314 75.002C38.5426 75.0898 38.3132 75.1338 38.043 75.1338C37.9258 75.1338 37.8216 75.1257 37.7305 75.1094C37.6393 75.0931 37.5433 75.0719 37.4424 75.0459V74.0791C37.4749 74.0824 37.5124 74.084 37.5547 74.084C37.6003 74.0872 37.6393 74.0889 37.6719 74.0889C37.8607 74.0889 38.0169 74.0661 38.1406 74.0205C38.2643 73.9782 38.3636 73.9082 38.4385 73.8105C38.5166 73.7161 38.5817 73.5924 38.6338 73.4395L39.0244 72.4141ZM38.3262 67.7168L39.5225 71.6084L39.7324 72.9707L38.8438 73.1318L36.9346 67.7168H38.3262ZM49.752 68.8252V69.8799H46.0117V68.8252H49.752ZM46.3779 65.8906V73H45.0352V65.8906H46.3779ZM50.748 65.8906V73H49.4053V65.8906H50.748ZM53.3848 67.7168V73H52.0908V67.7168H53.3848ZM52.0029 66.335C52.0029 66.1429 52.068 65.9834 52.1982 65.8564C52.3317 65.7295 52.5107 65.666 52.7354 65.666C52.96 65.666 53.1374 65.7295 53.2676 65.8564C53.401 65.9834 53.4678 66.1429 53.4678 66.335C53.4678 66.5238 53.401 66.6816 53.2676 66.8086C53.1374 66.9355 52.96 66.999 52.7354 66.999C52.5107 66.999 52.3317 66.9355 52.1982 66.8086C52.068 66.6816 52.0029 66.5238 52.0029 66.335ZM57.5205 71.5547C57.5205 71.444 57.4912 71.3447 57.4326 71.2568C57.374 71.1689 57.2633 71.0892 57.1006 71.0176C56.9411 70.9427 56.7067 70.8727 56.3975 70.8076C56.124 70.749 55.8717 70.6758 55.6406 70.5879C55.4095 70.5 55.2109 70.3942 55.0449 70.2705C54.8789 70.1436 54.7487 69.9954 54.6543 69.8262C54.5632 69.6536 54.5176 69.4551 54.5176 69.2305C54.5176 69.0124 54.5648 68.8073 54.6592 68.6152C54.7536 68.4199 54.8903 68.249 55.0693 68.1025C55.2484 67.9528 55.4665 67.8356 55.7236 67.751C55.9808 67.6631 56.2705 67.6191 56.5928 67.6191C57.042 67.6191 57.4277 67.6924 57.75 67.8389C58.0755 67.9854 58.3245 68.1872 58.4971 68.4443C58.6696 68.6982 58.7559 68.9847 58.7559 69.3037H57.4668C57.4668 69.1637 57.4342 69.0368 57.3691 68.9229C57.3073 68.8089 57.2113 68.7178 57.0811 68.6494C56.9508 68.5778 56.7865 68.542 56.5879 68.542C56.4089 68.542 56.2575 68.5713 56.1338 68.6299C56.0133 68.6885 55.9222 68.765 55.8604 68.8594C55.7985 68.9538 55.7676 69.0579 55.7676 69.1719C55.7676 69.2565 55.7839 69.333 55.8164 69.4014C55.8522 69.4665 55.9092 69.5267 55.9873 69.582C56.0654 69.6374 56.1712 69.6878 56.3047 69.7334C56.4414 69.779 56.609 69.8229 56.8076 69.8652C57.2015 69.9434 57.5449 70.0475 57.8379 70.1777C58.1341 70.3047 58.3652 70.474 58.5312 70.6855C58.6973 70.8971 58.7803 71.1673 58.7803 71.4961C58.7803 71.7305 58.7298 71.9453 58.6289 72.1406C58.528 72.3327 58.3815 72.5003 58.1895 72.6436C57.9974 72.7868 57.7679 72.8991 57.501 72.9805C57.234 73.0586 56.9329 73.0977 56.5977 73.0977C56.1126 73.0977 55.7025 73.0114 55.3672 72.8389C55.0319 72.6631 54.778 72.4417 54.6055 72.1748C54.4329 71.9046 54.3467 71.6247 54.3467 71.335H55.582C55.5918 71.54 55.6471 71.7044 55.748 71.8281C55.849 71.9518 55.9759 72.0413 56.1289 72.0967C56.2852 72.1488 56.4495 72.1748 56.6221 72.1748C56.8174 72.1748 56.9818 72.1488 57.1152 72.0967C57.2487 72.0413 57.3496 71.9681 57.418 71.877C57.4863 71.7826 57.5205 71.6751 57.5205 71.5547ZM62.2617 67.7168V68.6445H59.2344V67.7168H62.2617ZM60.0449 66.418H61.3389V71.4766C61.3389 71.6328 61.36 71.7533 61.4023 71.8379C61.4447 71.9225 61.5081 71.9795 61.5928 72.0088C61.6774 72.0381 61.7783 72.0527 61.8955 72.0527C61.9801 72.0527 62.0583 72.0479 62.1299 72.0381C62.2015 72.0283 62.2617 72.0186 62.3105 72.0088L62.3154 72.9756C62.208 73.0114 62.0859 73.0407 61.9492 73.0635C61.8158 73.0863 61.6644 73.0977 61.4951 73.0977C61.2054 73.0977 60.9515 73.0488 60.7334 72.9512C60.5153 72.8503 60.346 72.6891 60.2256 72.4678C60.1051 72.2432 60.0449 71.9469 60.0449 71.5791V66.418ZM62.7646 70.4121V70.3096C62.7646 69.9222 62.82 69.5658 62.9307 69.2402C63.0413 68.9115 63.2025 68.6266 63.4141 68.3857C63.6257 68.1449 63.8844 67.9577 64.1904 67.8242C64.4964 67.6875 64.8447 67.6191 65.2354 67.6191C65.6325 67.6191 65.984 67.6875 66.29 67.8242C66.5993 67.9577 66.8597 68.1449 67.0713 68.3857C67.2829 68.6266 67.444 68.9115 67.5547 69.2402C67.6654 69.5658 67.7207 69.9222 67.7207 70.3096V70.4121C67.7207 70.7962 67.6654 71.1527 67.5547 71.4814C67.444 71.807 67.2829 72.0918 67.0713 72.3359C66.8597 72.5768 66.6009 72.764 66.2949 72.8975C65.9889 73.0309 65.639 73.0977 65.2451 73.0977C64.8545 73.0977 64.5046 73.0309 64.1953 72.8975C63.8861 72.764 63.6257 72.5768 63.4141 72.3359C63.2025 72.0918 63.0413 71.807 62.9307 71.4814C62.82 71.1527 62.7646 70.7962 62.7646 70.4121ZM64.0537 70.3096V70.4121C64.0537 70.6432 64.0765 70.8597 64.1221 71.0615C64.1676 71.2633 64.2376 71.4408 64.332 71.5938C64.4264 71.7467 64.5485 71.8672 64.6982 71.9551C64.8512 72.0397 65.0335 72.082 65.2451 72.082C65.4535 72.082 65.6325 72.0397 65.7822 71.9551C65.932 71.8672 66.054 71.7467 66.1484 71.5938C66.2461 71.4408 66.3177 71.2633 66.3633 71.0615C66.4089 70.8597 66.4316 70.6432 66.4316 70.4121V70.3096C66.4316 70.0817 66.4089 69.8685 66.3633 69.6699C66.3177 69.4681 66.2461 69.2907 66.1484 69.1377C66.054 68.9814 65.9303 68.8594 65.7773 68.7715C65.6276 68.6803 65.4469 68.6348 65.2354 68.6348C65.027 68.6348 64.848 68.6803 64.6982 68.7715C64.5485 68.8594 64.4264 68.9814 64.332 69.1377C64.2376 69.2907 64.1676 69.4681 64.1221 69.6699C64.0765 69.8685 64.0537 70.0817 64.0537 70.3096ZM69.9473 68.7959V73H68.6582V67.7168H69.8789L69.9473 68.7959ZM71.5537 67.6826L71.5342 68.8838C71.4626 68.8708 71.3812 68.861 71.29 68.8545C71.2021 68.848 71.1191 68.8447 71.041 68.8447C70.8424 68.8447 70.6683 68.8724 70.5186 68.9277C70.3688 68.9798 70.2435 69.0563 70.1426 69.1572C70.0449 69.2581 69.9701 69.3818 69.918 69.5283C69.8659 69.6715 69.8366 69.8343 69.8301 70.0166L69.5518 69.9824C69.5518 69.6471 69.5859 69.3363 69.6543 69.0498C69.7227 68.7633 69.8219 68.5127 69.9521 68.2979C70.0824 68.083 70.2451 67.917 70.4404 67.7998C70.639 67.6794 70.8669 67.6191 71.124 67.6191C71.1956 67.6191 71.2721 67.6257 71.3535 67.6387C71.4382 67.6484 71.5049 67.6631 71.5537 67.6826ZM73.8975 72.4141L75.3135 67.7168H76.6953L74.5762 73.8008C74.5273 73.931 74.4639 74.0726 74.3857 74.2256C74.3109 74.3786 74.21 74.5234 74.083 74.6602C73.9561 74.8001 73.7965 74.9141 73.6045 75.002C73.4157 75.0898 73.1862 75.1338 72.916 75.1338C72.7988 75.1338 72.6947 75.1257 72.6035 75.1094C72.5124 75.0931 72.4163 75.0719 72.3154 75.0459V74.0791C72.348 74.0824 72.3854 74.084 72.4277 74.084C72.4733 74.0872 72.5124 74.0889 72.5449 74.0889C72.7337 74.0889 72.89 74.0661 73.0137 74.0205C73.1374 73.9782 73.2367 73.9082 73.3115 73.8105C73.3896 73.7161 73.4548 73.5924 73.5068 73.4395L73.8975 72.4141ZM73.1992 67.7168L74.3955 71.6084L74.6055 72.9707L73.7168 73.1318L71.8076 67.7168H73.1992Z" fill="white"/>
<mask id="path-3-inside-1_3455_9903" fill="white">
<path d="M55.2729 55.295H35.2531C34.4235 55.295 33.6278 54.9442 33.0412 54.3197C32.4546 53.6952 32.125 52.8483 32.125 51.9651V23.9938C32.125 23.1107 32.4546 22.2637 33.0412 21.6392C33.6278 21.0148 34.4235 20.6639 35.2531 20.6639H38.3812V21.9959H35.2531C34.7553 21.9959 34.2779 22.2064 33.926 22.5811C33.574 22.9558 33.3762 23.464 33.3762 23.9938V51.9651C33.3762 52.495 33.574 53.0032 33.926 53.3779C34.2779 53.7526 34.7553 53.9631 35.2531 53.9631H55.2729C55.7707 53.9631 56.2481 53.7526 56.6001 53.3779C56.9521 53.0032 57.1498 52.495 57.1498 51.9651V23.9938C57.1498 23.464 56.9521 22.9558 56.6001 22.5811C56.2481 22.2064 55.7707 21.9959 55.2729 21.9959H52.1448V20.6639H55.2729C56.1026 20.6639 56.8982 21.0148 57.4848 21.6392C58.0715 22.2637 58.401 23.1107 58.401 23.9938V51.9651C58.401 52.8483 58.0715 53.6952 57.4848 54.3197C56.8982 54.9442 56.1026 55.295 55.2729 55.295ZM55.8986 51.9651V23.9938C55.8986 23.8172 55.8326 23.6478 55.7153 23.5229C55.598 23.398 55.4389 23.3279 55.2729 23.3279H52.1448V24.6598H54.6473V51.2991H35.8787V24.6598H38.3812V23.3279H35.2531C35.0872 23.3279 34.928 23.398 34.8107 23.5229C34.6934 23.6478 34.6275 23.8172 34.6275 23.9938V51.9651C34.6275 52.1417 34.6934 52.3111 34.8107 52.436C34.928 52.5609 35.0872 52.6311 35.2531 52.6311H55.2729C55.4389 52.6311 55.598 52.5609 55.7153 52.436C55.8326 52.3111 55.8986 52.1417 55.8986 51.9651ZM50.8936 26.6578V21.3299C50.8936 21.1533 50.8277 20.9839 50.7104 20.859C50.593 20.7341 50.4339 20.6639 50.268 20.6639H47.7655C47.7655 19.9574 47.5018 19.2798 47.0325 18.7802C46.5632 18.2807 45.9267 18 45.263 18C44.5993 18 43.9628 18.2807 43.4935 18.7802C43.0242 19.2798 42.7605 19.9574 42.7605 20.6639H40.2581C40.0921 20.6639 39.933 20.7341 39.8157 20.859C39.6984 20.9839 39.6324 21.1533 39.6324 21.3299V26.6578C39.6324 26.8344 39.6984 27.0038 39.8157 27.1287C39.933 27.2536 40.0921 27.3238 40.2581 27.3238H50.268C50.4339 27.3238 50.593 27.2536 50.7104 27.1287C50.8277 27.0038 50.8936 26.8344 50.8936 26.6578ZM40.8837 21.9959H43.3862C43.5521 21.9959 43.7112 21.9257 43.8285 21.8008C43.9459 21.6759 44.0118 21.5065 44.0118 21.3299V20.6639C44.0118 20.3107 44.1436 19.9719 44.3783 19.7221C44.6129 19.4723 44.9312 19.332 45.263 19.332C45.5949 19.332 45.9131 19.4723 46.1478 19.7221C46.3824 19.9719 46.5143 20.3107 46.5143 20.6639V21.3299C46.5143 21.5065 46.5802 21.6759 46.6975 21.8008C46.8148 21.9257 46.974 21.9959 47.1399 21.9959H49.6424V25.9918H40.8837V21.9959ZM47.1399 23.3279H43.3862V24.6598H47.1399V23.3279ZM52.1448 30.6537H45.8886V31.9856H52.1448V30.6537ZM52.1448 34.6496H45.8886V35.9815H52.1448V34.6496ZM52.1448 38.6455H45.8886V39.9774H52.1448V38.6455ZM52.1448 42.6414H45.8886V43.9733H52.1448V42.6414ZM43.3862 47.3032V43.3073C43.3862 43.1307 43.3202 42.9613 43.2029 42.8364C43.0856 42.7115 42.9265 42.6414 42.7605 42.6414H39.0068C38.8409 42.6414 38.6818 42.7115 38.5644 42.8364C38.4471 42.9613 38.3812 43.1307 38.3812 43.3073V47.3032C38.3812 47.4799 38.4471 47.6493 38.5644 47.7742C38.6818 47.899 38.8409 47.9692 39.0068 47.9692H42.7605C42.9265 47.9692 43.0856 47.899 43.2029 47.7742C43.3202 47.6493 43.3862 47.4799 43.3862 47.3032ZM39.6324 43.9733H42.1349V46.6373H39.6324V43.9733ZM52.1448 42.6414H45.8886V43.9733H52.1448V42.6414ZM43.3862 47.3032V43.3073C43.3862 43.1307 43.3202 42.9613 43.2029 42.8364C43.0856 42.7115 42.9265 42.6414 42.7605 42.6414H39.0068C38.8409 42.6414 38.6818 42.7115 38.5644 42.8364C38.4471 42.9613 38.3812 43.1307 38.3812 43.3073V47.3032C38.3812 47.4799 38.4471 47.6493 38.5644 47.7742C38.6818 47.899 38.8409 47.9692 39.0068 47.9692H42.7605C42.9265 47.9692 43.0856 47.899 43.2029 47.7742C43.3202 47.6493 43.3862 47.4799 43.3862 47.3032ZM39.6324 43.9733H42.1349V46.6373H39.6324V43.9733ZM52.1448 46.6373H45.8886V47.9692H52.1448V46.6373ZM40.7023 34.4564L43.2047 31.7925L42.3164 30.8468L40.1767 33.1245L38.7253 32.0989L38.0371 33.2044L39.914 34.5363C40.0158 34.6092 40.1354 34.6485 40.2581 34.6496C40.3404 34.6501 40.422 34.6333 40.4982 34.6001C40.5745 34.567 40.6438 34.5182 40.7023 34.4564ZM40.7023 39.7843L43.2047 37.1204L42.3164 36.1747L40.1767 38.4523L38.7253 37.4267L38.0371 38.5322L39.914 39.8642C40.0158 39.937 40.1354 39.9764 40.2581 39.9774C40.3404 39.9779 40.422 39.9611 40.4982 39.928C40.5745 39.8948 40.6438 39.846 40.7023 39.7843Z"/>
</mask>
<path d="M55.2729 55.295H35.2531C34.4235 55.295 33.6278 54.9442 33.0412 54.3197C32.4546 53.6952 32.125 52.8483 32.125 51.9651V23.9938C32.125 23.1107 32.4546 22.2637 33.0412 21.6392C33.6278 21.0148 34.4235 20.6639 35.2531 20.6639H38.3812V21.9959H35.2531C34.7553 21.9959 34.2779 22.2064 33.926 22.5811C33.574 22.9558 33.3762 23.464 33.3762 23.9938V51.9651C33.3762 52.495 33.574 53.0032 33.926 53.3779C34.2779 53.7526 34.7553 53.9631 35.2531 53.9631H55.2729C55.7707 53.9631 56.2481 53.7526 56.6001 53.3779C56.9521 53.0032 57.1498 52.495 57.1498 51.9651V23.9938C57.1498 23.464 56.9521 22.9558 56.6001 22.5811C56.2481 22.2064 55.7707 21.9959 55.2729 21.9959H52.1448V20.6639H55.2729C56.1026 20.6639 56.8982 21.0148 57.4848 21.6392C58.0715 22.2637 58.401 23.1107 58.401 23.9938V51.9651C58.401 52.8483 58.0715 53.6952 57.4848 54.3197C56.8982 54.9442 56.1026 55.295 55.2729 55.295ZM55.8986 51.9651V23.9938C55.8986 23.8172 55.8326 23.6478 55.7153 23.5229C55.598 23.398 55.4389 23.3279 55.2729 23.3279H52.1448V24.6598H54.6473V51.2991H35.8787V24.6598H38.3812V23.3279H35.2531C35.0872 23.3279 34.928 23.398 34.8107 23.5229C34.6934 23.6478 34.6275 23.8172 34.6275 23.9938V51.9651C34.6275 52.1417 34.6934 52.3111 34.8107 52.436C34.928 52.5609 35.0872 52.6311 35.2531 52.6311H55.2729C55.4389 52.6311 55.598 52.5609 55.7153 52.436C55.8326 52.3111 55.8986 52.1417 55.8986 51.9651ZM50.8936 26.6578V21.3299C50.8936 21.1533 50.8277 20.9839 50.7104 20.859C50.593 20.7341 50.4339 20.6639 50.268 20.6639H47.7655C47.7655 19.9574 47.5018 19.2798 47.0325 18.7802C46.5632 18.2807 45.9267 18 45.263 18C44.5993 18 43.9628 18.2807 43.4935 18.7802C43.0242 19.2798 42.7605 19.9574 42.7605 20.6639H40.2581C40.0921 20.6639 39.933 20.7341 39.8157 20.859C39.6984 20.9839 39.6324 21.1533 39.6324 21.3299V26.6578C39.6324 26.8344 39.6984 27.0038 39.8157 27.1287C39.933 27.2536 40.0921 27.3238 40.2581 27.3238H50.268C50.4339 27.3238 50.593 27.2536 50.7104 27.1287C50.8277 27.0038 50.8936 26.8344 50.8936 26.6578ZM40.8837 21.9959H43.3862C43.5521 21.9959 43.7112 21.9257 43.8285 21.8008C43.9459 21.6759 44.0118 21.5065 44.0118 21.3299V20.6639C44.0118 20.3107 44.1436 19.9719 44.3783 19.7221C44.6129 19.4723 44.9312 19.332 45.263 19.332C45.5949 19.332 45.9131 19.4723 46.1478 19.7221C46.3824 19.9719 46.5143 20.3107 46.5143 20.6639V21.3299C46.5143 21.5065 46.5802 21.6759 46.6975 21.8008C46.8148 21.9257 46.974 21.9959 47.1399 21.9959H49.6424V25.9918H40.8837V21.9959ZM47.1399 23.3279H43.3862V24.6598H47.1399V23.3279ZM52.1448 30.6537H45.8886V31.9856H52.1448V30.6537ZM52.1448 34.6496H45.8886V35.9815H52.1448V34.6496ZM52.1448 38.6455H45.8886V39.9774H52.1448V38.6455ZM52.1448 42.6414H45.8886V43.9733H52.1448V42.6414ZM43.3862 47.3032V43.3073C43.3862 43.1307 43.3202 42.9613 43.2029 42.8364C43.0856 42.7115 42.9265 42.6414 42.7605 42.6414H39.0068C38.8409 42.6414 38.6818 42.7115 38.5644 42.8364C38.4471 42.9613 38.3812 43.1307 38.3812 43.3073V47.3032C38.3812 47.4799 38.4471 47.6493 38.5644 47.7742C38.6818 47.899 38.8409 47.9692 39.0068 47.9692H42.7605C42.9265 47.9692 43.0856 47.899 43.2029 47.7742C43.3202 47.6493 43.3862 47.4799 43.3862 47.3032ZM39.6324 43.9733H42.1349V46.6373H39.6324V43.9733ZM52.1448 42.6414H45.8886V43.9733H52.1448V42.6414ZM43.3862 47.3032V43.3073C43.3862 43.1307 43.3202 42.9613 43.2029 42.8364C43.0856 42.7115 42.9265 42.6414 42.7605 42.6414H39.0068C38.8409 42.6414 38.6818 42.7115 38.5644 42.8364C38.4471 42.9613 38.3812 43.1307 38.3812 43.3073V47.3032C38.3812 47.4799 38.4471 47.6493 38.5644 47.7742C38.6818 47.899 38.8409 47.9692 39.0068 47.9692H42.7605C42.9265 47.9692 43.0856 47.899 43.2029 47.7742C43.3202 47.6493 43.3862 47.4799 43.3862 47.3032ZM39.6324 43.9733H42.1349V46.6373H39.6324V43.9733ZM52.1448 46.6373H45.8886V47.9692H52.1448V46.6373ZM40.7023 34.4564L43.2047 31.7925L42.3164 30.8468L40.1767 33.1245L38.7253 32.0989L38.0371 33.2044L39.914 34.5363C40.0158 34.6092 40.1354 34.6485 40.2581 34.6496C40.3404 34.6501 40.422 34.6333 40.4982 34.6001C40.5745 34.567 40.6438 34.5182 40.7023 34.4564ZM40.7023 39.7843L43.2047 37.1204L42.3164 36.1747L40.1767 38.4523L38.7253 37.4267L38.0371 38.5322L39.914 39.8642C40.0158 39.937 40.1354 39.9764 40.2581 39.9774C40.3404 39.9779 40.422 39.9611 40.4982 39.928C40.5745 39.8948 40.6438 39.846 40.7023 39.7843Z" fill="white" stroke="white" stroke-width="2" mask="url(#path-3-inside-1_3455_9903)"/>
<defs>
<filter id="filter0_d_3455_9903" x="0" y="0" width="90.5234" height="90.5234" filterUnits="userSpaceOnUse" color-interpolation-filters="sRGB">
<feFlood flood-opacity="0" result="BackgroundImageFix"/>
<feColorMatrix in="SourceAlpha" type="matrix" values="0 0 0 0 0 0 0 0 0 0 0 0 0 0 0 0 0 0 127 0" result="hardAlpha"/>
<feMorphology radius="1" operator="dilate" in="SourceAlpha" result="effect1_dropShadow_3455_9903"/>
<feOffset/>
<feGaussianBlur stdDeviation="2"/>
<feComposite in2="hardAlpha" operator="out"/>
<feColorMatrix type="matrix" values="0 0 0 0 0 0 0 0 0 0 0 0 0 0 0 0 0 0 0.2 0"/>
<feBlend mode="normal" in2="BackgroundImageFix" result="effect1_dropShadow_3455_9903"/>
<feBlend mode="normal" in="SourceGraphic" in2="effect1_dropShadow_3455_9903" result="shape"/>
</filter>
</defs>
</svg>
