<svg width="99" height="99" viewBox="0 0 99 99" fill="none" xmlns="http://www.w3.org/2000/svg">
<g filter="url(#filter0_d_4537_11115)">
<rect x="5" y="5" width="88.9311" height="88.9322" rx="10" fill="#274E6D"/>
</g>
<path d="M17.4672 80.2802C17.1006 80.2802 16.7639 80.2368 16.4572 80.1502C16.1572 80.0635 15.8906 79.9435 15.6572 79.7902C15.4306 79.6368 15.2406 79.4668 15.0872 79.2802C14.9406 79.0868 14.8372 78.8868 14.7772 78.6802L15.9172 78.3302C16.0039 78.5768 16.1739 78.7935 16.4272 78.9802C16.6806 79.1668 16.9939 79.2635 17.3672 79.2702C17.8006 79.2702 18.1439 79.1802 18.3972 79.0002C18.6506 78.8202 18.7772 78.5835 18.7772 78.2902C18.7772 78.0235 18.6706 77.8068 18.4572 77.6402C18.2439 77.4668 17.9572 77.3335 17.5972 77.2402L16.7372 77.0202C16.4106 76.9335 16.1139 76.8068 15.8472 76.6402C15.5872 76.4735 15.3806 76.2635 15.2272 76.0102C15.0806 75.7568 15.0072 75.4568 15.0072 75.1102C15.0072 74.4568 15.2206 73.9502 15.6472 73.5902C16.0739 73.2235 16.6839 73.0402 17.4772 73.0402C17.9239 73.0402 18.3139 73.1102 18.6472 73.2502C18.9872 73.3835 19.2672 73.5702 19.4872 73.8102C19.7072 74.0435 19.8706 74.3102 19.9772 74.6102L18.8572 74.9702C18.7572 74.7035 18.5839 74.4835 18.3372 74.3102C18.0906 74.1368 17.7839 74.0502 17.4172 74.0502C17.0372 74.0502 16.7372 74.1402 16.5172 74.3202C16.3039 74.5002 16.1972 74.7502 16.1972 75.0702C16.1972 75.3302 16.2806 75.5335 16.4472 75.6802C16.6206 75.8202 16.8539 75.9268 17.1472 76.0002L18.0072 76.2102C18.6339 76.3635 19.1206 76.6268 19.4672 77.0002C19.8139 77.3735 19.9872 77.7868 19.9872 78.2402C19.9872 78.6402 19.8906 78.9935 19.6972 79.3002C19.5039 79.6068 19.2172 79.8468 18.8372 80.0202C18.4639 80.1935 18.0072 80.2802 17.4672 80.2802ZM24.4108 80.1602L24.3508 79.2402V75.1602H25.4608V80.1602H24.4108ZM20.9508 77.7202V75.1602H22.0708V77.7202H20.9508ZM22.0708 77.7202C22.0708 78.1135 22.1174 78.4202 22.2108 78.6402C22.3041 78.8602 22.4308 79.0135 22.5908 79.1002C22.7574 79.1868 22.9474 79.2302 23.1608 79.2302C23.5408 79.2368 23.8341 79.1135 24.0408 78.8602C24.2474 78.6068 24.3508 78.2435 24.3508 77.7702H24.7708C24.7708 78.2968 24.6908 78.7502 24.5308 79.1302C24.3774 79.5035 24.1574 79.7902 23.8708 79.9902C23.5908 80.1835 23.2508 80.2802 22.8508 80.2802C22.4574 80.2802 22.1174 80.2002 21.8308 80.0402C21.5508 79.8802 21.3341 79.6302 21.1808 79.2902C21.0274 78.9502 20.9508 78.5135 20.9508 77.9802V77.7202H22.0708ZM27.4453 77.5002C27.4453 76.9602 27.5486 76.5168 27.7553 76.1702C27.962 75.8235 28.2286 75.5668 28.5553 75.4002C28.8886 75.2268 29.2353 75.1402 29.5953 75.1402V76.2102C29.2886 76.2102 28.9986 76.2535 28.7253 76.3402C28.4586 76.4202 28.242 76.5535 28.0753 76.7402C27.9086 76.9268 27.8253 77.1735 27.8253 77.4802L27.4453 77.5002ZM26.7053 80.1602V75.1602H27.8253V80.1602H26.7053ZM31.9481 80.1602L33.8981 75.1602H35.0581L32.9981 80.1602H31.9481ZM31.8681 80.1602L29.7981 75.1602H30.9481L32.9081 80.1602H31.8681ZM37.8513 80.2802C37.3646 80.2802 36.9313 80.1702 36.5513 79.9502C36.178 79.7235 35.8813 79.4135 35.6613 79.0202C35.448 78.6268 35.3413 78.1735 35.3413 77.6602C35.3413 77.1468 35.4513 76.6935 35.6713 76.3002C35.8913 75.9068 36.1913 75.6002 36.5713 75.3802C36.958 75.1535 37.398 75.0402 37.8913 75.0402C38.338 75.0402 38.7413 75.1568 39.1013 75.3902C39.4613 75.6168 39.7446 75.9468 39.9513 76.3802C40.1646 76.8135 40.2713 77.3302 40.2713 77.9302H36.3413L36.4913 77.7902C36.4913 78.0968 36.558 78.3635 36.6913 78.5902C36.8246 78.8102 37.0013 78.9802 37.2213 79.1002C37.4413 79.2202 37.6846 79.2802 37.9513 79.2802C38.258 79.2802 38.5113 79.2135 38.7113 79.0802C38.9113 78.9402 39.068 78.7602 39.1813 78.5402L40.1713 78.9602C40.0313 79.2268 39.8513 79.4602 39.6313 79.6602C39.418 79.8602 39.1613 80.0135 38.8613 80.1202C38.568 80.2268 38.2313 80.2802 37.8513 80.2802ZM36.5613 77.2102L36.4013 77.0702H39.2213L39.0713 77.2102C39.0713 76.9368 39.0113 76.7135 38.8913 76.5402C38.7713 76.3602 38.618 76.2268 38.4313 76.1402C38.2513 76.0468 38.0613 76.0002 37.8613 76.0002C37.6613 76.0002 37.4613 76.0468 37.2613 76.1402C37.0613 76.2268 36.8946 76.3602 36.7613 76.5402C36.628 76.7135 36.5613 76.9368 36.5613 77.2102ZM41.7336 82.2802C41.5736 82.2802 41.3936 82.2502 41.1936 82.1902C41.0002 82.1302 40.8136 82.0535 40.6336 81.9602L41.0536 81.0502C41.1802 81.1102 41.2969 81.1568 41.4036 81.1902C41.5102 81.2302 41.5969 81.2502 41.6636 81.2502C41.8236 81.2502 41.9569 81.2068 42.0636 81.1202C42.1769 81.0402 42.2669 80.9202 42.3336 80.7602L42.9236 79.3802L44.6136 75.1602H45.8336L43.5136 80.6902C43.3736 81.0102 43.2302 81.2902 43.0836 81.5302C42.9436 81.7702 42.7669 81.9535 42.5536 82.0802C42.3402 82.2135 42.0669 82.2802 41.7336 82.2802ZM42.6236 80.1602L40.3836 75.1602H41.6036L43.3436 79.3702L43.7036 80.1602H42.6236ZM53.8023 80.1602V73.1602H54.9623V80.1602H53.8023ZM49.1223 80.1602V73.1602H50.2823V80.1602H49.1223ZM50.0323 77.1002V76.0402H54.2723V77.1002H50.0323ZM56.4823 80.1602V75.1602H57.5923V80.1602H56.4823ZM57.0423 74.2102C56.8623 74.2102 56.7057 74.1468 56.5723 74.0202C56.4457 73.8868 56.3823 73.7302 56.3823 73.5502C56.3823 73.3702 56.4457 73.2168 56.5723 73.0902C56.7057 72.9635 56.8623 72.9002 57.0423 72.9002C57.2223 72.9002 57.3757 72.9635 57.5023 73.0902C57.6357 73.2168 57.7023 73.3702 57.7023 73.5502C57.7023 73.7302 57.6357 73.8868 57.5023 74.0202C57.3757 74.1468 57.2223 74.2102 57.0423 74.2102ZM60.7323 80.2802C60.399 80.2802 60.0923 80.2302 59.8123 80.1302C59.5323 80.0302 59.2923 79.8902 59.0923 79.7102C58.8923 79.5235 58.739 79.3068 58.6323 79.0602L59.6023 78.6302C59.7023 78.8168 59.849 78.9735 60.0423 79.1002C60.2423 79.2268 60.4623 79.2902 60.7023 79.2902C60.9623 79.2902 61.169 79.2468 61.3223 79.1602C61.4823 79.0668 61.5623 78.9402 61.5623 78.7802C61.5623 78.6268 61.5023 78.5102 61.3823 78.4302C61.2623 78.3435 61.0923 78.2735 60.8723 78.2202L60.4023 78.0902C59.929 77.9702 59.559 77.7802 59.2923 77.5202C59.0257 77.2535 58.8923 76.9502 58.8923 76.6102C58.8923 76.1102 59.0523 75.7235 59.3723 75.4502C59.699 75.1768 60.1657 75.0402 60.7723 75.0402C61.079 75.0402 61.359 75.0868 61.6123 75.1802C61.8723 75.2668 62.0957 75.3935 62.2823 75.5602C62.469 75.7202 62.599 75.9102 62.6723 76.1302L61.7423 76.5502C61.6757 76.3835 61.549 76.2568 61.3623 76.1702C61.1757 76.0768 60.969 76.0302 60.7423 76.0302C60.5157 76.0302 60.339 76.0802 60.2123 76.1802C60.0857 76.2735 60.0223 76.4068 60.0223 76.5802C60.0223 76.6802 60.079 76.7735 60.1923 76.8602C60.3057 76.9402 60.469 77.0068 60.6823 77.0602L61.2723 77.2002C61.599 77.2802 61.8657 77.4068 62.0723 77.5802C62.279 77.7468 62.4323 77.9368 62.5323 78.1502C62.6323 78.3568 62.6823 78.5668 62.6823 78.7802C62.6823 79.0802 62.5957 79.3435 62.4223 79.5702C62.2557 79.7968 62.0257 79.9735 61.7323 80.1002C61.439 80.2202 61.1057 80.2802 60.7323 80.2802ZM65.5605 80.2802C65.0339 80.2802 64.6305 80.1502 64.3505 79.8902C64.0772 79.6235 63.9405 79.2435 63.9405 78.7502V73.6002H65.0505V78.5402C65.0505 78.7735 65.1039 78.9502 65.2105 79.0702C65.3239 79.1902 65.4872 79.2502 65.7005 79.2502C65.7672 79.2502 65.8405 79.2368 65.9205 79.2102C66.0005 79.1835 66.0905 79.1335 66.1905 79.0602L66.6005 79.9102C66.4272 80.0302 66.2539 80.1202 66.0805 80.1802C65.9072 80.2468 65.7339 80.2802 65.5605 80.2802ZM63.1105 76.1202V75.1602H66.4005V76.1202H63.1105ZM69.7279 80.2802C69.2279 80.2802 68.7813 80.1702 68.3879 79.9502C68.0013 79.7235 67.6979 79.4135 67.4779 79.0202C67.2579 78.6268 67.1479 78.1735 67.1479 77.6602C67.1479 77.1468 67.2546 76.6935 67.4679 76.3002C67.6879 75.9068 67.9913 75.6002 68.3779 75.3802C68.7646 75.1535 69.2079 75.0402 69.7079 75.0402C70.2079 75.0402 70.6513 75.1535 71.0379 75.3802C71.4246 75.6002 71.7246 75.9068 71.9379 76.3002C72.1579 76.6935 72.2679 77.1468 72.2679 77.6602C72.2679 78.1735 72.1613 78.6268 71.9479 79.0202C71.7346 79.4135 71.4346 79.7235 71.0479 79.9502C70.6613 80.1702 70.2213 80.2802 69.7279 80.2802ZM69.7279 79.2502C70.0013 79.2502 70.2446 79.1835 70.4579 79.0502C70.6713 78.9102 70.8379 78.7235 70.9579 78.4902C71.0779 78.2502 71.1379 77.9735 71.1379 77.6602C71.1379 77.3468 71.0746 77.0735 70.9479 76.8402C70.8279 76.6002 70.6613 76.4135 70.4479 76.2802C70.2346 76.1402 69.9879 76.0702 69.7079 76.0702C69.4279 76.0702 69.1813 76.1368 68.9679 76.2702C68.7546 76.4035 68.5879 76.5902 68.4679 76.8302C68.3479 77.0702 68.2879 77.3468 68.2879 77.6602C68.2879 77.9735 68.3479 78.2502 68.4679 78.4902C68.5946 78.7235 68.7646 78.9102 68.9779 79.0502C69.1979 79.1835 69.4479 79.2502 69.7279 79.2502ZM73.9785 77.5002C73.9785 76.9602 74.0818 76.5168 74.2885 76.1702C74.4952 75.8235 74.7618 75.5668 75.0885 75.4002C75.4218 75.2268 75.7685 75.1402 76.1285 75.1402V76.2102C75.8218 76.2102 75.5318 76.2535 75.2585 76.3402C74.9918 76.4202 74.7752 76.5535 74.6085 76.7402C74.4418 76.9268 74.3585 77.1735 74.3585 77.4802L73.9785 77.5002ZM73.2385 80.1602V75.1602H74.3585V80.1602H73.2385ZM77.6613 82.2802C77.5013 82.2802 77.3213 82.2502 77.1213 82.1902C76.928 82.1302 76.7413 82.0535 76.5613 81.9602L76.9813 81.0502C77.108 81.1102 77.2246 81.1568 77.3313 81.1902C77.438 81.2302 77.5246 81.2502 77.5913 81.2502C77.7513 81.2502 77.8846 81.2068 77.9913 81.1202C78.1046 81.0402 78.1946 80.9202 78.2613 80.7602L78.8513 79.3802L80.5413 75.1602H81.7613L79.4413 80.6902C79.3013 81.0102 79.158 81.2902 79.0113 81.5302C78.8713 81.7702 78.6946 81.9535 78.4813 82.0802C78.268 82.2135 77.9946 82.2802 77.6613 82.2802ZM78.5513 80.1602L76.3113 75.1602H77.5313L79.2713 79.3702L79.6313 80.1602H78.5513Z" fill="white"/>
<mask id="path-3-inside-1_4537_11115" fill="white">
<path d="M60.5219 60.5465H38.4117C37.4955 60.5465 36.6168 60.1591 35.9689 59.4694C35.321 58.7797 34.957 57.8443 34.957 56.8689V25.9771C34.957 25.0017 35.321 24.0663 35.9689 23.3766C36.6168 22.687 37.4955 22.2995 38.4117 22.2995H41.8665V23.7705H38.4117C37.862 23.7705 37.3348 24.003 36.946 24.4168C36.5573 24.8306 36.3389 25.3919 36.3389 25.9771V56.8689C36.3389 57.4542 36.5573 58.0154 36.946 58.4292C37.3348 58.843 37.862 59.0755 38.4117 59.0755H60.5219C61.0717 59.0755 61.5989 58.843 61.9876 58.4292C62.3764 58.0154 62.5948 57.4542 62.5948 56.8689V25.9771C62.5948 25.3919 62.3764 24.8306 61.9876 24.4168C61.5989 24.003 61.0717 23.7705 60.5219 23.7705H57.0672V22.2995H60.5219C61.4382 22.2995 62.3169 22.687 62.9648 23.3766C63.6127 24.0663 63.9766 25.0017 63.9766 25.9771V56.8689C63.9766 57.8443 63.6127 58.7797 62.9648 59.4694C62.3169 60.1591 61.4382 60.5465 60.5219 60.5465ZM61.2129 56.8689V25.9771C61.2129 25.782 61.1401 25.5949 61.0105 25.457C60.8809 25.3191 60.7052 25.2416 60.5219 25.2416H57.0672V26.7126H59.831V56.1334H39.1027V26.7126H41.8665V25.2416H38.4117C38.2285 25.2416 38.0528 25.3191 37.9232 25.457C37.7936 25.5949 37.7208 25.782 37.7208 25.9771V56.8689C37.7208 57.064 37.7936 57.2511 37.9232 57.389C38.0528 57.527 38.2285 57.6045 38.4117 57.6045H60.5219C60.7052 57.6045 60.8809 57.527 61.0105 57.389C61.1401 57.2511 61.2129 57.064 61.2129 56.8689ZM55.6853 28.9192V23.035C55.6853 22.84 55.6125 22.6529 55.483 22.5149C55.3534 22.377 55.1776 22.2995 54.9944 22.2995H52.2306C52.2306 21.5192 51.9394 20.7709 51.4211 20.2191C50.9028 19.6674 50.1998 19.3574 49.4668 19.3574C48.7338 19.3574 48.0309 19.6674 47.5126 20.2191C46.9942 20.7709 46.7031 21.5192 46.7031 22.2995H43.9393C43.756 22.2995 43.5803 22.377 43.4507 22.5149C43.3211 22.6529 43.2483 22.84 43.2483 23.035V28.9192C43.2483 29.1143 43.3211 29.3013 43.4507 29.4393C43.5803 29.5772 43.756 29.6547 43.9393 29.6547H54.9944C55.1776 29.6547 55.3534 29.5772 55.483 29.4393C55.6125 29.3013 55.6853 29.1143 55.6853 28.9192ZM44.6302 23.7705H47.394C47.5773 23.7705 47.753 23.6931 47.8826 23.5551C48.0122 23.4172 48.085 23.2301 48.085 23.035V22.2995C48.085 21.9094 48.2305 21.5352 48.4897 21.2593C48.7489 20.9834 49.1003 20.8285 49.4668 20.8285C49.8333 20.8285 50.1848 20.9834 50.444 21.2593C50.7031 21.5352 50.8487 21.9094 50.8487 22.2995V23.035C50.8487 23.2301 50.9215 23.4172 51.0511 23.5551C51.1807 23.6931 51.3564 23.7705 51.5397 23.7705H54.3034V28.1837H44.6302V23.7705ZM51.5397 25.2416H47.394V26.7126H51.5397V25.2416ZM57.0672 33.3323H50.1578V34.8033H57.0672V33.3323ZM57.0672 37.7454H50.1578V39.2165H57.0672V37.7454ZM57.0672 42.1585H50.1578V43.6296H57.0672V42.1585ZM57.0672 46.5717H50.1578V48.0427H57.0672V46.5717ZM47.394 51.7203V47.3072C47.394 47.1121 47.3212 46.925 47.1916 46.7871C47.0621 46.6492 46.8863 46.5717 46.7031 46.5717H42.5574C42.3742 46.5717 42.1984 46.6492 42.0688 46.7871C41.9393 46.925 41.8665 47.1121 41.8665 47.3072V51.7203C41.8665 51.9154 41.9393 52.1025 42.0688 52.2404C42.1984 52.3783 42.3742 52.4558 42.5574 52.4558H46.7031C46.8863 52.4558 47.0621 52.3783 47.1916 52.2404C47.3212 52.1025 47.394 51.9154 47.394 51.7203ZM43.2483 48.0427H46.0121V50.9848H43.2483V48.0427ZM57.0672 46.5717H50.1578V48.0427H57.0672V46.5717ZM47.394 51.7203V47.3072C47.394 47.1121 47.3212 46.925 47.1916 46.7871C47.0621 46.6492 46.8863 46.5717 46.7031 46.5717H42.5574C42.3742 46.5717 42.1984 46.6492 42.0688 46.7871C41.9393 46.925 41.8665 47.1121 41.8665 47.3072V51.7203C41.8665 51.9154 41.9393 52.1025 42.0688 52.2404C42.1984 52.3783 42.3742 52.4558 42.5574 52.4558H46.7031C46.8863 52.4558 47.0621 52.3783 47.1916 52.2404C47.3212 52.1025 47.394 51.9154 47.394 51.7203ZM43.2483 48.0427H46.0121V50.9848H43.2483V48.0427ZM57.0672 50.9848H50.1578V52.4558H57.0672V50.9848ZM44.4299 37.5321L47.1936 34.59L46.2125 33.5456L43.8495 36.0611L42.2465 34.9284L41.4864 36.1493L43.5593 37.6204C43.6717 37.7008 43.8038 37.7443 43.9393 37.7454C44.0302 37.746 44.1204 37.7274 44.2045 37.6908C44.2887 37.6542 44.3653 37.6003 44.4299 37.5321ZM44.4299 43.4163L47.1936 40.4742L46.2125 39.4298L43.8495 41.9452L42.2465 40.8125L41.4864 42.0335L43.5593 43.5045C43.6717 43.585 43.8038 43.6285 43.9393 43.6296C44.0302 43.6301 44.1204 43.6116 44.2045 43.575C44.2887 43.5384 44.3653 43.4845 44.4299 43.4163Z"/>
</mask>
<path d="M60.5219 60.5465H38.4117C37.4955 60.5465 36.6168 60.1591 35.9689 59.4694C35.321 58.7797 34.957 57.8443 34.957 56.8689V25.9771C34.957 25.0017 35.321 24.0663 35.9689 23.3766C36.6168 22.687 37.4955 22.2995 38.4117 22.2995H41.8665V23.7705H38.4117C37.862 23.7705 37.3348 24.003 36.946 24.4168C36.5573 24.8306 36.3389 25.3919 36.3389 25.9771V56.8689C36.3389 57.4542 36.5573 58.0154 36.946 58.4292C37.3348 58.843 37.862 59.0755 38.4117 59.0755H60.5219C61.0717 59.0755 61.5989 58.843 61.9876 58.4292C62.3764 58.0154 62.5948 57.4542 62.5948 56.8689V25.9771C62.5948 25.3919 62.3764 24.8306 61.9876 24.4168C61.5989 24.003 61.0717 23.7705 60.5219 23.7705H57.0672V22.2995H60.5219C61.4382 22.2995 62.3169 22.687 62.9648 23.3766C63.6127 24.0663 63.9766 25.0017 63.9766 25.9771V56.8689C63.9766 57.8443 63.6127 58.7797 62.9648 59.4694C62.3169 60.1591 61.4382 60.5465 60.5219 60.5465ZM61.2129 56.8689V25.9771C61.2129 25.782 61.1401 25.5949 61.0105 25.457C60.8809 25.3191 60.7052 25.2416 60.5219 25.2416H57.0672V26.7126H59.831V56.1334H39.1027V26.7126H41.8665V25.2416H38.4117C38.2285 25.2416 38.0528 25.3191 37.9232 25.457C37.7936 25.5949 37.7208 25.782 37.7208 25.9771V56.8689C37.7208 57.064 37.7936 57.2511 37.9232 57.389C38.0528 57.527 38.2285 57.6045 38.4117 57.6045H60.5219C60.7052 57.6045 60.8809 57.527 61.0105 57.389C61.1401 57.2511 61.2129 57.064 61.2129 56.8689ZM55.6853 28.9192V23.035C55.6853 22.84 55.6125 22.6529 55.483 22.5149C55.3534 22.377 55.1776 22.2995 54.9944 22.2995H52.2306C52.2306 21.5192 51.9394 20.7709 51.4211 20.2191C50.9028 19.6674 50.1998 19.3574 49.4668 19.3574C48.7338 19.3574 48.0309 19.6674 47.5126 20.2191C46.9942 20.7709 46.7031 21.5192 46.7031 22.2995H43.9393C43.756 22.2995 43.5803 22.377 43.4507 22.5149C43.3211 22.6529 43.2483 22.84 43.2483 23.035V28.9192C43.2483 29.1143 43.3211 29.3013 43.4507 29.4393C43.5803 29.5772 43.756 29.6547 43.9393 29.6547H54.9944C55.1776 29.6547 55.3534 29.5772 55.483 29.4393C55.6125 29.3013 55.6853 29.1143 55.6853 28.9192ZM44.6302 23.7705H47.394C47.5773 23.7705 47.753 23.6931 47.8826 23.5551C48.0122 23.4172 48.085 23.2301 48.085 23.035V22.2995C48.085 21.9094 48.2305 21.5352 48.4897 21.2593C48.7489 20.9834 49.1003 20.8285 49.4668 20.8285C49.8333 20.8285 50.1848 20.9834 50.444 21.2593C50.7031 21.5352 50.8487 21.9094 50.8487 22.2995V23.035C50.8487 23.2301 50.9215 23.4172 51.0511 23.5551C51.1807 23.6931 51.3564 23.7705 51.5397 23.7705H54.3034V28.1837H44.6302V23.7705ZM51.5397 25.2416H47.394V26.7126H51.5397V25.2416ZM57.0672 33.3323H50.1578V34.8033H57.0672V33.3323ZM57.0672 37.7454H50.1578V39.2165H57.0672V37.7454ZM57.0672 42.1585H50.1578V43.6296H57.0672V42.1585ZM57.0672 46.5717H50.1578V48.0427H57.0672V46.5717ZM47.394 51.7203V47.3072C47.394 47.1121 47.3212 46.925 47.1916 46.7871C47.0621 46.6492 46.8863 46.5717 46.7031 46.5717H42.5574C42.3742 46.5717 42.1984 46.6492 42.0688 46.7871C41.9393 46.925 41.8665 47.1121 41.8665 47.3072V51.7203C41.8665 51.9154 41.9393 52.1025 42.0688 52.2404C42.1984 52.3783 42.3742 52.4558 42.5574 52.4558H46.7031C46.8863 52.4558 47.0621 52.3783 47.1916 52.2404C47.3212 52.1025 47.394 51.9154 47.394 51.7203ZM43.2483 48.0427H46.0121V50.9848H43.2483V48.0427ZM57.0672 46.5717H50.1578V48.0427H57.0672V46.5717ZM47.394 51.7203V47.3072C47.394 47.1121 47.3212 46.925 47.1916 46.7871C47.0621 46.6492 46.8863 46.5717 46.7031 46.5717H42.5574C42.3742 46.5717 42.1984 46.6492 42.0688 46.7871C41.9393 46.925 41.8665 47.1121 41.8665 47.3072V51.7203C41.8665 51.9154 41.9393 52.1025 42.0688 52.2404C42.1984 52.3783 42.3742 52.4558 42.5574 52.4558H46.7031C46.8863 52.4558 47.0621 52.3783 47.1916 52.2404C47.3212 52.1025 47.394 51.9154 47.394 51.7203ZM43.2483 48.0427H46.0121V50.9848H43.2483V48.0427ZM57.0672 50.9848H50.1578V52.4558H57.0672V50.9848ZM44.4299 37.5321L47.1936 34.59L46.2125 33.5456L43.8495 36.0611L42.2465 34.9284L41.4864 36.1493L43.5593 37.6204C43.6717 37.7008 43.8038 37.7443 43.9393 37.7454C44.0302 37.746 44.1204 37.7274 44.2045 37.6908C44.2887 37.6542 44.3653 37.6003 44.4299 37.5321ZM44.4299 43.4163L47.1936 40.4742L46.2125 39.4298L43.8495 41.9452L42.2465 40.8125L41.4864 42.0335L43.5593 43.5045C43.6717 43.585 43.8038 43.6285 43.9393 43.6296C44.0302 43.6301 44.1204 43.6116 44.2045 43.575C44.2887 43.5384 44.3653 43.4845 44.4299 43.4163Z" fill="white" stroke="white" stroke-width="2" mask="url(#path-3-inside-1_4537_11115)"/>
<defs>
<filter id="filter0_d_4537_11115" x="0" y="0" width="98.9316" height="98.9316" filterUnits="userSpaceOnUse" color-interpolation-filters="sRGB">
<feFlood flood-opacity="0" result="BackgroundImageFix"/>
<feColorMatrix in="SourceAlpha" type="matrix" values="0 0 0 0 0 0 0 0 0 0 0 0 0 0 0 0 0 0 127 0" result="hardAlpha"/>
<feMorphology radius="1" operator="dilate" in="SourceAlpha" result="effect1_dropShadow_4537_11115"/>
<feOffset/>
<feGaussianBlur stdDeviation="2"/>
<feComposite in2="hardAlpha" operator="out"/>
<feColorMatrix type="matrix" values="0 0 0 0 0 0 0 0 0 0 0 0 0 0 0 0 0 0 0.2 0"/>
<feBlend mode="normal" in2="BackgroundImageFix" result="effect1_dropShadow_4537_11115"/>
<feBlend mode="normal" in="SourceGraphic" in2="effect1_dropShadow_4537_11115" result="shape"/>
</filter>
</defs>
</svg>
