<svg width="105" height="105" viewBox="0 0 105 105" fill="none" xmlns="http://www.w3.org/2000/svg">
<g filter="url(#filter0_d_1640_5672)">
<rect x="5" y="5" width="95" height="95.0012" rx="10" fill="#01728B"/>
</g>
<path d="M38.916 73.7852C38.916 73.6211 38.8906 73.4746 38.8398 73.3457C38.793 73.2129 38.7051 73.0938 38.5762 72.9883C38.4512 72.8789 38.2734 72.7734 38.043 72.6719C37.8164 72.5664 37.5234 72.457 37.1641 72.3438C36.7656 72.2188 36.3945 72.0781 36.0508 71.9219C35.707 71.7656 35.4043 71.584 35.1426 71.377C34.8848 71.1699 34.6836 70.9316 34.5391 70.6621C34.3945 70.3887 34.3223 70.0723 34.3223 69.7129C34.3223 69.3613 34.3965 69.041 34.5449 68.752C34.6973 68.4629 34.9121 68.2148 35.1895 68.0078C35.4668 67.7969 35.793 67.6348 36.168 67.5215C36.5469 67.4082 36.9648 67.3516 37.4219 67.3516C38.0547 67.3516 38.6016 67.4668 39.0625 67.6973C39.5273 67.9277 39.8867 68.2402 40.1406 68.6348C40.3945 69.0293 40.5215 69.4727 40.5215 69.9648H38.916C38.916 69.6992 38.8594 69.4648 38.7461 69.2617C38.6367 69.0586 38.4688 68.8984 38.2422 68.7812C38.0195 68.6641 37.7383 68.6055 37.3984 68.6055C37.0703 68.6055 36.7969 68.6543 36.5781 68.752C36.3633 68.8496 36.2012 68.9824 36.0918 69.1504C35.9863 69.3184 35.9336 69.5059 35.9336 69.7129C35.9336 69.8691 35.9707 70.0098 36.0449 70.1348C36.1191 70.2559 36.2305 70.3711 36.3789 70.4805C36.5273 70.5859 36.7109 70.6855 36.9297 70.7793C37.1523 70.8691 37.4102 70.959 37.7031 71.0488C38.1719 71.1895 38.582 71.3457 38.9336 71.5176C39.2891 71.6895 39.584 71.8848 39.8184 72.1035C40.0566 72.3223 40.2344 72.5684 40.3516 72.8418C40.4727 73.1152 40.5332 73.4258 40.5332 73.7734C40.5332 74.1406 40.4609 74.4688 40.3164 74.7578C40.1719 75.0469 39.9648 75.293 39.6953 75.4961C39.4258 75.6992 39.1016 75.8535 38.7227 75.959C38.3477 76.0645 37.9277 76.1172 37.4629 76.1172C37.0488 76.1172 36.6387 76.0625 36.2324 75.9531C35.8301 75.8398 35.4648 75.6719 35.1367 75.4492C34.8086 75.2227 34.5469 74.9375 34.3516 74.5938C34.1562 74.2461 34.0586 73.8398 34.0586 73.375H35.6758C35.6758 73.6445 35.7188 73.875 35.8047 74.0664C35.8945 74.2539 36.0195 74.4082 36.1797 74.5293C36.3438 74.6465 36.5352 74.7324 36.7539 74.7871C36.9727 74.8418 37.209 74.8691 37.4629 74.8691C37.791 74.8691 38.0605 74.8242 38.2715 74.7344C38.4863 74.6406 38.6465 74.5117 38.752 74.3477C38.8613 74.1836 38.916 73.9961 38.916 73.7852ZM45.4316 74.4941V69.6602H46.9902V76H45.5254L45.4316 74.4941ZM45.6309 73.1816L46.1113 73.1699C46.1113 73.5957 46.0645 73.9883 45.9707 74.3477C45.877 74.707 45.7305 75.0195 45.5312 75.2852C45.3359 75.5469 45.0879 75.752 44.7871 75.9004C44.4863 76.0449 44.1309 76.1172 43.7207 76.1172C43.4082 76.1172 43.123 76.0742 42.8652 75.9883C42.6074 75.8984 42.3848 75.7598 42.1973 75.5723C42.0137 75.3809 41.8711 75.1367 41.7695 74.8398C41.668 74.5391 41.6172 74.1777 41.6172 73.7559V69.6602H43.1641V73.7676C43.1641 73.9785 43.1875 74.1543 43.2344 74.2949C43.2852 74.4355 43.3535 74.5508 43.4395 74.6406C43.5293 74.7266 43.6328 74.7891 43.75 74.8281C43.8711 74.8633 44 74.8809 44.1367 74.8809C44.5117 74.8809 44.8066 74.8066 45.0215 74.6582C45.2402 74.5059 45.3965 74.3027 45.4902 74.0488C45.584 73.791 45.6309 73.502 45.6309 73.1816ZM49.9082 70.9551V76H48.3613V69.6602H49.8262L49.9082 70.9551ZM51.8359 69.6191L51.8125 71.0605C51.7266 71.0449 51.6289 71.0332 51.5195 71.0254C51.4141 71.0176 51.3145 71.0137 51.2207 71.0137C50.9824 71.0137 50.7734 71.0469 50.5938 71.1133C50.4141 71.1758 50.2637 71.2676 50.1426 71.3887C50.0254 71.5098 49.9355 71.6582 49.873 71.834C49.8105 72.0059 49.7754 72.2012 49.7676 72.4199L49.4336 72.3789C49.4336 71.9766 49.4746 71.6035 49.5566 71.2598C49.6387 70.916 49.7578 70.6152 49.9141 70.3574C50.0703 70.0996 50.2656 69.9004 50.5 69.7598C50.7383 69.6152 51.0117 69.543 51.3203 69.543C51.4062 69.543 51.498 69.5508 51.5957 69.5664C51.6973 69.5781 51.7773 69.5957 51.8359 69.6191ZM54.8945 74.8281L56.3711 69.6602H57.9883L55.8145 76H54.8301L54.8945 74.8281ZM53.8164 69.6602L55.3105 74.8398L55.3633 76H54.373L52.1934 69.6602H53.8164ZM61.5684 76.1172C61.0879 76.1172 60.6562 76.0391 60.2734 75.8828C59.8906 75.7266 59.5645 75.5098 59.2949 75.2324C59.0293 74.9512 58.8242 74.625 58.6797 74.2539C58.5391 73.8789 58.4688 73.4766 58.4688 73.0469V72.8125C58.4688 72.3242 58.5391 71.8809 58.6797 71.4824C58.8203 71.0801 59.0195 70.7344 59.2773 70.4453C59.5352 70.1562 59.8438 69.9336 60.2031 69.7773C60.5625 69.6211 60.959 69.543 61.3926 69.543C61.8418 69.543 62.2383 69.6191 62.582 69.7715C62.9258 69.9199 63.2129 70.1309 63.4434 70.4043C63.6738 70.6777 63.8477 71.0059 63.9648 71.3887C64.082 71.7676 64.1406 72.1875 64.1406 72.6484V73.2988H59.1719V72.2324H62.6172V72.1152C62.6094 71.8691 62.5625 71.6445 62.4766 71.4414C62.3906 71.2344 62.2578 71.0703 62.0781 70.9492C61.8984 70.8242 61.666 70.7617 61.3809 70.7617C61.1504 70.7617 60.9492 70.8125 60.7773 70.9141C60.6094 71.0117 60.4688 71.1523 60.3555 71.3359C60.2461 71.5156 60.1641 71.7305 60.1094 71.9805C60.0547 72.2305 60.0273 72.5078 60.0273 72.8125V73.0469C60.0273 73.3125 60.0625 73.5586 60.1328 73.7852C60.207 74.0117 60.3145 74.209 60.4551 74.377C60.5996 74.541 60.7715 74.6699 60.9707 74.7637C61.1738 74.8535 61.4043 74.8984 61.6621 74.8984C61.9863 74.8984 62.2793 74.8359 62.541 74.7109C62.8066 74.582 63.0371 74.3926 63.2324 74.1426L64.0117 74.9512C63.8789 75.1465 63.6992 75.334 63.4727 75.5137C63.25 75.6934 62.9805 75.8398 62.6641 75.9531C62.3477 76.0625 61.9824 76.1172 61.5684 76.1172ZM66.9531 75.2969L68.6523 69.6602H70.3105L67.7676 76.9609C67.709 77.1172 67.6328 77.2871 67.5391 77.4707C67.4492 77.6543 67.3281 77.8281 67.1758 77.9922C67.0234 78.1602 66.832 78.2969 66.6016 78.4023C66.375 78.5078 66.0996 78.5605 65.7754 78.5605C65.6348 78.5605 65.5098 78.5508 65.4004 78.5312C65.291 78.5117 65.1758 78.4863 65.0547 78.4551V77.2949C65.0938 77.2988 65.1387 77.3008 65.1895 77.3008C65.2441 77.3047 65.291 77.3066 65.3301 77.3066C65.5566 77.3066 65.7441 77.2793 65.8926 77.2246C66.041 77.1738 66.1602 77.0898 66.25 76.9727C66.3438 76.8594 66.4219 76.7109 66.4844 76.5273L66.9531 75.2969ZM66.1152 69.6602L67.5508 74.3301L67.8027 75.9648L66.7363 76.1582L64.4453 69.6602H66.1152ZM39.0449 84.9902V86.2559H34.5566V84.9902H39.0449ZM34.9961 81.4688V90H33.3848V81.4688H34.9961ZM40.2402 81.4688V90H38.6289V81.4688H40.2402ZM43.4043 83.6602V90H41.8516V83.6602H43.4043ZM41.7461 82.002C41.7461 81.7715 41.8242 81.5801 41.9805 81.4277C42.1406 81.2754 42.3555 81.1992 42.625 81.1992C42.8945 81.1992 43.1074 81.2754 43.2637 81.4277C43.4238 81.5801 43.5039 81.7715 43.5039 82.002C43.5039 82.2285 43.4238 82.418 43.2637 82.5703C43.1074 82.7227 42.8945 82.7988 42.625 82.7988C42.3555 82.7988 42.1406 82.7227 41.9805 82.5703C41.8242 82.418 41.7461 82.2285 41.7461 82.002ZM48.3672 88.2656C48.3672 88.1328 48.332 88.0137 48.2617 87.9082C48.1914 87.8027 48.0586 87.707 47.8633 87.6211C47.6719 87.5312 47.3906 87.4473 47.0195 87.3691C46.6914 87.2988 46.3887 87.2109 46.1113 87.1055C45.834 87 45.5957 86.873 45.3965 86.7246C45.1973 86.5723 45.041 86.3945 44.9277 86.1914C44.8184 85.9844 44.7637 85.7461 44.7637 85.4766C44.7637 85.2148 44.8203 84.9688 44.9336 84.7383C45.0469 84.5039 45.2109 84.2988 45.4258 84.123C45.6406 83.9434 45.9023 83.8027 46.2109 83.7012C46.5195 83.5957 46.8672 83.543 47.2539 83.543C47.793 83.543 48.2559 83.6309 48.6426 83.8066C49.0332 83.9824 49.332 84.2246 49.5391 84.5332C49.7461 84.8379 49.8496 85.1816 49.8496 85.5645H48.3027C48.3027 85.3965 48.2637 85.2441 48.1855 85.1074C48.1113 84.9707 47.9961 84.8613 47.8398 84.7793C47.6836 84.6934 47.4863 84.6504 47.248 84.6504C47.0332 84.6504 46.8516 84.6855 46.7031 84.7559C46.5586 84.8262 46.4492 84.918 46.375 85.0312C46.3008 85.1445 46.2637 85.2695 46.2637 85.4062C46.2637 85.5078 46.2832 85.5996 46.3223 85.6816C46.3652 85.7598 46.4336 85.832 46.5273 85.8984C46.6211 85.9648 46.748 86.0254 46.9082 86.0801C47.0723 86.1348 47.2734 86.1875 47.5117 86.2383C47.9844 86.332 48.3965 86.457 48.748 86.6133C49.1035 86.7656 49.3809 86.9688 49.5801 87.2227C49.7793 87.4766 49.8789 87.8008 49.8789 88.1953C49.8789 88.4766 49.8184 88.7344 49.6973 88.9688C49.5762 89.1992 49.4004 89.4004 49.1699 89.5723C48.9395 89.7441 48.6641 89.8789 48.3438 89.9766C48.0234 90.0703 47.6621 90.1172 47.2598 90.1172C46.6777 90.1172 46.1855 90.0137 45.7832 89.8066C45.3809 89.5957 45.0762 89.3301 44.8691 89.0098C44.6621 88.6855 44.5586 88.3496 44.5586 88.002H46.041C46.0527 88.248 46.1191 88.4453 46.2402 88.5938C46.3613 88.7422 46.5137 88.8496 46.6973 88.916C46.8848 88.9785 47.082 89.0098 47.2891 89.0098C47.5234 89.0098 47.7207 88.9785 47.8809 88.916C48.041 88.8496 48.1621 88.7617 48.2441 88.6523C48.3262 88.5391 48.3672 88.4102 48.3672 88.2656ZM54.0566 83.6602V84.7734H50.4238V83.6602H54.0566ZM51.3965 82.1016H52.9492V88.1719C52.9492 88.3594 52.9746 88.5039 53.0254 88.6055C53.0762 88.707 53.1523 88.7754 53.2539 88.8105C53.3555 88.8457 53.4766 88.8633 53.6172 88.8633C53.7188 88.8633 53.8125 88.8574 53.8984 88.8457C53.9844 88.834 54.0566 88.8223 54.1152 88.8105L54.1211 89.9707C53.9922 90.0137 53.8457 90.0488 53.6816 90.0762C53.5215 90.1035 53.3398 90.1172 53.1367 90.1172C52.7891 90.1172 52.4844 90.0586 52.2227 89.9414C51.9609 89.8203 51.7578 89.627 51.6133 89.3613C51.4688 89.0918 51.3965 88.7363 51.3965 88.2949V82.1016ZM54.6602 86.8945V86.7715C54.6602 86.3066 54.7266 85.8789 54.8594 85.4883C54.9922 85.0938 55.1855 84.752 55.4395 84.4629C55.6934 84.1738 56.0039 83.9492 56.3711 83.7891C56.7383 83.625 57.1562 83.543 57.625 83.543C58.1016 83.543 58.5234 83.625 58.8906 83.7891C59.2617 83.9492 59.5742 84.1738 59.8281 84.4629C60.082 84.752 60.2754 85.0938 60.4082 85.4883C60.541 85.8789 60.6074 86.3066 60.6074 86.7715V86.8945C60.6074 87.3555 60.541 87.7832 60.4082 88.1777C60.2754 88.5684 60.082 88.9102 59.8281 89.2031C59.5742 89.4922 59.2637 89.7168 58.8965 89.877C58.5293 90.0371 58.1094 90.1172 57.6367 90.1172C57.168 90.1172 56.748 90.0371 56.377 89.877C56.0059 89.7168 55.6934 89.4922 55.4395 89.2031C55.1855 88.9102 54.9922 88.5684 54.8594 88.1777C54.7266 87.7832 54.6602 87.3555 54.6602 86.8945ZM56.207 86.7715V86.8945C56.207 87.1719 56.2344 87.4316 56.2891 87.6738C56.3438 87.916 56.4277 88.1289 56.541 88.3125C56.6543 88.4961 56.8008 88.6406 56.9805 88.7461C57.1641 88.8477 57.3828 88.8984 57.6367 88.8984C57.8867 88.8984 58.1016 88.8477 58.2812 88.7461C58.4609 88.6406 58.6074 88.4961 58.7207 88.3125C58.8379 88.1289 58.9238 87.916 58.9785 87.6738C59.0332 87.4316 59.0605 87.1719 59.0605 86.8945V86.7715C59.0605 86.498 59.0332 86.2422 58.9785 86.0039C58.9238 85.7617 58.8379 85.5488 58.7207 85.3652C58.6074 85.1777 58.459 85.0312 58.2754 84.9258C58.0957 84.8164 57.8789 84.7617 57.625 84.7617C57.375 84.7617 57.1602 84.8164 56.9805 84.9258C56.8008 85.0312 56.6543 85.1777 56.541 85.3652C56.4277 85.5488 56.3438 85.7617 56.2891 86.0039C56.2344 86.2422 56.207 86.498 56.207 86.7715ZM63.2793 84.9551V90H61.7324V83.6602H63.1973L63.2793 84.9551ZM65.207 83.6191L65.1836 85.0605C65.0977 85.0449 65 85.0332 64.8906 85.0254C64.7852 85.0176 64.6855 85.0137 64.5918 85.0137C64.3535 85.0137 64.1445 85.0469 63.9648 85.1133C63.7852 85.1758 63.6348 85.2676 63.5137 85.3887C63.3965 85.5098 63.3066 85.6582 63.2441 85.834C63.1816 86.0059 63.1465 86.2012 63.1387 86.4199L62.8047 86.3789C62.8047 85.9766 62.8457 85.6035 62.9277 85.2598C63.0098 84.916 63.1289 84.6152 63.2852 84.3574C63.4414 84.0996 63.6367 83.9004 63.8711 83.7598C64.1094 83.6152 64.3828 83.543 64.6914 83.543C64.7773 83.543 64.8691 83.5508 64.9668 83.5664C65.0684 83.5781 65.1484 83.5957 65.207 83.6191ZM68.0195 89.2969L69.7188 83.6602H71.377L68.834 90.9609C68.7754 91.1172 68.6992 91.2871 68.6055 91.4707C68.5156 91.6543 68.3945 91.8281 68.2422 91.9922C68.0898 92.1602 67.8984 92.2969 67.668 92.4023C67.4414 92.5078 67.166 92.5605 66.8418 92.5605C66.7012 92.5605 66.5762 92.5508 66.4668 92.5312C66.3574 92.5117 66.2422 92.4863 66.1211 92.4551V91.2949C66.1602 91.2988 66.2051 91.3008 66.2559 91.3008C66.3105 91.3047 66.3574 91.3066 66.3965 91.3066C66.623 91.3066 66.8105 91.2793 66.959 91.2246C67.1074 91.1738 67.2266 91.0898 67.3164 90.9727C67.4102 90.8594 67.4883 90.7109 67.5508 90.5273L68.0195 89.2969ZM67.1816 83.6602L68.6172 88.3301L68.8691 89.9648L67.8027 90.1582L65.5117 83.6602H67.1816Z" fill="white"/>
<mask id="path-3-inside-1_1640_5672" fill="white">
<path d="M64.3095 59H40.6905C39.7117 59 38.773 58.5861 38.0809 57.8493C37.3888 57.1126 37 56.1134 37 55.0714V22.0714C37 21.0295 37.3888 20.0303 38.0809 19.2935C38.773 18.5568 39.7117 18.1429 40.6905 18.1429H44.381V19.7143H40.6905C40.1032 19.7143 39.54 19.9626 39.1247 20.4047C38.7095 20.8467 38.4762 21.4463 38.4762 22.0714V55.0714C38.4762 55.6966 38.7095 56.2961 39.1247 56.7382C39.54 57.1802 40.1032 57.4286 40.6905 57.4286H64.3095C64.8968 57.4286 65.46 57.1802 65.8753 56.7382C66.2905 56.2961 66.5238 55.6966 66.5238 55.0714V22.0714C66.5238 21.4463 66.2905 20.8467 65.8753 20.4047C65.46 19.9626 64.8968 19.7143 64.3095 19.7143H60.619V18.1429H64.3095C65.2883 18.1429 66.227 18.5568 66.9191 19.2935C67.6112 20.0303 68 21.0295 68 22.0714V55.0714C68 56.1134 67.6112 57.1126 66.9191 57.8493C66.227 58.5861 65.2883 59 64.3095 59ZM65.0476 55.0714V22.0714C65.0476 21.863 64.9699 21.6632 64.8314 21.5158C64.693 21.3685 64.5053 21.2857 64.3095 21.2857H60.619V22.8571H63.5714V54.2857H41.4286V22.8571H44.381V21.2857H40.6905C40.4947 21.2857 40.307 21.3685 40.1686 21.5158C40.0301 21.6632 39.9524 21.863 39.9524 22.0714V55.0714C39.9524 55.2798 40.0301 55.4797 40.1686 55.627C40.307 55.7744 40.4947 55.8571 40.6905 55.8571H64.3095C64.5053 55.8571 64.693 55.7744 64.8314 55.627C64.9699 55.4797 65.0476 55.2798 65.0476 55.0714ZM59.1429 25.2143V18.9286C59.1429 18.7202 59.0651 18.5203 58.9267 18.373C58.7883 18.2256 58.6005 18.1429 58.4048 18.1429H55.4524C55.4524 17.3093 55.1413 16.5099 54.5876 15.9205C54.034 15.3311 53.283 15 52.5 15C51.717 15 50.966 15.3311 50.4124 15.9205C49.8587 16.5099 49.5476 17.3093 49.5476 18.1429H46.5952C46.3995 18.1429 46.2117 18.2256 46.0733 18.373C45.9349 18.5203 45.8571 18.7202 45.8571 18.9286V25.2143C45.8571 25.4227 45.9349 25.6225 46.0733 25.7699C46.2117 25.9172 46.3995 26 46.5952 26H58.4048C58.6005 26 58.7883 25.9172 58.9267 25.7699C59.0651 25.6225 59.1429 25.4227 59.1429 25.2143ZM47.3333 19.7143H50.2857C50.4815 19.7143 50.6692 19.6315 50.8076 19.4842C50.946 19.3368 51.0238 19.137 51.0238 18.9286V18.1429C51.0238 17.7261 51.1793 17.3264 51.4562 17.0317C51.733 16.737 52.1085 16.5714 52.5 16.5714C52.8915 16.5714 53.267 16.737 53.5438 17.0317C53.8207 17.3264 53.9762 17.7261 53.9762 18.1429V18.9286C53.9762 19.137 54.054 19.3368 54.1924 19.4842C54.3308 19.6315 54.5185 19.7143 54.7143 19.7143H57.6667V24.4286H47.3333V19.7143ZM54.7143 21.2857H50.2857V22.8571H54.7143V21.2857ZM60.619 29.9286H53.2381V31.5H60.619V29.9286ZM60.619 34.6429H53.2381V36.2143H60.619V34.6429ZM60.619 39.3571H53.2381V40.9286H60.619V39.3571ZM60.619 44.0714H53.2381V45.6429H60.619V44.0714ZM50.2857 49.5714V44.8571C50.2857 44.6488 50.208 44.4489 50.0695 44.3016C49.9311 44.1542 49.7434 44.0714 49.5476 44.0714H45.119C44.9233 44.0714 44.7356 44.1542 44.5971 44.3016C44.4587 44.4489 44.381 44.6488 44.381 44.8571V49.5714C44.381 49.7798 44.4587 49.9797 44.5971 50.127C44.7356 50.2744 44.9233 50.3571 45.119 50.3571H49.5476C49.7434 50.3571 49.9311 50.2744 50.0695 50.127C50.208 49.9797 50.2857 49.7798 50.2857 49.5714ZM45.8571 45.6429H48.8095V48.7857H45.8571V45.6429ZM60.619 44.0714H53.2381V45.6429H60.619V44.0714ZM50.2857 49.5714V44.8571C50.2857 44.6488 50.208 44.4489 50.0695 44.3016C49.9311 44.1542 49.7434 44.0714 49.5476 44.0714H45.119C44.9233 44.0714 44.7356 44.1542 44.5971 44.3016C44.4587 44.4489 44.381 44.6488 44.381 44.8571V49.5714C44.381 49.7798 44.4587 49.9797 44.5971 50.127C44.7356 50.2744 44.9233 50.3571 45.119 50.3571H49.5476C49.7434 50.3571 49.9311 50.2744 50.0695 50.127C50.208 49.9797 50.2857 49.7798 50.2857 49.5714ZM45.8571 45.6429H48.8095V48.7857H45.8571V45.6429ZM60.619 48.7857H53.2381V50.3571H60.619V48.7857ZM47.1193 34.415L50.0717 31.2721L49.0236 30.1564L46.4993 32.8436L44.7869 31.6336L43.975 32.9379L46.1893 34.5093C46.3094 34.5952 46.4505 34.6417 46.5952 34.6429C46.6924 34.6435 46.7887 34.6236 46.8786 34.5845C46.9685 34.5454 47.0503 34.4878 47.1193 34.415ZM47.1193 40.7007L50.0717 37.5579L49.0236 36.4421L46.4993 39.1293L44.7869 37.9193L43.975 39.2236L46.1893 40.795C46.3094 40.8809 46.4505 40.9274 46.5952 40.9286C46.6924 40.9292 46.7887 40.9093 46.8786 40.8702C46.9685 40.8311 47.0503 40.7735 47.1193 40.7007Z"/>
</mask>
<path d="M64.3095 59H40.6905C39.7117 59 38.773 58.5861 38.0809 57.8493C37.3888 57.1126 37 56.1134 37 55.0714V22.0714C37 21.0295 37.3888 20.0303 38.0809 19.2935C38.773 18.5568 39.7117 18.1429 40.6905 18.1429H44.381V19.7143H40.6905C40.1032 19.7143 39.54 19.9626 39.1247 20.4047C38.7095 20.8467 38.4762 21.4463 38.4762 22.0714V55.0714C38.4762 55.6966 38.7095 56.2961 39.1247 56.7382C39.54 57.1802 40.1032 57.4286 40.6905 57.4286H64.3095C64.8968 57.4286 65.46 57.1802 65.8753 56.7382C66.2905 56.2961 66.5238 55.6966 66.5238 55.0714V22.0714C66.5238 21.4463 66.2905 20.8467 65.8753 20.4047C65.46 19.9626 64.8968 19.7143 64.3095 19.7143H60.619V18.1429H64.3095C65.2883 18.1429 66.227 18.5568 66.9191 19.2935C67.6112 20.0303 68 21.0295 68 22.0714V55.0714C68 56.1134 67.6112 57.1126 66.9191 57.8493C66.227 58.5861 65.2883 59 64.3095 59ZM65.0476 55.0714V22.0714C65.0476 21.863 64.9699 21.6632 64.8314 21.5158C64.693 21.3685 64.5053 21.2857 64.3095 21.2857H60.619V22.8571H63.5714V54.2857H41.4286V22.8571H44.381V21.2857H40.6905C40.4947 21.2857 40.307 21.3685 40.1686 21.5158C40.0301 21.6632 39.9524 21.863 39.9524 22.0714V55.0714C39.9524 55.2798 40.0301 55.4797 40.1686 55.627C40.307 55.7744 40.4947 55.8571 40.6905 55.8571H64.3095C64.5053 55.8571 64.693 55.7744 64.8314 55.627C64.9699 55.4797 65.0476 55.2798 65.0476 55.0714ZM59.1429 25.2143V18.9286C59.1429 18.7202 59.0651 18.5203 58.9267 18.373C58.7883 18.2256 58.6005 18.1429 58.4048 18.1429H55.4524C55.4524 17.3093 55.1413 16.5099 54.5876 15.9205C54.034 15.3311 53.283 15 52.5 15C51.717 15 50.966 15.3311 50.4124 15.9205C49.8587 16.5099 49.5476 17.3093 49.5476 18.1429H46.5952C46.3995 18.1429 46.2117 18.2256 46.0733 18.373C45.9349 18.5203 45.8571 18.7202 45.8571 18.9286V25.2143C45.8571 25.4227 45.9349 25.6225 46.0733 25.7699C46.2117 25.9172 46.3995 26 46.5952 26H58.4048C58.6005 26 58.7883 25.9172 58.9267 25.7699C59.0651 25.6225 59.1429 25.4227 59.1429 25.2143ZM47.3333 19.7143H50.2857C50.4815 19.7143 50.6692 19.6315 50.8076 19.4842C50.946 19.3368 51.0238 19.137 51.0238 18.9286V18.1429C51.0238 17.7261 51.1793 17.3264 51.4562 17.0317C51.733 16.737 52.1085 16.5714 52.5 16.5714C52.8915 16.5714 53.267 16.737 53.5438 17.0317C53.8207 17.3264 53.9762 17.7261 53.9762 18.1429V18.9286C53.9762 19.137 54.054 19.3368 54.1924 19.4842C54.3308 19.6315 54.5185 19.7143 54.7143 19.7143H57.6667V24.4286H47.3333V19.7143ZM54.7143 21.2857H50.2857V22.8571H54.7143V21.2857ZM60.619 29.9286H53.2381V31.5H60.619V29.9286ZM60.619 34.6429H53.2381V36.2143H60.619V34.6429ZM60.619 39.3571H53.2381V40.9286H60.619V39.3571ZM60.619 44.0714H53.2381V45.6429H60.619V44.0714ZM50.2857 49.5714V44.8571C50.2857 44.6488 50.208 44.4489 50.0695 44.3016C49.9311 44.1542 49.7434 44.0714 49.5476 44.0714H45.119C44.9233 44.0714 44.7356 44.1542 44.5971 44.3016C44.4587 44.4489 44.381 44.6488 44.381 44.8571V49.5714C44.381 49.7798 44.4587 49.9797 44.5971 50.127C44.7356 50.2744 44.9233 50.3571 45.119 50.3571H49.5476C49.7434 50.3571 49.9311 50.2744 50.0695 50.127C50.208 49.9797 50.2857 49.7798 50.2857 49.5714ZM45.8571 45.6429H48.8095V48.7857H45.8571V45.6429ZM60.619 44.0714H53.2381V45.6429H60.619V44.0714ZM50.2857 49.5714V44.8571C50.2857 44.6488 50.208 44.4489 50.0695 44.3016C49.9311 44.1542 49.7434 44.0714 49.5476 44.0714H45.119C44.9233 44.0714 44.7356 44.1542 44.5971 44.3016C44.4587 44.4489 44.381 44.6488 44.381 44.8571V49.5714C44.381 49.7798 44.4587 49.9797 44.5971 50.127C44.7356 50.2744 44.9233 50.3571 45.119 50.3571H49.5476C49.7434 50.3571 49.9311 50.2744 50.0695 50.127C50.208 49.9797 50.2857 49.7798 50.2857 49.5714ZM45.8571 45.6429H48.8095V48.7857H45.8571V45.6429ZM60.619 48.7857H53.2381V50.3571H60.619V48.7857ZM47.1193 34.415L50.0717 31.2721L49.0236 30.1564L46.4993 32.8436L44.7869 31.6336L43.975 32.9379L46.1893 34.5093C46.3094 34.5952 46.4505 34.6417 46.5952 34.6429C46.6924 34.6435 46.7887 34.6236 46.8786 34.5845C46.9685 34.5454 47.0503 34.4878 47.1193 34.415ZM47.1193 40.7007L50.0717 37.5579L49.0236 36.4421L46.4993 39.1293L44.7869 37.9193L43.975 39.2236L46.1893 40.795C46.3094 40.8809 46.4505 40.9274 46.5952 40.9286C46.6924 40.9292 46.7887 40.9093 46.8786 40.8702C46.9685 40.8311 47.0503 40.7735 47.1193 40.7007Z" fill="white" stroke="white" stroke-width="2" mask="url(#path-3-inside-1_1640_5672)"/>
<defs>
<filter id="filter0_d_1640_5672" x="0" y="0" width="105" height="105.001" filterUnits="userSpaceOnUse" color-interpolation-filters="sRGB">
<feFlood flood-opacity="0" result="BackgroundImageFix"/>
<feColorMatrix in="SourceAlpha" type="matrix" values="0 0 0 0 0 0 0 0 0 0 0 0 0 0 0 0 0 0 127 0" result="hardAlpha"/>
<feMorphology radius="1" operator="dilate" in="SourceAlpha" result="effect1_dropShadow_1640_5672"/>
<feOffset/>
<feGaussianBlur stdDeviation="2"/>
<feComposite in2="hardAlpha" operator="out"/>
<feColorMatrix type="matrix" values="0 0 0 0 0 0 0 0 0 0 0 0 0 0 0 0 0 0 0.2 0"/>
<feBlend mode="normal" in2="BackgroundImageFix" result="effect1_dropShadow_1640_5672"/>
<feBlend mode="normal" in="SourceGraphic" in2="effect1_dropShadow_1640_5672" result="shape"/>
</filter>
</defs>
</svg>
