<svg width="94" height="12" viewBox="0 0 94 12" fill="none" xmlns="http://www.w3.org/2000/svg">
<path d="M1.79688 1.10742V1.27971V2.08241V2.2547H1.97394H4.5924V10.6787V10.851H4.76946L5.69151 10.8502H5.86858V10.6787V2.25391H8.49356H8.67062V2.08241V1.27971V1.10742H1.79688Z" fill="#354764"/>
<path d="M25.6746 5.32576V2.19595H26.4269C27.2184 2.19595 27.7806 2.3214 28.0989 2.56911C28.4049 2.8073 28.5599 3.22652 28.5599 3.81485C28.5599 4.36824 28.4114 4.75966 28.1193 4.9788C27.8125 5.20825 27.2429 5.32497 26.4269 5.32497H25.6746V5.32576ZM27.4469 6.35633C28.1486 6.30155 28.7206 6.08003 29.1507 5.69496C29.6557 5.24319 29.912 4.61993 29.912 3.84105C29.912 2.92957 29.6133 2.23644 29.0234 1.7807C28.4457 1.3337 27.5775 1.10742 26.4408 1.10742H24.3984V10.851H25.6746V6.36983H25.9659L29.1507 10.851H30.7263L27.4469 6.35633Z" fill="#354764"/>
<path d="M65.741 1.10742H64.4648V10.8502H65.741V1.10742Z" fill="#354764"/>
<path d="M91.169 5.98793C91.169 7.44486 90.4746 8.31822 89.8929 8.79381C88.9839 9.52902 87.9598 9.62271 87.1691 9.62271H86.336V2.33886H87.1691C89.5991 2.33886 91.169 3.77118 91.169 5.98793ZM90.8084 2.24756C89.5795 1.23684 88.1948 1.10742 87.1251 1.10742H85.0117V10.8534H87.1104C88.7636 10.8534 89.7876 10.5374 90.7643 9.72751C91.9467 8.74458 92.5211 7.52187 92.5211 5.98793C92.5211 3.94664 91.4473 2.7676 90.8076 2.24756" fill="#354764"/>
<path d="M15.7757 1.10742L11.5547 10.851H12.91L15.9846 3.61635L19.0592 10.851H20.4153L16.1152 1.10742H15.7757Z" fill="#354764"/>
<path d="M39.4093 1.10742L35.1875 10.8502H36.5436L39.6182 3.61556L42.6928 10.8502H44.049L39.7488 1.10742H39.4093Z" fill="#354764"/>
<path d="M78.2322 1.10742V8.15466L72.1165 1.11457H71.6562V10.8534H72.9161V3.91171L78.9168 10.8399H79.492V1.10742H78.2322Z" fill="#354764"/>
<path d="M57.3532 1.10742L53.8298 8.51592L50.3677 1.10742H50.1172L48.5391 10.8462H49.8552L50.7357 4.81762L53.5508 10.8327H54.0811L56.933 4.81842L57.7742 10.8462H59.0888L57.6127 1.10742H57.3532Z" fill="#354764"/>
</svg>
