<svg width="20" height="21" viewBox="0 0 20 21" fill="none" xmlns="http://www.w3.org/2000/svg">
<path d="M5.58321 3.28125H13.4172C13.4988 3.28125 13.577 3.24884 13.6347 3.19115C13.6924 3.13346 13.7248 3.05522 13.7248 2.97363C13.7248 2.89205 13.6924 2.8138 13.6347 2.75611C13.577 2.69843 13.4988 2.66602 13.4172 2.66602H5.58321C5.50163 2.66602 5.42338 2.69843 5.36569 2.75611C5.30801 2.8138 5.2756 2.89205 5.2756 2.97363C5.2756 3.05522 5.30801 3.13346 5.36569 3.19115C5.42338 3.24884 5.50163 3.28125 5.58321 3.28125ZM5.58321 6.97266H13.4172C13.4988 6.97266 13.577 6.94025 13.6347 6.88256C13.6924 6.82487 13.7248 6.74662 13.7248 6.66504C13.7248 6.58345 13.6924 6.50521 13.6347 6.44752C13.577 6.38983 13.4988 6.35742 13.4172 6.35742H5.58321C5.50163 6.35742 5.42338 6.38983 5.36569 6.44752C5.30801 6.50521 5.2756 6.58345 5.2756 6.66504C5.2756 6.74662 5.30801 6.82487 5.36569 6.88256C5.42338 6.94025 5.50163 6.97266 5.58321 6.97266ZM5.58321 5.12695H13.4172C13.4988 5.12695 13.577 5.09454 13.6347 5.03685C13.6924 4.97916 13.7248 4.90092 13.7248 4.81934C13.7248 4.73775 13.6924 4.65951 13.6347 4.60182C13.577 4.54413 13.4988 4.51172 13.4172 4.51172H5.58321C5.50163 4.51172 5.42338 4.54413 5.36569 4.60182C5.30801 4.65951 5.2756 4.73775 5.2756 4.81934C5.2756 4.90092 5.30801 4.97916 5.36569 5.03685C5.42338 5.09454 5.50163 5.12695 5.58321 5.12695ZM19.7299 3.96264L19.2949 3.52763C19.1218 3.35457 18.8871 3.25735 18.6423 3.25735C18.3976 3.25735 18.1629 3.35457 17.9898 3.52763L16.5549 4.96248V1.53809C16.5544 1.1303 16.3922 0.739347 16.1039 0.450999C15.8155 0.16265 15.4246 0.000455955 15.0168 0L3.9836 0C3.57582 0.000455955 3.18486 0.16265 2.89652 0.450999C2.60817 0.739347 2.44597 1.1303 2.44552 1.53809V17.5137H0.78418C0.702595 17.5137 0.624351 17.5461 0.566662 17.6038C0.508972 17.6615 0.476562 17.7397 0.476562 17.8213V19.4619C0.477018 19.8697 0.639213 20.2607 0.927561 20.549C1.21591 20.8373 1.60686 20.9995 2.01465 21H15.0576C15.0688 21 15.0799 20.9993 15.091 20.9981C15.4855 20.9786 15.8573 20.8083 16.1298 20.5224C16.4022 20.2365 16.5544 19.8568 16.5549 19.4619V8.44286L19.7299 5.26784C19.9027 5.09462 19.9998 4.85993 19.9998 4.61524C19.9998 4.37056 19.9027 4.13586 19.7299 3.96264ZM2.01465 20.3848C1.76998 20.3845 1.53541 20.2872 1.36241 20.1142C1.1894 19.9412 1.09208 19.7066 1.0918 19.4619V18.1289H13.3555V19.4004C13.3552 19.7574 13.475 20.1041 13.6956 20.3848H2.01465ZM15.9397 17.8173C15.9397 17.8187 15.9395 17.8199 15.9395 17.8213V19.4004C15.9395 19.6615 15.8357 19.9118 15.6511 20.0964C15.4665 20.2811 15.2161 20.3848 14.9551 20.3848C14.694 20.3848 14.4436 20.2811 14.259 20.0964C14.0744 19.9118 13.9707 19.6615 13.9707 19.4004V17.8213C13.9707 17.7397 13.9383 17.6615 13.8806 17.6038C13.8229 17.5461 13.7447 17.5137 13.6631 17.5137C13.6562 17.5137 13.6494 17.5142 13.6426 17.5147C13.6358 17.5143 13.629 17.5137 13.6221 17.5137H3.06075V1.53809C3.06103 1.29342 3.15835 1.05885 3.33136 0.885843C3.50437 0.712836 3.73893 0.615517 3.9836 0.615234H15.0168C15.2615 0.615517 15.496 0.712836 15.669 0.885843C15.8421 1.05885 15.9394 1.29342 15.9397 1.53809V5.57771L10.2381 11.2793H5.58321C5.50163 11.2793 5.42338 11.3117 5.36569 11.3694C5.30801 11.4271 5.2756 11.5053 5.2756 11.5869C5.2756 11.6685 5.30801 11.7467 5.36569 11.8044C5.42338 11.8621 5.50163 11.8945 5.58321 11.8945H9.62284L8.41895 13.0985C8.41094 13.1065 8.40338 13.115 8.39631 13.1239L8.39549 13.125H5.58321C5.50163 13.125 5.42338 13.1574 5.36569 13.2151C5.30801 13.2728 5.2756 13.351 5.2756 13.4326C5.2756 13.5142 5.30801 13.5924 5.36569 13.6501C5.42338 13.7078 5.50163 13.7402 5.58321 13.7402H8.17077L7.76061 14.9707H5.58321C5.50163 14.9707 5.42338 15.0031 5.36569 15.0608C5.30801 15.1185 5.2756 15.1967 5.2756 15.2783C5.2756 15.3599 5.30801 15.4381 5.36569 15.4958C5.42338 15.5535 5.50163 15.5859 5.58321 15.5859H7.88009C7.90231 15.5859 7.92447 15.5834 7.94616 15.5786C7.99158 15.5847 8.03779 15.5802 8.08119 15.5655L10.0389 14.9129C10.0409 14.9123 10.0428 14.9113 10.0447 14.9106C10.063 14.9041 10.0807 14.8958 10.0974 14.886C10.1003 14.8843 10.1032 14.8827 10.106 14.8809C10.113 14.8764 10.1198 14.8716 10.1266 14.8665C10.1289 14.8647 10.1315 14.863 10.1338 14.8612C10.1426 14.8541 10.1511 14.8466 10.1591 14.8386L11.2575 13.7402H13.4172C13.4988 13.7402 13.577 13.7078 13.6347 13.6501C13.6924 13.5924 13.7248 13.5142 13.7248 13.4326C13.7248 13.351 13.6924 13.2728 13.6347 13.2151C13.577 13.1574 13.4988 13.125 13.4172 13.125H11.8728L15.9397 9.0581V17.8173ZM8.77091 13.8855L9.37207 14.4866L8.4703 14.7873L8.77091 13.8855ZM9.94161 14.186L9.07155 13.316L16.4641 5.92335L16.4654 5.92212L17.2694 5.11813L18.1394 5.9882L9.94161 14.186ZM19.2948 4.83279L18.5745 5.55311L17.7045 4.68304L18.4249 3.96264C18.4534 3.93407 18.4873 3.91141 18.5247 3.89595C18.562 3.88048 18.602 3.87253 18.6424 3.87253C18.6828 3.87253 18.7228 3.88048 18.7601 3.89595C18.7974 3.91141 18.8313 3.93407 18.8598 3.96264L19.2949 4.3977C19.3525 4.45542 19.3849 4.53365 19.3849 4.6152C19.3849 4.69676 19.3525 4.77498 19.2949 4.83271L19.2948 4.83279Z" fill="black"/>
</svg>
