<svg width="99" height="99" viewBox="0 0 99 99" fill="none" xmlns="http://www.w3.org/2000/svg">
<g filter="url(#filter0_d_4517_13082)">
<mask id="path-1-inside-1_4517_13082" fill="white">
<path d="M5 15C5 9.47716 9.47715 5 15 5H83.9311C89.4539 5 93.9311 9.47715 93.9311 15V83.9322C93.9311 89.455 89.4539 93.9322 83.9311 93.9322H15C9.47714 93.9322 5 89.455 5 83.9322V15Z"/>
</mask>
<path d="M5 15C5 9.47716 9.47715 5 15 5H83.9311C89.4539 5 93.9311 9.47715 93.9311 15V83.9322C93.9311 89.455 89.4539 93.9322 83.9311 93.9322H15C9.47714 93.9322 5 89.455 5 83.9322V15Z" fill="#274E6D"/>
<path d="M5 5H93.9311H5ZM93.9311 83.9322C93.9311 90.5596 88.5585 95.9322 81.9311 95.9322H17C10.3726 95.9322 5 90.5596 5 83.9322C5 88.3505 9.47715 91.9322 15 91.9322H83.9311C89.4539 91.9322 93.9311 88.3505 93.9311 83.9322ZM5 93.9322V5V93.9322ZM93.9311 5V93.9322V5Z" fill="#EA7000" mask="url(#path-1-inside-1_4517_13082)"/>
</g>
<g clip-path="url(#clip0_4517_13082)">
<path d="M54.4782 53.138L54.4937 53.1292L54.5085 53.1193C54.7115 52.984 55.024 52.7544 55.2619 52.361L57.85 48.3003V55.1262C57.85 56.2508 56.9155 57.2308 55.7454 57.2308H32.0011C30.831 57.2308 29.8965 56.2508 29.8965 55.1262V26.839C29.8965 25.6614 30.8235 24.7344 32.0011 24.7344H32.1068V27.2024C32.1068 28.5083 33.1181 29.5196 34.424 29.5196H53.2619C54.5678 29.5196 55.5791 28.5083 55.5791 27.2024V24.7344H55.6848C56.8624 24.7344 57.7894 25.6614 57.7894 26.839V28.8136C55.7704 31.9908 54.719 33.6804 54.1807 34.5474C53.9858 34.4034 53.7486 34.3345 53.5042 34.3345H33.0308C32.7355 34.3345 32.4505 34.4351 32.2381 34.6475C32.0257 34.8599 31.9251 35.1449 31.9251 35.4402C31.9251 35.7356 32.0257 36.0205 32.2381 36.2329C32.4505 36.4453 32.7355 36.546 33.0308 36.546H53.0376C52.1992 37.8088 50.3397 40.6298 46.5489 46.7278C46.3456 47.0027 46.1694 47.3336 46.16 47.7608L45.382 53.5959C45.1708 53.3909 44.8904 53.2936 44.6001 53.2936H33.0308C32.7355 53.2936 32.4505 53.3943 32.2381 53.6066C32.0257 53.819 31.9251 54.104 31.9251 54.3993C31.9251 54.6947 32.0257 54.9797 32.2381 55.192C32.4505 55.4044 32.7355 55.5051 33.0308 55.5051H44.6001C44.8955 55.5051 45.1804 55.4044 45.3928 55.192C45.3994 55.1855 45.4058 55.1789 45.4122 55.1722C45.5759 55.6259 45.8902 56.0278 46.3123 56.3233L46.3122 56.3234L46.3216 56.3297C47.0109 56.7892 47.9433 56.8745 48.7287 56.4062L54.4782 53.138ZM49.6882 29.6099H33.0308C32.4849 29.6099 31.9251 30.0441 31.9251 30.7156C31.9251 31.0109 32.0257 31.2959 32.2381 31.5083C32.4505 31.7207 32.7355 31.8213 33.0308 31.8213H49.6882C49.9835 31.8213 50.2685 31.7207 50.4809 31.5083C50.6933 31.2959 50.7939 31.0109 50.7939 30.7156C50.7939 30.4203 50.6933 30.1353 50.4809 29.9229C50.2685 29.7105 49.9835 29.6099 49.6882 29.6099ZM49.0219 39.0591H33.0308C32.4849 39.0591 31.9251 39.4934 31.9251 40.1649C31.9251 40.4602 32.0257 40.7452 32.2381 40.9576C32.4505 41.17 32.7355 41.2706 33.0308 41.2706H49.0219C49.3172 41.2706 49.6022 41.17 49.8146 40.9576C50.027 40.7452 50.1276 40.4602 50.1276 40.1649C50.1276 39.8695 50.027 39.5846 49.8146 39.3722C49.6022 39.1598 49.3172 39.0591 49.0219 39.0591ZM46.3567 43.7838H33.0308C32.4849 43.7838 31.9251 44.218 31.9251 44.8895C31.9251 45.1848 32.0257 45.4698 32.2381 45.6822C32.4505 45.8946 32.7355 45.9952 33.0308 45.9952H46.3567C46.6521 45.9952 46.937 45.8946 47.1494 45.6822C47.3618 45.4698 47.4624 45.1848 47.4624 44.8895C47.4624 44.5942 47.3618 44.3092 47.1494 44.0968C46.937 43.8844 46.6521 43.7838 46.3567 43.7838ZM33.0308 50.7804H44.6001C44.8955 50.7804 45.1804 50.6798 45.3928 50.4674C45.6052 50.255 45.7058 49.9701 45.7058 49.6747C45.7058 49.3794 45.6052 49.0944 45.3928 48.882C45.1804 48.6696 44.8955 48.569 44.6001 48.569H33.0308C32.7355 48.569 32.4505 48.6696 32.2381 48.882C32.0257 49.0944 31.9251 49.3794 31.9251 49.6747C31.9251 49.9701 32.0257 50.255 32.2381 50.4674C32.4505 50.6798 32.7355 50.7804 33.0308 50.7804Z" stroke="white"/>
<path d="M44.3465 22.7211C44.3465 22.9802 44.1365 23.1903 43.8774 23.1903C43.6183 23.1903 43.4082 22.9802 43.4082 22.7211C43.4082 22.462 43.6183 22.252 43.8774 22.252C44.1365 22.252 44.3465 22.462 44.3465 22.7211Z" stroke="white"/>
<path d="M50.0369 21.9841L50.1774 22.2517H50.4796H53.3265C53.3612 22.2517 53.3828 22.2635 53.4002 22.2821C53.4222 22.3058 53.4323 22.3362 53.4323 22.3574V27.1426C53.4323 27.1638 53.4222 27.1942 53.4002 27.2179C53.3828 27.2365 53.3612 27.2483 53.3265 27.2483H34.4309C34.429 27.2479 34.4244 27.2466 34.417 27.2432C34.4023 27.2363 34.3835 27.2239 34.3651 27.2055C34.3467 27.1871 34.3343 27.1683 34.3274 27.1536C34.324 27.1462 34.3227 27.1416 34.3223 27.1397V22.3574C34.3223 22.3362 34.3323 22.3058 34.3544 22.2821C34.3718 22.2635 34.3934 22.2517 34.428 22.2517H37.2143H37.5165L37.657 21.9841C38.8461 19.7191 41.1629 18.2539 43.7561 18.2539H43.9378C46.531 18.2539 48.8478 19.7191 50.0369 21.9841ZM48.3145 47.9795C48.3145 47.9789 48.3145 47.9784 48.3145 47.9779L58.4481 32.0116L63.5402 35.2331L53.4947 51.1531C53.4886 51.1572 53.4815 51.1619 53.4732 51.1675C53.4523 51.1814 53.4208 51.2023 53.3902 51.2246C53.3753 51.2354 53.3572 51.249 53.3375 51.2651L47.6415 54.5029C47.5842 54.53 47.5426 54.5361 47.5192 54.5361C47.4966 54.5361 47.4886 54.5309 47.4861 54.5292C47.483 54.5272 47.4774 54.5227 47.4712 54.5151C47.465 54.5077 47.4599 54.4993 47.4563 54.4909C47.4492 54.4744 47.4505 54.465 47.4515 54.4608L47.4583 54.4335L47.4621 54.4056L48.3101 48.0455L48.3145 48.0126V47.9795ZM46.5579 22.7208C46.5579 21.2332 45.3648 20.0402 43.8773 20.0402C42.3897 20.0402 41.1967 21.2332 41.1967 22.7208C41.1967 24.2084 42.3897 25.4014 43.8773 25.4014C45.3648 25.4014 46.5579 24.2084 46.5579 22.7208ZM64.9723 24.6245L65.6181 23.5988C66.0753 22.9184 66.9266 22.7416 67.6066 23.1496C68.2735 23.5497 68.5041 24.3871 68.0458 25.1207C68.0457 25.1208 68.0456 25.1209 68.0456 25.121L67.3957 26.1532C66.7529 25.4414 65.908 24.9 64.9723 24.6245Z" stroke="white"/>
<path d="M66.0406 31.1827L66.0115 31.2307L65.9937 31.2841L65.9331 31.4658L65.832 31.769L66.0648 31.988C66.9448 32.8162 67.2509 34.1595 66.7433 35.2857C66.7312 35.31 66.7213 35.3301 66.7112 35.3501C66.5887 35.5919 66.4281 35.8144 61.8656 43.0476L61.8655 43.0475L61.8598 43.0571C61.8523 43.0696 61.8332 43.0882 61.7937 43.0958C61.7748 43.0993 61.7581 43.0987 61.7466 43.0964C61.742 43.0955 61.7392 43.0946 61.7378 43.094L61.7199 43.0806L61.6978 43.0673C61.6796 43.0564 61.6712 43.0468 61.6673 43.0412C61.6632 43.0353 61.6601 43.0286 61.6582 43.0194C61.6547 43.0018 61.6544 42.9622 61.6855 42.9087C63.0645 40.7156 64.0428 39.1646 64.7386 38.0614C65.3091 37.1569 65.6897 36.5534 65.9456 36.1441C66.2268 35.6942 66.3671 35.4633 66.4437 35.3209C66.5207 35.1776 66.5462 35.0961 66.5668 35.0302C66.5693 35.0223 66.5717 35.0147 66.5741 35.0072C66.9483 34.0866 66.7066 33.0463 66.0522 32.3192L65.6028 31.8198L65.2535 32.3937L64.67 33.3523L59.5849 30.1352L60.9539 27.9549C61.8956 26.4926 63.7639 26.1386 65.1041 27.0149C66.4592 27.9009 66.9268 29.7231 66.0406 31.1827Z" stroke="white"/>
</g>
<path d="M28.0825 74.5332V68.5932H25.9325V67.5332H31.3925V68.5932H29.2425V74.5332H28.0825ZM32.475 71.8732C32.475 71.3332 32.5783 70.8899 32.785 70.5432C32.9916 70.1965 33.2583 69.9399 33.585 69.7732C33.9183 69.5999 34.265 69.5132 34.625 69.5132V70.5832C34.3183 70.5832 34.0283 70.6265 33.755 70.7132C33.4883 70.7932 33.2716 70.9265 33.105 71.1132C32.9383 71.2999 32.855 71.5465 32.855 71.8532L32.475 71.8732ZM31.735 74.5332V69.5332H32.855V74.5332H31.735ZM37.5978 74.6532C37.1111 74.6532 36.6778 74.5432 36.2978 74.3232C35.9245 74.0965 35.6278 73.7865 35.4078 73.3932C35.1945 72.9999 35.0878 72.5465 35.0878 72.0332C35.0878 71.5199 35.1978 71.0665 35.4178 70.6732C35.6378 70.2799 35.9378 69.9732 36.3178 69.7532C36.7045 69.5265 37.1445 69.4132 37.6378 69.4132C38.0845 69.4132 38.4878 69.5299 38.8478 69.7632C39.2078 69.9899 39.4911 70.3199 39.6978 70.7532C39.9111 71.1865 40.0178 71.7032 40.0178 72.3032H36.0878L36.2378 72.1632C36.2378 72.4699 36.3045 72.7365 36.4378 72.9632C36.5711 73.1832 36.7478 73.3532 36.9678 73.4732C37.1878 73.5932 37.4311 73.6532 37.6978 73.6532C38.0045 73.6532 38.2578 73.5865 38.4578 73.4532C38.6578 73.3132 38.8145 73.1332 38.9278 72.9132L39.9178 73.3332C39.7778 73.5999 39.5978 73.8332 39.3778 74.0332C39.1645 74.2332 38.9078 74.3865 38.6078 74.4932C38.3145 74.5999 37.9778 74.6532 37.5978 74.6532ZM36.3078 71.5832L36.1478 71.4432H38.9678L38.8178 71.5832C38.8178 71.3099 38.7578 71.0865 38.6378 70.9132C38.5178 70.7332 38.3645 70.5999 38.1778 70.5132C37.9978 70.4199 37.8078 70.3732 37.6078 70.3732C37.4078 70.3732 37.2078 70.4199 37.0078 70.5132C36.8078 70.5999 36.6411 70.7332 36.5078 70.9132C36.3745 71.0865 36.3078 71.3099 36.3078 71.5832ZM43.9256 74.5332L43.8756 73.5932V71.9632C43.8756 71.6232 43.8389 71.3399 43.7656 71.1132C43.6989 70.8799 43.5856 70.7032 43.4256 70.5832C43.2723 70.4565 43.0656 70.3932 42.8056 70.3932C42.5656 70.3932 42.3556 70.4432 42.1756 70.5432C41.9956 70.6432 41.8423 70.7999 41.7156 71.0132L40.7356 70.6532C40.8423 70.4332 40.9823 70.2299 41.1556 70.0432C41.3356 69.8499 41.5589 69.6965 41.8256 69.5832C42.0989 69.4699 42.4256 69.4132 42.8056 69.4132C43.2923 69.4132 43.6989 69.5099 44.0256 69.7032C44.3523 69.8899 44.5923 70.1599 44.7456 70.5132C44.9056 70.8665 44.9856 71.2932 44.9856 71.7932L44.9556 74.5332H43.9256ZM42.4856 74.6532C41.8856 74.6532 41.4189 74.5199 41.0856 74.2532C40.7589 73.9865 40.5956 73.6099 40.5956 73.1232C40.5956 72.6032 40.7689 72.2065 41.1156 71.9332C41.4689 71.6599 41.9589 71.5232 42.5856 71.5232H43.9256V72.3832H42.9456C42.4989 72.3832 42.1856 72.4465 42.0056 72.5732C41.8256 72.6932 41.7356 72.8665 41.7356 73.0932C41.7356 73.2865 41.8123 73.4399 41.9656 73.5532C42.1256 73.6599 42.3456 73.7132 42.6256 73.7132C42.8789 73.7132 43.0989 73.6565 43.2856 73.5432C43.4723 73.4299 43.6156 73.2799 43.7156 73.0932C43.8223 72.9065 43.8756 72.6965 43.8756 72.4632H44.2056C44.2056 73.1432 44.0689 73.6799 43.7956 74.0732C43.5223 74.4599 43.0856 74.6532 42.4856 74.6532ZM48.1097 74.6532C47.5831 74.6532 47.1797 74.5232 46.8997 74.2632C46.6264 73.9965 46.4897 73.6165 46.4897 73.1232V67.9732H47.5997V72.9132C47.5997 73.1465 47.6531 73.3232 47.7597 73.4432C47.8731 73.5632 48.0364 73.6232 48.2497 73.6232C48.3164 73.6232 48.3897 73.6099 48.4697 73.5832C48.5497 73.5565 48.6397 73.5065 48.7397 73.4332L49.1497 74.2832C48.9764 74.4032 48.8031 74.4932 48.6297 74.5532C48.4564 74.6199 48.2831 74.6532 48.1097 74.6532ZM45.6597 70.4932V69.5332H48.9497V70.4932H45.6597ZM50.0455 74.5332V69.5332H51.0955L51.1455 70.2032C51.2989 69.9432 51.4955 69.7465 51.7355 69.6132C51.9755 69.4799 52.2489 69.4132 52.5555 69.4132C52.9555 69.4132 53.2955 69.5032 53.5755 69.6832C53.8555 69.8632 54.0589 70.1365 54.1855 70.5032C54.3322 70.1499 54.5389 69.8799 54.8055 69.6932C55.0722 69.5065 55.3855 69.4132 55.7455 69.4132C56.3255 69.4132 56.7722 69.5999 57.0855 69.9732C57.3989 70.3399 57.5522 70.9065 57.5455 71.6732V74.5332H56.4355V71.9732C56.4355 71.5732 56.3922 71.2665 56.3055 71.0532C56.2189 70.8332 56.1022 70.6799 55.9555 70.5932C55.8089 70.5065 55.6389 70.4632 55.4455 70.4632C55.0989 70.4565 54.8289 70.5799 54.6355 70.8332C54.4489 71.0865 54.3555 71.4499 54.3555 71.9232V74.5332H53.2355V71.9732C53.2355 71.5732 53.1922 71.2665 53.1055 71.0532C53.0255 70.8332 52.9122 70.6799 52.7655 70.5932C52.6189 70.5065 52.4489 70.4632 52.2555 70.4632C51.9089 70.4565 51.6389 70.5799 51.4455 70.8332C51.2589 71.0865 51.1655 71.4499 51.1655 71.9232V74.5332H50.0455ZM60.9181 74.6532C60.4314 74.6532 59.9981 74.5432 59.6181 74.3232C59.2448 74.0965 58.9481 73.7865 58.7281 73.3932C58.5148 72.9999 58.4081 72.5465 58.4081 72.0332C58.4081 71.5199 58.5181 71.0665 58.7381 70.6732C58.9581 70.2799 59.2581 69.9732 59.6381 69.7532C60.0248 69.5265 60.4648 69.4132 60.9581 69.4132C61.4048 69.4132 61.8081 69.5299 62.1681 69.7632C62.5281 69.9899 62.8114 70.3199 63.0181 70.7532C63.2314 71.1865 63.3381 71.7032 63.3381 72.3032H59.4081L59.5581 72.1632C59.5581 72.4699 59.6248 72.7365 59.7581 72.9632C59.8914 73.1832 60.0681 73.3532 60.2881 73.4732C60.5081 73.5932 60.7514 73.6532 61.0181 73.6532C61.3248 73.6532 61.5781 73.5865 61.7781 73.4532C61.9781 73.3132 62.1348 73.1332 62.2481 72.9132L63.2381 73.3332C63.0981 73.5999 62.9181 73.8332 62.6981 74.0332C62.4848 74.2332 62.2281 74.3865 61.9281 74.4932C61.6348 74.5999 61.2981 74.6532 60.9181 74.6532ZM59.6281 71.5832L59.4681 71.4432H62.2881L62.1381 71.5832C62.1381 71.3099 62.0781 71.0865 61.9581 70.9132C61.8381 70.7332 61.6848 70.5999 61.4981 70.5132C61.3181 70.4199 61.1281 70.3732 60.9281 70.3732C60.7281 70.3732 60.5281 70.4199 60.3281 70.5132C60.1281 70.5999 59.9614 70.7332 59.8281 70.9132C59.6948 71.0865 59.6281 71.3099 59.6281 71.5832ZM64.1959 74.5332V69.5332H65.2459L65.3159 70.4532V74.5332H64.1959ZM67.5859 74.5332V71.9732H68.7059V74.5332H67.5859ZM67.5859 71.9732C67.5859 71.5732 67.5393 71.2665 67.4459 71.0532C67.3593 70.8332 67.2326 70.6799 67.0659 70.5932C66.9059 70.5065 66.7159 70.4632 66.4959 70.4632C66.1226 70.4565 65.8326 70.5799 65.6259 70.8332C65.4193 71.0865 65.3159 71.4499 65.3159 71.9232H64.8959C64.8959 71.3965 64.9726 70.9465 65.1259 70.5732C65.2793 70.1932 65.4993 69.9065 65.7859 69.7132C66.0726 69.5132 66.4126 69.4132 66.8059 69.4132C67.2059 69.4132 67.5459 69.4932 67.8259 69.6532C68.1126 69.8132 68.3293 70.0632 68.4759 70.4032C68.6293 70.7365 68.7059 71.1732 68.7059 71.7132V71.9732H67.5859ZM71.8305 74.6532C71.3038 74.6532 70.9005 74.5232 70.6205 74.2632C70.3471 73.9965 70.2105 73.6165 70.2105 73.1232V67.9732H71.3205V72.9132C71.3205 73.1465 71.3738 73.3232 71.4805 73.4432C71.5938 73.5632 71.7571 73.6232 71.9705 73.6232C72.0371 73.6232 72.1105 73.6099 72.1905 73.5832C72.2705 73.5565 72.3605 73.5065 72.4605 73.4332L72.8705 74.2832C72.6971 74.4032 72.5238 74.4932 72.3505 74.5532C72.1771 74.6199 72.0038 74.6532 71.8305 74.6532ZM69.3805 70.4932V69.5332H72.6705V70.4932H69.3805ZM30.871 86.6532C30.5043 86.6532 30.1676 86.6099 29.861 86.5232C29.561 86.4365 29.2943 86.3165 29.061 86.1632C28.8343 86.0099 28.6443 85.8399 28.491 85.6532C28.3443 85.4599 28.241 85.2599 28.181 85.0532L29.321 84.7032C29.4076 84.9499 29.5776 85.1665 29.831 85.3532C30.0843 85.5399 30.3976 85.6365 30.771 85.6432C31.2043 85.6432 31.5476 85.5532 31.801 85.3732C32.0543 85.1932 32.181 84.9565 32.181 84.6632C32.181 84.3965 32.0743 84.1799 31.861 84.0132C31.6476 83.8399 31.361 83.7065 31.001 83.6132L30.141 83.3932C29.8143 83.3065 29.5176 83.1799 29.251 83.0132C28.991 82.8465 28.7843 82.6365 28.631 82.3832C28.4843 82.1299 28.411 81.8299 28.411 81.4832C28.411 80.8299 28.6243 80.3232 29.051 79.9632C29.4776 79.5965 30.0876 79.4132 30.881 79.4132C31.3276 79.4132 31.7176 79.4832 32.051 79.6232C32.391 79.7565 32.671 79.9432 32.891 80.1832C33.111 80.4165 33.2743 80.6832 33.381 80.9832L32.261 81.3432C32.161 81.0765 31.9876 80.8565 31.741 80.6832C31.4943 80.5099 31.1876 80.4232 30.821 80.4232C30.441 80.4232 30.141 80.5132 29.921 80.6932C29.7076 80.8732 29.601 81.1232 29.601 81.4432C29.601 81.7032 29.6843 81.9065 29.851 82.0532C30.0243 82.1932 30.2576 82.2999 30.551 82.3732L31.411 82.5832C32.0376 82.7365 32.5243 82.9999 32.871 83.3732C33.2176 83.7465 33.391 84.1599 33.391 84.6132C33.391 85.0132 33.2943 85.3665 33.101 85.6732C32.9076 85.9799 32.621 86.2199 32.241 86.3932C31.8676 86.5665 31.411 86.6532 30.871 86.6532ZM37.8145 86.5332L37.7545 85.6132V81.5332H38.8645V86.5332H37.8145ZM34.3545 84.0932V81.5332H35.4745V84.0932H34.3545ZM35.4745 84.0932C35.4745 84.4865 35.5211 84.7932 35.6145 85.0132C35.7078 85.2332 35.8345 85.3865 35.9945 85.4732C36.1611 85.5599 36.3511 85.6032 36.5645 85.6032C36.9445 85.6099 37.2378 85.4865 37.4445 85.2332C37.6511 84.9799 37.7545 84.6165 37.7545 84.1432H38.1745C38.1745 84.6699 38.0945 85.1232 37.9345 85.5032C37.7811 85.8765 37.5611 86.1632 37.2745 86.3632C36.9945 86.5565 36.6545 86.6532 36.2545 86.6532C35.8611 86.6532 35.5211 86.5732 35.2345 86.4132C34.9545 86.2532 34.7378 86.0032 34.5845 85.6632C34.4311 85.3232 34.3545 84.8865 34.3545 84.3532V84.0932H35.4745ZM40.109 86.5332V81.5332H41.159L41.209 82.2032C41.3623 81.9432 41.559 81.7465 41.799 81.6132C42.039 81.4799 42.3123 81.4132 42.619 81.4132C43.019 81.4132 43.359 81.5032 43.639 81.6832C43.919 81.8632 44.1223 82.1365 44.249 82.5032C44.3957 82.1499 44.6023 81.8799 44.869 81.6932C45.1357 81.5065 45.449 81.4132 45.809 81.4132C46.389 81.4132 46.8357 81.5999 47.149 81.9732C47.4623 82.3399 47.6157 82.9065 47.609 83.6732V86.5332H46.499V83.9732C46.499 83.5732 46.4557 83.2665 46.369 83.0532C46.2823 82.8332 46.1657 82.6799 46.019 82.5932C45.8723 82.5065 45.7023 82.4632 45.509 82.4632C45.1623 82.4565 44.8923 82.5799 44.699 82.8332C44.5123 83.0865 44.419 83.4499 44.419 83.9232V86.5332H43.299V83.9732C43.299 83.5732 43.2557 83.2665 43.169 83.0532C43.089 82.8332 42.9757 82.6799 42.829 82.5932C42.6823 82.5065 42.5123 82.4632 42.319 82.4632C41.9723 82.4565 41.7023 82.5799 41.509 82.8332C41.3223 83.0865 41.229 83.4499 41.229 83.9232V86.5332H40.109ZM48.7516 86.5332V81.5332H49.8016L49.8516 82.2032C50.0049 81.9432 50.2016 81.7465 50.4416 81.6132C50.6816 81.4799 50.9549 81.4132 51.2616 81.4132C51.6616 81.4132 52.0016 81.5032 52.2816 81.6832C52.5616 81.8632 52.7649 82.1365 52.8916 82.5032C53.0382 82.1499 53.2449 81.8799 53.5116 81.6932C53.7782 81.5065 54.0916 81.4132 54.4516 81.4132C55.0316 81.4132 55.4782 81.5999 55.7916 81.9732C56.1049 82.3399 56.2582 82.9065 56.2516 83.6732V86.5332H55.1416V83.9732C55.1416 83.5732 55.0982 83.2665 55.0116 83.0532C54.9249 82.8332 54.8082 82.6799 54.6616 82.5932C54.5149 82.5065 54.3449 82.4632 54.1516 82.4632C53.8049 82.4565 53.5349 82.5799 53.3416 82.8332C53.1549 83.0865 53.0616 83.4499 53.0616 83.9232V86.5332H51.9416V83.9732C51.9416 83.5732 51.8982 83.2665 51.8116 83.0532C51.7316 82.8332 51.6182 82.6799 51.4716 82.5932C51.3249 82.5065 51.1549 82.4632 50.9616 82.4632C50.6149 82.4565 50.3449 82.5799 50.1516 82.8332C49.9649 83.0865 49.8716 83.4499 49.8716 83.9232V86.5332H48.7516ZM60.4442 86.5332L60.3942 85.5932V83.9632C60.3942 83.6232 60.3575 83.3399 60.2842 83.1132C60.2175 82.8799 60.1042 82.7032 59.9442 82.5832C59.7908 82.4565 59.5842 82.3932 59.3242 82.3932C59.0842 82.3932 58.8742 82.4432 58.6942 82.5432C58.5142 82.6432 58.3608 82.7999 58.2342 83.0132L57.2542 82.6532C57.3608 82.4332 57.5008 82.2299 57.6742 82.0432C57.8542 81.8499 58.0775 81.6965 58.3442 81.5832C58.6175 81.4699 58.9442 81.4132 59.3242 81.4132C59.8108 81.4132 60.2175 81.5099 60.5442 81.7032C60.8708 81.8899 61.1108 82.1599 61.2642 82.5132C61.4242 82.8665 61.5042 83.2932 61.5042 83.7932L61.4742 86.5332H60.4442ZM59.0042 86.6532C58.4042 86.6532 57.9375 86.5199 57.6042 86.2532C57.2775 85.9865 57.1142 85.6099 57.1142 85.1232C57.1142 84.6032 57.2875 84.2065 57.6342 83.9332C57.9875 83.6599 58.4775 83.5232 59.1042 83.5232H60.4442V84.3832H59.4642C59.0175 84.3832 58.7042 84.4465 58.5242 84.5732C58.3442 84.6932 58.2542 84.8665 58.2542 85.0932C58.2542 85.2865 58.3308 85.4399 58.4842 85.5532C58.6442 85.6599 58.8642 85.7132 59.1442 85.7132C59.3975 85.7132 59.6175 85.6565 59.8042 85.5432C59.9908 85.4299 60.1342 85.2799 60.2342 85.0932C60.3408 84.9065 60.3942 84.6965 60.3942 84.4632H60.7242C60.7242 85.1432 60.5875 85.6799 60.3142 86.0732C60.0408 86.4599 59.6042 86.6532 59.0042 86.6532ZM63.3783 83.8732C63.3783 83.3332 63.4816 82.8899 63.6883 82.5432C63.895 82.1965 64.1616 81.9399 64.4883 81.7732C64.8216 81.5999 65.1683 81.5132 65.5283 81.5132V82.5832C65.2216 82.5832 64.9316 82.6265 64.6583 82.7132C64.3916 82.7932 64.175 82.9265 64.0083 83.1132C63.8416 83.2999 63.7583 83.5465 63.7583 83.8532L63.3783 83.8732ZM62.6383 86.5332V81.5332H63.7583V86.5332H62.6383ZM67.0611 88.6532C66.9011 88.6532 66.7211 88.6232 66.5211 88.5632C66.3278 88.5032 66.1411 88.4265 65.9611 88.3332L66.3811 87.4232C66.5078 87.4832 66.6244 87.5299 66.7311 87.5632C66.8378 87.6032 66.9244 87.6232 66.9911 87.6232C67.1511 87.6232 67.2844 87.5799 67.3911 87.4932C67.5044 87.4132 67.5944 87.2932 67.6611 87.1332L68.2511 85.7532L69.9411 81.5332H71.1611L68.8411 87.0632C68.7011 87.3832 68.5578 87.6632 68.4111 87.9032C68.2711 88.1432 68.0944 88.3265 67.8811 88.4532C67.6678 88.5865 67.3944 88.6532 67.0611 88.6532ZM67.9511 86.5332L65.7111 81.5332H66.9311L68.6711 85.7432L69.0311 86.5332H67.9511Z" fill="white"/>
<defs>
<filter id="filter0_d_4517_13082" x="0" y="0" width="98.9316" height="98.9316" filterUnits="userSpaceOnUse" color-interpolation-filters="sRGB">
<feFlood flood-opacity="0" result="BackgroundImageFix"/>
<feColorMatrix in="SourceAlpha" type="matrix" values="0 0 0 0 0 0 0 0 0 0 0 0 0 0 0 0 0 0 127 0" result="hardAlpha"/>
<feMorphology radius="1" operator="dilate" in="SourceAlpha" result="effect1_dropShadow_4517_13082"/>
<feOffset/>
<feGaussianBlur stdDeviation="2"/>
<feComposite in2="hardAlpha" operator="out"/>
<feColorMatrix type="matrix" values="0 0 0 0 0 0 0 0 0 0 0 0 0 0 0 0 0 0 0.2 0"/>
<feBlend mode="normal" in2="BackgroundImageFix" result="effect1_dropShadow_4517_13082"/>
<feBlend mode="normal" in="SourceGraphic" in2="effect1_dropShadow_4517_13082" result="shape"/>
</filter>
<clipPath id="clip0_4517_13082">
<rect width="41.1891" height="41.1891" fill="white" transform="translate(28.4902 17.1484)"/>
</clipPath>
</defs>
</svg>
