<svg width="103" height="103" viewBox="0 0 103 103" fill="none" xmlns="http://www.w3.org/2000/svg">
<g filter="url(#filter0_d_1640_5684)">
<rect x="4" width="95" height="95.0012" rx="10" fill="#01728B"/>
</g>
<g clip-path="url(#clip0_1640_5684)">
<path d="M56.7452 48.4168L56.7607 48.408L56.7755 48.3981C56.9909 48.2545 57.32 48.0125 57.5703 47.5984L60.3982 43.1615V50.5703C60.3982 51.79 59.3851 52.8527 58.1158 52.8527H32.7511C31.4818 52.8527 30.4688 51.79 30.4688 50.5703V20.3527C30.4688 19.0759 31.4743 18.0703 32.7511 18.0703H32.8982V20.7409C32.8982 22.117 33.9632 23.1821 35.3393 23.1821H55.4629C56.839 23.1821 57.904 22.117 57.904 20.7409V18.0703H58.0511C59.3279 18.0703 60.3335 19.0759 60.3335 20.3527V22.4719C58.1481 25.9107 57.0228 27.72 56.4535 28.6371C56.2465 28.4727 55.9888 28.3938 55.7217 28.3938H33.8511C33.5434 28.3938 33.2481 28.4986 33.0284 28.7182C32.8088 28.9379 32.704 29.2332 32.704 29.5409C32.704 29.8486 32.8088 30.1439 33.0284 30.3636C33.2481 30.5832 33.5434 30.688 33.8511 30.688H55.2869C54.4086 32.0102 52.4236 35.0167 48.3199 41.6179C48.1044 41.9092 47.9197 42.2568 47.9103 42.7049L47.0696 49.0101C47.0577 48.9969 47.0453 48.9839 47.0326 48.9712C46.813 48.7515 46.5177 48.6468 46.2099 48.6468H33.8511C33.5434 48.6468 33.2481 48.7515 33.0284 48.9712C32.8088 49.1908 32.704 49.4861 32.704 49.7938C32.704 50.1016 32.8088 50.3969 33.0284 50.6165C33.2481 50.8361 33.5434 50.9409 33.8511 50.9409H46.2099C46.5177 50.9409 46.813 50.8361 47.0326 50.6165C47.053 50.5961 47.0723 50.5751 47.0907 50.5535C47.257 51.0535 47.5962 51.4975 48.0585 51.8211L48.0584 51.8212L48.0679 51.8275C48.7942 52.3118 49.7762 52.4012 50.6029 51.9082L56.7452 48.4168ZM51.6452 23.3468H33.8511C33.2845 23.3468 32.704 23.7975 32.704 24.4938C32.704 24.8016 32.8088 25.0969 33.0284 25.3165C33.2481 25.5361 33.5434 25.6409 33.8511 25.6409H51.6452C51.953 25.6409 52.2483 25.5361 52.4679 25.3165C52.6875 25.0969 52.7923 24.8016 52.7923 24.4938C52.7923 24.1861 52.6875 23.8908 52.4679 23.6712C52.2483 23.4515 51.953 23.3468 51.6452 23.3468ZM50.9335 33.4409H33.8511C33.2845 33.4409 32.704 33.8916 32.704 34.588C32.704 34.8957 32.8088 35.191 33.0284 35.4106C33.2481 35.6303 33.5434 35.735 33.8511 35.735H50.9335C51.2412 35.735 51.5365 35.6303 51.7561 35.4106C51.9758 35.191 52.0805 34.8957 52.0805 34.588C52.0805 34.2802 51.9758 33.9849 51.7561 33.7653C51.5365 33.5457 51.2412 33.4409 50.9335 33.4409ZM48.0864 38.488H33.8511C33.2845 38.488 32.704 38.9387 32.704 39.635C32.704 39.9428 32.8088 40.2381 33.0284 40.4577C33.2481 40.6773 33.5434 40.7821 33.8511 40.7821H48.0864C48.3941 40.7821 48.6894 40.6773 48.9091 40.4577C49.1287 40.2381 49.2335 39.9428 49.2335 39.635C49.2335 39.3273 49.1287 39.032 48.9091 38.8123C48.6894 38.5927 48.3941 38.488 48.0864 38.488ZM33.8511 45.8938H46.2099C46.5177 45.8938 46.813 45.7891 47.0326 45.5694C47.2522 45.3498 47.357 45.0545 47.357 44.7468C47.357 44.439 47.2522 44.1437 47.0326 43.9241C46.813 43.7045 46.5177 43.5997 46.2099 43.5997H33.8511C33.5434 43.5997 33.2481 43.7045 33.0284 43.9241C32.8088 44.1437 32.704 44.439 32.704 44.7468C32.704 45.0545 32.8088 45.3498 33.0284 45.5694C33.2481 45.7891 33.5434 45.8938 33.8511 45.8938Z" stroke="white"/>
<path d="M45.9729 15.9533C45.9729 16.2489 45.7333 16.4886 45.4376 16.4886C45.142 16.4886 44.9023 16.2489 44.9023 15.9533C44.9023 15.6576 45.142 15.418 45.4376 15.418C45.7333 15.418 45.9729 15.6576 45.9729 15.9533Z" stroke="white"/>
<path d="M52.0467 15.1505L52.1872 15.418H52.4894H55.5306C55.5776 15.418 55.6096 15.435 55.6342 15.4614C55.6635 15.4928 55.6777 15.5336 55.6777 15.5651V20.6769C55.6777 20.7084 55.6635 20.7492 55.6342 20.7806C55.6096 20.807 55.5776 20.8239 55.5306 20.8239H35.3427C35.3424 20.8239 35.3333 20.8232 35.3162 20.8152C35.2967 20.8061 35.2733 20.7904 35.2511 20.7682C35.2288 20.7459 35.2131 20.7225 35.204 20.703C35.196 20.6859 35.1954 20.6769 35.1953 20.6765V15.5651C35.1953 15.5336 35.2095 15.4928 35.2388 15.4614C35.2634 15.435 35.2953 15.418 35.3424 15.418H38.3188H38.6211L38.7615 15.1505C40.0374 12.7202 42.5238 11.1475 45.3071 11.1475H45.5012C48.2845 11.1475 50.7708 12.7202 52.0467 15.1505ZM50.1424 42.9357C50.1424 42.9314 50.1424 42.9276 50.1424 42.9241L60.9911 25.8311L66.4883 29.3089L55.7353 46.3502C55.7273 46.3556 55.7178 46.362 55.7062 46.3697L55.7034 46.3716C55.681 46.3865 55.6494 46.4076 55.6187 46.4299C55.6025 46.4416 55.5829 46.4564 55.5618 46.4738L49.4732 49.9347C49.3371 49.9997 49.2796 49.9655 49.2727 49.9609C49.2583 49.9513 49.2397 49.9312 49.2284 49.9049C49.2182 49.8812 49.2185 49.8635 49.2216 49.8511L49.2284 49.8238L49.2321 49.7959L50.138 43.0018L50.1424 42.9689V42.9357ZM48.2659 15.9533C48.2659 14.3831 47.0067 13.1239 45.4365 13.1239C43.8662 13.1239 42.6071 14.3831 42.6071 15.9533C42.6071 17.5236 43.8662 18.7828 45.4365 18.7828C47.0067 18.7828 48.2659 17.5236 48.2659 15.9533ZM67.9181 18.0071L68.6324 16.8727C69.131 16.1303 70.0607 15.9369 70.8028 16.3821C71.5315 16.8193 71.7828 17.735 71.2836 18.5346C71.2834 18.5349 71.2832 18.5351 71.2831 18.5354L70.5646 19.6765C69.8687 18.893 68.9434 18.2997 67.9181 18.0071Z" stroke="white"/>
<path d="M69.1413 25.0111L69.1121 25.0592L69.0944 25.1125L69.0297 25.3066L68.9286 25.6098L69.1613 25.8288C70.1116 26.7232 70.4425 28.174 69.8936 29.3911C69.8805 29.4174 69.8697 29.4393 69.8587 29.461C69.7269 29.7212 69.5541 29.9608 64.6811 37.6862L64.681 37.6862L64.6753 37.6957C64.6616 37.7185 64.6321 37.7434 64.5818 37.753C64.5311 37.7626 64.5024 37.7491 64.4985 37.7472C64.4981 37.7471 64.498 37.747 64.4981 37.7471L64.4775 37.7316L64.4554 37.7183C64.4139 37.6935 64.4018 37.6677 64.3972 37.6446C64.3917 37.6168 64.3933 37.5659 64.4307 37.502C65.9039 35.1589 66.9491 33.5019 67.6924 32.3234C68.3018 31.3572 68.7084 30.7126 68.9817 30.2753C69.2823 29.7944 69.4315 29.5487 69.5126 29.3979C69.5934 29.2478 69.6197 29.1635 69.6417 29.0933C69.6445 29.0845 69.6472 29.0758 69.6499 29.0673C70.0449 28.0971 69.7908 26.9987 69.0992 26.2303L68.6497 25.7309L68.3004 26.3048L67.6591 27.3585L62.1689 23.8851L63.6495 21.5271C64.6656 19.949 66.6827 19.5661 68.1304 20.5126C69.5929 21.4689 70.0977 23.4358 69.1413 25.0111Z" stroke="white"/>
</g>
<path d="M28.1094 62.4688V71H26.5039V62.4688H28.1094ZM30.7578 62.4688V63.7402H23.8848V62.4688H30.7578ZM32.8496 65.9551V71H31.3027V64.6602H32.7676L32.8496 65.9551ZM34.7773 64.6191L34.7539 66.0605C34.668 66.0449 34.5703 66.0332 34.4609 66.0254C34.3555 66.0176 34.2559 66.0137 34.1621 66.0137C33.9238 66.0137 33.7148 66.0469 33.5352 66.1133C33.3555 66.1758 33.2051 66.2676 33.084 66.3887C32.9668 66.5098 32.877 66.6582 32.8145 66.834C32.752 67.0059 32.7168 67.2012 32.709 67.4199L32.375 67.3789C32.375 66.9766 32.416 66.6035 32.498 66.2598C32.5801 65.916 32.6992 65.6152 32.8555 65.3574C33.0117 65.0996 33.207 64.9004 33.4414 64.7598C33.6797 64.6152 33.9531 64.543 34.2617 64.543C34.3477 64.543 34.4395 64.5508 34.5371 64.5664C34.6387 64.5781 34.7188 64.5957 34.7773 64.6191ZM38.3574 71.1172C37.877 71.1172 37.4453 71.0391 37.0625 70.8828C36.6797 70.7266 36.3535 70.5098 36.084 70.2324C35.8184 69.9512 35.6133 69.625 35.4688 69.2539C35.3281 68.8789 35.2578 68.4766 35.2578 68.0469V67.8125C35.2578 67.3242 35.3281 66.8809 35.4688 66.4824C35.6094 66.0801 35.8086 65.7344 36.0664 65.4453C36.3242 65.1562 36.6328 64.9336 36.9922 64.7773C37.3516 64.6211 37.748 64.543 38.1816 64.543C38.6309 64.543 39.0273 64.6191 39.3711 64.7715C39.7148 64.9199 40.002 65.1309 40.2324 65.4043C40.4629 65.6777 40.6367 66.0059 40.7539 66.3887C40.8711 66.7676 40.9297 67.1875 40.9297 67.6484V68.2988H35.9609V67.2324H39.4062V67.1152C39.3984 66.8691 39.3516 66.6445 39.2656 66.4414C39.1797 66.2344 39.0469 66.0703 38.8672 65.9492C38.6875 65.8242 38.4551 65.7617 38.1699 65.7617C37.9395 65.7617 37.7383 65.8125 37.5664 65.9141C37.3984 66.0117 37.2578 66.1523 37.1445 66.3359C37.0352 66.5156 36.9531 66.7305 36.8984 66.9805C36.8438 67.2305 36.8164 67.5078 36.8164 67.8125V68.0469C36.8164 68.3125 36.8516 68.5586 36.9219 68.7852C36.9961 69.0117 37.1035 69.209 37.2441 69.377C37.3887 69.541 37.5605 69.6699 37.7598 69.7637C37.9629 69.8535 38.1934 69.8984 38.4512 69.8984C38.7754 69.8984 39.0684 69.8359 39.3301 69.7109C39.5957 69.582 39.8262 69.3926 40.0215 69.1426L40.8008 69.9512C40.668 70.1465 40.4883 70.334 40.2617 70.5137C40.0391 70.6934 39.7695 70.8398 39.4531 70.9531C39.1367 71.0625 38.7715 71.1172 38.3574 71.1172ZM45.459 69.6523V66.7285C45.459 66.5137 45.4219 66.3281 45.3477 66.1719C45.2734 66.0156 45.1602 65.8945 45.0078 65.8086C44.8555 65.7227 44.6621 65.6797 44.4277 65.6797C44.2207 65.6797 44.0391 65.7148 43.8828 65.7852C43.7305 65.8555 43.6133 65.9551 43.5312 66.084C43.4492 66.209 43.4082 66.3535 43.4082 66.5176H41.8555C41.8555 66.2559 41.918 66.0078 42.043 65.7734C42.168 65.5352 42.3457 65.3242 42.5762 65.1406C42.8105 64.9531 43.0898 64.8066 43.4141 64.7012C43.7422 64.5957 44.1094 64.543 44.5156 64.543C44.9961 64.543 45.4238 64.625 45.7988 64.7891C46.1777 64.9492 46.4746 65.1914 46.6895 65.5156C46.9082 65.8398 47.0176 66.248 47.0176 66.7402V69.5059C47.0176 69.8223 47.0371 70.0938 47.0762 70.3203C47.1191 70.543 47.1816 70.7363 47.2637 70.9004V71H45.6875C45.6133 70.8398 45.5566 70.6367 45.5176 70.3906C45.4785 70.1406 45.459 69.8945 45.459 69.6523ZM45.6758 67.1387L45.6875 68.0586H44.709C44.4668 68.0586 44.2539 68.084 44.0703 68.1348C43.8867 68.1816 43.7363 68.252 43.6191 68.3457C43.502 68.4355 43.4141 68.5449 43.3555 68.6738C43.2969 68.7988 43.2676 68.9414 43.2676 69.1016C43.2676 69.2578 43.3027 69.3984 43.373 69.5234C43.4473 69.6484 43.5527 69.748 43.6895 69.8223C43.8301 69.8926 43.9941 69.9277 44.1816 69.9277C44.4551 69.9277 44.6934 69.873 44.8965 69.7637C45.0996 69.6504 45.2578 69.5137 45.3711 69.3535C45.4844 69.1934 45.5449 69.041 45.5527 68.8965L45.998 69.5645C45.9434 69.7246 45.8613 69.8945 45.752 70.0742C45.6426 70.2539 45.502 70.4219 45.3301 70.5781C45.1582 70.7344 44.9512 70.8633 44.709 70.9648C44.4668 71.0664 44.1855 71.1172 43.8652 71.1172C43.4551 71.1172 43.0879 71.0352 42.7637 70.8711C42.4395 70.707 42.1836 70.4824 41.9961 70.1973C41.8086 69.9121 41.7148 69.5879 41.7148 69.2246C41.7148 68.8887 41.7773 68.5918 41.9023 68.334C42.0273 68.0762 42.2129 67.8594 42.459 67.6836C42.7051 67.5039 43.0098 67.3691 43.373 67.2793C43.7402 67.1855 44.1602 67.1387 44.6328 67.1387H45.6758ZM51.4121 64.6602V65.7734H47.7793V64.6602H51.4121ZM48.752 63.1016H50.3047V69.1719C50.3047 69.3594 50.3301 69.5039 50.3809 69.6055C50.4316 69.707 50.5078 69.7754 50.6094 69.8105C50.7109 69.8457 50.832 69.8633 50.9727 69.8633C51.0742 69.8633 51.168 69.8574 51.2539 69.8457C51.3398 69.834 51.4121 69.8223 51.4707 69.8105L51.4766 70.9707C51.3477 71.0137 51.2012 71.0488 51.0371 71.0762C50.877 71.1035 50.6953 71.1172 50.4922 71.1172C50.1445 71.1172 49.8398 71.0586 49.5781 70.9414C49.3164 70.8203 49.1133 70.627 48.9688 70.3613C48.8242 70.0918 48.752 69.7363 48.752 69.2949V63.1016ZM53.9844 65.9609V71H52.4375V64.6602H53.8965L53.9844 65.9609ZM53.7559 67.6016H53.2812C53.2812 67.1602 53.334 66.7539 53.4395 66.3828C53.5488 66.0117 53.709 65.6895 53.9199 65.416C54.1309 65.1387 54.3906 64.9238 54.6992 64.7715C55.0117 64.6191 55.373 64.543 55.7832 64.543C56.0684 64.543 56.3301 64.5859 56.5684 64.6719C56.8066 64.7539 57.0117 64.8848 57.1836 65.0645C57.3594 65.2402 57.4941 65.4707 57.5879 65.7559C57.6816 66.0371 57.7285 66.375 57.7285 66.7695V71H56.1816V66.9277C56.1816 66.6309 56.1387 66.3984 56.0527 66.2305C55.9707 66.0625 55.8516 65.9453 55.6953 65.8789C55.5391 65.8086 55.3516 65.7734 55.1328 65.7734C54.8906 65.7734 54.6816 65.8223 54.5059 65.9199C54.334 66.0137 54.1914 66.1445 54.0781 66.3125C53.9688 66.4805 53.8867 66.6738 53.832 66.8926C53.7812 67.1113 53.7559 67.3477 53.7559 67.6016ZM57.6113 67.3145L56.9727 67.4316C56.9766 67.0332 57.0312 66.6602 57.1367 66.3125C57.2422 65.9609 57.3965 65.6543 57.5996 65.3926C57.8066 65.127 58.0625 64.9199 58.3672 64.7715C58.6758 64.6191 59.0312 64.543 59.4336 64.543C59.7461 64.543 60.0273 64.5879 60.2773 64.6777C60.5312 64.7637 60.748 64.9023 60.9277 65.0938C61.1074 65.2812 61.2441 65.5254 61.3379 65.8262C61.4355 66.127 61.4844 66.4941 61.4844 66.9277V71H59.9258V66.9219C59.9258 66.6133 59.8828 66.377 59.7969 66.2129C59.7148 66.0488 59.5957 65.9355 59.4395 65.873C59.2832 65.8066 59.0996 65.7734 58.8887 65.7734C58.6738 65.7734 58.4863 65.8145 58.3262 65.8965C58.1699 65.9746 58.0371 66.084 57.9277 66.2246C57.8223 66.3652 57.7422 66.5293 57.6875 66.7168C57.6367 66.9004 57.6113 67.0996 57.6113 67.3145ZM65.7207 71.1172C65.2402 71.1172 64.8086 71.0391 64.4258 70.8828C64.043 70.7266 63.7168 70.5098 63.4473 70.2324C63.1816 69.9512 62.9766 69.625 62.832 69.2539C62.6914 68.8789 62.6211 68.4766 62.6211 68.0469V67.8125C62.6211 67.3242 62.6914 66.8809 62.832 66.4824C62.9727 66.0801 63.1719 65.7344 63.4297 65.4453C63.6875 65.1562 63.9961 64.9336 64.3555 64.7773C64.7148 64.6211 65.1113 64.543 65.5449 64.543C65.9941 64.543 66.3906 64.6191 66.7344 64.7715C67.0781 64.9199 67.3652 65.1309 67.5957 65.4043C67.8262 65.6777 68 66.0059 68.1172 66.3887C68.2344 66.7676 68.293 67.1875 68.293 67.6484V68.2988H63.3242V67.2324H66.7695V67.1152C66.7617 66.8691 66.7148 66.6445 66.6289 66.4414C66.543 66.2344 66.4102 66.0703 66.2305 65.9492C66.0508 65.8242 65.8184 65.7617 65.5332 65.7617C65.3027 65.7617 65.1016 65.8125 64.9297 65.9141C64.7617 66.0117 64.6211 66.1523 64.5078 66.3359C64.3984 66.5156 64.3164 66.7305 64.2617 66.9805C64.207 67.2305 64.1797 67.5078 64.1797 67.8125V68.0469C64.1797 68.3125 64.2148 68.5586 64.2852 68.7852C64.3594 69.0117 64.4668 69.209 64.6074 69.377C64.752 69.541 64.9238 69.6699 65.123 69.7637C65.3262 69.8535 65.5566 69.8984 65.8145 69.8984C66.1387 69.8984 66.4316 69.8359 66.6934 69.7109C66.959 69.582 67.1895 69.3926 67.3848 69.1426L68.1641 69.9512C68.0312 70.1465 67.8516 70.334 67.625 70.5137C67.4023 70.6934 67.1328 70.8398 66.8164 70.9531C66.5 71.0625 66.1348 71.1172 65.7207 71.1172ZM70.8477 66.0137V71H69.3008V64.6602H70.7539L70.8477 66.0137ZM70.6016 67.6016H70.1445C70.1484 67.1406 70.2109 66.7227 70.332 66.3477C70.4531 65.9727 70.623 65.6504 70.8418 65.3809C71.0645 65.1113 71.3281 64.9043 71.6328 64.7598C71.9375 64.6152 72.2773 64.543 72.6523 64.543C72.957 64.543 73.2324 64.5859 73.4785 64.6719C73.7246 64.7578 73.9355 64.8945 74.1113 65.082C74.291 65.2695 74.4277 65.5156 74.5215 65.8203C74.6191 66.1211 74.668 66.4922 74.668 66.9336V71H73.1094V66.9219C73.1094 66.6328 73.0664 66.4043 72.9805 66.2363C72.8984 66.0684 72.7773 65.9492 72.6172 65.8789C72.4609 65.8086 72.2676 65.7734 72.0371 65.7734C71.7988 65.7734 71.5898 65.8223 71.4102 65.9199C71.2344 66.0137 71.0859 66.1445 70.9648 66.3125C70.8477 66.4805 70.7578 66.6738 70.6953 66.8926C70.6328 67.1113 70.6016 67.3477 70.6016 67.6016ZM79.0332 64.6602V65.7734H75.4004V64.6602H79.0332ZM76.373 63.1016H77.9258V69.1719C77.9258 69.3594 77.9512 69.5039 78.002 69.6055C78.0527 69.707 78.1289 69.7754 78.2305 69.8105C78.332 69.8457 78.4531 69.8633 78.5938 69.8633C78.6953 69.8633 78.7891 69.8574 78.875 69.8457C78.9609 69.834 79.0332 69.8223 79.0918 69.8105L79.0977 70.9707C78.9688 71.0137 78.8223 71.0488 78.6582 71.0762C78.498 71.1035 78.3164 71.1172 78.1133 71.1172C77.7656 71.1172 77.4609 71.0586 77.1992 70.9414C76.9375 70.8203 76.7344 70.627 76.5898 70.3613C76.4453 70.0918 76.373 69.7363 76.373 69.2949V63.1016ZM30.916 82.7852C30.916 82.6211 30.8906 82.4746 30.8398 82.3457C30.793 82.2129 30.7051 82.0938 30.5762 81.9883C30.4512 81.8789 30.2734 81.7734 30.043 81.6719C29.8164 81.5664 29.5234 81.457 29.1641 81.3438C28.7656 81.2188 28.3945 81.0781 28.0508 80.9219C27.707 80.7656 27.4043 80.584 27.1426 80.377C26.8848 80.1699 26.6836 79.9316 26.5391 79.6621C26.3945 79.3887 26.3223 79.0723 26.3223 78.7129C26.3223 78.3613 26.3965 78.041 26.5449 77.752C26.6973 77.4629 26.9121 77.2148 27.1895 77.0078C27.4668 76.7969 27.793 76.6348 28.168 76.5215C28.5469 76.4082 28.9648 76.3516 29.4219 76.3516C30.0547 76.3516 30.6016 76.4668 31.0625 76.6973C31.5273 76.9277 31.8867 77.2402 32.1406 77.6348C32.3945 78.0293 32.5215 78.4727 32.5215 78.9648H30.916C30.916 78.6992 30.8594 78.4648 30.7461 78.2617C30.6367 78.0586 30.4688 77.8984 30.2422 77.7812C30.0195 77.6641 29.7383 77.6055 29.3984 77.6055C29.0703 77.6055 28.7969 77.6543 28.5781 77.752C28.3633 77.8496 28.2012 77.9824 28.0918 78.1504C27.9863 78.3184 27.9336 78.5059 27.9336 78.7129C27.9336 78.8691 27.9707 79.0098 28.0449 79.1348C28.1191 79.2559 28.2305 79.3711 28.3789 79.4805C28.5273 79.5859 28.7109 79.6855 28.9297 79.7793C29.1523 79.8691 29.4102 79.959 29.7031 80.0488C30.1719 80.1895 30.582 80.3457 30.9336 80.5176C31.2891 80.6895 31.584 80.8848 31.8184 81.1035C32.0566 81.3223 32.2344 81.5684 32.3516 81.8418C32.4727 82.1152 32.5332 82.4258 32.5332 82.7734C32.5332 83.1406 32.4609 83.4688 32.3164 83.7578C32.1719 84.0469 31.9648 84.293 31.6953 84.4961C31.4258 84.6992 31.1016 84.8535 30.7227 84.959C30.3477 85.0645 29.9277 85.1172 29.4629 85.1172C29.0488 85.1172 28.6387 85.0625 28.2324 84.9531C27.8301 84.8398 27.4648 84.6719 27.1367 84.4492C26.8086 84.2227 26.5469 83.9375 26.3516 83.5938C26.1562 83.2461 26.0586 82.8398 26.0586 82.375H27.6758C27.6758 82.6445 27.7188 82.875 27.8047 83.0664C27.8945 83.2539 28.0195 83.4082 28.1797 83.5293C28.3438 83.6465 28.5352 83.7324 28.7539 83.7871C28.9727 83.8418 29.209 83.8691 29.4629 83.8691C29.791 83.8691 30.0605 83.8242 30.2715 83.7344C30.4863 83.6406 30.6465 83.5117 30.752 83.3477C30.8613 83.1836 30.916 82.9961 30.916 82.7852ZM37.4316 83.4941V78.6602H38.9902V85H37.5254L37.4316 83.4941ZM37.6309 82.1816L38.1113 82.1699C38.1113 82.5957 38.0645 82.9883 37.9707 83.3477C37.877 83.707 37.7305 84.0195 37.5312 84.2852C37.3359 84.5469 37.0879 84.752 36.7871 84.9004C36.4863 85.0449 36.1309 85.1172 35.7207 85.1172C35.4082 85.1172 35.123 85.0742 34.8652 84.9883C34.6074 84.8984 34.3848 84.7598 34.1973 84.5723C34.0137 84.3809 33.8711 84.1367 33.7695 83.8398C33.668 83.5391 33.6172 83.1777 33.6172 82.7559V78.6602H35.1641V82.7676C35.1641 82.9785 35.1875 83.1543 35.2344 83.2949C35.2852 83.4355 35.3535 83.5508 35.4395 83.6406C35.5293 83.7266 35.6328 83.7891 35.75 83.8281C35.8711 83.8633 36 83.8809 36.1367 83.8809C36.5117 83.8809 36.8066 83.8066 37.0215 83.6582C37.2402 83.5059 37.3965 83.3027 37.4902 83.0488C37.584 82.791 37.6309 82.502 37.6309 82.1816ZM41.9023 79.9609V85H40.3555V78.6602H41.8145L41.9023 79.9609ZM41.6738 81.6016H41.1992C41.1992 81.1602 41.252 80.7539 41.3574 80.3828C41.4668 80.0117 41.627 79.6895 41.8379 79.416C42.0488 79.1387 42.3086 78.9238 42.6172 78.7715C42.9297 78.6191 43.291 78.543 43.7012 78.543C43.9863 78.543 44.248 78.5859 44.4863 78.6719C44.7246 78.7539 44.9297 78.8848 45.1016 79.0645C45.2773 79.2402 45.4121 79.4707 45.5059 79.7559C45.5996 80.0371 45.6465 80.375 45.6465 80.7695V85H44.0996V80.9277C44.0996 80.6309 44.0566 80.3984 43.9707 80.2305C43.8887 80.0625 43.7695 79.9453 43.6133 79.8789C43.457 79.8086 43.2695 79.7734 43.0508 79.7734C42.8086 79.7734 42.5996 79.8223 42.4238 79.9199C42.252 80.0137 42.1094 80.1445 41.9961 80.3125C41.8867 80.4805 41.8047 80.6738 41.75 80.8926C41.6992 81.1113 41.6738 81.3477 41.6738 81.6016ZM45.5293 81.3145L44.8906 81.4316C44.8945 81.0332 44.9492 80.6602 45.0547 80.3125C45.1602 79.9609 45.3145 79.6543 45.5176 79.3926C45.7246 79.127 45.9805 78.9199 46.2852 78.7715C46.5938 78.6191 46.9492 78.543 47.3516 78.543C47.6641 78.543 47.9453 78.5879 48.1953 78.6777C48.4492 78.7637 48.666 78.9023 48.8457 79.0938C49.0254 79.2812 49.1621 79.5254 49.2559 79.8262C49.3535 80.127 49.4023 80.4941 49.4023 80.9277V85H47.8438V80.9219C47.8438 80.6133 47.8008 80.377 47.7148 80.2129C47.6328 80.0488 47.5137 79.9355 47.3574 79.873C47.2012 79.8066 47.0176 79.7734 46.8066 79.7734C46.5918 79.7734 46.4043 79.8145 46.2441 79.8965C46.0879 79.9746 45.9551 80.084 45.8457 80.2246C45.7402 80.3652 45.6602 80.5293 45.6055 80.7168C45.5547 80.9004 45.5293 81.0996 45.5293 81.3145ZM52.332 79.9609V85H50.7852V78.6602H52.2441L52.332 79.9609ZM52.1035 81.6016H51.6289C51.6289 81.1602 51.6816 80.7539 51.7871 80.3828C51.8965 80.0117 52.0566 79.6895 52.2676 79.416C52.4785 79.1387 52.7383 78.9238 53.0469 78.7715C53.3594 78.6191 53.7207 78.543 54.1309 78.543C54.416 78.543 54.6777 78.5859 54.916 78.6719C55.1543 78.7539 55.3594 78.8848 55.5312 79.0645C55.707 79.2402 55.8418 79.4707 55.9355 79.7559C56.0293 80.0371 56.0762 80.375 56.0762 80.7695V85H54.5293V80.9277C54.5293 80.6309 54.4863 80.3984 54.4004 80.2305C54.3184 80.0625 54.1992 79.9453 54.043 79.8789C53.8867 79.8086 53.6992 79.7734 53.4805 79.7734C53.2383 79.7734 53.0293 79.8223 52.8535 79.9199C52.6816 80.0137 52.5391 80.1445 52.4258 80.3125C52.3164 80.4805 52.2344 80.6738 52.1797 80.8926C52.1289 81.1113 52.1035 81.3477 52.1035 81.6016ZM55.959 81.3145L55.3203 81.4316C55.3242 81.0332 55.3789 80.6602 55.4844 80.3125C55.5898 79.9609 55.7441 79.6543 55.9473 79.3926C56.1543 79.127 56.4102 78.9199 56.7148 78.7715C57.0234 78.6191 57.3789 78.543 57.7812 78.543C58.0938 78.543 58.375 78.5879 58.625 78.6777C58.8789 78.7637 59.0957 78.9023 59.2754 79.0938C59.4551 79.2812 59.5918 79.5254 59.6855 79.8262C59.7832 80.127 59.832 80.4941 59.832 80.9277V85H58.2734V80.9219C58.2734 80.6133 58.2305 80.377 58.1445 80.2129C58.0625 80.0488 57.9434 79.9355 57.7871 79.873C57.6309 79.8066 57.4473 79.7734 57.2363 79.7734C57.0215 79.7734 56.834 79.8145 56.6738 79.8965C56.5176 79.9746 56.3848 80.084 56.2754 80.2246C56.1699 80.3652 56.0898 80.5293 56.0352 80.7168C55.9844 80.9004 55.959 81.0996 55.959 81.3145ZM64.7129 83.6523V80.7285C64.7129 80.5137 64.6758 80.3281 64.6016 80.1719C64.5273 80.0156 64.4141 79.8945 64.2617 79.8086C64.1094 79.7227 63.916 79.6797 63.6816 79.6797C63.4746 79.6797 63.293 79.7148 63.1367 79.7852C62.9844 79.8555 62.8672 79.9551 62.7852 80.084C62.7031 80.209 62.6621 80.3535 62.6621 80.5176H61.1094C61.1094 80.2559 61.1719 80.0078 61.2969 79.7734C61.4219 79.5352 61.5996 79.3242 61.8301 79.1406C62.0645 78.9531 62.3438 78.8066 62.668 78.7012C62.9961 78.5957 63.3633 78.543 63.7695 78.543C64.25 78.543 64.6777 78.625 65.0527 78.7891C65.4316 78.9492 65.7285 79.1914 65.9434 79.5156C66.1621 79.8398 66.2715 80.248 66.2715 80.7402V83.5059C66.2715 83.8223 66.291 84.0938 66.3301 84.3203C66.373 84.543 66.4355 84.7363 66.5176 84.9004V85H64.9414C64.8672 84.8398 64.8105 84.6367 64.7715 84.3906C64.7324 84.1406 64.7129 83.8945 64.7129 83.6523ZM64.9297 81.1387L64.9414 82.0586H63.9629C63.7207 82.0586 63.5078 82.084 63.3242 82.1348C63.1406 82.1816 62.9902 82.252 62.873 82.3457C62.7559 82.4355 62.668 82.5449 62.6094 82.6738C62.5508 82.7988 62.5215 82.9414 62.5215 83.1016C62.5215 83.2578 62.5566 83.3984 62.627 83.5234C62.7012 83.6484 62.8066 83.748 62.9434 83.8223C63.084 83.8926 63.248 83.9277 63.4355 83.9277C63.709 83.9277 63.9473 83.873 64.1504 83.7637C64.3535 83.6504 64.5117 83.5137 64.625 83.3535C64.7383 83.1934 64.7988 83.041 64.8066 82.8965L65.252 83.5645C65.1973 83.7246 65.1152 83.8945 65.0059 84.0742C64.8965 84.2539 64.7559 84.4219 64.584 84.5781C64.4121 84.7344 64.2051 84.8633 63.9629 84.9648C63.7207 85.0664 63.4395 85.1172 63.1191 85.1172C62.709 85.1172 62.3418 85.0352 62.0176 84.8711C61.6934 84.707 61.4375 84.4824 61.25 84.1973C61.0625 83.9121 60.9688 83.5879 60.9688 83.2246C60.9688 82.8887 61.0312 82.5918 61.1562 82.334C61.2812 82.0762 61.4668 81.8594 61.7129 81.6836C61.959 81.5039 62.2637 81.3691 62.627 81.2793C62.9941 81.1855 63.4141 81.1387 63.8867 81.1387H64.9297ZM69.2129 79.9551V85H67.666V78.6602H69.1309L69.2129 79.9551ZM71.1406 78.6191L71.1172 80.0605C71.0312 80.0449 70.9336 80.0332 70.8242 80.0254C70.7188 80.0176 70.6191 80.0137 70.5254 80.0137C70.2871 80.0137 70.0781 80.0469 69.8984 80.1133C69.7188 80.1758 69.5684 80.2676 69.4473 80.3887C69.3301 80.5098 69.2402 80.6582 69.1777 80.834C69.1152 81.0059 69.0801 81.2012 69.0723 81.4199L68.7383 81.3789C68.7383 80.9766 68.7793 80.6035 68.8613 80.2598C68.9434 79.916 69.0625 79.6152 69.2188 79.3574C69.375 79.0996 69.5703 78.9004 69.8047 78.7598C70.043 78.6152 70.3164 78.543 70.625 78.543C70.7109 78.543 70.8027 78.5508 70.9004 78.5664C71.002 78.5781 71.082 78.5957 71.1406 78.6191ZM73.9531 84.2969L75.6523 78.6602H77.3105L74.7676 85.9609C74.709 86.1172 74.6328 86.2871 74.5391 86.4707C74.4492 86.6543 74.3281 86.8281 74.1758 86.9922C74.0234 87.1602 73.832 87.2969 73.6016 87.4023C73.375 87.5078 73.0996 87.5605 72.7754 87.5605C72.6348 87.5605 72.5098 87.5508 72.4004 87.5312C72.291 87.5117 72.1758 87.4863 72.0547 87.4551V86.2949C72.0938 86.2988 72.1387 86.3008 72.1895 86.3008C72.2441 86.3047 72.291 86.3066 72.3301 86.3066C72.5566 86.3066 72.7441 86.2793 72.8926 86.2246C73.041 86.1738 73.1602 86.0898 73.25 85.9727C73.3438 85.8594 73.4219 85.7109 73.4844 85.5273L73.9531 84.2969ZM73.1152 78.6602L74.5508 83.3301L74.8027 84.9648L73.7363 85.1582L71.4453 78.6602H73.1152Z" fill="white"/>
<defs>
<filter id="filter0_d_1640_5684" x="0" y="0" width="103" height="103.001" filterUnits="userSpaceOnUse" color-interpolation-filters="sRGB">
<feFlood flood-opacity="0" result="BackgroundImageFix"/>
<feColorMatrix in="SourceAlpha" type="matrix" values="0 0 0 0 0 0 0 0 0 0 0 0 0 0 0 0 0 0 127 0" result="hardAlpha"/>
<feOffset dy="4"/>
<feGaussianBlur stdDeviation="2"/>
<feComposite in2="hardAlpha" operator="out"/>
<feColorMatrix type="matrix" values="0 0 0 0 0 0 0 0 0 0 0 0 0 0 0 0 0 0 0.25 0"/>
<feBlend mode="normal" in2="BackgroundImageFix" result="effect1_dropShadow_1640_5684"/>
<feBlend mode="normal" in="SourceGraphic" in2="effect1_dropShadow_1640_5684" result="shape"/>
</filter>
<clipPath id="clip0_1640_5684">
<rect width="44" height="44" fill="white" transform="translate(29 10)"/>
</clipPath>
</defs>
</svg>
