<svg width="90" height="89" viewBox="0 0 90 89" fill="none" xmlns="http://www.w3.org/2000/svg">
<g filter="url(#filter0_d_3455_9916)">
<rect x="4.73047" width="80.5234" height="80.5244" rx="10" fill="#87ABC9"/>
</g>
<path d="M49.5541 43.6281L49.5696 43.6193L49.5844 43.6095C49.7702 43.4856 50.0598 43.2732 50.2805 42.9085L52.5365 39.3688V45.3873C52.5365 46.3802 51.7108 47.2456 50.6782 47.2456H29.1787C28.146 47.2456 27.3203 46.3802 27.3203 45.3873V19.7744C27.3203 18.7342 28.1385 17.916 29.1787 17.916H29.2271V20.1035C29.2271 21.2298 30.0409 22.1202 31.13 22.236H30.111C29.5937 22.236 29.0626 22.6473 29.0626 23.2845C29.0626 23.5627 29.1575 23.8333 29.3599 24.0357C29.5622 24.238 29.8329 24.333 30.111 24.333H45.1936C45.4718 24.333 45.7424 24.238 45.9448 24.0357C46.1471 23.8333 46.2421 23.5627 46.2421 23.2845C46.2421 23.0063 46.1471 22.7357 45.9448 22.5333C45.7851 22.3736 45.5829 22.2808 45.368 22.2488H48.4295C49.638 22.2488 50.5749 21.312 50.5749 20.1035V17.916H50.6233C51.6635 17.916 52.4817 18.7342 52.4817 19.7744V21.5485C50.6905 24.3672 49.742 25.8905 49.2476 26.6867C49.0706 26.5697 48.8619 26.514 48.6489 26.514H30.111C29.8329 26.514 29.5622 26.6089 29.3599 26.8113C29.1575 27.0136 29.0626 27.2843 29.0626 27.5625C29.0626 27.8406 29.1575 28.1113 29.3599 28.3136C29.5622 28.516 29.8329 28.6109 30.111 28.6109H48.1383C47.4296 29.6791 45.9787 31.8849 43.2089 36.3171C43.22 36.2519 43.2255 36.1853 43.2255 36.1184C43.2255 35.8402 43.1306 35.5696 42.9283 35.3672C42.7259 35.1648 42.4552 35.0699 42.1771 35.0699H30.111C29.5937 35.0699 29.0626 35.4812 29.0626 36.1184C29.0626 36.3965 29.1575 36.6672 29.3599 36.8696C29.5622 37.0719 29.8329 37.1668 30.111 37.1668H42.1771C42.3975 37.1668 42.6133 37.1072 42.7941 36.9817C42.6373 37.2332 42.4766 37.4913 42.3119 37.7563C42.1257 38.0086 41.9613 38.3163 41.9517 38.7145L41.2593 43.9075C41.0681 43.7535 40.8302 43.6807 40.5866 43.6807H30.111C29.8329 43.6807 29.5622 43.7756 29.3599 43.9779C29.1575 44.1803 29.0626 44.451 29.0626 44.7291C29.0626 45.0073 29.1575 45.2779 29.3599 45.4803C29.5622 45.6827 29.8329 45.7776 30.111 45.7776H40.5866C40.8493 45.7776 41.1053 45.6929 41.3034 45.5131C41.4611 45.9055 41.7414 46.252 42.1097 46.5099L42.1097 46.51L42.1191 46.5163C42.7568 46.9414 43.6205 47.021 44.3486 46.5871L49.5541 43.6281ZM44.5903 30.792H30.111C29.5937 30.792 29.0626 31.2033 29.0626 31.8404C29.0626 32.1186 29.1575 32.3892 29.3599 32.5916C29.5622 32.794 29.8329 32.8889 30.111 32.8889H44.5903C44.8685 32.8889 45.1391 32.794 45.3415 32.5916C45.5438 32.3892 45.6388 32.1186 45.6388 31.8404C45.6388 31.5623 45.5438 31.2916 45.3415 31.0892C45.1391 30.8869 44.8685 30.792 44.5903 30.792ZM30.111 41.4996H40.5866C40.8647 41.4996 41.1354 41.4047 41.3377 41.2024C41.5401 41 41.635 40.7293 41.635 40.4512C41.635 40.173 41.5401 39.9024 41.3377 39.7C41.1354 39.4976 40.8647 39.4027 40.5866 39.4027H30.111C29.8329 39.4027 29.5622 39.4976 29.3599 39.7C29.1575 39.9024 29.0626 40.173 29.0626 40.4512C29.0626 40.7293 29.1575 41 29.3599 41.2024C29.5622 41.4047 29.8329 41.4996 30.111 41.4996Z" stroke="white"/>
<path d="M40.3097 16.0455C40.3097 16.254 40.1407 16.423 39.9322 16.423C39.7237 16.423 39.5547 16.254 39.5547 16.0455C39.5547 15.837 39.7237 15.668 39.9322 15.668C40.1407 15.668 40.3097 15.837 40.3097 16.0455Z" stroke="white"/>
<path d="M45.468 15.4011L45.6085 15.6686H45.9107H48.4884C48.5 15.6686 48.5057 15.6708 48.5082 15.672C48.5115 15.6734 48.5158 15.6761 48.5205 15.6812C48.5255 15.6866 48.5301 15.6936 48.5332 15.7014C48.5363 15.7092 48.5369 15.7149 48.5369 15.7171V20.0499C48.5369 20.0521 48.5363 20.0578 48.5332 20.0656C48.5301 20.0734 48.5255 20.0804 48.5205 20.0858C48.5158 20.0909 48.5115 20.0936 48.5082 20.095C48.5057 20.0962 48.5 20.0984 48.4884 20.0984H31.3871C31.387 20.0983 31.3868 20.0982 31.3866 20.0981C31.3787 20.0944 31.3661 20.0864 31.3531 20.0734C31.34 20.0604 31.3321 20.0478 31.3283 20.0398C31.3283 20.0397 31.3282 20.0395 31.3281 20.0394V15.7171C31.3281 15.7149 31.3287 15.7092 31.3318 15.7014C31.3349 15.6936 31.3395 15.6866 31.3445 15.6812C31.3492 15.6761 31.3535 15.6734 31.3568 15.672C31.3593 15.6708 31.365 15.6686 31.3766 15.6686H33.8995H34.2017L34.3422 15.4011C35.411 13.3652 37.4931 12.0488 39.8228 12.0488H39.9873C42.3171 12.0488 44.3991 13.3652 45.468 15.4011ZM43.9975 38.95V38.9291L53.1404 24.5237L57.6713 27.3902L48.6061 41.7567C48.6027 41.7589 48.599 41.7614 48.595 41.7641L48.5923 41.7659C48.5735 41.7784 48.5455 41.7971 48.5183 41.8169C48.5051 41.8264 48.4891 41.8384 48.4715 41.8527L43.319 44.7815C43.2735 44.8028 43.2432 44.8063 43.2301 44.8063C43.2277 44.8063 43.2258 44.8062 43.2245 44.8061C43.2241 44.8056 43.2236 44.8051 43.2231 44.8045C43.2203 44.8012 43.2181 44.7974 43.2166 44.794C43.2164 44.7935 43.2162 44.793 43.2161 44.7926C43.216 44.7924 43.2159 44.7923 43.2159 44.7921L43.2215 44.7696L43.2252 44.7417L43.9931 38.9829L43.9975 38.95ZM42.4069 16.0462C42.4069 14.6731 41.3056 13.5717 39.9325 13.5717C38.5594 13.5717 37.4581 14.6731 37.4581 16.0462C37.4581 17.4192 38.5594 18.5206 39.9325 18.5206C41.3056 18.5206 42.4069 17.4192 42.4069 16.0462ZM59.1063 17.7425L59.6575 16.867C60.0575 16.2724 60.8 16.1184 61.3941 16.4749C61.975 16.8235 62.177 17.5519 61.7762 18.1938C61.7761 18.194 61.7759 18.1942 61.7758 18.1944L61.2205 19.0764C60.6521 18.4632 59.918 17.9935 59.1063 17.7425Z" stroke="white"/>
<path d="M59.9596 23.6838L59.9304 23.7318L59.9126 23.7852L59.8578 23.9497L59.7567 24.2529L59.9894 24.4719C60.7721 25.2085 61.0439 26.403 60.5935 27.4032C60.5828 27.4245 60.5741 27.4423 60.5652 27.4599C60.4557 27.6762 60.312 27.875 56.1797 34.4263L56.1796 34.4262L56.1739 34.4358L56.1738 34.4358C56.1736 34.4362 56.1729 34.4375 56.1694 34.4398C56.1649 34.4427 56.1568 34.4465 56.1457 34.4487C56.1368 34.4504 56.1293 34.4503 56.1244 34.4498L56.1141 34.4421L56.092 34.4288C56.0862 34.4253 56.0828 34.4225 56.0811 34.4209C56.0805 34.4204 56.0801 34.42 56.0797 34.4196C56.0791 34.4189 56.0788 34.4184 56.0787 34.4184C56.0787 34.4184 56.0787 34.4184 56.0787 34.4183C56.0786 34.4183 56.0786 34.4183 56.0787 34.4183L56.0786 34.418L56.0783 34.4167C56.0775 34.4131 56.0746 34.3892 56.0971 34.3502C57.3453 32.3651 58.2309 30.9609 58.8609 29.9621C59.3776 29.1429 59.7223 28.5964 59.954 28.2257C60.2084 27.8187 60.3363 27.6082 60.4065 27.4777C60.4786 27.3438 60.5028 27.2661 60.5216 27.2061C60.5236 27.1996 60.5255 27.1934 60.5275 27.1873C60.8729 26.3356 60.6484 25.3755 60.0456 24.7057L59.5962 24.2063L59.2469 24.7802L58.7435 25.6071L54.2197 22.7451L55.4341 20.8111C56.2726 19.5091 57.9348 19.1952 59.1261 19.9741C60.3323 20.7628 60.7484 22.3846 59.9596 23.6838Z" stroke="white"/>
<path d="M25.5078 54.8906V62H24.1699V54.8906H25.5078ZM27.7148 54.8906V55.9502H21.9873V54.8906H27.7148ZM29.458 57.7959V62H28.1689V56.7168H29.3896L29.458 57.7959ZM31.0645 56.6826L31.0449 57.8838C30.9733 57.8708 30.8919 57.861 30.8008 57.8545C30.7129 57.848 30.6299 57.8447 30.5518 57.8447C30.3532 57.8447 30.179 57.8724 30.0293 57.9277C29.8796 57.9798 29.7542 58.0563 29.6533 58.1572C29.5557 58.2581 29.4808 58.3818 29.4287 58.5283C29.3766 58.6715 29.3473 58.8343 29.3408 59.0166L29.0625 58.9824C29.0625 58.6471 29.0967 58.3363 29.165 58.0498C29.2334 57.7633 29.3327 57.5127 29.4629 57.2979C29.5931 57.083 29.7559 56.917 29.9512 56.7998C30.1497 56.6794 30.3776 56.6191 30.6348 56.6191C30.7064 56.6191 30.7829 56.6257 30.8643 56.6387C30.9489 56.6484 31.0156 56.6631 31.0645 56.6826ZM34.0479 62.0977C33.6475 62.0977 33.2878 62.0326 32.9688 61.9023C32.6497 61.7721 32.3779 61.5915 32.1533 61.3604C31.932 61.126 31.7611 60.8542 31.6406 60.5449C31.5234 60.2324 31.4648 59.8971 31.4648 59.5391V59.3438C31.4648 58.9368 31.5234 58.5674 31.6406 58.2354C31.7578 57.9001 31.9238 57.612 32.1387 57.3711C32.3535 57.1302 32.6107 56.9447 32.9102 56.8145C33.2096 56.6842 33.54 56.6191 33.9014 56.6191C34.2757 56.6191 34.6061 56.6826 34.8926 56.8096C35.179 56.9333 35.4183 57.109 35.6104 57.3369C35.8024 57.5648 35.9473 57.8382 36.0449 58.1572C36.1426 58.473 36.1914 58.8229 36.1914 59.207V59.749H32.0508V58.8604H34.9219V58.7627C34.9154 58.5576 34.8763 58.3704 34.8047 58.2012C34.7331 58.0286 34.6224 57.8919 34.4727 57.791C34.3229 57.6868 34.1292 57.6348 33.8916 57.6348C33.6995 57.6348 33.5319 57.6771 33.3887 57.7617C33.2487 57.8431 33.1315 57.9603 33.0371 58.1133C32.946 58.263 32.8776 58.4421 32.832 58.6504C32.7865 58.8587 32.7637 59.0898 32.7637 59.3438V59.5391C32.7637 59.7604 32.793 59.9655 32.8516 60.1543C32.9134 60.3431 33.0029 60.5075 33.1201 60.6475C33.2406 60.7842 33.3838 60.8916 33.5498 60.9697C33.7191 61.0446 33.9111 61.082 34.126 61.082C34.3962 61.082 34.6403 61.0299 34.8584 60.9258C35.0798 60.8184 35.2718 60.6605 35.4346 60.4521L36.084 61.126C35.9733 61.2887 35.8236 61.445 35.6348 61.5947C35.4492 61.7445 35.2246 61.8665 34.9609 61.9609C34.6973 62.0521 34.3929 62.0977 34.0479 62.0977ZM39.9658 60.877V58.4404C39.9658 58.2614 39.9349 58.1068 39.873 57.9766C39.8112 57.8464 39.7168 57.7454 39.5898 57.6738C39.4629 57.6022 39.3018 57.5664 39.1064 57.5664C38.9339 57.5664 38.7826 57.5957 38.6523 57.6543C38.5254 57.7129 38.4277 57.7959 38.3594 57.9033C38.291 58.0075 38.2568 58.1279 38.2568 58.2646H36.9629C36.9629 58.0465 37.015 57.8398 37.1191 57.6445C37.2233 57.446 37.3714 57.2702 37.5635 57.1172C37.7588 56.9609 37.9915 56.8389 38.2617 56.751C38.5352 56.6631 38.8411 56.6191 39.1797 56.6191C39.5801 56.6191 39.9365 56.6875 40.249 56.8242C40.5648 56.9577 40.8122 57.1595 40.9912 57.4297C41.1735 57.6999 41.2646 58.04 41.2646 58.4502V60.7549C41.2646 61.0186 41.2809 61.2448 41.3135 61.4336C41.3493 61.6191 41.4014 61.7803 41.4697 61.917V62H40.1562C40.0944 61.8665 40.0472 61.6973 40.0146 61.4922C39.9821 61.2839 39.9658 61.0788 39.9658 60.877ZM40.1465 58.7822L40.1562 59.5488H39.3408C39.139 59.5488 38.9616 59.57 38.8086 59.6123C38.6556 59.6514 38.5303 59.71 38.4326 59.7881C38.335 59.863 38.2617 59.9541 38.2129 60.0615C38.1641 60.1657 38.1396 60.2845 38.1396 60.418C38.1396 60.5482 38.1689 60.6654 38.2275 60.7695C38.2894 60.8737 38.3773 60.9567 38.4912 61.0186C38.6084 61.0771 38.7451 61.1064 38.9014 61.1064C39.1292 61.1064 39.3278 61.0609 39.4971 60.9697C39.6663 60.8753 39.7982 60.7614 39.8926 60.6279C39.987 60.4945 40.0374 60.3675 40.0439 60.2471L40.415 60.8037C40.3695 60.9372 40.3011 61.0788 40.21 61.2285C40.1188 61.3783 40.0016 61.5182 39.8584 61.6484C39.7152 61.7786 39.5426 61.8861 39.3408 61.9707C39.139 62.0553 38.9046 62.0977 38.6377 62.0977C38.2959 62.0977 37.9899 62.0293 37.7197 61.8926C37.4495 61.7559 37.2363 61.5687 37.0801 61.3311C36.9238 61.0934 36.8457 60.8232 36.8457 60.5205C36.8457 60.2406 36.8978 59.9932 37.002 59.7783C37.1061 59.5635 37.2607 59.3828 37.4658 59.2363C37.6709 59.0866 37.9248 58.9743 38.2275 58.8994C38.5335 58.8213 38.8835 58.7822 39.2773 58.7822H40.1465ZM44.9268 56.7168V57.6445H41.8994V56.7168H44.9268ZM42.71 55.418H44.0039V60.4766C44.0039 60.6328 44.0251 60.7533 44.0674 60.8379C44.1097 60.9225 44.1732 60.9795 44.2578 61.0088C44.3424 61.0381 44.4434 61.0527 44.5605 61.0527C44.6452 61.0527 44.7233 61.0479 44.7949 61.0381C44.8665 61.0283 44.9268 61.0186 44.9756 61.0088L44.9805 61.9756C44.873 62.0114 44.751 62.0407 44.6143 62.0635C44.4808 62.0863 44.3294 62.0977 44.1602 62.0977C43.8704 62.0977 43.6165 62.0488 43.3984 61.9512C43.1803 61.8503 43.0111 61.6891 42.8906 61.4678C42.7702 61.2432 42.71 60.9469 42.71 60.5791V55.418ZM47.0703 57.8008V62H45.7812V56.7168H46.9971L47.0703 57.8008ZM46.8799 59.168H46.4844C46.4844 58.8001 46.5283 58.4616 46.6162 58.1523C46.7074 57.8431 46.8408 57.5745 47.0166 57.3467C47.1924 57.1156 47.4089 56.9365 47.666 56.8096C47.9264 56.6826 48.2275 56.6191 48.5693 56.6191C48.807 56.6191 49.0251 56.6549 49.2236 56.7266C49.4222 56.7949 49.5931 56.904 49.7363 57.0537C49.8828 57.2002 49.9951 57.3923 50.0732 57.6299C50.1514 57.8643 50.1904 58.1458 50.1904 58.4746V62H48.9014V58.6064C48.9014 58.359 48.8656 58.1654 48.7939 58.0254C48.7256 57.8854 48.6263 57.7878 48.4961 57.7324C48.3659 57.6738 48.2096 57.6445 48.0273 57.6445C47.8255 57.6445 47.6514 57.6852 47.5049 57.7666C47.3617 57.8447 47.2428 57.9538 47.1484 58.0938C47.0573 58.2337 46.9889 58.3949 46.9434 58.5771C46.901 58.7594 46.8799 58.9564 46.8799 59.168ZM50.0928 58.9287L49.5605 59.0264C49.5638 58.6943 49.6094 58.3835 49.6973 58.0938C49.7852 57.8008 49.9137 57.5452 50.083 57.3271C50.2555 57.1058 50.4688 56.9333 50.7227 56.8096C50.9798 56.6826 51.276 56.6191 51.6113 56.6191C51.8717 56.6191 52.1061 56.6566 52.3145 56.7314C52.526 56.8031 52.7067 56.9186 52.8564 57.0781C53.0062 57.2344 53.1201 57.4378 53.1982 57.6885C53.2796 57.9391 53.3203 58.2451 53.3203 58.6064V62H52.0215V58.6016C52.0215 58.3444 51.9857 58.1475 51.9141 58.0107C51.8457 57.874 51.7464 57.7796 51.6162 57.7275C51.486 57.6722 51.333 57.6445 51.1572 57.6445C50.9782 57.6445 50.8219 57.6787 50.6885 57.7471C50.5583 57.8122 50.4476 57.9033 50.3564 58.0205C50.2686 58.1377 50.2018 58.2744 50.1562 58.4307C50.1139 58.5837 50.0928 58.7497 50.0928 58.9287ZM56.8506 62.0977C56.4502 62.0977 56.0905 62.0326 55.7715 61.9023C55.4525 61.7721 55.1807 61.5915 54.9561 61.3604C54.7347 61.126 54.5638 60.8542 54.4434 60.5449C54.3262 60.2324 54.2676 59.8971 54.2676 59.5391V59.3438C54.2676 58.9368 54.3262 58.5674 54.4434 58.2354C54.5605 57.9001 54.7266 57.612 54.9414 57.3711C55.1562 57.1302 55.4134 56.9447 55.7129 56.8145C56.0124 56.6842 56.3428 56.6191 56.7041 56.6191C57.0785 56.6191 57.4089 56.6826 57.6953 56.8096C57.9818 56.9333 58.221 57.109 58.4131 57.3369C58.6051 57.5648 58.75 57.8382 58.8477 58.1572C58.9453 58.473 58.9941 58.8229 58.9941 59.207V59.749H54.8535V58.8604H57.7246V58.7627C57.7181 58.5576 57.679 58.3704 57.6074 58.2012C57.5358 58.0286 57.4251 57.8919 57.2754 57.791C57.1257 57.6868 56.932 57.6348 56.6943 57.6348C56.5023 57.6348 56.3346 57.6771 56.1914 57.7617C56.0514 57.8431 55.9342 57.9603 55.8398 58.1133C55.7487 58.263 55.6803 58.4421 55.6348 58.6504C55.5892 58.8587 55.5664 59.0898 55.5664 59.3438V59.5391C55.5664 59.7604 55.5957 59.9655 55.6543 60.1543C55.7161 60.3431 55.8057 60.5075 55.9229 60.6475C56.0433 60.7842 56.1865 60.8916 56.3525 60.9697C56.5218 61.0446 56.7139 61.082 56.9287 61.082C57.1989 61.082 57.443 61.0299 57.6611 60.9258C57.8825 60.8184 58.0745 60.6605 58.2373 60.4521L58.8867 61.126C58.776 61.2887 58.6263 61.445 58.4375 61.5947C58.252 61.7445 58.0273 61.8665 57.7637 61.9609C57.5 62.0521 57.1956 62.0977 56.8506 62.0977ZM61.123 57.8447V62H59.834V56.7168H61.0449L61.123 57.8447ZM60.918 59.168H60.5371C60.5404 58.7839 60.5924 58.4355 60.6934 58.123C60.7943 57.8105 60.9359 57.542 61.1182 57.3174C61.3037 57.0928 61.5234 56.9202 61.7773 56.7998C62.0312 56.6794 62.3145 56.6191 62.627 56.6191C62.8809 56.6191 63.1104 56.6549 63.3154 56.7266C63.5205 56.7982 63.6963 56.9121 63.8428 57.0684C63.9925 57.2246 64.1064 57.4297 64.1846 57.6836C64.266 57.9342 64.3066 58.2435 64.3066 58.6113V62H63.0078V58.6016C63.0078 58.3607 62.972 58.1702 62.9004 58.0303C62.832 57.8903 62.7311 57.791 62.5977 57.7324C62.4674 57.6738 62.3063 57.6445 62.1143 57.6445C61.9157 57.6445 61.7415 57.6852 61.5918 57.7666C61.4453 57.8447 61.3216 57.9538 61.2207 58.0938C61.123 58.2337 61.0482 58.3949 60.9961 58.5771C60.944 58.7594 60.918 58.9564 60.918 59.168ZM67.9443 56.7168V57.6445H64.917V56.7168H67.9443ZM65.7275 55.418H67.0215V60.4766C67.0215 60.6328 67.0426 60.7533 67.085 60.8379C67.1273 60.9225 67.1908 60.9795 67.2754 61.0088C67.36 61.0381 67.4609 61.0527 67.5781 61.0527C67.6628 61.0527 67.7409 61.0479 67.8125 61.0381C67.8841 61.0283 67.9443 61.0186 67.9932 61.0088L67.998 61.9756C67.8906 62.0114 67.7686 62.0407 67.6318 62.0635C67.4984 62.0863 67.347 62.0977 67.1777 62.0977C66.888 62.0977 66.6341 62.0488 66.416 61.9512C66.1979 61.8503 66.0286 61.6891 65.9082 61.4678C65.7878 61.2432 65.7275 60.9469 65.7275 60.5791V55.418ZM27.8467 72.1543C27.8467 72.0176 27.8255 71.8955 27.7832 71.7881C27.7441 71.6774 27.6709 71.5781 27.5635 71.4902C27.4593 71.3991 27.3112 71.3112 27.1191 71.2266C26.9303 71.1387 26.6862 71.0475 26.3867 70.9531C26.0547 70.849 25.7454 70.7318 25.459 70.6016C25.1725 70.4714 24.9202 70.32 24.7021 70.1475C24.4873 69.9749 24.3197 69.7764 24.1992 69.5518C24.0788 69.3239 24.0186 69.0602 24.0186 68.7607C24.0186 68.4678 24.0804 68.2008 24.2041 67.96C24.3311 67.7191 24.5101 67.5124 24.7412 67.3398C24.9723 67.1641 25.2441 67.029 25.5566 66.9346C25.8724 66.8402 26.2207 66.793 26.6016 66.793C27.1289 66.793 27.5846 66.889 27.9688 67.0811C28.3561 67.2731 28.6556 67.5335 28.8672 67.8623C29.0788 68.1911 29.1846 68.5605 29.1846 68.9707H27.8467C27.8467 68.7493 27.7995 68.554 27.7051 68.3848C27.6139 68.2155 27.474 68.082 27.2852 67.9844C27.0996 67.8867 26.8652 67.8379 26.582 67.8379C26.3086 67.8379 26.0807 67.8786 25.8984 67.96C25.7194 68.0413 25.5843 68.152 25.4932 68.292C25.4053 68.432 25.3613 68.5882 25.3613 68.7607C25.3613 68.891 25.3923 69.0081 25.4541 69.1123C25.516 69.2132 25.6087 69.3092 25.7324 69.4004C25.8561 69.4883 26.0091 69.5713 26.1914 69.6494C26.377 69.7243 26.5918 69.7992 26.8359 69.874C27.2266 69.9912 27.5684 70.1214 27.8613 70.2646C28.1576 70.4079 28.4033 70.5706 28.5986 70.7529C28.7972 70.9352 28.9453 71.1403 29.043 71.3682C29.1439 71.596 29.1943 71.8548 29.1943 72.1445C29.1943 72.4505 29.1341 72.724 29.0137 72.9648C28.8932 73.2057 28.7207 73.4108 28.4961 73.5801C28.2715 73.7493 28.0013 73.8779 27.6855 73.9658C27.373 74.0537 27.0231 74.0977 26.6357 74.0977C26.2907 74.0977 25.9489 74.0521 25.6104 73.9609C25.2751 73.8665 24.9707 73.7266 24.6973 73.541C24.4238 73.3522 24.2057 73.1146 24.043 72.8281C23.8802 72.5384 23.7988 72.1999 23.7988 71.8125H25.1465C25.1465 72.0371 25.1823 72.2292 25.2539 72.3887C25.3288 72.5449 25.4329 72.6735 25.5664 72.7744C25.7031 72.8721 25.8626 72.9437 26.0449 72.9893C26.2272 73.0348 26.4242 73.0576 26.6357 73.0576C26.9092 73.0576 27.1338 73.0202 27.3096 72.9453C27.4886 72.8672 27.6221 72.7598 27.71 72.623C27.8011 72.4863 27.8467 72.3301 27.8467 72.1543ZM33.2764 72.7451V68.7168H34.5752V74H33.3545L33.2764 72.7451ZM33.4424 71.6514L33.8428 71.6416C33.8428 71.9964 33.8037 72.3236 33.7256 72.623C33.6475 72.9225 33.5254 73.1829 33.3594 73.4043C33.1966 73.6224 32.9899 73.7933 32.7393 73.917C32.4886 74.0374 32.1924 74.0977 31.8506 74.0977C31.5902 74.0977 31.3525 74.0618 31.1377 73.9902C30.9229 73.9154 30.7373 73.7998 30.5811 73.6436C30.4281 73.484 30.3092 73.2806 30.2246 73.0332C30.14 72.7826 30.0977 72.4814 30.0977 72.1299V68.7168H31.3867V72.1396C31.3867 72.3154 31.4062 72.4619 31.4453 72.5791C31.4876 72.6963 31.5446 72.7923 31.6162 72.8672C31.6911 72.9388 31.7773 72.9909 31.875 73.0234C31.9759 73.0527 32.0833 73.0674 32.1973 73.0674C32.5098 73.0674 32.7555 73.0055 32.9346 72.8818C33.1169 72.7549 33.2471 72.5856 33.3252 72.374C33.4033 72.1592 33.4424 71.9183 33.4424 71.6514ZM37.002 69.8008V74H35.7129V68.7168H36.9287L37.002 69.8008ZM36.8115 71.168H36.416C36.416 70.8001 36.46 70.4616 36.5479 70.1523C36.639 69.8431 36.7725 69.5745 36.9482 69.3467C37.124 69.1156 37.3405 68.9365 37.5977 68.8096C37.8581 68.6826 38.1592 68.6191 38.501 68.6191C38.7386 68.6191 38.9567 68.6549 39.1553 68.7266C39.3538 68.7949 39.5247 68.904 39.668 69.0537C39.8145 69.2002 39.9268 69.3923 40.0049 69.6299C40.083 69.8643 40.1221 70.1458 40.1221 70.4746V74H38.833V70.6064C38.833 70.359 38.7972 70.1654 38.7256 70.0254C38.6572 69.8854 38.5579 69.7878 38.4277 69.7324C38.2975 69.6738 38.1413 69.6445 37.959 69.6445C37.7572 69.6445 37.583 69.6852 37.4365 69.7666C37.2933 69.8447 37.1745 69.9538 37.0801 70.0938C36.9889 70.2337 36.9206 70.3949 36.875 70.5771C36.8327 70.7594 36.8115 70.9564 36.8115 71.168ZM40.0244 70.9287L39.4922 71.0264C39.4954 70.6943 39.541 70.3835 39.6289 70.0938C39.7168 69.8008 39.8454 69.5452 40.0146 69.3271C40.1872 69.1058 40.4004 68.9333 40.6543 68.8096C40.9115 68.6826 41.2077 68.6191 41.543 68.6191C41.8034 68.6191 42.0378 68.6566 42.2461 68.7314C42.4577 68.8031 42.6383 68.9186 42.7881 69.0781C42.9378 69.2344 43.0518 69.4378 43.1299 69.6885C43.2113 69.9391 43.252 70.2451 43.252 70.6064V74H41.9531V70.6016C41.9531 70.3444 41.9173 70.1475 41.8457 70.0107C41.7773 69.874 41.6781 69.7796 41.5479 69.7275C41.4176 69.6722 41.2646 69.6445 41.0889 69.6445C40.9098 69.6445 40.7536 69.6787 40.6201 69.7471C40.4899 69.8122 40.3792 69.9033 40.2881 70.0205C40.2002 70.1377 40.1335 70.2744 40.0879 70.4307C40.0456 70.5837 40.0244 70.7497 40.0244 70.9287ZM45.6934 69.8008V74H44.4043V68.7168H45.6201L45.6934 69.8008ZM45.5029 71.168H45.1074C45.1074 70.8001 45.1514 70.4616 45.2393 70.1523C45.3304 69.8431 45.4639 69.5745 45.6396 69.3467C45.8154 69.1156 46.0319 68.9365 46.2891 68.8096C46.5495 68.6826 46.8506 68.6191 47.1924 68.6191C47.43 68.6191 47.6481 68.6549 47.8467 68.7266C48.0452 68.7949 48.2161 68.904 48.3594 69.0537C48.5059 69.2002 48.6182 69.3923 48.6963 69.6299C48.7744 69.8643 48.8135 70.1458 48.8135 70.4746V74H47.5244V70.6064C47.5244 70.359 47.4886 70.1654 47.417 70.0254C47.3486 69.8854 47.2493 69.7878 47.1191 69.7324C46.9889 69.6738 46.8327 69.6445 46.6504 69.6445C46.4486 69.6445 46.2744 69.6852 46.1279 69.7666C45.9847 69.8447 45.8659 69.9538 45.7715 70.0938C45.6803 70.2337 45.612 70.3949 45.5664 70.5771C45.5241 70.7594 45.5029 70.9564 45.5029 71.168ZM48.7158 70.9287L48.1836 71.0264C48.1868 70.6943 48.2324 70.3835 48.3203 70.0938C48.4082 69.8008 48.5368 69.5452 48.7061 69.3271C48.8786 69.1058 49.0918 68.9333 49.3457 68.8096C49.6029 68.6826 49.8991 68.6191 50.2344 68.6191C50.4948 68.6191 50.7292 68.6566 50.9375 68.7314C51.1491 68.8031 51.3298 68.9186 51.4795 69.0781C51.6292 69.2344 51.7432 69.4378 51.8213 69.6885C51.9027 69.9391 51.9434 70.2451 51.9434 70.6064V74H50.6445V70.6016C50.6445 70.3444 50.6087 70.1475 50.5371 70.0107C50.4688 69.874 50.3695 69.7796 50.2393 69.7275C50.109 69.6722 49.9561 69.6445 49.7803 69.6445C49.6012 69.6445 49.445 69.6787 49.3115 69.7471C49.1813 69.8122 49.0706 69.9033 48.9795 70.0205C48.8916 70.1377 48.8249 70.2744 48.7793 70.4307C48.737 70.5837 48.7158 70.7497 48.7158 70.9287ZM56.0107 72.877V70.4404C56.0107 70.2614 55.9798 70.1068 55.918 69.9766C55.8561 69.8464 55.7617 69.7454 55.6348 69.6738C55.5078 69.6022 55.3467 69.5664 55.1514 69.5664C54.9788 69.5664 54.8275 69.5957 54.6973 69.6543C54.5703 69.7129 54.4727 69.7959 54.4043 69.9033C54.3359 70.0075 54.3018 70.1279 54.3018 70.2646H53.0078C53.0078 70.0465 53.0599 69.8398 53.1641 69.6445C53.2682 69.446 53.4163 69.2702 53.6084 69.1172C53.8037 68.9609 54.0365 68.8389 54.3066 68.751C54.5801 68.6631 54.8861 68.6191 55.2246 68.6191C55.625 68.6191 55.9814 68.6875 56.2939 68.8242C56.6097 68.9577 56.8571 69.1595 57.0361 69.4297C57.2184 69.6999 57.3096 70.04 57.3096 70.4502V72.7549C57.3096 73.0186 57.3258 73.2448 57.3584 73.4336C57.3942 73.6191 57.4463 73.7803 57.5146 73.917V74H56.2012C56.1393 73.8665 56.0921 73.6973 56.0596 73.4922C56.027 73.2839 56.0107 73.0788 56.0107 72.877ZM56.1914 70.7822L56.2012 71.5488H55.3857C55.1839 71.5488 55.0065 71.57 54.8535 71.6123C54.7005 71.6514 54.5752 71.71 54.4775 71.7881C54.3799 71.863 54.3066 71.9541 54.2578 72.0615C54.209 72.1657 54.1846 72.2845 54.1846 72.418C54.1846 72.5482 54.2139 72.6654 54.2725 72.7695C54.3343 72.8737 54.4222 72.9567 54.5361 73.0186C54.6533 73.0771 54.79 73.1064 54.9463 73.1064C55.1742 73.1064 55.3727 73.0609 55.542 72.9697C55.7113 72.8753 55.8431 72.7614 55.9375 72.6279C56.0319 72.4945 56.0824 72.3675 56.0889 72.2471L56.46 72.8037C56.4144 72.9372 56.346 73.0788 56.2549 73.2285C56.1637 73.3783 56.0465 73.5182 55.9033 73.6484C55.7601 73.7786 55.5876 73.8861 55.3857 73.9707C55.1839 74.0553 54.9495 74.0977 54.6826 74.0977C54.3408 74.0977 54.0348 74.0293 53.7646 73.8926C53.4945 73.7559 53.2812 73.5687 53.125 73.3311C52.9688 73.0934 52.8906 72.8232 52.8906 72.5205C52.8906 72.2406 52.9427 71.9932 53.0469 71.7783C53.151 71.5635 53.3057 71.3828 53.5107 71.2363C53.7158 71.0866 53.9697 70.9743 54.2725 70.8994C54.5785 70.8213 54.9284 70.7822 55.3223 70.7822H56.1914ZM59.7607 69.7959V74H58.4717V68.7168H59.6924L59.7607 69.7959ZM61.3672 68.6826L61.3477 69.8838C61.276 69.8708 61.1947 69.861 61.1035 69.8545C61.0156 69.848 60.9326 69.8447 60.8545 69.8447C60.6559 69.8447 60.4818 69.8724 60.332 69.9277C60.1823 69.9798 60.057 70.0563 59.9561 70.1572C59.8584 70.2581 59.7835 70.3818 59.7314 70.5283C59.6794 70.6715 59.6501 70.8343 59.6436 71.0166L59.3652 70.9824C59.3652 70.6471 59.3994 70.3363 59.4678 70.0498C59.5361 69.7633 59.6354 69.5127 59.7656 69.2979C59.8958 69.083 60.0586 68.917 60.2539 68.7998C60.4525 68.6794 60.6803 68.6191 60.9375 68.6191C61.0091 68.6191 61.0856 68.6257 61.167 68.6387C61.2516 68.6484 61.3184 68.6631 61.3672 68.6826ZM63.7109 73.4141L65.127 68.7168H66.5088L64.3896 74.8008C64.3408 74.931 64.2773 75.0726 64.1992 75.2256C64.1243 75.3786 64.0234 75.5234 63.8965 75.6602C63.7695 75.8001 63.61 75.9141 63.418 76.002C63.2292 76.0898 62.9997 76.1338 62.7295 76.1338C62.6123 76.1338 62.5081 76.1257 62.417 76.1094C62.3258 76.0931 62.2298 76.0719 62.1289 76.0459V75.0791C62.1615 75.0824 62.1989 75.084 62.2412 75.084C62.2868 75.0872 62.3258 75.0889 62.3584 75.0889C62.5472 75.0889 62.7035 75.0661 62.8271 75.0205C62.9508 74.9782 63.0501 74.9082 63.125 74.8105C63.2031 74.7161 63.2682 74.5924 63.3203 74.4395L63.7109 73.4141ZM63.0127 68.7168L64.209 72.6084L64.4189 73.9707L63.5303 74.1318L61.6211 68.7168H63.0127Z" fill="white"/>
<defs>
<filter id="filter0_d_3455_9916" x="0.730469" y="0" width="88.5234" height="88.5234" filterUnits="userSpaceOnUse" color-interpolation-filters="sRGB">
<feFlood flood-opacity="0" result="BackgroundImageFix"/>
<feColorMatrix in="SourceAlpha" type="matrix" values="0 0 0 0 0 0 0 0 0 0 0 0 0 0 0 0 0 0 127 0" result="hardAlpha"/>
<feOffset dy="4"/>
<feGaussianBlur stdDeviation="2"/>
<feComposite in2="hardAlpha" operator="out"/>
<feColorMatrix type="matrix" values="0 0 0 0 0 0 0 0 0 0 0 0 0 0 0 0 0 0 0.25 0"/>
<feBlend mode="normal" in2="BackgroundImageFix" result="effect1_dropShadow_3455_9916"/>
<feBlend mode="normal" in="SourceGraphic" in2="effect1_dropShadow_3455_9916" result="shape"/>
</filter>
</defs>
</svg>
