<svg width="20" height="12" viewBox="0 0 20 12" fill="none" xmlns="http://www.w3.org/2000/svg">
<path d="M18.3749 0.336234L14.3189 2.95223V2.16023C14.3189 1.10423 13.4549 0.240234 12.3989 0.240234H2.79891C1.74291 0.240234 0.878906 1.10423 0.878906 2.16023V9.84023C0.878906 10.8962 1.74291 11.7602 2.79891 11.7602H12.3989C13.4549 11.7602 14.3189 10.8962 14.3189 9.84023V9.04823L18.3749 11.6642C18.8309 11.9042 19.1189 11.4962 19.1189 11.2562V0.720234C19.1189 0.480234 18.8549 0.0482343 18.3749 0.336234ZM13.3589 9.84023C13.3589 10.3682 12.9269 10.8002 12.3989 10.8002H2.79891C2.27091 10.8002 1.83891 10.3682 1.83891 9.84023V2.16023C1.83891 1.63223 2.27091 1.20023 2.79891 1.20023H12.3989C12.9269 1.20023 13.3589 1.63223 13.3589 2.16023V9.84023ZM18.1589 10.3922L14.3189 7.92023V4.08023L18.1589 1.60823V10.3922Z" fill="black"/>
</svg>
