<svg width="24" height="24" viewBox="0 0 24 24" fill="none" xmlns="http://www.w3.org/2000/svg">
<g clip-path="url(#clip0_3539_10307)">
<path d="M20.3749 6.33623L16.3189 8.95223V8.16023C16.3189 7.10423 15.4549 6.24023 14.3989 6.24023H4.79891C3.74291 6.24023 2.87891 7.10423 2.87891 8.16023V15.8402C2.87891 16.8962 3.74291 17.7602 4.79891 17.7602H14.3989C15.4549 17.7602 16.3189 16.8962 16.3189 15.8402V15.0482L20.3749 17.6642C20.8309 17.9042 21.1189 17.4962 21.1189 17.2562V6.72023C21.1189 6.48023 20.8549 6.04823 20.3749 6.33623ZM15.3589 15.8402C15.3589 16.3682 14.9269 16.8002 14.3989 16.8002H4.79891C4.27091 16.8002 3.83891 16.3682 3.83891 15.8402V8.16023C3.83891 7.63223 4.27091 7.20023 4.79891 7.20023H14.3989C14.9269 7.20023 15.3589 7.63223 15.3589 8.16023V15.8402ZM20.1589 16.3922L16.3189 13.9202V10.0802L20.1589 7.60823V16.3922Z" fill="black"/>
<path d="M293.76 -156V248.16H-134.4V-156H293.76ZM295.68 -157.92H-136.32V250.08H295.68V-157.92Z" fill="#0000FF"/>
</g>
<defs>
<clipPath id="clip0_3539_10307">
<rect width="24" height="24" fill="white"/>
</clipPath>
</defs>
</svg>
